<svg width="25" height="25" viewBox="0 0 25 25" fill="none" xmlns="http://www.w3.org/2000/svg">
<path d="M12.1745 8.96197V4.63397L16.8815 9.34097L20.6555 13.115L16.8145 16.316L12.1745 20.183V15.948C4.02852 15.334 1.17452 20.048 1.17452 20.048C1.17452 17.111 1.41652 14.063 3.72552 11.755C6.40952 9.06997 10.2965 8.87997 12.1745 8.96197Z" fill="#654EA4"/>
<path d="M12.1745 8.96197V4.63397L16.8815 9.34097L20.6555 13.115L16.8145 16.316L12.1745 20.183V15.948C4.02852 15.334 1.17452 20.048 1.17452 20.048C1.17452 17.111 1.41652 14.063 3.72552 11.755C6.40952 9.06997 10.2965 8.87997 12.1745 8.96197Z" fill="url(#paint0_linear_40_143)" fill-opacity="0.2"/>
<path d="M12.1745 8.96197V4.63397L16.8815 9.34097L20.6555 13.115L16.8145 16.316L12.1745 20.183V15.948C4.02852 15.334 1.17452 20.048 1.17452 20.048C1.17452 17.111 1.41652 14.063 3.72552 11.755C6.40952 9.06997 10.2965 8.87997 12.1745 8.96197Z" fill="url(#paint1_linear_40_143)"/>
<path d="M12.1745 8.96197V4.63397L16.8815 9.34097L20.6555 13.115L16.8145 16.316L12.1745 20.183V15.948C4.02852 15.334 1.17452 20.048 1.17452 20.048C1.17452 17.111 1.41652 14.063 3.72552 11.755C6.40952 9.06997 10.2965 8.87997 12.1745 8.96197Z" fill="url(#paint2_linear_40_143)" fill-opacity="0.2"/>
<path d="M12.1745 8.96197V4.63397L16.8815 9.34097L20.6555 13.115L16.8145 16.316L12.1745 20.183V15.948C4.02852 15.334 1.17452 20.048 1.17452 20.048C1.17452 17.111 1.41652 14.063 3.72552 11.755C6.40952 9.06997 10.2965 8.87997 12.1745 8.96197Z" fill="url(#paint3_linear_40_143)" fill-opacity="0.22"/>
<path d="M12.1745 8.96197V4.63397L16.8815 9.34097L20.6555 13.115L16.8145 16.316L12.1745 20.183V15.948C4.02852 15.334 1.17452 20.048 1.17452 20.048C1.17452 17.111 1.41652 14.063 3.72552 11.755C6.40952 9.06997 10.2965 8.87997 12.1745 8.96197Z" fill="url(#paint4_linear_40_143)" fill-opacity="0.61"/>
<path d="M12.1745 8.96197V4.63397L16.8815 9.34097L20.6555 13.115L16.8145 16.316L12.1745 20.183V15.948C4.02852 15.334 1.17452 20.048 1.17452 20.048C1.17452 17.111 1.41652 14.063 3.72552 11.755C6.40952 9.06997 10.2965 8.87997 12.1745 8.96197Z" fill="url(#paint5_linear_40_143)" fill-opacity="0.2"/>
<defs>
<linearGradient id="paint0_linear_40_143" x1="10.915" y1="4.63397" x2="10.915" y2="20.183" gradientUnits="userSpaceOnUse">
<stop/>
<stop offset="1" stop-opacity="0"/>
</linearGradient>
<linearGradient id="paint1_linear_40_143" x1="10.915" y1="4.63397" x2="8.67477" y2="24.1606" gradientUnits="userSpaceOnUse">
<stop stop-color="#201933"/>
<stop offset="1" stop-color="#201933" stop-opacity="0"/>
</linearGradient>
<linearGradient id="paint2_linear_40_143" x1="10.915" y1="22.154" x2="10.915" y2="2.22497" gradientUnits="userSpaceOnUse">
<stop stop-color="#242424"/>
<stop offset="1" stop-color="#242424" stop-opacity="0"/>
</linearGradient>
<linearGradient id="paint3_linear_40_143" x1="10.915" y1="4.63397" x2="10.915" y2="20.183" gradientUnits="userSpaceOnUse">
<stop stop-color="#034D64"/>
<stop offset="1" stop-color="#0085AF" stop-opacity="0"/>
</linearGradient>
<linearGradient id="paint4_linear_40_143" x1="10.915" y1="4.63397" x2="10.915" y2="20.183" gradientUnits="userSpaceOnUse">
<stop stop-color="white"/>
<stop offset="1" stop-color="white" stop-opacity="0"/>
</linearGradient>
<linearGradient id="paint5_linear_40_143" x1="20.6555" y1="26.534" x2="-4.24331" y2="20.3305" gradientUnits="userSpaceOnUse">
<stop stop-color="#D8D8D8"/>
<stop offset="1" stop-color="#D8D8D8" stop-opacity="0"/>
</linearGradient>
</defs>
</svg>
