<svg width="31" height="31" viewBox="0 0 31 31" fill="none" xmlns="http://www.w3.org/2000/svg">
<path d="M28.0813 14.1055C28.0813 12.464 27.7579 10.8386 27.1298 9.32184C26.5015 7.80542 25.5809 6.42724 24.4202 5.26667C23.2594 4.10577 21.8814 3.18506 20.3648 2.55701C18.8483 1.92864 17.2228 1.60547 15.5813 1.60547V4.10547C16.8945 4.10547 18.1949 4.36426 19.4082 4.86658C20.6214 5.36921 21.7238 6.10589 22.6524 7.03454C23.5809 7.96289 24.3175 9.06549 24.82 10.2786C25.3227 11.4919 25.5813 12.7923 25.5813 14.1055H28.0813Z" fill="#654EA4"/>
<path d="M28.0813 14.1055C28.0813 12.464 27.7579 10.8386 27.1298 9.32184C26.5015 7.80542 25.5809 6.42724 24.4202 5.26667C23.2594 4.10577 21.8814 3.18506 20.3648 2.55701C18.8483 1.92864 17.2228 1.60547 15.5813 1.60547V4.10547C16.8945 4.10547 18.1949 4.36426 19.4082 4.86658C20.6214 5.36921 21.7238 6.10589 22.6524 7.03454C23.5809 7.96289 24.3175 9.06549 24.82 10.2786C25.3227 11.4919 25.5813 12.7923 25.5813 14.1055H28.0813Z" fill="url(#paint0_linear_36_73)" fill-opacity="0.2"/>
<path d="M28.0813 14.1055C28.0813 12.464 27.7579 10.8386 27.1298 9.32184C26.5015 7.80542 25.5809 6.42724 24.4202 5.26667C23.2594 4.10577 21.8814 3.18506 20.3648 2.55701C18.8483 1.92864 17.2228 1.60547 15.5813 1.60547V4.10547C16.8945 4.10547 18.1949 4.36426 19.4082 4.86658C20.6214 5.36921 21.7238 6.10589 22.6524 7.03454C23.5809 7.96289 24.3175 9.06549 24.82 10.2786C25.3227 11.4919 25.5813 12.7923 25.5813 14.1055H28.0813Z" fill="url(#paint1_linear_36_73)"/>
<path d="M28.0813 14.1055C28.0813 12.464 27.7579 10.8386 27.1298 9.32184C26.5015 7.80542 25.5809 6.42724 24.4202 5.26667C23.2594 4.10577 21.8814 3.18506 20.3648 2.55701C18.8483 1.92864 17.2228 1.60547 15.5813 1.60547V4.10547C16.8945 4.10547 18.1949 4.36426 19.4082 4.86658C20.6214 5.36921 21.7238 6.10589 22.6524 7.03454C23.5809 7.96289 24.3175 9.06549 24.82 10.2786C25.3227 11.4919 25.5813 12.7923 25.5813 14.1055H28.0813Z" fill="url(#paint2_linear_36_73)" fill-opacity="0.2"/>
<path d="M28.0813 14.1055C28.0813 12.464 27.7579 10.8386 27.1298 9.32184C26.5015 7.80542 25.5809 6.42724 24.4202 5.26667C23.2594 4.10577 21.8814 3.18506 20.3648 2.55701C18.8483 1.92864 17.2228 1.60547 15.5813 1.60547V4.10547C16.8945 4.10547 18.1949 4.36426 19.4082 4.86658C20.6214 5.36921 21.7238 6.10589 22.6524 7.03454C23.5809 7.96289 24.3175 9.06549 24.82 10.2786C25.3227 11.4919 25.5813 12.7923 25.5813 14.1055H28.0813Z" fill="url(#paint3_linear_36_73)" fill-opacity="0.22"/>
<path d="M28.0813 14.1055C28.0813 12.464 27.7579 10.8386 27.1298 9.32184C26.5015 7.80542 25.5809 6.42724 24.4202 5.26667C23.2594 4.10577 21.8814 3.18506 20.3648 2.55701C18.8483 1.92864 17.2228 1.60547 15.5813 1.60547V4.10547C16.8945 4.10547 18.1949 4.36426 19.4082 4.86658C20.6214 5.36921 21.7238 6.10589 22.6524 7.03454C23.5809 7.96289 24.3175 9.06549 24.82 10.2786C25.3227 11.4919 25.5813 12.7923 25.5813 14.1055H28.0813Z" fill="url(#paint4_linear_36_73)" fill-opacity="0.61"/>
<path d="M28.0813 14.1055C28.0813 12.464 27.7579 10.8386 27.1298 9.32184C26.5015 7.80542 25.5809 6.42724 24.4202 5.26667C23.2594 4.10577 21.8814 3.18506 20.3648 2.55701C18.8483 1.92864 17.2228 1.60547 15.5813 1.60547V4.10547C16.8945 4.10547 18.1949 4.36426 19.4082 4.86658C20.6214 5.36921 21.7238 6.10589 22.6524 7.03454C23.5809 7.96289 24.3175 9.06549 24.82 10.2786C25.3227 11.4919 25.5813 12.7923 25.5813 14.1055H28.0813Z" fill="url(#paint5_linear_36_73)" fill-opacity="0.2"/>
<path d="M3.08116 12.4626V6.21265C3.08116 5.52233 3.64081 4.96265 4.33116 4.96265H10.5812C11.2715 4.96265 11.8312 5.52233 11.8312 6.21265V11.2126C11.8312 11.903 11.2715 12.4626 10.5812 12.4626H8.08116C8.08116 17.9854 12.5583 22.4626 18.0812 22.4626V19.9626C18.0812 19.2724 18.6408 18.7126 19.3312 18.7126H24.3312C25.0215 18.7126 25.5812 19.2724 25.5812 19.9626V26.2126C25.5812 26.9029 25.0215 27.4626 24.3312 27.4626H18.0812C9.7969 27.4626 3.08116 20.7469 3.08116 12.4626Z" fill="#654EA4"/>
<path d="M3.08116 12.4626V6.21265C3.08116 5.52233 3.64081 4.96265 4.33116 4.96265H10.5812C11.2715 4.96265 11.8312 5.52233 11.8312 6.21265V11.2126C11.8312 11.903 11.2715 12.4626 10.5812 12.4626H8.08116C8.08116 17.9854 12.5583 22.4626 18.0812 22.4626V19.9626C18.0812 19.2724 18.6408 18.7126 19.3312 18.7126H24.3312C25.0215 18.7126 25.5812 19.2724 25.5812 19.9626V26.2126C25.5812 26.9029 25.0215 27.4626 24.3312 27.4626H18.0812C9.7969 27.4626 3.08116 20.7469 3.08116 12.4626Z" fill="url(#paint6_linear_36_73)" fill-opacity="0.2"/>
<path d="M3.08116 12.4626V6.21265C3.08116 5.52233 3.64081 4.96265 4.33116 4.96265H10.5812C11.2715 4.96265 11.8312 5.52233 11.8312 6.21265V11.2126C11.8312 11.903 11.2715 12.4626 10.5812 12.4626H8.08116C8.08116 17.9854 12.5583 22.4626 18.0812 22.4626V19.9626C18.0812 19.2724 18.6408 18.7126 19.3312 18.7126H24.3312C25.0215 18.7126 25.5812 19.2724 25.5812 19.9626V26.2126C25.5812 26.9029 25.0215 27.4626 24.3312 27.4626H18.0812C9.7969 27.4626 3.08116 20.7469 3.08116 12.4626Z" fill="url(#paint7_linear_36_73)"/>
<path d="M3.08116 12.4626V6.21265C3.08116 5.52233 3.64081 4.96265 4.33116 4.96265H10.5812C11.2715 4.96265 11.8312 5.52233 11.8312 6.21265V11.2126C11.8312 11.903 11.2715 12.4626 10.5812 12.4626H8.08116C8.08116 17.9854 12.5583 22.4626 18.0812 22.4626V19.9626C18.0812 19.2724 18.6408 18.7126 19.3312 18.7126H24.3312C25.0215 18.7126 25.5812 19.2724 25.5812 19.9626V26.2126C25.5812 26.9029 25.0215 27.4626 24.3312 27.4626H18.0812C9.7969 27.4626 3.08116 20.7469 3.08116 12.4626Z" fill="url(#paint8_linear_36_73)" fill-opacity="0.2"/>
<path d="M3.08116 12.4626V6.21265C3.08116 5.52233 3.64081 4.96265 4.33116 4.96265H10.5812C11.2715 4.96265 11.8312 5.52233 11.8312 6.21265V11.2126C11.8312 11.903 11.2715 12.4626 10.5812 12.4626H8.08116C8.08116 17.9854 12.5583 22.4626 18.0812 22.4626V19.9626C18.0812 19.2724 18.6408 18.7126 19.3312 18.7126H24.3312C25.0215 18.7126 25.5812 19.2724 25.5812 19.9626V26.2126C25.5812 26.9029 25.0215 27.4626 24.3312 27.4626H18.0812C9.7969 27.4626 3.08116 20.7469 3.08116 12.4626Z" fill="url(#paint9_linear_36_73)" fill-opacity="0.22"/>
<path d="M3.08116 12.4626V6.21265C3.08116 5.52233 3.64081 4.96265 4.33116 4.96265H10.5812C11.2715 4.96265 11.8312 5.52233 11.8312 6.21265V11.2126C11.8312 11.903 11.2715 12.4626 10.5812 12.4626H8.08116C8.08116 17.9854 12.5583 22.4626 18.0812 22.4626V19.9626C18.0812 19.2724 18.6408 18.7126 19.3312 18.7126H24.3312C25.0215 18.7126 25.5812 19.2724 25.5812 19.9626V26.2126C25.5812 26.9029 25.0215 27.4626 24.3312 27.4626H18.0812C9.7969 27.4626 3.08116 20.7469 3.08116 12.4626Z" fill="url(#paint10_linear_36_73)" fill-opacity="0.61"/>
<path d="M3.08116 12.4626V6.21265C3.08116 5.52233 3.64081 4.96265 4.33116 4.96265H10.5812C11.2715 4.96265 11.8312 5.52233 11.8312 6.21265V11.2126C11.8312 11.903 11.2715 12.4626 10.5812 12.4626H8.08116C8.08116 17.9854 12.5583 22.4626 18.0812 22.4626V19.9626C18.0812 19.2724 18.6408 18.7126 19.3312 18.7126H24.3312C25.0215 18.7126 25.5812 19.2724 25.5812 19.9626V26.2126C25.5812 26.9029 25.0215 27.4626 24.3312 27.4626H18.0812C9.7969 27.4626 3.08116 20.7469 3.08116 12.4626Z" fill="url(#paint11_linear_36_73)" fill-opacity="0.2"/>
<path d="M22.5104 12.0925C22.8873 13.0025 23.0813 13.9779 23.0813 14.9626H20.8313C20.8313 14.2733 20.6955 13.5905 20.4317 12.9536C20.1678 12.3165 19.7812 11.7379 19.2935 11.2505C18.806 10.7628 18.2274 10.3762 17.5904 10.1122C16.9534 9.84851 16.2707 9.71271 15.5813 9.71271V7.46265C16.5662 7.46265 17.5414 7.65673 18.4514 8.03363C19.3613 8.41052 20.1882 8.9629 20.8845 9.6593C21.581 10.3557 22.1335 11.1824 22.5104 12.0925Z" fill="#654EA4"/>
<path d="M22.5104 12.0925C22.8873 13.0025 23.0813 13.9779 23.0813 14.9626H20.8313C20.8313 14.2733 20.6955 13.5905 20.4317 12.9536C20.1678 12.3165 19.7812 11.7379 19.2935 11.2505C18.806 10.7628 18.2274 10.3762 17.5904 10.1122C16.9534 9.84851 16.2707 9.71271 15.5813 9.71271V7.46265C16.5662 7.46265 17.5414 7.65673 18.4514 8.03363C19.3613 8.41052 20.1882 8.9629 20.8845 9.6593C21.581 10.3557 22.1335 11.1824 22.5104 12.0925Z" fill="url(#paint12_linear_36_73)" fill-opacity="0.2"/>
<path d="M22.5104 12.0925C22.8873 13.0025 23.0813 13.9779 23.0813 14.9626H20.8313C20.8313 14.2733 20.6955 13.5905 20.4317 12.9536C20.1678 12.3165 19.7812 11.7379 19.2935 11.2505C18.806 10.7628 18.2274 10.3762 17.5904 10.1122C16.9534 9.84851 16.2707 9.71271 15.5813 9.71271V7.46265C16.5662 7.46265 17.5414 7.65673 18.4514 8.03363C19.3613 8.41052 20.1882 8.9629 20.8845 9.6593C21.581 10.3557 22.1335 11.1824 22.5104 12.0925Z" fill="url(#paint13_linear_36_73)"/>
<path d="M22.5104 12.0925C22.8873 13.0025 23.0813 13.9779 23.0813 14.9626H20.8313C20.8313 14.2733 20.6955 13.5905 20.4317 12.9536C20.1678 12.3165 19.7812 11.7379 19.2935 11.2505C18.806 10.7628 18.2274 10.3762 17.5904 10.1122C16.9534 9.84851 16.2707 9.71271 15.5813 9.71271V7.46265C16.5662 7.46265 17.5414 7.65673 18.4514 8.03363C19.3613 8.41052 20.1882 8.9629 20.8845 9.6593C21.581 10.3557 22.1335 11.1824 22.5104 12.0925Z" fill="url(#paint14_linear_36_73)" fill-opacity="0.2"/>
<path d="M22.5104 12.0925C22.8873 13.0025 23.0813 13.9779 23.0813 14.9626H20.8313C20.8313 14.2733 20.6955 13.5905 20.4317 12.9536C20.1678 12.3165 19.7812 11.7379 19.2935 11.2505C18.806 10.7628 18.2274 10.3762 17.5904 10.1122C16.9534 9.84851 16.2707 9.71271 15.5813 9.71271V7.46265C16.5662 7.46265 17.5414 7.65673 18.4514 8.03363C19.3613 8.41052 20.1882 8.9629 20.8845 9.6593C21.581 10.3557 22.1335 11.1824 22.5104 12.0925Z" fill="url(#paint15_linear_36_73)" fill-opacity="0.22"/>
<path d="M22.5104 12.0925C22.8873 13.0025 23.0813 13.9779 23.0813 14.9626H20.8313C20.8313 14.2733 20.6955 13.5905 20.4317 12.9536C20.1678 12.3165 19.7812 11.7379 19.2935 11.2505C18.806 10.7628 18.2274 10.3762 17.5904 10.1122C16.9534 9.84851 16.2707 9.71271 15.5813 9.71271V7.46265C16.5662 7.46265 17.5414 7.65673 18.4514 8.03363C19.3613 8.41052 20.1882 8.9629 20.8845 9.6593C21.581 10.3557 22.1335 11.1824 22.5104 12.0925Z" fill="url(#paint16_linear_36_73)" fill-opacity="0.61"/>
<path d="M22.5104 12.0925C22.8873 13.0025 23.0813 13.9779 23.0813 14.9626H20.8313C20.8313 14.2733 20.6955 13.5905 20.4317 12.9536C20.1678 12.3165 19.7812 11.7379 19.2935 11.2505C18.806 10.7628 18.2274 10.3762 17.5904 10.1122C16.9534 9.84851 16.2707 9.71271 15.5813 9.71271V7.46265C16.5662 7.46265 17.5414 7.65673 18.4514 8.03363C19.3613 8.41052 20.1882 8.9629 20.8845 9.6593C21.581 10.3557 22.1335 11.1824 22.5104 12.0925Z" fill="url(#paint17_linear_36_73)" fill-opacity="0.2"/>
<defs>
<linearGradient id="paint0_linear_36_73" x1="21.8313" y1="1.60547" x2="21.8313" y2="14.1055" gradientUnits="userSpaceOnUse">
<stop/>
<stop offset="1" stop-opacity="0"/>
</linearGradient>
<linearGradient id="paint1_linear_36_73" x1="21.8313" y1="1.60547" x2="24.0711" y2="17.1878" gradientUnits="userSpaceOnUse">
<stop stop-color="#201933"/>
<stop offset="1" stop-color="#201933" stop-opacity="0"/>
</linearGradient>
<linearGradient id="paint2_linear_36_73" x1="21.8313" y1="15.69" x2="21.8313" y2="-0.331151" gradientUnits="userSpaceOnUse">
<stop stop-color="#242424"/>
<stop offset="1" stop-color="#242424" stop-opacity="0"/>
</linearGradient>
<linearGradient id="paint3_linear_36_73" x1="21.8313" y1="1.60547" x2="21.8313" y2="14.1055" gradientUnits="userSpaceOnUse">
<stop stop-color="#034D64"/>
<stop offset="1" stop-color="#0085AF" stop-opacity="0"/>
</linearGradient>
<linearGradient id="paint4_linear_36_73" x1="21.8313" y1="1.60547" x2="21.8313" y2="14.1055" gradientUnits="userSpaceOnUse">
<stop stop-color="white"/>
<stop offset="1" stop-color="white" stop-opacity="0"/>
</linearGradient>
<linearGradient id="paint5_linear_36_73" x1="15.5813" y1="19.2111" x2="31.9039" y2="15.9652" gradientUnits="userSpaceOnUse">
<stop stop-color="#D8D8D8"/>
<stop offset="1" stop-color="#D8D8D8" stop-opacity="0"/>
</linearGradient>
<linearGradient id="paint6_linear_36_73" x1="14.3312" y1="4.96265" x2="14.3312" y2="27.4626" gradientUnits="userSpaceOnUse">
<stop/>
<stop offset="1" stop-opacity="0"/>
</linearGradient>
<linearGradient id="paint7_linear_36_73" x1="14.3312" y1="4.96265" x2="18.3628" y2="33.0108" gradientUnits="userSpaceOnUse">
<stop stop-color="#201933"/>
<stop offset="1" stop-color="#201933" stop-opacity="0"/>
</linearGradient>
<linearGradient id="paint8_linear_36_73" x1="14.3312" y1="30.3148" x2="14.3312" y2="1.47673" gradientUnits="userSpaceOnUse">
<stop stop-color="#242424"/>
<stop offset="1" stop-color="#242424" stop-opacity="0"/>
</linearGradient>
<linearGradient id="paint9_linear_36_73" x1="14.3312" y1="4.96265" x2="14.3312" y2="27.4626" gradientUnits="userSpaceOnUse">
<stop stop-color="#034D64"/>
<stop offset="1" stop-color="#0085AF" stop-opacity="0"/>
</linearGradient>
<linearGradient id="paint10_linear_36_73" x1="14.3312" y1="4.96265" x2="14.3312" y2="27.4626" gradientUnits="userSpaceOnUse">
<stop stop-color="white"/>
<stop offset="1" stop-color="white" stop-opacity="0"/>
</linearGradient>
<linearGradient id="paint11_linear_36_73" x1="3.08116" y1="36.6528" x2="32.4618" y2="30.8101" gradientUnits="userSpaceOnUse">
<stop stop-color="#D8D8D8"/>
<stop offset="1" stop-color="#D8D8D8" stop-opacity="0"/>
</linearGradient>
<linearGradient id="paint12_linear_36_73" x1="19.3313" y1="7.46265" x2="19.3313" y2="14.9626" gradientUnits="userSpaceOnUse">
<stop/>
<stop offset="1" stop-opacity="0"/>
</linearGradient>
<linearGradient id="paint13_linear_36_73" x1="19.3313" y1="7.46265" x2="20.6752" y2="16.812" gradientUnits="userSpaceOnUse">
<stop stop-color="#201933"/>
<stop offset="1" stop-color="#201933" stop-opacity="0"/>
</linearGradient>
<linearGradient id="paint14_linear_36_73" x1="19.3313" y1="15.9134" x2="19.3313" y2="6.30067" gradientUnits="userSpaceOnUse">
<stop stop-color="#242424"/>
<stop offset="1" stop-color="#242424" stop-opacity="0"/>
</linearGradient>
<linearGradient id="paint15_linear_36_73" x1="19.3313" y1="7.46265" x2="19.3313" y2="14.9626" gradientUnits="userSpaceOnUse">
<stop stop-color="#034D64"/>
<stop offset="1" stop-color="#0085AF" stop-opacity="0"/>
</linearGradient>
<linearGradient id="paint16_linear_36_73" x1="19.3313" y1="7.46265" x2="19.3313" y2="14.9626" gradientUnits="userSpaceOnUse">
<stop stop-color="white"/>
<stop offset="1" stop-color="white" stop-opacity="0"/>
</linearGradient>
<linearGradient id="paint17_linear_36_73" x1="15.5813" y1="18.026" x2="25.3749" y2="16.0785" gradientUnits="userSpaceOnUse">
<stop stop-color="#D8D8D8"/>
<stop offset="1" stop-color="#D8D8D8" stop-opacity="0"/>
</linearGradient>
</defs>
</svg>
