<svg width="96" height="100" viewBox="0 0 96 100" fill="none" xmlns="http://www.w3.org/2000/svg">
<path fill-rule="evenodd" clip-rule="evenodd" d="M70.248 13.5916H25.9146V0.325684H19.5813V13.5916H10.0813C4.83459 13.5916 0.581299 18.046 0.581299 23.541V76.6045C0.581299 82.0992 4.8346 86.5539 10.0813 86.5539H86.0813C91.3278 86.5539 95.5813 82.0992 95.5813 76.6045V23.541C95.5813 18.046 91.3278 13.5916 86.0813 13.5916H76.5813V0.325684H70.248V13.5916ZM19.5813 40.1233C19.5813 32.7968 25.2524 26.8574 32.248 26.8574C39.2436 26.8574 44.9146 32.7968 44.9146 40.1233C44.9146 47.4499 39.2436 53.3892 32.248 53.3892C25.2524 53.3892 19.5813 47.4499 19.5813 40.1233ZM15.6671 70.7542C18.8073 64.177 25.2263 60.0221 32.248 60.0221C39.2697 60.0221 45.6887 64.177 48.8288 70.7542L50.9136 75.1214C51.4045 76.1495 51.352 77.3706 50.7751 78.3483C50.198 79.326 49.1788 79.921 48.0813 79.921H16.4146C15.3171 79.921 14.2979 79.326 13.7209 78.3483C13.1439 77.3706 13.0915 76.1495 13.5823 75.1214L15.6671 70.7542ZM57.5813 40.1233H76.5813V33.4904H57.5813V40.1233ZM57.5813 60.0221H76.5813V53.3892H57.5813V60.0221Z" fill="#654EA4"/>
<path fill-rule="evenodd" clip-rule="evenodd" d="M70.248 13.5916H25.9146V0.325684H19.5813V13.5916H10.0813C4.83459 13.5916 0.581299 18.046 0.581299 23.541V76.6045C0.581299 82.0992 4.8346 86.5539 10.0813 86.5539H86.0813C91.3278 86.5539 95.5813 82.0992 95.5813 76.6045V23.541C95.5813 18.046 91.3278 13.5916 86.0813 13.5916H76.5813V0.325684H70.248V13.5916ZM19.5813 40.1233C19.5813 32.7968 25.2524 26.8574 32.248 26.8574C39.2436 26.8574 44.9146 32.7968 44.9146 40.1233C44.9146 47.4499 39.2436 53.3892 32.248 53.3892C25.2524 53.3892 19.5813 47.4499 19.5813 40.1233ZM15.6671 70.7542C18.8073 64.177 25.2263 60.0221 32.248 60.0221C39.2697 60.0221 45.6887 64.177 48.8288 70.7542L50.9136 75.1214C51.4045 76.1495 51.352 77.3706 50.7751 78.3483C50.198 79.326 49.1788 79.921 48.0813 79.921H16.4146C15.3171 79.921 14.2979 79.326 13.7209 78.3483C13.1439 77.3706 13.0915 76.1495 13.5823 75.1214L15.6671 70.7542ZM57.5813 40.1233H76.5813V33.4904H57.5813V40.1233ZM57.5813 60.0221H76.5813V53.3892H57.5813V60.0221Z" fill="url(#paint0_linear_36_83)" fill-opacity="0.2"/>
<path fill-rule="evenodd" clip-rule="evenodd" d="M70.248 13.5916H25.9146V0.325684H19.5813V13.5916H10.0813C4.83459 13.5916 0.581299 18.046 0.581299 23.541V76.6045C0.581299 82.0992 4.8346 86.5539 10.0813 86.5539H86.0813C91.3278 86.5539 95.5813 82.0992 95.5813 76.6045V23.541C95.5813 18.046 91.3278 13.5916 86.0813 13.5916H76.5813V0.325684H70.248V13.5916ZM19.5813 40.1233C19.5813 32.7968 25.2524 26.8574 32.248 26.8574C39.2436 26.8574 44.9146 32.7968 44.9146 40.1233C44.9146 47.4499 39.2436 53.3892 32.248 53.3892C25.2524 53.3892 19.5813 47.4499 19.5813 40.1233ZM15.6671 70.7542C18.8073 64.177 25.2263 60.0221 32.248 60.0221C39.2697 60.0221 45.6887 64.177 48.8288 70.7542L50.9136 75.1214C51.4045 76.1495 51.352 77.3706 50.7751 78.3483C50.198 79.326 49.1788 79.921 48.0813 79.921H16.4146C15.3171 79.921 14.2979 79.326 13.7209 78.3483C13.1439 77.3706 13.0915 76.1495 13.5823 75.1214L15.6671 70.7542ZM57.5813 40.1233H76.5813V33.4904H57.5813V40.1233ZM57.5813 60.0221H76.5813V53.3892H57.5813V60.0221Z" fill="url(#paint1_linear_36_83)"/>
<path fill-rule="evenodd" clip-rule="evenodd" d="M70.248 13.5916H25.9146V0.325684H19.5813V13.5916H10.0813C4.83459 13.5916 0.581299 18.046 0.581299 23.541V76.6045C0.581299 82.0992 4.8346 86.5539 10.0813 86.5539H86.0813C91.3278 86.5539 95.5813 82.0992 95.5813 76.6045V23.541C95.5813 18.046 91.3278 13.5916 86.0813 13.5916H76.5813V0.325684H70.248V13.5916ZM19.5813 40.1233C19.5813 32.7968 25.2524 26.8574 32.248 26.8574C39.2436 26.8574 44.9146 32.7968 44.9146 40.1233C44.9146 47.4499 39.2436 53.3892 32.248 53.3892C25.2524 53.3892 19.5813 47.4499 19.5813 40.1233ZM15.6671 70.7542C18.8073 64.177 25.2263 60.0221 32.248 60.0221C39.2697 60.0221 45.6887 64.177 48.8288 70.7542L50.9136 75.1214C51.4045 76.1495 51.352 77.3706 50.7751 78.3483C50.198 79.326 49.1788 79.921 48.0813 79.921H16.4146C15.3171 79.921 14.2979 79.326 13.7209 78.3483C13.1439 77.3706 13.0915 76.1495 13.5823 75.1214L15.6671 70.7542ZM57.5813 40.1233H76.5813V33.4904H57.5813V40.1233ZM57.5813 60.0221H76.5813V53.3892H57.5813V60.0221Z" fill="url(#paint2_linear_36_83)" fill-opacity="0.2"/>
<path fill-rule="evenodd" clip-rule="evenodd" d="M70.248 13.5916H25.9146V0.325684H19.5813V13.5916H10.0813C4.83459 13.5916 0.581299 18.046 0.581299 23.541V76.6045C0.581299 82.0992 4.8346 86.5539 10.0813 86.5539H86.0813C91.3278 86.5539 95.5813 82.0992 95.5813 76.6045V23.541C95.5813 18.046 91.3278 13.5916 86.0813 13.5916H76.5813V0.325684H70.248V13.5916ZM19.5813 40.1233C19.5813 32.7968 25.2524 26.8574 32.248 26.8574C39.2436 26.8574 44.9146 32.7968 44.9146 40.1233C44.9146 47.4499 39.2436 53.3892 32.248 53.3892C25.2524 53.3892 19.5813 47.4499 19.5813 40.1233ZM15.6671 70.7542C18.8073 64.177 25.2263 60.0221 32.248 60.0221C39.2697 60.0221 45.6887 64.177 48.8288 70.7542L50.9136 75.1214C51.4045 76.1495 51.352 77.3706 50.7751 78.3483C50.198 79.326 49.1788 79.921 48.0813 79.921H16.4146C15.3171 79.921 14.2979 79.326 13.7209 78.3483C13.1439 77.3706 13.0915 76.1495 13.5823 75.1214L15.6671 70.7542ZM57.5813 40.1233H76.5813V33.4904H57.5813V40.1233ZM57.5813 60.0221H76.5813V53.3892H57.5813V60.0221Z" fill="url(#paint3_linear_36_83)" fill-opacity="0.22"/>
<path fill-rule="evenodd" clip-rule="evenodd" d="M70.248 13.5916H25.9146V0.325684H19.5813V13.5916H10.0813C4.83459 13.5916 0.581299 18.046 0.581299 23.541V76.6045C0.581299 82.0992 4.8346 86.5539 10.0813 86.5539H86.0813C91.3278 86.5539 95.5813 82.0992 95.5813 76.6045V23.541C95.5813 18.046 91.3278 13.5916 86.0813 13.5916H76.5813V0.325684H70.248V13.5916ZM19.5813 40.1233C19.5813 32.7968 25.2524 26.8574 32.248 26.8574C39.2436 26.8574 44.9146 32.7968 44.9146 40.1233C44.9146 47.4499 39.2436 53.3892 32.248 53.3892C25.2524 53.3892 19.5813 47.4499 19.5813 40.1233ZM15.6671 70.7542C18.8073 64.177 25.2263 60.0221 32.248 60.0221C39.2697 60.0221 45.6887 64.177 48.8288 70.7542L50.9136 75.1214C51.4045 76.1495 51.352 77.3706 50.7751 78.3483C50.198 79.326 49.1788 79.921 48.0813 79.921H16.4146C15.3171 79.921 14.2979 79.326 13.7209 78.3483C13.1439 77.3706 13.0915 76.1495 13.5823 75.1214L15.6671 70.7542ZM57.5813 40.1233H76.5813V33.4904H57.5813V40.1233ZM57.5813 60.0221H76.5813V53.3892H57.5813V60.0221Z" fill="url(#paint4_linear_36_83)" fill-opacity="0.61"/>
<path fill-rule="evenodd" clip-rule="evenodd" d="M70.248 13.5916H25.9146V0.325684H19.5813V13.5916H10.0813C4.83459 13.5916 0.581299 18.046 0.581299 23.541V76.6045C0.581299 82.0992 4.8346 86.5539 10.0813 86.5539H86.0813C91.3278 86.5539 95.5813 82.0992 95.5813 76.6045V23.541C95.5813 18.046 91.3278 13.5916 86.0813 13.5916H76.5813V0.325684H70.248V13.5916ZM19.5813 40.1233C19.5813 32.7968 25.2524 26.8574 32.248 26.8574C39.2436 26.8574 44.9146 32.7968 44.9146 40.1233C44.9146 47.4499 39.2436 53.3892 32.248 53.3892C25.2524 53.3892 19.5813 47.4499 19.5813 40.1233ZM15.6671 70.7542C18.8073 64.177 25.2263 60.0221 32.248 60.0221C39.2697 60.0221 45.6887 64.177 48.8288 70.7542L50.9136 75.1214C51.4045 76.1495 51.352 77.3706 50.7751 78.3483C50.198 79.326 49.1788 79.921 48.0813 79.921H16.4146C15.3171 79.921 14.2979 79.326 13.7209 78.3483C13.1439 77.3706 13.0915 76.1495 13.5823 75.1214L15.6671 70.7542ZM57.5813 40.1233H76.5813V33.4904H57.5813V40.1233ZM57.5813 60.0221H76.5813V53.3892H57.5813V60.0221Z" fill="url(#paint5_linear_36_83)" fill-opacity="0.2"/>
<path d="M95.5813 93.1868V99.8197H0.581299V93.1868H95.5813Z" fill="#654EA4"/>
<path d="M95.5813 93.1868V99.8197H0.581299V93.1868H95.5813Z" fill="url(#paint6_linear_36_83)" fill-opacity="0.2"/>
<path d="M95.5813 93.1868V99.8197H0.581299V93.1868H95.5813Z" fill="url(#paint7_linear_36_83)"/>
<path d="M95.5813 93.1868V99.8197H0.581299V93.1868H95.5813Z" fill="url(#paint8_linear_36_83)" fill-opacity="0.2"/>
<path d="M95.5813 93.1868V99.8197H0.581299V93.1868H95.5813Z" fill="url(#paint9_linear_36_83)" fill-opacity="0.22"/>
<path d="M95.5813 93.1868V99.8197H0.581299V93.1868H95.5813Z" fill="url(#paint10_linear_36_83)" fill-opacity="0.61"/>
<path d="M95.5813 93.1868V99.8197H0.581299V93.1868H95.5813Z" fill="url(#paint11_linear_36_83)" fill-opacity="0.2"/>
<defs>
<linearGradient id="paint0_linear_36_83" x1="48.0813" y1="0.325684" x2="48.0813" y2="86.5539" gradientUnits="userSpaceOnUse">
<stop/>
<stop offset="1" stop-opacity="0"/>
</linearGradient>
<linearGradient id="paint1_linear_36_83" x1="48.0813" y1="0.325684" x2="62.1556" y2="108.201" gradientUnits="userSpaceOnUse">
<stop stop-color="#201933"/>
<stop offset="1" stop-color="#201933" stop-opacity="0"/>
</linearGradient>
<linearGradient id="paint2_linear_36_83" x1="48.0813" y1="97.4842" x2="48.0813" y2="-13.0336" gradientUnits="userSpaceOnUse">
<stop stop-color="#242424"/>
<stop offset="1" stop-color="#242424" stop-opacity="0"/>
</linearGradient>
<linearGradient id="paint3_linear_36_83" x1="48.0813" y1="0.325684" x2="48.0813" y2="86.5539" gradientUnits="userSpaceOnUse">
<stop stop-color="#034D64"/>
<stop offset="1" stop-color="#0085AF" stop-opacity="0"/>
</linearGradient>
<linearGradient id="paint4_linear_36_83" x1="48.0813" y1="0.325684" x2="48.0813" y2="86.5539" gradientUnits="userSpaceOnUse">
<stop stop-color="white"/>
<stop offset="1" stop-color="white" stop-opacity="0"/>
</linearGradient>
<linearGradient id="paint5_linear_36_83" x1="0.5813" y1="121.774" x2="123.632" y2="94.8147" gradientUnits="userSpaceOnUse">
<stop stop-color="#D8D8D8"/>
<stop offset="1" stop-color="#D8D8D8" stop-opacity="0"/>
</linearGradient>
<linearGradient id="paint6_linear_36_83" x1="48.0813" y1="93.1868" x2="48.0813" y2="99.8197" gradientUnits="userSpaceOnUse">
<stop/>
<stop offset="1" stop-opacity="0"/>
</linearGradient>
<linearGradient id="paint7_linear_36_83" x1="48.0813" y1="93.1868" x2="48.166" y2="101.625" gradientUnits="userSpaceOnUse">
<stop stop-color="#201933"/>
<stop offset="1" stop-color="#201933" stop-opacity="0"/>
</linearGradient>
<linearGradient id="paint8_linear_36_83" x1="48.0813" y1="100.661" x2="48.0813" y2="92.1591" gradientUnits="userSpaceOnUse">
<stop stop-color="#242424"/>
<stop offset="1" stop-color="#242424" stop-opacity="0"/>
</linearGradient>
<linearGradient id="paint9_linear_36_83" x1="48.0813" y1="93.1868" x2="48.0813" y2="99.8197" gradientUnits="userSpaceOnUse">
<stop stop-color="#034D64"/>
<stop offset="1" stop-color="#0085AF" stop-opacity="0"/>
</linearGradient>
<linearGradient id="paint10_linear_36_83" x1="48.0813" y1="93.1868" x2="48.0813" y2="99.8197" gradientUnits="userSpaceOnUse">
<stop stop-color="white"/>
<stop offset="1" stop-color="white" stop-opacity="0"/>
</linearGradient>
<linearGradient id="paint11_linear_36_83" x1="0.5813" y1="102.529" x2="14.7337" y2="62.2206" gradientUnits="userSpaceOnUse">
<stop stop-color="#D8D8D8"/>
<stop offset="1" stop-color="#D8D8D8" stop-opacity="0"/>
</linearGradient>
</defs>
</svg>
