<svg width="36" height="14" viewBox="0 0 36 14" fill="none" xmlns="http://www.w3.org/2000/svg">
<path fill-rule="evenodd" clip-rule="evenodd" d="M16.6872 10.6709V6.76885H18.87C19.7645 6.76885 20.5194 6.49232 21.1349 5.94695L21.2826 5.80869C22.4069 4.67955 22.333 2.92055 21.1349 1.8759C20.5359 1.32285 19.7152 1.02329 18.87 1.03865H15.366V10.6709H16.6872ZM16.6873 5.58606V2.22168H18.9033C19.3794 2.22168 19.8308 2.39067 20.1673 2.69792C20.8813 3.34314 20.8978 4.41851 20.2083 5.08678C19.8718 5.41707 19.3958 5.60142 18.9033 5.58606H16.6873ZM27.4455 4.59495C26.8793 4.11103 26.1079 3.86523 25.1314 3.86523C23.8758 3.86523 22.9321 4.29538 22.3084 5.148L23.4737 5.83163C23.9004 5.24786 24.4831 4.95597 25.2216 4.95597C25.6894 4.95597 26.1407 5.11727 26.4936 5.40916C26.8383 5.68569 27.0352 6.08511 27.0352 6.50758V6.79178C26.5264 6.53062 25.8863 6.39236 25.0985 6.39236C24.1794 6.39236 23.4409 6.59207 22.8911 6.99918C22.3413 7.40628 22.0623 7.94397 22.0623 8.6276C22.0458 9.24978 22.3331 9.84123 22.8418 10.2407C23.3588 10.6708 24.0153 10.8859 24.7867 10.8859C25.6976 10.8859 26.4197 10.5095 26.9695 9.75674H27.027V10.6708H28.2907V6.60743C28.2907 5.75482 28.0117 5.07887 27.4455 4.59495ZM23.8596 9.45719C23.5888 9.27284 23.4246 8.97327 23.4246 8.65066C23.4246 8.28964 23.6052 7.99007 23.9581 7.75195C24.3193 7.51384 24.7707 7.39094 25.3042 7.39094C26.0428 7.38326 26.6174 7.53688 27.0277 7.84413C27.0277 8.36645 26.8061 8.81965 26.3711 9.20371C25.9772 9.57241 25.4437 9.7798 24.8856 9.7798C24.5162 9.78748 24.1551 9.67226 23.8596 9.45719ZM31.1301 13.5669L35.545 4.08057H34.1089L32.0656 8.81221H32.041L29.9484 4.08057H28.5123L31.4091 10.2486L29.7679 13.5669H31.1301Z" fill="#3C4043"/>
<path d="M12.1258 5.92371C12.1258 5.54733 12.093 5.17095 12.0273 4.80225H6.45532V6.92995H9.64753C9.51623 7.61358 9.08951 8.22808 8.46584 8.61214V9.99476H10.3697C11.4857 9.03461 12.1258 7.61358 12.1258 5.92371Z" fill="#4285F4"/>
<path d="M6.45553 11.3313C8.04753 11.3313 9.39334 10.8397 10.3699 9.99478L8.46604 8.61216C7.93264 8.95014 7.25153 9.14217 6.45553 9.14217C4.91277 9.14217 3.60798 8.16665 3.14023 6.86084H1.17896V8.28955C2.18011 10.1561 4.22345 11.3313 6.45553 11.3313Z" fill="#34A853"/>
<path d="M3.14054 6.86087C2.89432 6.17724 2.89432 5.43216 3.14054 4.74085V3.31982H1.17895C0.333579 4.87911 0.333579 6.72261 1.17895 8.2819L3.14054 6.86087Z" fill="#FBBC04"/>
<path d="M6.45553 2.4595C7.30077 2.44414 8.11318 2.74371 8.72044 3.28908L10.4109 1.70674C9.3359 0.769634 7.92444 0.254991 6.45553 0.270354C4.22345 0.270354 2.18011 1.45326 1.17896 3.3198L3.14023 4.74851C3.60799 3.43502 4.91277 2.4595 6.45553 2.4595Z" fill="#EA4335"/>
</svg>
