<svg width="144" height="47" viewBox="0 0 144 47" fill="none" xmlns="http://www.w3.org/2000/svg">
<g clip-path="url(#clip0_37_138)">
<path d="M143.474 40.1385C143.474 43.616 140.644 46.4362 137.154 46.4362H6.7952C3.30463 46.4365 0.473877 43.6163 0.473877 40.1385V6.1357C0.473877 2.65852 3.30463 -0.161377 6.7952 -0.161377H137.154C140.644 -0.161377 143.474 2.65852 143.474 6.1357V40.1385H143.474Z" fill="black"/>
<path d="M11.2 8.80957V40.3654L27.1736 24.5876L11.2 8.80957Z" fill="url(#paint0_linear_37_138)"/>
<path d="M31.4638 20.3496L25.0158 16.6412L11.2 8.69482V8.80957L27.1736 24.5876L31.4638 20.3496Z" fill="url(#paint1_linear_37_138)"/>
<path d="M11.2 40.3654V40.4802L25.0158 32.5335L31.4635 28.8252L27.1736 24.5876L11.2 40.3654Z" fill="url(#paint2_linear_37_138)"/>
<path d="M31.4637 20.3496L27.1735 24.5877L31.4634 28.8252L38.8323 24.5874L31.4637 20.3496Z" fill="url(#paint3_linear_37_138)"/>
<path d="M111.763 30.7561C111.163 30.7561 110.616 30.6458 110.12 30.4255C109.624 30.2049 109.208 29.8657 108.871 29.4084H108.771C108.838 29.9442 108.871 30.4522 108.871 30.9321V34.7084H107.477V21.4115H108.611L108.804 22.6676H108.871C109.23 22.1649 109.648 21.8026 110.124 21.5792C110.6 21.3558 111.147 21.2442 111.763 21.2442C112.985 21.2442 113.928 21.6603 114.591 22.4919C115.255 23.3235 115.588 24.4905 115.588 25.9916C115.588 27.4989 115.25 28.6695 114.575 29.5047C113.9 30.3391 112.963 30.7561 111.763 30.7561ZM111.561 22.4248C110.62 22.4248 109.939 22.6846 109.519 23.2035C109.099 23.7226 108.883 24.549 108.871 25.6822V25.9916C108.871 27.2814 109.087 28.2038 109.519 28.7595C109.951 29.3151 110.643 29.5922 111.595 29.5922C112.391 29.5922 113.015 29.2716 113.466 28.6297C113.917 27.988 114.142 27.1032 114.142 25.9749C114.142 24.8311 113.916 23.9527 113.466 23.3416C113.015 22.73 112.38 22.4248 111.561 22.4248ZM118.818 30.5884H117.423V17.5598H118.818V30.5884ZM126.84 30.5884L126.563 29.2822H126.496C126.036 29.8576 125.578 30.2472 125.121 30.4503C124.665 30.6544 124.094 30.7561 123.411 30.7561C122.498 30.7561 121.782 30.5216 121.263 30.0528C120.745 29.5841 120.486 28.9174 120.486 28.0517C120.486 26.1988 121.974 25.2274 124.949 25.1377L126.513 25.0873V24.518C126.513 23.7978 126.357 23.2659 126.046 22.923C125.735 22.5793 125.237 22.4078 124.554 22.4078C123.786 22.4078 122.918 22.6423 121.949 23.111L121.52 22.0477C121.974 21.802 122.471 21.6096 123.012 21.47C123.553 21.3305 124.095 21.2606 124.638 21.2606C125.737 21.2606 126.55 21.5032 127.08 21.9889C127.61 22.4746 127.874 23.2533 127.874 24.3253V30.5881H126.84V30.5884H126.84ZM123.688 29.6092C124.556 29.6092 125.239 29.3719 125.735 28.8976C126.23 28.4233 126.479 27.7588 126.479 26.9043V26.0755L125.083 26.1337C123.974 26.1735 123.174 26.3445 122.683 26.6495C122.193 26.9536 121.948 27.4268 121.948 28.0687C121.948 28.5709 122.1 28.9536 122.406 29.2153C122.712 29.478 123.139 29.6092 123.688 29.6092ZM128.684 21.4115H130.18L132.197 26.645C132.64 27.8398 132.915 28.7021 133.022 29.2326H133.089C133.162 28.9474 133.315 28.4609 133.547 27.7707C133.779 27.0811 134.54 24.9619 135.829 21.4115H137.325L133.366 31.8615C132.974 32.8942 132.516 33.6269 131.991 34.0603C131.468 34.4925 130.824 34.7084 130.063 34.7084C129.637 34.7084 129.217 34.661 128.802 34.5663V33.4528C129.11 33.5197 129.455 33.5534 129.836 33.5534C130.794 33.5534 131.477 33.0175 131.887 31.9456L132.399 30.6396L128.684 21.4115ZM85.9162 22.2643C86.359 22.6294 87.2839 23.3965 87.2839 24.8561C87.2839 26.2757 86.4745 26.9489 85.6651 27.5813C85.4146 27.8306 85.1255 28.1002 85.1255 28.523C85.1255 28.9443 85.4143 29.175 85.6271 29.3479L86.321 29.8843C87.1687 30.5948 87.9387 31.2479 87.9387 32.5728C87.9387 34.3769 86.1851 36.1998 82.8716 36.1998C80.0772 36.1998 78.729 34.8757 78.729 33.4545C78.729 32.7638 79.0743 31.7854 80.2128 31.1128C81.4066 30.3834 83.0262 30.2884 83.8929 30.2294C83.6222 29.8843 83.3147 29.5195 83.3147 28.9254C83.3147 28.5996 83.4114 28.4074 83.5074 28.176C83.2946 28.1955 83.0829 28.2147 82.89 28.2147C80.8482 28.2147 79.6922 26.6982 79.6922 25.2018C79.6922 24.3186 80.0973 23.3391 80.9249 22.6297C82.0236 21.7277 83.3337 21.5736 84.3752 21.5736H88.3436L87.1103 22.2646H85.9162V22.2643H85.9162ZM84.5476 30.7873C84.3936 30.7672 84.2968 30.7672 84.105 30.7672C83.9317 30.7672 82.8897 30.8065 82.0815 31.0758C81.6576 31.2281 80.4241 31.6888 80.4241 33.0524C80.4241 34.4146 81.7543 35.3949 83.8162 35.3949C85.6648 35.3949 86.6487 34.5101 86.6487 33.3211C86.6487 32.3402 86.0126 31.8241 84.5476 30.7873ZM85.1068 27.1396C85.5494 26.6976 85.5874 26.0841 85.5874 25.7382C85.5874 24.3565 84.7593 22.2067 83.1604 22.2067C82.6588 22.2067 82.1198 22.456 81.8114 22.8403C81.4842 23.2433 81.387 23.761 81.387 24.2607C81.387 25.5466 82.1385 27.6774 83.7964 27.6774C84.2781 27.6774 84.7973 27.4471 85.1068 27.1396ZM73.7855 30.4801C70.7271 30.4801 69.0919 28.1035 69.0919 25.9568C69.0919 23.446 71.1499 21.3007 74.0751 21.3007C76.9017 21.3007 78.6717 23.5037 78.6717 25.8231C78.672 28.0835 76.9221 30.4801 73.7855 30.4801ZM76.1899 28.9279C76.6523 28.3141 76.7677 27.5479 76.7677 26.7999C76.7677 25.1129 75.9598 21.8939 73.5741 21.8939C72.9395 21.8939 72.3048 22.1435 71.8432 22.5468C71.0928 23.2166 70.9575 24.0602 70.9575 24.8851C70.9575 26.7809 71.9002 29.9038 74.2286 29.9038C74.9787 29.9038 75.7484 29.5404 76.1899 28.9279ZM63.3585 30.4801C60.2996 30.4801 58.664 28.1035 58.664 25.9568C58.664 23.446 60.7229 21.3007 63.6473 21.3007C66.4747 21.3007 68.2444 23.5037 68.2444 25.8231C68.2447 28.0835 66.4945 30.4801 63.3585 30.4801ZM65.7634 28.9279C66.225 28.3141 66.3408 27.5479 66.3408 26.7999C66.3408 25.1129 65.5322 21.8939 63.1465 21.8939C62.5122 21.8939 61.877 22.1435 61.4157 22.5468C60.6653 23.2166 60.5308 24.0602 60.5308 24.8851C60.5308 26.7809 61.473 29.9038 63.8016 29.9038C64.552 29.9038 65.3212 29.5404 65.7634 28.9279ZM57.1946 30.1796L54.4284 30.8154C53.3061 30.9892 52.3008 31.1421 51.2375 31.1421C45.8987 31.1421 43.8686 27.2307 43.8686 24.1671C43.8686 20.4298 46.75 16.9626 51.6826 16.9626C52.7274 16.9626 53.7323 17.1164 54.6412 17.367C56.0916 17.7717 56.7685 18.2722 57.1943 18.5616L55.5884 20.0836L54.9118 20.2371L55.3952 19.4662C54.7379 18.8309 53.5377 17.6559 51.2563 17.6559C48.2002 17.6559 45.8981 19.9689 45.8981 23.3402C45.8981 26.9614 48.529 30.3717 52.7445 30.3717C53.9836 30.3717 54.6205 30.1216 55.2012 29.8899V26.7887L52.2812 26.9427L53.8279 26.1133H57.9285L57.4261 26.5949C57.2897 26.711 57.2709 26.75 57.2323 26.9026C57.2122 27.0764 57.194 27.6357 57.194 27.8281V30.1796H57.1946V30.1796Z" fill="#F9F9F9"/>
<path d="M92.0293 29.6247C91.3907 29.5668 91.2571 29.4518 91.2571 28.6995V17.7948C91.261 17.7533 91.2635 17.7107 91.2674 17.6705C91.3454 16.9966 91.5386 16.881 92.1388 16.5337H89.3722L87.9212 17.2275H89.3999V17.2361L89.3987 17.2291V29.124C89.3987 29.5086 89.3224 29.5671 88.877 30.1444H92.3008L93.0165 29.7216C92.688 29.6818 92.3586 29.6631 92.0293 29.6247ZM99.8995 29.8018C99.689 29.9169 99.4776 30.0514 99.2671 30.1464C98.6321 30.4332 97.9793 30.5101 97.402 30.5101C96.7889 30.5101 95.8277 30.4705 94.8472 29.7634C93.4845 28.8059 92.889 27.1605 92.889 25.7259C92.889 22.7606 95.309 21.3065 97.2873 21.3065C97.979 21.3065 98.6906 21.4783 99.2668 21.8426C100.226 22.4729 100.476 23.2956 100.61 23.7359L96.0969 25.5543L94.6177 25.6691C95.0971 28.099 96.7489 29.5139 98.5743 29.5139C99.5536 29.5139 100.265 29.1702 100.917 28.8454L99.8995 29.8018ZM98.0945 24.0991C98.4588 23.9657 98.6509 23.8504 98.6509 23.5827C98.6509 22.818 97.787 21.9373 96.7489 21.9373C95.9797 21.9373 94.5402 22.5308 94.5402 24.5968C94.5402 24.9221 94.5788 25.2664 94.5986 25.612L98.0945 24.0991ZM101.753 21.4374V22.6999H101.599V21.4374H101.18V21.3065H102.172V21.4374H101.753ZM103.481 22.6999V21.4257H103.474L103.084 22.6999H102.963L102.57 21.4257H102.565V22.6999H102.425V21.3065H102.665L103.021 22.4328H103.026L103.377 21.3065H103.62V22.6999H103.481Z" fill="#F9F9F9"/>
<path d="M47.7101 13.2112H46.7489C46.7489 13.0795 46.6578 12.7066 46.4755 12.0922H45.0879C44.8998 12.6966 44.8056 13.0695 44.8056 13.2112H43.9017C43.9017 13.1335 44.1354 12.4952 44.6029 11.2965C45.0703 10.0978 45.3041 9.43743 45.3041 9.31602H46.4394C46.4394 9.42965 46.6511 10.0802 47.0747 11.2681C47.4982 12.4559 47.7101 13.1035 47.7101 13.2112ZM46.3226 11.5207C45.9801 10.4916 45.809 9.93515 45.809 9.85129H45.7609C45.7609 9.92902 45.5837 10.4855 45.2294 11.5207H46.3226ZM51.5829 13.2112H50.8412C50.8412 13.1294 50.5658 12.6977 50.0153 11.9159C49.4388 11.0921 49.1103 10.5289 49.0303 10.2257H48.9823C49.0323 10.6623 49.0575 11.0573 49.0575 11.4104C49.0575 11.9031 49.0715 12.5036 49.0994 13.2115H48.3605C48.3904 12.5933 48.4055 11.9143 48.4055 11.1743C48.4055 10.4463 48.3904 9.82683 48.3605 9.31632H49.2523C49.2523 9.42216 49.4995 9.8441 49.9941 10.5819C50.5205 11.3656 50.823 11.8973 50.901 12.1766H50.9461C50.898 11.7318 50.8739 11.333 50.8739 10.9799C50.8739 10.4396 50.8599 9.88476 50.832 9.31632H51.5829C51.5547 9.81095 51.541 10.4304 51.541 11.1743C51.5407 11.9237 51.5547 12.6027 51.5829 13.2112ZM55.9357 11.1289C55.9357 11.6953 55.7534 12.19 55.3891 12.6128C55.0245 13.0358 54.514 13.2469 53.8573 13.2469C53.5609 13.2469 53.1525 13.2349 52.6319 13.211C52.6579 12.6086 52.671 11.9293 52.671 11.1737C52.671 10.4479 52.6579 9.8285 52.6319 9.31574H53.1575C53.2436 9.31574 53.3716 9.31268 53.5419 9.30683C53.7119 9.30098 53.8232 9.29792 53.8752 9.29792C54.5979 9.29792 55.1218 9.47756 55.4475 9.83655C55.773 10.1956 55.9357 10.6261 55.9357 11.1289ZM55.1159 11.2575C55.1159 10.8745 55.0038 10.552 54.7796 10.2894C54.5554 10.0273 54.2129 9.89615 53.7524 9.89615C53.6663 9.89615 53.5483 9.90507 53.3979 9.92317C53.4178 10.3222 53.4278 10.7389 53.4278 11.1737C53.4278 11.6505 53.4379 12.1231 53.4577 12.5918C53.5862 12.6176 53.7169 12.6307 53.848 12.6308C54.2786 12.6308 54.5973 12.4974 54.8045 12.2312C55.0117 11.9649 55.1159 11.6404 55.1159 11.2575ZM59.9496 13.2112H59.0606C58.8282 12.5052 58.6502 12.0694 58.526 11.9039C58.4019 11.7382 58.2017 11.6555 57.9255 11.6555C57.8092 11.6555 57.6982 11.6566 57.5922 11.6586C57.5922 12.1713 57.6011 12.6888 57.6193 13.2112H56.7845C56.8105 12.6088 56.8237 11.9295 56.8237 11.174C56.8237 10.4482 56.8105 9.82876 56.7845 9.31602H57.304C57.3641 9.31602 57.4896 9.31296 57.6809 9.30711C57.8721 9.30126 58.0488 9.29817 58.2109 9.29817C59.1299 9.29817 59.5896 9.61122 59.5896 10.2376C59.5896 10.7342 59.3273 11.0801 58.8028 11.2759V11.3207C59.0049 11.3764 59.1822 11.5338 59.3343 11.7917C59.4861 12.0499 59.6913 12.523 59.9496 13.2112ZM58.8235 10.4587C58.8235 10.0618 58.5671 9.86329 58.0546 9.86329C57.8665 9.86329 57.7001 9.87722 57.5561 9.90507C57.5782 10.2142 57.5891 10.6172 57.5891 11.1138C57.6993 11.118 57.7924 11.1196 57.8684 11.1196C58.505 11.1199 58.8235 10.8996 58.8235 10.4587ZM64.2546 11.1918C64.2546 11.8039 64.0664 12.3116 63.6899 12.7146C63.3133 13.1174 62.8478 13.319 62.2934 13.319C61.7647 13.319 61.3221 13.1341 60.9659 12.7639C60.6094 12.3941 60.4313 11.9237 60.4313 11.3536C60.4313 10.7414 60.6195 10.2337 60.9961 9.83068C61.3724 9.42796 61.8379 9.22632 62.3926 9.22632C62.9213 9.22632 63.3636 9.41069 63.7201 9.77971C64.0765 10.1488 64.2546 10.6192 64.2546 11.1918ZM63.4259 11.2784C63.4259 10.8615 63.3188 10.5234 63.1047 10.2641C62.8903 10.0048 62.6261 9.87527 62.3118 9.87527C62.0194 9.87527 61.7711 10.0059 61.567 10.2671C61.3629 10.5284 61.2603 10.8584 61.2603 11.2575C61.2603 11.6722 61.3679 12.0098 61.5832 12.2702C61.7985 12.5306 62.0621 12.6607 62.3747 12.6607C62.6669 12.6607 62.9154 12.5295 63.1195 12.2671C63.3236 12.005 63.4259 11.6752 63.4259 11.2784ZM65.9528 13.2112H65.1029C65.1289 12.593 65.142 11.9139 65.142 11.174C65.142 10.4459 65.1289 9.82653 65.1029 9.31602H65.9528C65.9268 9.81873 65.9136 10.4379 65.9136 11.174C65.9136 11.9256 65.9268 12.6049 65.9528 13.2112ZM70.3059 11.1289C70.3059 11.6953 70.1236 12.19 69.7593 12.6128C69.3947 13.0358 68.8842 13.2469 68.2275 13.2469C67.9311 13.2469 67.5226 13.2349 67.002 13.211C67.0281 12.6086 67.0412 11.9293 67.0412 11.1737C67.0412 10.4479 67.0281 9.8285 67.002 9.31574H67.5277C67.6138 9.31574 67.7418 9.31268 67.9121 9.30683C68.0821 9.30098 68.1933 9.29792 68.2454 9.29792C68.9681 9.29792 69.492 9.47756 69.8177 9.83655C70.1431 10.1956 70.3059 10.6261 70.3059 11.1289ZM69.4861 11.2575C69.4861 10.8745 69.374 10.552 69.1498 10.2894C68.9255 10.0273 68.5831 9.89615 68.1226 9.89615C68.0365 9.89615 67.9185 9.90507 67.7681 9.92317C67.7879 10.3222 67.798 10.7389 67.798 11.1737C67.798 11.6505 67.8081 12.1231 67.8279 12.5918C67.9564 12.6176 68.0871 12.6307 68.2182 12.6308C68.6487 12.6308 68.9675 12.4974 69.1746 12.2312C69.3818 11.9649 69.4861 11.6404 69.4861 11.2575ZM76.0809 13.2112H75.1197C75.1197 13.0795 75.0285 12.7066 74.846 12.0922H73.4584C73.2703 12.6966 73.176 13.0695 73.176 13.2112H72.2724C72.2724 13.1335 72.5061 12.4952 72.9736 11.2965C73.4411 10.0978 73.6748 9.43743 73.6748 9.31602H74.8102C74.8102 9.42965 75.0221 10.0802 75.4454 11.2681C75.8687 12.4559 76.0809 13.1035 76.0809 13.2112ZM74.6933 11.5207C74.3508 10.4916 74.1794 9.93515 74.1794 9.85129H74.1313C74.1313 9.92902 73.9544 10.4855 73.6002 11.5207H74.6933ZM79.584 10.3359C79.584 10.8127 79.4062 11.1648 79.0508 11.392C78.6955 11.6193 78.2596 11.7332 77.7429 11.7332C77.6487 11.7332 77.5819 11.7312 77.5417 11.7273C77.5417 12.1025 77.5525 12.5969 77.5747 13.2112H76.7306C76.7566 12.635 76.7697 11.9557 76.7697 11.174C76.7697 10.456 76.7566 9.83655 76.7306 9.31602H77.2531C77.3272 9.31602 77.4692 9.31296 77.6795 9.30711C77.8897 9.30126 78.0718 9.29817 78.2261 9.29817C78.6063 9.29817 78.9278 9.38395 79.19 9.55552C79.4523 9.7271 79.584 9.98695 79.584 10.3359ZM78.8093 10.5005C78.8093 10.0738 78.525 9.86023 77.9563 9.86023C77.814 9.86023 77.6639 9.87524 77.5059 9.90507C77.528 10.2822 77.5389 10.7088 77.5389 11.1856C77.5889 11.1898 77.6471 11.1915 77.7131 11.1915C78.4439 11.1918 78.8093 10.9615 78.8093 10.5005ZM83.1861 10.3359C83.1861 10.8127 83.0083 11.1648 82.6533 11.392C82.2979 11.6193 81.8618 11.7332 81.3451 11.7332C81.2509 11.7332 81.1841 11.7312 81.1438 11.7273C81.1438 12.1025 81.1547 12.5969 81.1768 13.2112H80.3327C80.3587 12.635 80.3719 11.9557 80.3719 11.174C80.3719 10.456 80.3588 9.83655 80.3327 9.31602H80.8553C80.9294 9.31602 81.0714 9.31296 81.2816 9.30711C81.4919 9.30126 81.6739 9.29817 81.8282 9.29817C82.2084 9.29817 82.53 9.38395 82.7922 9.55552C83.0544 9.7271 83.1861 9.98695 83.1861 10.3359ZM82.4114 10.5005C82.4114 10.0738 82.1271 9.86023 81.5584 9.86023C81.4161 9.86023 81.266 9.87524 81.108 9.90507C81.1301 10.2822 81.141 10.7088 81.141 11.1856C81.1911 11.1898 81.2492 11.1915 81.3152 11.1915C82.046 11.1918 82.4114 10.9615 82.4114 10.5005ZM89.0755 11.1918C89.0755 11.8039 88.8874 12.3116 88.5108 12.7146C88.1342 13.1176 87.6687 13.319 87.1143 13.319C86.5856 13.319 86.143 13.1341 85.7868 12.7639C85.4306 12.3941 85.2523 11.9237 85.2523 11.3536C85.2523 10.7414 85.4404 10.2337 85.817 9.83068C86.1936 9.42768 86.6591 9.22632 87.2135 9.22632C87.7422 9.22632 88.1848 9.41069 88.541 9.77971C88.8971 10.1488 89.0755 10.6192 89.0755 11.1918ZM88.2466 11.2784C88.2466 10.8615 88.1395 10.5234 87.9253 10.2641C87.7112 10.0048 87.4467 9.87527 87.1325 9.87527C86.84 9.87527 86.5917 10.0059 86.3876 10.2671C86.1835 10.5284 86.0812 10.8584 86.0812 11.2575C86.0812 11.6722 86.1889 12.0098 86.4041 12.2702C86.6194 12.5306 86.883 12.6607 87.1953 12.6607C87.4878 12.6607 87.736 12.5295 87.9401 12.2671C88.1445 12.005 88.2466 11.6752 88.2466 11.2784ZM93.1462 13.2112H92.4045C92.4045 13.1294 92.1294 12.6977 91.5786 11.9159C91.0021 11.0921 90.6736 10.5289 90.5936 10.2257H90.5456C90.5956 10.6623 90.6208 11.0573 90.6208 11.4104C90.6208 11.9031 90.6348 12.5036 90.6627 13.2115H89.9238C89.9537 12.5933 89.9688 11.9143 89.9688 11.1743C89.9688 10.4463 89.9537 9.82683 89.9238 9.31632H90.8156C90.8156 9.42216 91.0631 9.8441 91.5574 10.5819C92.0841 11.3656 92.3863 11.8973 92.4644 12.1766H92.5094C92.4613 11.7318 92.4372 11.333 92.4372 10.9799C92.4372 10.4396 92.4233 9.88476 92.3953 9.31632H93.1462C93.118 9.81095 93.1043 10.4304 93.1043 11.1743C93.1043 11.9237 93.1183 12.6027 93.1462 13.2112Z" fill="#F9F9FA"/>
</g>
<rect x="0.723877" y="0.387451" width="142.5" height="45.5" rx="4.75" stroke="#B6B6B6" stroke-width="0.5"/>
<defs>
<linearGradient id="paint0_linear_37_138" x1="19.1868" y1="8.80962" x2="19.1868" y2="40.3655" gradientUnits="userSpaceOnUse">
<stop stop-color="#257CB0"/>
<stop offset="0.286" stop-color="#4A93B5"/>
<stop offset="0.767" stop-color="#78BCBB"/>
<stop offset="1" stop-color="#89CFBD"/>
</linearGradient>
<linearGradient id="paint1_linear_37_138" x1="11.2003" y1="16.641" x2="31.464" y2="16.641" gradientUnits="userSpaceOnUse">
<stop stop-color="#52C1AD"/>
<stop offset="1" stop-color="#DEE89A"/>
</linearGradient>
<linearGradient id="paint2_linear_37_138" x1="21.3317" y1="24.5877" x2="21.3317" y2="40.4802" gradientUnits="userSpaceOnUse">
<stop stop-color="#EC413D"/>
<stop offset="0.167" stop-color="#DA4452"/>
<stop offset="0.575" stop-color="#B0487A"/>
<stop offset="0.862" stop-color="#954A92"/>
<stop offset="1" stop-color="#8A4A9D"/>
</linearGradient>
<linearGradient id="paint3_linear_37_138" x1="33.003" y1="20.3497" x2="33.003" y2="28.825" gradientUnits="userSpaceOnUse">
<stop stop-color="#F58879"/>
<stop offset="0.119" stop-color="#F69079"/>
<stop offset="0.713" stop-color="#FCB877"/>
<stop offset="1" stop-color="#FEC874"/>
</linearGradient>
<clipPath id="clip0_37_138">
<rect x="0.473877" y="0.137451" width="143" height="46" rx="5" fill="white"/>
</clipPath>
</defs>
</svg>
