<svg width="51" height="50" viewBox="0 0 51 50" fill="none" xmlns="http://www.w3.org/2000/svg">
<path d="M50.3516 25C50.3516 38.8071 39.1587 50 25.3516 50C11.5444 50 0.351562 38.8071 0.351562 25C0.351562 11.1929 11.5444 0 25.3516 0C39.1587 0 50.3516 11.1929 50.3516 25Z" fill="#663399"/>
<path d="M20.3516 17.25C23.1141 17.25 25.3516 19.4437 25.3516 22.15C25.3516 19.4437 27.5891 17.25 30.3516 17.25C33.1141 17.25 35.3516 19.4437 35.3516 22.15C35.3516 26.2288 31.3091 27.6675 25.8416 34.16C25.7814 34.2313 25.7063 34.2886 25.6217 34.3279C25.5371 34.3672 25.4449 34.3876 25.3516 34.3876C25.2582 34.3876 25.1661 34.3672 25.0814 34.3279C24.9968 34.2886 24.9218 34.2313 24.8616 34.16C19.3941 27.6675 15.3516 26.2288 15.3516 22.15C15.3516 19.4437 17.5891 17.25 20.3516 17.25Z" fill="#D9D9D9"/>
</svg>
