<svg width="153" height="147" viewBox="0 0 153 147" fill="none" xmlns="http://www.w3.org/2000/svg">
<path d="M76.5 134.75C83.5125 134.75 89.25 129.238 89.25 122.5H63.75C63.75 125.749 65.0933 128.865 67.4844 131.162C69.8755 133.459 73.1185 134.75 76.5 134.75ZM122.974 105.901L114.75 98V67.375C114.75 48.5713 104.295 32.83 86.0625 28.665V24.5C86.0625 19.4163 81.7913 15.3125 76.5 15.3125C71.2088 15.3125 66.9375 19.4163 66.9375 24.5V28.665C48.6413 32.83 38.25 48.51 38.25 67.375V98L30.0263 105.901C26.01 109.76 28.815 116.375 34.4888 116.375H118.448C124.185 116.375 126.99 109.76 122.974 105.901ZM92.4375 57.1462C92.4375 59.045 91.7363 60.8213 90.525 62.2913L74.5875 80.85H86.7C89.8875 80.85 92.4375 83.3 92.4375 86.3625C92.4375 89.425 89.8875 91.875 86.7 91.875H68.9775C64.3238 91.875 60.5625 88.2613 60.5625 83.79V83.7288C60.5625 81.83 61.2638 80.0537 62.475 78.5837L78.4125 60.025H66.3C63.1125 60.025 60.5625 57.575 60.5625 54.5125C60.5625 51.45 63.1125 49 66.3 49H84.0225C88.6763 49 92.4375 52.6137 92.4375 57.1462Z" fill="#654EA4"/>
<path d="M76.5 134.75C83.5125 134.75 89.25 129.238 89.25 122.5H63.75C63.75 125.749 65.0933 128.865 67.4844 131.162C69.8755 133.459 73.1185 134.75 76.5 134.75ZM122.974 105.901L114.75 98V67.375C114.75 48.5713 104.295 32.83 86.0625 28.665V24.5C86.0625 19.4163 81.7913 15.3125 76.5 15.3125C71.2088 15.3125 66.9375 19.4163 66.9375 24.5V28.665C48.6413 32.83 38.25 48.51 38.25 67.375V98L30.0263 105.901C26.01 109.76 28.815 116.375 34.4888 116.375H118.448C124.185 116.375 126.99 109.76 122.974 105.901ZM92.4375 57.1462C92.4375 59.045 91.7363 60.8213 90.525 62.2913L74.5875 80.85H86.7C89.8875 80.85 92.4375 83.3 92.4375 86.3625C92.4375 89.425 89.8875 91.875 86.7 91.875H68.9775C64.3238 91.875 60.5625 88.2613 60.5625 83.79V83.7288C60.5625 81.83 61.2638 80.0537 62.475 78.5837L78.4125 60.025H66.3C63.1125 60.025 60.5625 57.575 60.5625 54.5125C60.5625 51.45 63.1125 49 66.3 49H84.0225C88.6763 49 92.4375 52.6137 92.4375 57.1462Z" fill="url(#paint0_linear_343_341)" fill-opacity="0.2"/>
<path d="M76.5 134.75C83.5125 134.75 89.25 129.238 89.25 122.5H63.75C63.75 125.749 65.0933 128.865 67.4844 131.162C69.8755 133.459 73.1185 134.75 76.5 134.75ZM122.974 105.901L114.75 98V67.375C114.75 48.5713 104.295 32.83 86.0625 28.665V24.5C86.0625 19.4163 81.7913 15.3125 76.5 15.3125C71.2088 15.3125 66.9375 19.4163 66.9375 24.5V28.665C48.6413 32.83 38.25 48.51 38.25 67.375V98L30.0263 105.901C26.01 109.76 28.815 116.375 34.4888 116.375H118.448C124.185 116.375 126.99 109.76 122.974 105.901ZM92.4375 57.1462C92.4375 59.045 91.7363 60.8213 90.525 62.2913L74.5875 80.85H86.7C89.8875 80.85 92.4375 83.3 92.4375 86.3625C92.4375 89.425 89.8875 91.875 86.7 91.875H68.9775C64.3238 91.875 60.5625 88.2613 60.5625 83.79V83.7288C60.5625 81.83 61.2638 80.0537 62.475 78.5837L78.4125 60.025H66.3C63.1125 60.025 60.5625 57.575 60.5625 54.5125C60.5625 51.45 63.1125 49 66.3 49H84.0225C88.6763 49 92.4375 52.6137 92.4375 57.1462Z" fill="url(#paint1_linear_343_341)"/>
<path d="M76.5 134.75C83.5125 134.75 89.25 129.238 89.25 122.5H63.75C63.75 125.749 65.0933 128.865 67.4844 131.162C69.8755 133.459 73.1185 134.75 76.5 134.75ZM122.974 105.901L114.75 98V67.375C114.75 48.5713 104.295 32.83 86.0625 28.665V24.5C86.0625 19.4163 81.7913 15.3125 76.5 15.3125C71.2088 15.3125 66.9375 19.4163 66.9375 24.5V28.665C48.6413 32.83 38.25 48.51 38.25 67.375V98L30.0263 105.901C26.01 109.76 28.815 116.375 34.4888 116.375H118.448C124.185 116.375 126.99 109.76 122.974 105.901ZM92.4375 57.1462C92.4375 59.045 91.7363 60.8213 90.525 62.2913L74.5875 80.85H86.7C89.8875 80.85 92.4375 83.3 92.4375 86.3625C92.4375 89.425 89.8875 91.875 86.7 91.875H68.9775C64.3238 91.875 60.5625 88.2613 60.5625 83.79V83.7288C60.5625 81.83 61.2638 80.0537 62.475 78.5837L78.4125 60.025H66.3C63.1125 60.025 60.5625 57.575 60.5625 54.5125C60.5625 51.45 63.1125 49 66.3 49H84.0225C88.6763 49 92.4375 52.6137 92.4375 57.1462Z" fill="url(#paint2_linear_343_341)" fill-opacity="0.2"/>
<path d="M76.5 134.75C83.5125 134.75 89.25 129.238 89.25 122.5H63.75C63.75 125.749 65.0933 128.865 67.4844 131.162C69.8755 133.459 73.1185 134.75 76.5 134.75ZM122.974 105.901L114.75 98V67.375C114.75 48.5713 104.295 32.83 86.0625 28.665V24.5C86.0625 19.4163 81.7913 15.3125 76.5 15.3125C71.2088 15.3125 66.9375 19.4163 66.9375 24.5V28.665C48.6413 32.83 38.25 48.51 38.25 67.375V98L30.0263 105.901C26.01 109.76 28.815 116.375 34.4888 116.375H118.448C124.185 116.375 126.99 109.76 122.974 105.901ZM92.4375 57.1462C92.4375 59.045 91.7363 60.8213 90.525 62.2913L74.5875 80.85H86.7C89.8875 80.85 92.4375 83.3 92.4375 86.3625C92.4375 89.425 89.8875 91.875 86.7 91.875H68.9775C64.3238 91.875 60.5625 88.2613 60.5625 83.79V83.7288C60.5625 81.83 61.2638 80.0537 62.475 78.5837L78.4125 60.025H66.3C63.1125 60.025 60.5625 57.575 60.5625 54.5125C60.5625 51.45 63.1125 49 66.3 49H84.0225C88.6763 49 92.4375 52.6137 92.4375 57.1462Z" fill="url(#paint3_linear_343_341)" fill-opacity="0.22"/>
<path d="M76.5 134.75C83.5125 134.75 89.25 129.238 89.25 122.5H63.75C63.75 125.749 65.0933 128.865 67.4844 131.162C69.8755 133.459 73.1185 134.75 76.5 134.75ZM122.974 105.901L114.75 98V67.375C114.75 48.5713 104.295 32.83 86.0625 28.665V24.5C86.0625 19.4163 81.7913 15.3125 76.5 15.3125C71.2088 15.3125 66.9375 19.4163 66.9375 24.5V28.665C48.6413 32.83 38.25 48.51 38.25 67.375V98L30.0263 105.901C26.01 109.76 28.815 116.375 34.4888 116.375H118.448C124.185 116.375 126.99 109.76 122.974 105.901ZM92.4375 57.1462C92.4375 59.045 91.7363 60.8213 90.525 62.2913L74.5875 80.85H86.7C89.8875 80.85 92.4375 83.3 92.4375 86.3625C92.4375 89.425 89.8875 91.875 86.7 91.875H68.9775C64.3238 91.875 60.5625 88.2613 60.5625 83.79V83.7288C60.5625 81.83 61.2638 80.0537 62.475 78.5837L78.4125 60.025H66.3C63.1125 60.025 60.5625 57.575 60.5625 54.5125C60.5625 51.45 63.1125 49 66.3 49H84.0225C88.6763 49 92.4375 52.6137 92.4375 57.1462Z" fill="url(#paint4_linear_343_341)" fill-opacity="0.61"/>
<path d="M76.5 134.75C83.5125 134.75 89.25 129.238 89.25 122.5H63.75C63.75 125.749 65.0933 128.865 67.4844 131.162C69.8755 133.459 73.1185 134.75 76.5 134.75ZM122.974 105.901L114.75 98V67.375C114.75 48.5713 104.295 32.83 86.0625 28.665V24.5C86.0625 19.4163 81.7913 15.3125 76.5 15.3125C71.2088 15.3125 66.9375 19.4163 66.9375 24.5V28.665C48.6413 32.83 38.25 48.51 38.25 67.375V98L30.0263 105.901C26.01 109.76 28.815 116.375 34.4888 116.375H118.448C124.185 116.375 126.99 109.76 122.974 105.901ZM92.4375 57.1462C92.4375 59.045 91.7363 60.8213 90.525 62.2913L74.5875 80.85H86.7C89.8875 80.85 92.4375 83.3 92.4375 86.3625C92.4375 89.425 89.8875 91.875 86.7 91.875H68.9775C64.3238 91.875 60.5625 88.2613 60.5625 83.79V83.7288C60.5625 81.83 61.2638 80.0537 62.475 78.5837L78.4125 60.025H66.3C63.1125 60.025 60.5625 57.575 60.5625 54.5125C60.5625 51.45 63.1125 49 66.3 49H84.0225C88.6763 49 92.4375 52.6137 92.4375 57.1462Z" fill="url(#paint5_linear_343_341)" fill-opacity="0.2"/>
<defs>
<linearGradient id="paint0_linear_343_341" x1="76.4989" y1="15.3125" x2="76.4989" y2="134.75" gradientUnits="userSpaceOnUse">
<stop/>
<stop offset="1" stop-opacity="0"/>
</linearGradient>
<linearGradient id="paint1_linear_343_341" x1="76.4989" y1="15.3125" x2="102.648" y2="162.636" gradientUnits="userSpaceOnUse">
<stop stop-color="#201933"/>
<stop offset="1" stop-color="#201933" stop-opacity="0"/>
</linearGradient>
<linearGradient id="paint2_linear_343_341" x1="76.4989" y1="149.89" x2="76.4989" y2="-3.1919" gradientUnits="userSpaceOnUse">
<stop stop-color="#242424"/>
<stop offset="1" stop-color="#242424" stop-opacity="0"/>
</linearGradient>
<linearGradient id="paint3_linear_343_341" x1="76.4989" y1="15.3125" x2="76.4989" y2="134.75" gradientUnits="userSpaceOnUse">
<stop stop-color="#034D64"/>
<stop offset="1" stop-color="#0085AF" stop-opacity="0"/>
</linearGradient>
<linearGradient id="paint4_linear_343_341" x1="76.4989" y1="15.3125" x2="76.4989" y2="134.75" gradientUnits="userSpaceOnUse">
<stop stop-color="white"/>
<stop offset="1" stop-color="white" stop-opacity="0"/>
</linearGradient>
<linearGradient id="paint5_linear_343_341" x1="28.1362" y1="183.534" x2="156.117" y2="162.924" gradientUnits="userSpaceOnUse">
<stop stop-color="#D8D8D8"/>
<stop offset="1" stop-color="#D8D8D8" stop-opacity="0"/>
</linearGradient>
</defs>
</svg>
