<svg width="36" height="31" viewBox="0 0 36 31" fill="none" xmlns="http://www.w3.org/2000/svg">
<path fill-rule="evenodd" clip-rule="evenodd" d="M22.9966 29.9361C30.5272 25.0998 34.7107 19.4709 35.5473 13.0492C36.8496 3.05213 27.9095 -1.84117 23.3796 2.55543C18.8497 6.95193 21.5651 12.5325 24.8452 14.0579C28.1253 15.5834 30.1312 15.0521 29.7813 17.0905C29.4314 19.129 24.7648 24.7808 20.665 27.4129C20.393 27.6442 20.2895 28.093 20.5514 28.4334C20.7237 28.6574 21.0616 29.0966 21.5651 29.751C22.0054 30.3232 22.4272 30.3018 22.9966 29.9361Z" fill="#6B3FCA"/>
<path fill-rule="evenodd" clip-rule="evenodd" d="M22.9966 29.9361C30.5272 25.0998 34.7107 19.4709 35.5473 13.0492C36.8496 3.05213 27.9095 -1.84117 23.3796 2.55543C18.8497 6.95193 21.5651 12.5325 24.8452 14.0579C28.1253 15.5834 30.1312 15.0521 29.7813 17.0905C29.4314 19.129 24.7648 24.7808 20.665 27.4129C20.393 27.6442 20.2895 28.093 20.5514 28.4334C20.7237 28.6574 21.0616 29.0966 21.5651 29.751C22.0054 30.3232 22.4272 30.3018 22.9966 29.9361Z" fill="url(#paint0_linear_278_272)"/>
<path fill-rule="evenodd" clip-rule="evenodd" d="M22.9966 29.9361C30.5272 25.0998 34.7107 19.4709 35.5473 13.0492C36.8496 3.05213 27.9095 -1.84117 23.3796 2.55543C18.8497 6.95193 21.5651 12.5325 24.8452 14.0579C28.1253 15.5834 30.1312 15.0521 29.7813 17.0905C29.4314 19.129 24.7648 24.7808 20.665 27.4129C20.393 27.6442 20.2895 28.093 20.5514 28.4334C20.7237 28.6574 21.0616 29.0966 21.5651 29.751C22.0054 30.3232 22.4272 30.3018 22.9966 29.9361Z" fill="url(#paint1_linear_278_272)" fill-opacity="0.2"/>
<path fill-rule="evenodd" clip-rule="evenodd" d="M3.17098 29.9361C10.7015 25.0998 14.8851 19.4709 15.7217 13.0492C17.024 3.05213 8.08378 -1.84117 3.55388 2.55543C-0.976021 6.95193 1.73938 12.5325 5.01948 14.0579C8.29958 15.5834 10.3056 15.0521 9.95558 17.0905C9.60568 19.129 4.93908 24.7808 0.839279 27.4129C0.567279 27.6442 0.46378 28.093 0.72578 28.4334C0.89798 28.6574 1.23588 29.0966 1.73938 29.751C2.17968 30.3232 2.60148 30.3018 3.17098 29.9361Z" fill="#6B3FCA"/>
<path fill-rule="evenodd" clip-rule="evenodd" d="M3.17098 29.9361C10.7015 25.0998 14.8851 19.4709 15.7217 13.0492C17.024 3.05213 8.08378 -1.84117 3.55388 2.55543C-0.976021 6.95193 1.73938 12.5325 5.01948 14.0579C8.29958 15.5834 10.3056 15.0521 9.95558 17.0905C9.60568 19.129 4.93908 24.7808 0.839279 27.4129C0.567279 27.6442 0.46378 28.093 0.72578 28.4334C0.89798 28.6574 1.23588 29.0966 1.73938 29.751C2.17968 30.3232 2.60148 30.3018 3.17098 29.9361Z" fill="url(#paint2_linear_278_272)"/>
<path fill-rule="evenodd" clip-rule="evenodd" d="M3.17098 29.9361C10.7015 25.0998 14.8851 19.4709 15.7217 13.0492C17.024 3.05213 8.08378 -1.84117 3.55388 2.55543C-0.976021 6.95193 1.73938 12.5325 5.01948 14.0579C8.29958 15.5834 10.3056 15.0521 9.95558 17.0905C9.60568 19.129 4.93908 24.7808 0.839279 27.4129C0.567279 27.6442 0.46378 28.093 0.72578 28.4334C0.89798 28.6574 1.23588 29.0966 1.73938 29.751C2.17968 30.3232 2.60148 30.3018 3.17098 29.9361Z" fill="url(#paint3_linear_278_272)" fill-opacity="0.2"/>
<defs>
<linearGradient id="paint0_linear_278_272" x1="28.0377" y1="30.198" x2="28.0377" y2="0.93441" gradientUnits="userSpaceOnUse">
<stop stop-color="#0085AF"/>
<stop offset="1" stop-color="#0085AF" stop-opacity="0"/>
</linearGradient>
<linearGradient id="paint1_linear_278_272" x1="26.0858" y1="0.934411" x2="32.7599" y2="18.9093" gradientUnits="userSpaceOnUse">
<stop stop-color="#481687"/>
<stop offset="1" stop-color="#481687" stop-opacity="0"/>
</linearGradient>
<linearGradient id="paint2_linear_278_272" x1="8.21206" y1="30.198" x2="8.21206" y2="0.93441" gradientUnits="userSpaceOnUse">
<stop stop-color="#0085AF"/>
<stop offset="1" stop-color="#0085AF" stop-opacity="0"/>
</linearGradient>
<linearGradient id="paint3_linear_278_272" x1="6.26017" y1="0.934411" x2="12.9343" y2="18.9093" gradientUnits="userSpaceOnUse">
<stop stop-color="#481687"/>
<stop offset="1" stop-color="#481687" stop-opacity="0"/>
</linearGradient>
</defs>
</svg>
