<svg width="49" height="49" viewBox="0 0 49 49" fill="none" xmlns="http://www.w3.org/2000/svg">
<g opacity="0.57">
<path fill-rule="evenodd" clip-rule="evenodd" d="M19.4782 9.31398C11.9476 14.1503 7.76401 19.7792 6.92744 26.2009C5.62509 36.198 14.5653 41.0913 19.0952 36.6947C23.6251 32.2982 20.9097 26.7176 17.6296 25.1922C14.3495 23.6667 12.3436 24.198 12.6935 22.1596C13.0434 20.1211 17.71 14.4693 21.8098 11.8372C22.0818 11.6059 22.1853 11.1571 21.9234 10.8167C21.7511 10.5927 21.4132 10.1536 20.9097 9.49913C20.4694 8.92687 20.0476 8.94828 19.4782 9.31398Z" fill="#6B3FCA"/>
<path fill-rule="evenodd" clip-rule="evenodd" d="M19.4782 9.31398C11.9476 14.1503 7.76401 19.7792 6.92744 26.2009C5.62509 36.198 14.5653 41.0913 19.0952 36.6947C23.6251 32.2982 20.9097 26.7176 17.6296 25.1922C14.3495 23.6667 12.3436 24.198 12.6935 22.1596C13.0434 20.1211 17.71 14.4693 21.8098 11.8372C22.0818 11.6059 22.1853 11.1571 21.9234 10.8167C21.7511 10.5927 21.4132 10.1536 20.9097 9.49913C20.4694 8.92687 20.0476 8.94828 19.4782 9.31398Z" fill="url(#paint0_linear_278_268)"/>
<path fill-rule="evenodd" clip-rule="evenodd" d="M19.4782 9.31398C11.9476 14.1503 7.76401 19.7792 6.92744 26.2009C5.62509 36.198 14.5653 41.0913 19.0952 36.6947C23.6251 32.2982 20.9097 26.7176 17.6296 25.1922C14.3495 23.6667 12.3436 24.198 12.6935 22.1596C13.0434 20.1211 17.71 14.4693 21.8098 11.8372C22.0818 11.6059 22.1853 11.1571 21.9234 10.8167C21.7511 10.5927 21.4132 10.1536 20.9097 9.49913C20.4694 8.92687 20.0476 8.94828 19.4782 9.31398Z" fill="url(#paint1_linear_278_268)" fill-opacity="0.2"/>
<path fill-rule="evenodd" clip-rule="evenodd" d="M39.3038 9.31398C31.7733 14.1503 27.5897 19.7792 26.7531 26.2009C25.4508 36.198 34.391 41.0913 38.9209 36.6947C43.4508 32.2982 40.7353 26.7176 37.4552 25.1922C34.1751 23.6667 32.1692 24.198 32.5192 22.1596C32.8691 20.1211 37.5357 14.4693 41.6355 11.8372C41.9075 11.6059 42.011 11.1571 41.749 10.8167C41.5768 10.5927 41.2389 10.1536 40.7354 9.49913C40.2951 8.92687 39.8733 8.94828 39.3038 9.31398Z" fill="#6B3FCA"/>
<path fill-rule="evenodd" clip-rule="evenodd" d="M39.3038 9.31398C31.7733 14.1503 27.5897 19.7792 26.7531 26.2009C25.4508 36.198 34.391 41.0913 38.9209 36.6947C43.4508 32.2982 40.7353 26.7176 37.4552 25.1922C34.1751 23.6667 32.1692 24.198 32.5192 22.1596C32.8691 20.1211 37.5357 14.4693 41.6355 11.8372C41.9075 11.6059 42.011 11.1571 41.749 10.8167C41.5768 10.5927 41.2389 10.1536 40.7354 9.49913C40.2951 8.92687 39.8733 8.94828 39.3038 9.31398Z" fill="url(#paint2_linear_278_268)"/>
<path fill-rule="evenodd" clip-rule="evenodd" d="M39.3038 9.31398C31.7733 14.1503 27.5897 19.7792 26.7531 26.2009C25.4508 36.198 34.391 41.0913 38.9209 36.6947C43.4508 32.2982 40.7353 26.7176 37.4552 25.1922C34.1751 23.6667 32.1692 24.198 32.5192 22.1596C32.8691 20.1211 37.5357 14.4693 41.6355 11.8372C41.9075 11.6059 42.011 11.1571 41.749 10.8167C41.5768 10.5927 41.2389 10.1536 40.7354 9.49913C40.2951 8.92687 39.8733 8.94828 39.3038 9.31398Z" fill="url(#paint3_linear_278_268)" fill-opacity="0.2"/>
</g>
<defs>
<linearGradient id="paint0_linear_278_268" x1="14.437" y1="9.05212" x2="14.437" y2="38.3157" gradientUnits="userSpaceOnUse">
<stop stop-color="#0085AF"/>
<stop offset="1" stop-color="#0085AF" stop-opacity="0"/>
</linearGradient>
<linearGradient id="paint1_linear_278_268" x1="16.3889" y1="38.3157" x2="9.71483" y2="20.3408" gradientUnits="userSpaceOnUse">
<stop stop-color="#481687"/>
<stop offset="1" stop-color="#481687" stop-opacity="0"/>
</linearGradient>
<linearGradient id="paint2_linear_278_268" x1="34.2627" y1="9.05212" x2="34.2627" y2="38.3157" gradientUnits="userSpaceOnUse">
<stop stop-color="#0085AF"/>
<stop offset="1" stop-color="#0085AF" stop-opacity="0"/>
</linearGradient>
<linearGradient id="paint3_linear_278_268" x1="36.2146" y1="38.3157" x2="29.5405" y2="20.3408" gradientUnits="userSpaceOnUse">
<stop stop-color="#481687"/>
<stop offset="1" stop-color="#481687" stop-opacity="0"/>
</linearGradient>
</defs>
</svg>
