<svg width="159" height="47" viewBox="0 0 159 47" fill="none" xmlns="http://www.w3.org/2000/svg">
<path d="M157.53 40.6995C157.53 41.2792 157.413 41.8532 157.187 42.3888C156.961 42.9243 156.629 43.4109 156.21 43.8206C155.792 44.2303 155.296 44.5551 154.749 44.7766C154.203 44.998 153.617 45.1117 153.026 45.1111H5.63642C4.44182 45.1123 3.29563 44.6482 2.44993 43.8209C1.60423 42.9936 1.12827 41.8708 1.12671 40.6995V5.51821C1.12827 4.34632 1.60404 3.22293 2.44958 2.39471C3.29511 1.56649 4.44128 1.10113 5.63642 1.10083H153.025C153.616 1.10083 154.202 1.2151 154.749 1.43711C155.295 1.65911 155.792 1.98451 156.21 2.39472C156.628 2.80493 156.96 3.29191 157.186 3.82784C157.412 4.36377 157.529 4.93817 157.529 5.51821L157.53 40.6995Z" fill="white"/>
<path d="M153.026 46.1374H5.6365C4.16489 46.1371 2.75351 45.5644 1.71204 44.5449C0.670576 43.5254 0.0840989 42.1424 0.0812988 40.6995L0.0812988 5.51937C0.0834759 4.07567 0.669566 2.69177 1.711 1.67124C2.75243 0.650713 4.16416 0.0769021 5.6365 0.0756836L153.025 0.0756836C154.497 0.0775102 155.908 0.651517 156.95 1.67191C157.991 2.69231 158.577 4.07586 158.58 5.51937V40.6995C158.582 43.6989 156.086 46.1374 153.026 46.1374Z" fill="#A6A6A6"/>
<path d="M157.53 40.6995C157.53 41.2792 157.413 41.8532 157.187 42.3888C156.961 42.9243 156.629 43.4109 156.21 43.8206C155.792 44.2303 155.296 44.5551 154.749 44.7766C154.203 44.998 153.617 45.1117 153.026 45.1111H5.63642C4.44182 45.1123 3.29563 44.6482 2.44993 43.8209C1.60423 42.9936 1.12827 41.8708 1.12671 40.6995V5.51821C1.12827 4.34632 1.60404 3.22293 2.44958 2.39471C3.29511 1.56649 4.44128 1.10113 5.63642 1.10083H153.025C153.616 1.10083 154.202 1.2151 154.749 1.43711C155.295 1.65911 155.792 1.98451 156.21 2.39472C156.628 2.80493 156.96 3.29191 157.186 3.82784C157.412 4.36377 157.529 4.93817 157.529 5.51821L157.53 40.6995Z" fill="black"/>
<path d="M35.4725 22.8641C35.4385 19.1517 38.5726 17.3455 38.7159 17.2614C36.9409 14.7239 34.1898 14.3772 33.223 14.3495C30.9123 14.1111 28.671 15.7053 27.4939 15.7053C26.2934 15.7053 24.4808 14.3726 22.5272 14.4117C20.0134 14.4498 17.6616 15.8769 16.3718 18.0931C13.7099 22.6118 15.6951 29.2523 18.2454 32.9049C19.5212 34.6948 21.0119 36.691 22.9631 36.6207C24.872 36.5447 25.585 35.4286 27.8886 35.4286C30.1711 35.4286 30.8407 36.6208 32.8306 36.5758C34.8793 36.5447 36.1691 34.7789 37.4002 32.974C38.8745 30.9248 39.4665 28.9044 39.49 28.8008C39.4431 28.7847 35.5125 27.3126 35.4725 22.8641ZM31.7135 11.9468C32.7402 10.6878 33.4426 8.97497 33.2476 7.23682C31.7616 7.30132 29.9032 8.24469 28.8331 9.47603C27.8863 10.5611 27.0405 12.3396 27.259 14.0121C28.9282 14.1342 30.6421 13.1862 31.7135 11.9468Z" fill="white"/>
<path d="M153.026 0.0756836H74.0798L105.002 46.1374H153.026C154.498 46.1362 155.909 45.5627 156.951 44.5427C157.992 43.5226 158.579 42.1393 158.581 40.696V5.51937C158.579 4.07577 157.993 2.69204 156.951 1.67158C155.91 0.651115 154.498 0.0772063 153.026 0.0756836V0.0756836Z" fill="url(#paint0_linear_37_147)"/>
<path d="M63.1222 36.364H60.4544L58.9931 31.8613H53.9136L52.5216 36.364H49.9243L54.9579 21.035H58.0662L63.1222 36.364ZM58.5526 29.9723L57.231 25.9696C57.0912 25.5607 56.8281 24.5977 56.4428 23.0819H56.3958C56.2407 23.7338 55.9929 24.6968 55.6534 25.9696L54.3541 29.9723H58.5526ZM76.0416 30.7014C76.0416 32.5813 75.5212 34.0672 74.4793 35.158C73.5465 36.129 72.3871 36.6139 71.0045 36.6139C69.5114 36.6139 68.4377 36.0921 67.7858 35.0462V40.8459H65.2813V28.9437C65.2813 27.763 65.2496 26.5524 65.1885 25.3107H67.3911L67.5309 27.0627H67.5778C68.4131 25.7427 69.6806 25.0827 71.3816 25.0827C72.7113 25.0827 73.8214 25.5975 74.7095 26.6285C75.5964 27.6617 76.0416 29.0186 76.0416 30.7014ZM73.4902 30.7913C73.4902 29.7154 73.2435 28.8285 72.7477 28.1293C72.2062 27.4025 71.4791 27.0385 70.5675 27.0385C69.9496 27.0385 69.3881 27.2412 68.8865 27.6409C68.3837 28.0441 68.0548 28.5705 67.9009 29.2224C67.8322 29.4663 67.7932 29.7172 67.7846 29.97V31.8141C67.7846 32.617 68.036 33.2954 68.5388 33.8506C69.0415 34.4035 69.6947 34.6811 70.4982 34.6811C71.4415 34.6811 72.1757 34.3229 72.7008 33.6122C73.227 32.8992 73.4902 31.9593 73.4902 30.7913ZM89.0069 30.7014C89.0069 32.5813 88.4865 34.0672 87.4445 35.158C86.5106 36.129 85.3524 36.6139 83.9686 36.6139C82.4755 36.6139 81.4018 36.0921 80.7499 35.0462V40.8459H78.2454V28.9437C78.2454 27.763 78.2137 26.5524 78.1526 25.3107H80.3552L80.495 27.0627H80.5419C81.376 25.7427 82.6435 25.0827 84.3456 25.0827C85.6742 25.0827 86.7843 25.5975 87.6748 26.6285C88.5605 27.6617 89.0069 29.0186 89.0069 30.7014ZM86.4543 30.7913C86.4543 29.7154 86.2064 28.8285 85.7107 28.1293C85.1691 27.4025 84.4443 27.0385 83.5327 27.0385C82.9149 27.0385 82.3533 27.2412 81.8494 27.6409C81.3466 28.0441 81.0189 28.5705 80.865 29.2224C80.7886 29.5265 80.7475 29.7742 80.7475 29.97V31.8141C80.7475 32.617 81.0001 33.2954 81.5005 33.8506C82.0033 34.4024 82.6564 34.6811 83.4623 34.6811C84.4067 34.6811 85.1409 34.3229 85.6648 33.6122C86.1911 32.8992 86.4543 31.9593 86.4543 30.7913ZM103.503 32.0641C103.503 33.3691 103.038 34.43 102.113 35.249C101.096 36.1428 99.6756 36.5909 97.8548 36.5909C96.1726 36.5909 94.8241 36.273 93.8068 35.636L94.3859 33.5891C95.4842 34.2273 96.6907 34.5452 98.004 34.5452C98.9485 34.5452 99.6827 34.3355 100.207 33.9197C100.732 33.5027 100.997 32.9452 100.997 32.2495C100.997 31.6264 100.777 31.1046 100.346 30.6795C99.9129 30.2557 99.1963 29.8606 98.1896 29.4977C95.4525 28.4968 94.0828 27.0328 94.0828 25.1068C94.0828 23.849 94.5668 22.8193 95.5324 22.0141C96.498 21.2101 97.7784 20.8081 99.3714 20.8081C100.794 20.8081 101.979 21.0511 102.92 21.5361L102.292 23.538C101.406 23.0681 100.406 22.8331 99.2879 22.8331C98.4046 22.8331 97.7115 23.0462 97.2158 23.4701C96.7987 23.849 96.5873 24.3109 96.5873 24.8592C96.5873 25.4639 96.8281 25.9661 97.3074 26.3601C97.7232 26.7229 98.4821 27.118 99.5793 27.5419C100.925 28.074 101.915 28.6937 102.548 29.4056C103.186 30.1174 103.503 31.0055 103.503 32.0641ZM111.804 27.1537H109.044V32.5202C109.044 33.8852 109.53 34.5659 110.505 34.5659C110.953 34.5659 111.324 34.5291 111.618 34.4519L111.687 36.3167C111.194 36.4976 110.544 36.5886 109.739 36.5886C108.75 36.5886 107.977 36.2926 107.419 35.7005C106.864 35.1084 106.584 34.1167 106.584 32.7206V27.1491H104.939V25.3061H106.584V23.2823L109.044 22.5543V25.3061H111.804V27.1537ZM124.235 30.7463C124.235 32.4453 123.74 33.8402 122.75 34.9311C121.715 36.0541 120.339 36.6139 118.622 36.6139C116.966 36.6139 115.649 36.076 114.667 35.0013C113.685 33.9243 113.194 32.5674 113.194 30.9306C113.194 29.2178 113.702 27.8149 114.713 26.7241C115.727 25.6321 117.092 25.0861 118.808 25.0861C120.462 25.0861 121.791 25.6252 122.796 26.701C123.757 27.7446 124.235 29.0923 124.235 30.7463ZM121.639 30.8028C121.639 29.7903 121.416 28.9218 120.968 28.195C120.443 27.3173 119.691 26.8784 118.718 26.8784C117.714 26.8784 116.945 27.3173 116.421 28.195C115.972 28.9218 115.749 29.8053 115.749 30.8489C115.749 31.8625 115.972 32.7333 116.421 33.4578C116.963 34.3355 117.718 34.7744 118.696 34.7744C119.654 34.7744 120.405 34.3263 120.947 33.4359C121.408 32.6918 121.639 31.8176 121.639 30.8028ZM132.38 27.4705C132.119 27.4243 131.855 27.4016 131.59 27.4025C130.709 27.4025 130.028 27.7273 129.548 28.3816C129.133 28.9575 128.924 29.6855 128.924 30.5644V36.364H126.419V28.7916C126.421 27.6313 126.397 26.4711 126.346 25.3119H128.528L128.619 27.4267H128.689C128.954 26.6999 129.37 26.1136 129.941 25.6747C130.463 25.2912 131.098 25.0836 131.751 25.0827C131.982 25.0827 132.192 25.0988 132.377 25.1276L132.38 27.4705ZM143.58 30.3144C143.587 30.6877 143.556 31.0608 143.489 31.4282H135.975C136.003 32.5202 136.368 33.3565 137.065 33.9324C137.699 34.4461 138.517 34.7041 139.523 34.7041C140.635 34.7041 141.65 34.5314 142.563 34.1823L142.955 35.8859C141.889 36.3421 140.629 36.569 139.176 36.569C137.428 36.569 136.056 36.0645 135.058 35.0578C134.062 34.0499 133.562 32.6953 133.562 30.9986C133.562 29.333 134.026 27.945 134.956 26.8381C135.928 25.6563 137.243 25.0654 138.897 25.0654C140.521 25.0654 141.751 25.6563 142.587 26.8381C143.248 27.7745 143.58 28.9356 143.58 30.3144ZM141.192 29.6774C141.21 28.9483 141.045 28.3205 140.706 27.7895C140.272 27.1053 139.605 26.7644 138.711 26.7644C137.892 26.7644 137.225 27.0973 136.718 27.7653C136.301 28.2963 136.053 28.9345 135.976 29.6751L141.192 29.6774Z" fill="white"/>
<path d="M53.1912 15.6154C52.4946 15.6154 51.892 15.582 51.3904 15.5255V8.11447C52.0919 8.00821 52.8009 7.95583 53.5107 7.95782C56.3829 7.95782 57.7056 9.34351 57.7056 11.6023C57.7056 14.2078 56.1433 15.6154 53.1912 15.6154ZM53.6118 8.9081C53.2241 8.9081 52.894 8.93114 52.6203 8.98643V14.6202C52.7683 14.6432 53.0526 14.6536 53.452 14.6536C55.3339 14.6536 56.4052 13.6031 56.4052 11.6357C56.4052 9.88142 55.4361 8.9081 53.6118 8.9081ZM61.8277 15.6718C60.2089 15.6718 59.1599 14.4866 59.1599 12.8774C59.1599 11.2003 60.2312 10.0047 61.9193 10.0047C63.5146 10.0047 64.5871 11.1335 64.5871 12.7887C64.5871 14.4866 63.4817 15.6718 61.8277 15.6718ZM61.8747 10.887C60.9854 10.887 60.4157 11.7025 60.4157 12.8429C60.4157 13.9613 60.9972 14.7768 61.8629 14.7768C62.7287 14.7768 63.3102 13.9049 63.3102 12.8198C63.3102 11.714 62.7404 10.887 61.8747 10.887ZM73.8179 10.1164L72.0852 15.5486H70.9563L70.2386 13.1896C70.0601 12.6125 69.9115 12.027 69.7934 11.4353H69.7699C69.6794 12.0273 69.5079 12.6205 69.3258 13.1896L68.5623 15.5486H67.4216L65.7911 10.1164H67.0563L67.6836 12.6989C67.8316 13.314 67.9561 13.8945 68.0595 14.4428H68.083C68.1735 13.9855 68.3215 13.4142 68.5388 12.7104L69.3258 10.1176H70.329L71.082 12.6551C71.2641 13.2702 71.4121 13.8738 71.5272 14.4439H71.5601C71.64 13.8853 71.7657 13.2921 71.936 12.6551L72.6092 10.1176L73.8179 10.1164ZM80.1966 15.5486H78.9655V12.4293C78.9655 11.4687 78.5896 10.9872 77.8484 10.9872C77.1189 10.9872 76.6173 11.6023 76.6173 12.3176V15.5486H75.3862V11.6691C75.3862 11.1888 75.3744 10.6739 75.3404 10.1153H76.4234L76.481 10.9538H76.5151C76.8463 10.3733 77.5183 10.0047 78.2712 10.0047C79.4342 10.0047 80.1978 10.8766 80.1978 12.2957L80.1966 15.5486ZM83.5915 15.5486H82.3592V7.62378H83.5915V15.5486ZM88.0801 15.6718C86.4625 15.6718 85.4123 14.4866 85.4123 12.8774C85.4123 11.2003 86.4836 10.0047 88.1705 10.0047C89.767 10.0047 90.8383 11.1335 90.8383 12.7887C90.8395 14.4866 89.7329 15.6718 88.0801 15.6718ZM88.1259 10.887C87.2366 10.887 86.6669 11.7025 86.6669 12.8429C86.6669 13.9613 87.2496 14.7768 88.113 14.7768C88.9799 14.7768 89.5602 13.9049 89.5602 12.8198C89.5614 11.714 88.9928 10.887 88.1259 10.887ZM95.6922 15.5486L95.6029 14.9231H95.57C95.1941 15.4265 94.6455 15.6718 93.9501 15.6718C92.9575 15.6718 92.2526 14.9899 92.2526 14.073C92.2526 12.7323 93.4379 12.0389 95.4901 12.0389V11.9386C95.4901 11.2233 95.1037 10.8651 94.3401 10.8651C93.7939 10.8651 93.3146 10.9999 92.8929 11.2683L92.6426 10.4746C93.1548 10.1613 93.7939 10.0047 94.5445 10.0047C95.9917 10.0047 96.7224 10.7534 96.7224 12.252V14.2527C96.7224 14.801 96.7471 15.2261 96.8023 15.5497L95.6922 15.5486ZM95.523 12.8429C94.1557 12.8429 93.4696 13.1677 93.4696 13.9383C93.4696 14.5084 93.8232 14.7872 94.3143 14.7872C94.9404 14.7872 95.523 14.3184 95.523 13.6814V12.8429ZM102.701 15.5486L102.643 14.6766H102.609C102.255 15.3355 101.661 15.6718 100.83 15.6718C99.4947 15.6718 98.5056 14.52 98.5056 12.8993C98.5056 11.2003 99.5311 10.0035 100.931 10.0035C101.673 10.0035 102.198 10.2489 102.494 10.7419H102.518V7.62378H103.751V14.0846C103.751 14.6098 103.764 15.1017 103.797 15.5486H102.701ZM102.518 12.3522C102.518 11.5919 102.005 10.9434 101.222 10.9434C100.309 10.9434 99.7508 11.7371 99.7508 12.8544C99.7508 13.9498 100.33 14.6997 101.197 14.6997C101.971 14.6997 102.518 14.0396 102.518 13.2575V12.3522ZM111.564 15.6718C109.946 15.6718 108.897 14.4866 108.897 12.8774C108.897 11.2003 109.968 10.0047 111.655 10.0047C113.252 10.0047 114.323 11.1335 114.323 12.7887C114.324 14.4866 113.219 15.6718 111.564 15.6718ZM111.61 10.887C110.721 10.887 110.152 11.7025 110.152 12.8429C110.152 13.9613 110.733 14.7768 111.598 14.7768C112.465 14.7768 113.045 13.9049 113.045 12.8198C113.047 11.714 112.478 10.887 111.61 10.887ZM120.944 15.5486H119.711V12.4293C119.711 11.4687 119.336 10.9872 118.594 10.9872C117.865 10.9872 117.364 11.6023 117.364 12.3176V15.5486H116.132V11.6691C116.132 11.1888 116.12 10.6739 116.086 10.1153H117.169L117.227 10.9538H117.261C117.591 10.3733 118.264 10.0035 119.016 10.0035C120.179 10.0035 120.944 10.8755 120.944 12.2946V15.5486ZM129.227 11.0218H127.872V13.6595C127.872 14.3311 128.109 14.6662 128.589 14.6662C128.806 14.6662 128.988 14.6432 129.135 14.6098L129.169 15.5267C128.931 15.6165 128.611 15.6615 128.214 15.6615C127.244 15.6615 126.663 15.1362 126.663 13.7609V11.0218H125.855V10.1164H126.663V9.1212L127.872 8.76297V10.1153H129.227V11.0218ZM135.744 15.5486H134.514V12.4524C134.514 11.4802 134.139 10.9884 133.397 10.9884C132.759 10.9884 132.165 11.4134 132.165 12.2738V15.5486H130.935V7.62378H132.165V10.887H132.189C132.577 10.2949 133.138 10.0035 133.855 10.0035C135.027 10.0035 135.744 10.8974 135.744 12.3176V15.5486ZM142.421 13.1228H138.726C138.75 14.1514 139.444 14.7319 140.472 14.7319C141.018 14.7319 141.521 14.6421 141.965 14.475L142.157 15.3136C141.633 15.5371 141.016 15.6488 140.298 15.6488C138.566 15.6488 137.54 14.5753 137.54 12.9108C137.54 11.2452 138.59 9.99315 140.16 9.99315C141.575 9.99315 142.463 11.0218 142.463 12.5756C142.471 12.759 142.457 12.9427 142.421 13.1228ZM141.292 12.2623C141.292 11.4238 140.861 10.8317 140.074 10.8317C139.367 10.8317 138.808 11.4353 138.728 12.2623H141.292Z" fill="white"/>
<defs>
<linearGradient id="paint0_linear_37_147" x1="116.329" y1="46.2597" x2="116.329" y2="-119.861" gradientUnits="userSpaceOnUse">
<stop stop-color="#1A1A1A" stop-opacity="0.1"/>
<stop offset="0.123" stop-color="#212121" stop-opacity="0.151"/>
<stop offset="0.308" stop-color="#353535" stop-opacity="0.227"/>
<stop offset="0.532" stop-color="#575757" stop-opacity="0.318"/>
<stop offset="0.783" stop-color="#858585" stop-opacity="0.421"/>
<stop offset="1" stop-color="#B3B3B3" stop-opacity="0.51"/>
</linearGradient>
</defs>
</svg>
