<svg width="51" height="50" viewBox="0 0 51 50" fill="none" xmlns="http://www.w3.org/2000/svg">
<circle cx="25.72" cy="25" r="25" fill="#663399"/>
<path d="M15.9421 18.8889H17.1644V20.1111H15.9421V18.8889Z" fill="#D9D9D9"/>
<path d="M18.9977 20.1111H33.6644C33.8265 20.1111 33.9819 20.0468 34.0965 19.9321C34.2111 19.8175 34.2755 19.6621 34.2755 19.5C34.2755 19.338 34.2111 19.1825 34.0965 19.0679C33.9819 18.9533 33.8265 18.8889 33.6644 18.8889H18.9977C18.8356 18.8889 18.6802 18.9533 18.5656 19.0679C18.451 19.1825 18.3866 19.338 18.3866 19.5C18.3866 19.6621 18.451 19.8175 18.5656 19.9321C18.6802 20.0468 18.8356 20.1111 18.9977 20.1111Z" fill="#D9D9D9"/>
<path d="M15.9421 22.5555H17.1644V23.7778H15.9421V22.5555Z" fill="#D9D9D9"/>
<path d="M33.6644 22.5555H18.9977C18.8356 22.5555 18.6802 22.6199 18.5656 22.7345C18.451 22.8491 18.3866 23.0046 18.3866 23.1667C18.3866 23.3287 18.451 23.4842 18.5656 23.5988C18.6802 23.7134 18.8356 23.7778 18.9977 23.7778H33.6644C33.8265 23.7778 33.9819 23.7134 34.0965 23.5988C34.2111 23.4842 34.2755 23.3287 34.2755 23.1667C34.2755 23.0046 34.2111 22.8491 34.0965 22.7345C33.9819 22.6199 33.8265 22.5555 33.6644 22.5555Z" fill="#D9D9D9"/>
<path d="M15.9421 26.2222H17.1644V27.4444H15.9421V26.2222Z" fill="#D9D9D9"/>
<path d="M33.6644 26.2222H18.9977C18.8356 26.2222 18.6802 26.2866 18.5656 26.4012C18.451 26.5158 18.3866 26.6712 18.3866 26.8333C18.3866 26.9954 18.451 27.1508 18.5656 27.2654C18.6802 27.38 18.8356 27.4444 18.9977 27.4444H33.6644C33.8265 27.4444 33.9819 27.38 34.0965 27.2654C34.2111 27.1508 34.2755 26.9954 34.2755 26.8333C34.2755 26.6712 34.2111 26.5158 34.0965 26.4012C33.9819 26.2866 33.8265 26.2222 33.6644 26.2222Z" fill="#D9D9D9"/>
<path d="M15.9421 29.8889H17.1644V31.1111H15.9421V29.8889Z" fill="#D9D9D9"/>
<path d="M33.6644 29.8889H18.9977C18.8356 29.8889 18.6802 29.9533 18.5656 30.0679C18.451 30.1825 18.3866 30.338 18.3866 30.5C18.3866 30.6621 18.451 30.8175 18.5656 30.9321C18.6802 31.0468 18.8356 31.1111 18.9977 31.1111H33.6644C33.8265 31.1111 33.9819 31.0468 34.0965 30.9321C34.2111 30.8175 34.2755 30.6621 34.2755 30.5C34.2755 30.338 34.2111 30.1825 34.0965 30.0679C33.9819 29.9533 33.8265 29.8889 33.6644 29.8889Z" fill="#D9D9D9"/>
</svg>
