<svg width="31" height="31" viewBox="0 0 31 31" fill="none" xmlns="http://www.w3.org/2000/svg">
<path d="M15.5813 2.69482C10.4057 2.69482 6.2063 6.47471 6.2063 11.1323C6.2063 18.6323 15.5813 28.9448 15.5813 28.9448C15.5813 28.9448 24.9563 18.6323 24.9563 11.1323C24.9563 6.47471 20.7569 2.69482 15.5813 2.69482ZM15.5813 15.8198C14.8396 15.8198 14.1146 15.5999 13.4979 15.1878C12.8812 14.7758 12.4006 14.1901 12.1168 13.5049C11.8329 12.8197 11.7587 12.0657 11.9034 11.3382C12.048 10.6108 12.4052 9.94262 12.9296 9.41817C13.4541 8.89373 14.1223 8.53657 14.8497 8.39188C15.5771 8.24718 16.3311 8.32145 17.0164 8.60528C17.7016 8.8891 18.2873 9.36975 18.6993 9.98644C19.1114 10.6031 19.3313 11.3281 19.3313 12.0698C19.3302 13.0641 18.9348 14.0173 18.2318 14.7203C17.5287 15.4233 16.5755 15.8187 15.5813 15.8198Z" fill="#654EA4"/>
<path d="M15.5813 2.69482C10.4057 2.69482 6.2063 6.47471 6.2063 11.1323C6.2063 18.6323 15.5813 28.9448 15.5813 28.9448C15.5813 28.9448 24.9563 18.6323 24.9563 11.1323C24.9563 6.47471 20.7569 2.69482 15.5813 2.69482ZM15.5813 15.8198C14.8396 15.8198 14.1146 15.5999 13.4979 15.1878C12.8812 14.7758 12.4006 14.1901 12.1168 13.5049C11.8329 12.8197 11.7587 12.0657 11.9034 11.3382C12.048 10.6108 12.4052 9.94262 12.9296 9.41817C13.4541 8.89373 14.1223 8.53657 14.8497 8.39188C15.5771 8.24718 16.3311 8.32145 17.0164 8.60528C17.7016 8.8891 18.2873 9.36975 18.6993 9.98644C19.1114 10.6031 19.3313 11.3281 19.3313 12.0698C19.3302 13.0641 18.9348 14.0173 18.2318 14.7203C17.5287 15.4233 16.5755 15.8187 15.5813 15.8198Z" fill="url(#paint0_linear_36_71)" fill-opacity="0.2"/>
<path d="M15.5813 2.69482C10.4057 2.69482 6.2063 6.47471 6.2063 11.1323C6.2063 18.6323 15.5813 28.9448 15.5813 28.9448C15.5813 28.9448 24.9563 18.6323 24.9563 11.1323C24.9563 6.47471 20.7569 2.69482 15.5813 2.69482ZM15.5813 15.8198C14.8396 15.8198 14.1146 15.5999 13.4979 15.1878C12.8812 14.7758 12.4006 14.1901 12.1168 13.5049C11.8329 12.8197 11.7587 12.0657 11.9034 11.3382C12.048 10.6108 12.4052 9.94262 12.9296 9.41817C13.4541 8.89373 14.1223 8.53657 14.8497 8.39188C15.5771 8.24718 16.3311 8.32145 17.0164 8.60528C17.7016 8.8891 18.2873 9.36975 18.6993 9.98644C19.1114 10.6031 19.3313 11.3281 19.3313 12.0698C19.3302 13.0641 18.9348 14.0173 18.2318 14.7203C17.5287 15.4233 16.5755 15.8187 15.5813 15.8198Z" fill="url(#paint1_linear_36_71)"/>
<path d="M15.5813 2.69482C10.4057 2.69482 6.2063 6.47471 6.2063 11.1323C6.2063 18.6323 15.5813 28.9448 15.5813 28.9448C15.5813 28.9448 24.9563 18.6323 24.9563 11.1323C24.9563 6.47471 20.7569 2.69482 15.5813 2.69482ZM15.5813 15.8198C14.8396 15.8198 14.1146 15.5999 13.4979 15.1878C12.8812 14.7758 12.4006 14.1901 12.1168 13.5049C11.8329 12.8197 11.7587 12.0657 11.9034 11.3382C12.048 10.6108 12.4052 9.94262 12.9296 9.41817C13.4541 8.89373 14.1223 8.53657 14.8497 8.39188C15.5771 8.24718 16.3311 8.32145 17.0164 8.60528C17.7016 8.8891 18.2873 9.36975 18.6993 9.98644C19.1114 10.6031 19.3313 11.3281 19.3313 12.0698C19.3302 13.0641 18.9348 14.0173 18.2318 14.7203C17.5287 15.4233 16.5755 15.8187 15.5813 15.8198Z" fill="url(#paint2_linear_36_71)" fill-opacity="0.2"/>
<path d="M15.5813 2.69482C10.4057 2.69482 6.2063 6.47471 6.2063 11.1323C6.2063 18.6323 15.5813 28.9448 15.5813 28.9448C15.5813 28.9448 24.9563 18.6323 24.9563 11.1323C24.9563 6.47471 20.7569 2.69482 15.5813 2.69482ZM15.5813 15.8198C14.8396 15.8198 14.1146 15.5999 13.4979 15.1878C12.8812 14.7758 12.4006 14.1901 12.1168 13.5049C11.8329 12.8197 11.7587 12.0657 11.9034 11.3382C12.048 10.6108 12.4052 9.94262 12.9296 9.41817C13.4541 8.89373 14.1223 8.53657 14.8497 8.39188C15.5771 8.24718 16.3311 8.32145 17.0164 8.60528C17.7016 8.8891 18.2873 9.36975 18.6993 9.98644C19.1114 10.6031 19.3313 11.3281 19.3313 12.0698C19.3302 13.0641 18.9348 14.0173 18.2318 14.7203C17.5287 15.4233 16.5755 15.8187 15.5813 15.8198Z" fill="url(#paint3_linear_36_71)" fill-opacity="0.22"/>
<path d="M15.5813 2.69482C10.4057 2.69482 6.2063 6.47471 6.2063 11.1323C6.2063 18.6323 15.5813 28.9448 15.5813 28.9448C15.5813 28.9448 24.9563 18.6323 24.9563 11.1323C24.9563 6.47471 20.7569 2.69482 15.5813 2.69482ZM15.5813 15.8198C14.8396 15.8198 14.1146 15.5999 13.4979 15.1878C12.8812 14.7758 12.4006 14.1901 12.1168 13.5049C11.8329 12.8197 11.7587 12.0657 11.9034 11.3382C12.048 10.6108 12.4052 9.94262 12.9296 9.41817C13.4541 8.89373 14.1223 8.53657 14.8497 8.39188C15.5771 8.24718 16.3311 8.32145 17.0164 8.60528C17.7016 8.8891 18.2873 9.36975 18.6993 9.98644C19.1114 10.6031 19.3313 11.3281 19.3313 12.0698C19.3302 13.0641 18.9348 14.0173 18.2318 14.7203C17.5287 15.4233 16.5755 15.8187 15.5813 15.8198Z" fill="url(#paint4_linear_36_71)" fill-opacity="0.61"/>
<path d="M15.5813 2.69482C10.4057 2.69482 6.2063 6.47471 6.2063 11.1323C6.2063 18.6323 15.5813 28.9448 15.5813 28.9448C15.5813 28.9448 24.9563 18.6323 24.9563 11.1323C24.9563 6.47471 20.7569 2.69482 15.5813 2.69482ZM15.5813 15.8198C14.8396 15.8198 14.1146 15.5999 13.4979 15.1878C12.8812 14.7758 12.4006 14.1901 12.1168 13.5049C11.8329 12.8197 11.7587 12.0657 11.9034 11.3382C12.048 10.6108 12.4052 9.94262 12.9296 9.41817C13.4541 8.89373 14.1223 8.53657 14.8497 8.39188C15.5771 8.24718 16.3311 8.32145 17.0164 8.60528C17.7016 8.8891 18.2873 9.36975 18.6993 9.98644C19.1114 10.6031 19.3313 11.3281 19.3313 12.0698C19.3302 13.0641 18.9348 14.0173 18.2318 14.7203C17.5287 15.4233 16.5755 15.8187 15.5813 15.8198Z" fill="url(#paint5_linear_36_71)" fill-opacity="0.2"/>
<defs>
<linearGradient id="paint0_linear_36_71" x1="15.5813" y1="2.69482" x2="15.5813" y2="28.9448" gradientUnits="userSpaceOnUse">
<stop/>
<stop offset="1" stop-opacity="0"/>
</linearGradient>
<linearGradient id="paint1_linear_36_71" x1="15.5813" y1="2.69482" x2="22.0408" y2="34.7939" gradientUnits="userSpaceOnUse">
<stop stop-color="#201933"/>
<stop offset="1" stop-color="#201933" stop-opacity="0"/>
</linearGradient>
<linearGradient id="paint2_linear_36_71" x1="15.5813" y1="32.2723" x2="15.5813" y2="-1.37208" gradientUnits="userSpaceOnUse">
<stop stop-color="#242424"/>
<stop offset="1" stop-color="#242424" stop-opacity="0"/>
</linearGradient>
<linearGradient id="paint3_linear_36_71" x1="15.5813" y1="2.69482" x2="15.5813" y2="28.9448" gradientUnits="userSpaceOnUse">
<stop stop-color="#034D64"/>
<stop offset="1" stop-color="#0085AF" stop-opacity="0"/>
</linearGradient>
<linearGradient id="paint4_linear_36_71" x1="15.5813" y1="2.69482" x2="15.5813" y2="28.9448" gradientUnits="userSpaceOnUse">
<stop stop-color="white"/>
<stop offset="1" stop-color="white" stop-opacity="0"/>
</linearGradient>
<linearGradient id="paint5_linear_36_71" x1="6.2063" y1="39.6667" x2="31.155" y2="36.1229" gradientUnits="userSpaceOnUse">
<stop stop-color="#D8D8D8"/>
<stop offset="1" stop-color="#D8D8D8" stop-opacity="0"/>
</linearGradient>
</defs>
</svg>
