<svg width="26" height="17" viewBox="0 0 26 17" fill="none" xmlns="http://www.w3.org/2000/svg">
<g style="mix-blend-mode:multiply">
<g style="mix-blend-mode:multiply">
<path fill-rule="evenodd" clip-rule="evenodd" d="M1.785 13.3942C2.315 12.8173 2.855 12.25 3.405 11.7019C3.955 11.1538 4.595 10.5385 5.205 9.99039C6.385 8.90705 7.61167 7.88461 8.885 6.92308L7.665 6.79808C9.035 5.58654 10.235 4.52885 11.295 3.65385C12.2401 2.83669 13.2648 2.10896 14.355 1.48077C15.1935 1.00929 16.1359 0.734806 17.1055 0.679668C18.0751 0.62453 19.0446 0.790293 19.935 1.16346C19.935 1.44231 19.935 1.73077 19.935 2.01923C17.445 1.21154 16.085 1.20192 14.655 1.95192C13.225 2.70192 11.785 4.18269 9.155 6.38462H10.465C9.465 7.17308 8.465 8 7.465 8.83654C6.465 9.67308 5.565 10.5481 4.655 11.4231C5.315 11.0962 6.085 10.7596 6.945 10.4615C7.805 10.1635 8.995 9.74039 10.215 9.40385C11.4398 9.07092 12.6814 8.79813 13.935 8.58654C15.5891 8.29995 17.2582 8.10093 18.935 7.99038C21.935 7.78846 14.575 7.40384 17.935 7.77884C17.865 8.14423 17.795 8.51923 17.745 8.88462C15.015 8.41346 19.375 8.39423 18.995 8.60577C18.925 8.60577 19.215 8.91346 18.755 8.94231C16.8003 9.06728 14.8562 9.3146 12.935 9.68269C10.0423 10.2355 7.21476 11.0666 4.495 12.1635C3.495 12.5385 2.565 12.9712 1.785 13.3942Z" fill="#D9D9D9"/>
</g>
<g style="mix-blend-mode:multiply">
<path fill-rule="evenodd" clip-rule="evenodd" d="M18.455 6.83654C14.915 6.01923 20.785 6.28846 17.015 6.92308C15.2233 7.23671 13.4559 7.66719 11.725 8.21154C10.855 8.49039 9.98501 8.78847 9.13501 9.11539C8.28501 9.44231 7.57501 9.73077 6.81501 10.0769C7.77133 9.2716 8.77283 8.51726 9.81501 7.81731C10.795 7.15908 11.8322 6.58323 12.915 6.09615L11.355 5.68269C13.945 3.75962 15.355 2.23077 16.445 1.41346C17.535 0.596156 18.535 0.961539 20.275 1.68269H20.375C17.895 0.923078 16.375 0.605773 14.855 1.5577C13.335 2.50962 11.745 4.1827 9.14501 6.36539H10.465C9.41501 7.16346 8.40501 7.99039 7.46501 8.82692C6.52501 9.66346 5.56501 10.5385 4.66501 11.4135C5.25501 11.125 5.94501 10.8173 6.66501 10.5192C7.38501 10.2212 8.43501 9.86539 9.47501 9.5577C10.515 9.25 11.475 9.00962 12.665 8.76923C13.855 8.52885 15.325 8.28846 16.835 8.125C20.225 7.75962 14.365 7.33654 18.425 7.75C18.445 7.44231 18.455 7.14423 18.455 6.83654Z" fill="#D9D9D9"/>
</g>
<g style="mix-blend-mode:multiply">
<path fill-rule="evenodd" clip-rule="evenodd" d="M14.675 5.85577L12.675 5.34615C14.1342 4.39792 15.6846 3.58651 17.305 2.92308C18.3306 2.61807 19.3925 2.44035 20.465 2.39423C20.465 2.02885 20.465 2.31731 20.465 1.95192C18.735 1.27885 17.795 0.990384 16.705 1.51923C15.615 2.04808 14.205 3.71154 11.655 5.63461L12.905 6.09615C11.295 6.83388 9.7784 7.74691 8.38501 8.81731C9.38501 8.31731 10.385 7.77884 11.385 7.26923C12.385 6.75961 13.615 6.24038 14.675 5.85577Z" fill="#D9D9D9"/>
</g>
<g style="mix-blend-mode:multiply">
<path fill-rule="evenodd" clip-rule="evenodd" d="M20.565 2.23077C19.2662 2.42994 17.9971 2.77859 16.785 3.26923C15.3305 3.84123 13.9317 4.53626 12.605 5.34615L14.605 5.85577C13.3015 6.35107 12.0264 6.91276 10.785 7.53846C9.5376 8.13635 8.36082 8.86168 7.27499 9.70192C8.126 9.24621 9.00045 8.83222 9.89499 8.46154C10.8376 8.06434 11.8025 7.71765 12.785 7.42308C14.7126 6.85327 16.7027 6.50153 18.715 6.375L15.555 5.27885C17.0676 4.96098 18.6074 4.77752 20.155 4.73077C20.3892 3.91495 20.5267 3.0763 20.565 2.23077V2.23077Z" fill="#D9D9D9"/>
</g>
<g style="mix-blend-mode:multiply">
<path fill-rule="evenodd" clip-rule="evenodd" d="M20.045 4.75961C17.315 4.97115 18.815 4.97115 15.555 5.28846L18.725 6.375C16.7093 6.50079 14.7158 6.85253 12.785 7.42307C11.7923 7.71664 10.8175 8.06334 9.86501 8.46154C8.97046 8.83222 8.09601 9.24621 7.245 9.70192L6.785 10.0865C7.655 9.71154 8.545 9.34615 9.445 9.00961C10.345 8.67308 11.445 8.29808 12.445 7.99038C14.4585 7.37978 16.5278 6.95479 18.625 6.72115C19.755 6.59615 17.115 6.66346 19.095 6.82692C19.445 6.125 19.785 5.44231 20.045 4.75961Z" fill="#D9D9D9"/>
</g>
<g style="mix-blend-mode:multiply">
<path fill-rule="evenodd" clip-rule="evenodd" d="M13.035 5.125L12.645 5.35577L14.645 5.85577L15.075 5.72115L13.075 5.125H13.035ZM7.785 9.44231C8.64122 8.98762 9.53016 8.59238 10.445 8.25961C11.4247 7.90701 12.4267 7.61475 13.445 7.38461C15.4521 6.95438 17.4921 6.68105 19.545 6.56731L19.305 6.48077C17.24 6.52084 15.1865 6.78861 13.185 7.27885C11.2888 7.75422 9.47121 8.48243 7.785 9.44231ZM16.445 5.40385C17.8288 5.1338 19.2337 4.97619 20.645 4.93269C19.12 4.91253 17.5965 5.03165 16.095 5.28846L16.445 5.40385Z" fill="#D9D9D9"/>
</g>
</g>
<path d="M2.68501 15.8558C2.69477 15.9163 2.69477 15.9779 2.68501 16.0385C2.67504 16.1083 2.63698 16.1716 2.57902 16.2147C2.52106 16.2579 2.44781 16.2774 2.37501 16.2692H1.48501C1.44605 16.2709 1.40719 16.2643 1.37109 16.2502C1.335 16.236 1.30253 16.2144 1.27592 16.187C1.24932 16.1596 1.2292 16.127 1.21696 16.0914C1.20471 16.0558 1.20064 16.018 1.20501 15.9808V13.8365H1.39501C1.58501 13.8365 1.67501 13.9231 1.67501 14.1346V15.8558H2.00501H2.68501Z" fill="#D9D9D9"/>
<path d="M3.56502 16.2308H3.08501V15.0096C3.08501 14.8846 3.08501 14.8173 2.92501 14.8173H2.87501C2.86531 14.7632 2.86531 14.7079 2.87501 14.6538C2.86569 14.5997 2.86569 14.5445 2.87501 14.4904H3.21501C3.26407 14.4887 3.31293 14.4972 3.35824 14.5153C3.40355 14.5335 3.44423 14.5609 3.47749 14.5956C3.51074 14.6303 3.53579 14.6716 3.5509 14.7165C3.56601 14.7614 3.57082 14.8089 3.56502 14.8558V16.2308ZM3.01501 13.8173C3.08685 13.7846 3.16553 13.7681 3.24501 13.7692C3.32779 13.7674 3.40991 13.7838 3.48502 13.8173C3.49802 13.8743 3.49802 13.9334 3.48502 13.9904C3.5011 14.0503 3.5011 14.1132 3.48502 14.1731C3.40603 14.1904 3.324 14.1904 3.24501 14.1731C3.16943 14.1906 3.09059 14.1906 3.01501 14.1731C2.99893 14.1132 2.99893 14.0503 3.01501 13.9904C3.00098 13.9335 3.00098 13.8742 3.01501 13.8173V13.8173Z" fill="#D9D9D9"/>
<path d="M4.66501 14.4423C4.84201 14.4396 5.01352 14.5014 5.14501 14.6154C5.1819 14.5719 5.22742 14.5359 5.27893 14.5095C5.33043 14.4831 5.38689 14.4668 5.44501 14.4615C5.52438 14.5184 5.5809 14.6 5.60501 14.6923C5.56804 14.7328 5.5401 14.7801 5.5229 14.8314C5.5057 14.8827 5.49961 14.9368 5.50501 14.9904V15.9519C5.53808 16.2297 5.4748 16.5103 5.32501 16.75C5.24124 16.8329 5.13973 16.8974 5.0275 16.9389C4.91526 16.9804 4.79499 16.998 4.67501 16.9904C4.44971 16.9891 4.22637 16.95 4.01501 16.875C4.01845 16.7537 4.06032 16.6363 4.13501 16.5385C4.29298 16.6045 4.46279 16.6404 4.63501 16.6442C4.94501 16.6442 5.03501 16.4711 5.03501 16.2308V16.0961C4.90952 16.1919 4.75513 16.2459 4.59501 16.25C4.15501 16.25 3.94501 15.8846 3.94501 15.3558C3.94501 14.8269 4.28501 14.4423 4.66501 14.4423ZM5.03501 14.9327C4.96182 14.8498 4.85763 14.798 4.74501 14.7885C4.54501 14.7885 4.43501 14.9904 4.43501 15.3654C4.43501 15.7404 4.55501 15.8846 4.70501 15.8846C4.76816 15.8827 4.83019 15.868 4.88705 15.8415C4.9439 15.815 4.99432 15.7772 5.03501 15.7308V14.8942V14.9327Z" fill="#D9D9D9"/>
<path d="M7.485 15.8558C7.47715 15.973 7.50495 16.09 7.56499 16.1923C7.47955 16.2567 7.37354 16.2907 7.265 16.2885C7.075 16.2885 7.015 16.1923 7.015 16.0096V15.1923C7.015 14.9904 7.015 14.9038 6.825 14.9038C6.75604 14.9082 6.68869 14.9258 6.62687 14.9555C6.56506 14.9852 6.51003 15.0265 6.465 15.0769V16.2692H5.995V13.6731H6.175C6.365 13.6731 6.435 13.7596 6.435 13.9615V14.7019C6.57672 14.5684 6.76658 14.4926 6.965 14.4904C7.295 14.4904 7.45499 14.7404 7.45499 15.0865L7.485 15.8558Z" fill="#D9D9D9"/>
<path d="M8.97501 14.6442C8.98042 14.7018 8.98042 14.7597 8.97501 14.8173H8.53501V15.7788C8.53501 15.8846 8.53501 15.9423 8.69501 15.9423H8.91501C8.92623 16.0156 8.92623 16.0901 8.91501 16.1635C8.91994 16.1953 8.91994 16.2277 8.91501 16.2596C8.76852 16.2695 8.62149 16.2695 8.47501 16.2596C8.41528 16.2676 8.35444 16.2622 8.29727 16.2437C8.2401 16.2253 8.18816 16.1944 8.14552 16.1534C8.10288 16.1124 8.07071 16.0624 8.05153 16.0074C8.03236 15.9525 8.0267 15.894 8.03501 15.8365V14.8077H7.78501C7.77454 14.7504 7.77454 14.6919 7.78501 14.6346C7.77523 14.5838 7.77523 14.5316 7.78501 14.4808H8.05501V14.2308C8.05501 14.0288 8.12501 13.9423 8.31501 13.9423H8.49501V14.4519H8.93501C8.95605 14.5143 8.96947 14.5789 8.97501 14.6442Z" fill="#D9D9D9"/>
<path d="M10.785 15.8558C10.7772 15.973 10.805 16.09 10.865 16.1923C10.7788 16.2554 10.6733 16.2892 10.565 16.2885C10.375 16.2885 10.305 16.1923 10.305 16.0096V15.1923C10.305 14.9904 10.305 14.9038 10.115 14.9038C9.97629 14.9148 9.84732 14.9768 9.755 15.0769V16.2692H9.285V14.4904H9.465C9.49654 14.4878 9.52831 14.4911 9.55848 14.5004C9.58865 14.5096 9.61663 14.5245 9.64079 14.5441C9.66496 14.5638 9.68484 14.5878 9.6993 14.6149C9.71375 14.642 9.72248 14.6716 9.725 14.7019C9.86819 14.5634 10.0619 14.4841 10.265 14.4808C10.605 14.4808 10.765 14.7308 10.765 15.0769L10.785 15.8558Z" fill="#D9D9D9"/>
<path d="M11.835 16.2308H11.355V15.0096C11.355 14.8846 11.355 14.8173 11.195 14.8173C11.1902 14.7629 11.1902 14.7082 11.195 14.6538C11.1906 14.5994 11.1906 14.5448 11.195 14.4904H11.535C11.5845 14.4869 11.6342 14.4942 11.6804 14.5118C11.7266 14.5294 11.768 14.5568 11.8017 14.5919C11.8353 14.627 11.8603 14.669 11.8747 14.7147C11.8891 14.7604 11.8926 14.8086 11.885 14.8558L11.835 16.2308ZM11.285 13.8173C11.3601 13.7838 11.4422 13.7674 11.525 13.7692C11.6046 13.767 11.6835 13.7836 11.755 13.8173C11.768 13.8743 11.768 13.9334 11.755 13.9904C11.7711 14.0503 11.7711 14.1132 11.755 14.1731C11.6794 14.1906 11.6006 14.1906 11.525 14.1731C11.446 14.1904 11.364 14.1904 11.285 14.1731C11.2689 14.1132 11.2689 14.0503 11.285 13.9904C11.271 13.9335 11.271 13.8742 11.285 13.8173V13.8173Z" fill="#D9D9D9"/>
<path d="M13.835 15.8558C13.829 15.9718 13.8531 16.0874 13.905 16.1923C13.8226 16.2553 13.7203 16.2893 13.615 16.2885C13.425 16.2885 13.355 16.1923 13.355 16.0096V15.1923C13.355 14.9904 13.355 14.9038 13.165 14.9038C13.0961 14.9082 13.0287 14.9258 12.9669 14.9555C12.9051 14.9852 12.8501 15.0265 12.805 15.0769V16.2692H12.335V14.4904H12.515C12.546 14.4878 12.5773 14.4912 12.6069 14.5005C12.6365 14.5099 12.6638 14.5249 12.6871 14.5447C12.7105 14.5644 12.7295 14.5886 12.7429 14.6156C12.7562 14.6426 12.7638 14.672 12.765 14.7019C12.9135 14.5653 13.1095 14.4864 13.315 14.4808C13.655 14.4808 13.815 14.7308 13.815 15.0769L13.835 15.8558Z" fill="#D9D9D9"/>
<path d="M14.925 14.4423C15.1024 14.4376 15.2746 14.4997 15.405 14.6154C15.4434 14.5712 15.4907 14.5348 15.5439 14.5084C15.5971 14.482 15.6553 14.466 15.715 14.4615C15.7885 14.5218 15.8409 14.6024 15.865 14.6923C15.8281 14.7328 15.8001 14.7801 15.7829 14.8314C15.7657 14.8827 15.7596 14.9368 15.765 14.9904V15.9519C15.7981 16.2297 15.7348 16.5103 15.585 16.75C15.5032 16.8327 15.4034 16.8971 15.2928 16.9387C15.1822 16.9802 15.0635 16.9979 14.945 16.9904C14.7196 16.9901 14.4961 16.951 14.285 16.875C14.2885 16.7537 14.3303 16.6363 14.405 16.5385C14.5591 16.6055 14.7259 16.6415 14.895 16.6442C15.215 16.6442 15.305 16.4711 15.305 16.2308V16.0961C15.1758 16.192 15.0182 16.2459 14.855 16.25C14.415 16.25 14.205 15.8846 14.205 15.3558C14.205 14.8269 14.555 14.4423 14.925 14.4423ZM15.305 14.9327C15.2269 14.8508 15.1201 14.7994 15.005 14.7885C14.805 14.7885 14.695 14.9904 14.695 15.3654C14.695 15.7404 14.815 15.8846 14.965 15.8846C15.0294 15.8817 15.0926 15.8667 15.151 15.8403C15.2093 15.8139 15.2617 15.7767 15.305 15.7308V14.8942V14.9327Z" fill="#D9D9D9"/>
<path d="M17.935 13.8173C18.465 13.8173 18.765 14.0385 18.765 14.4519C18.7661 14.5558 18.7341 14.6576 18.6733 14.7435C18.6125 14.8294 18.5259 14.8954 18.425 14.9327C18.5579 14.9778 18.6732 15.061 18.7554 15.171C18.8376 15.281 18.8829 15.4126 18.885 15.5481C18.885 15.9904 18.575 16.2404 17.995 16.2404H17.145V13.8462L17.935 13.8173ZM17.595 14.7788H17.915C18.215 14.7788 18.285 14.6058 18.285 14.4615C18.285 14.3173 18.215 14.1442 17.915 14.1442H17.595V14.7788ZM17.595 15.125V15.8942H17.975C18.0289 15.9017 18.0839 15.8974 18.1358 15.8815C18.1878 15.8656 18.2352 15.8386 18.2747 15.8025C18.3142 15.7664 18.3446 15.7221 18.3637 15.673C18.3828 15.624 18.3901 15.5714 18.385 15.5192C18.3885 15.4653 18.3795 15.4114 18.3586 15.3612C18.3378 15.3111 18.3057 15.266 18.2646 15.2292C18.2234 15.1924 18.1743 15.1649 18.1208 15.1485C18.0673 15.1321 18.0107 15.1274 17.955 15.1346L17.595 15.125Z" fill="#D9D9D9"/>
<path d="M20.015 15.8558C20.0262 15.9291 20.0262 16.0036 20.015 16.0769C20.015 16.0769 20.015 16.1442 20.015 16.1731C19.8952 16.1835 19.7748 16.1835 19.655 16.1731C19.375 16.1731 19.245 16.0385 19.245 15.75V13.6731H19.425C19.625 13.6731 19.685 13.7596 19.685 13.9615V15.7596C19.685 15.8654 19.685 15.9231 19.835 15.9231L20.015 15.8558Z" fill="#D9D9D9"/>
<path d="M20.335 14.8942C20.3428 14.777 20.3151 14.66 20.255 14.5577C20.3405 14.4933 20.4465 14.4593 20.555 14.4615C20.745 14.4615 20.815 14.5673 20.815 14.75V15.5673C20.815 15.7596 20.815 15.8462 21.005 15.8462C21.1423 15.8377 21.271 15.7793 21.365 15.6827V14.4904H21.595H21.835V15.7308C21.8315 15.785 21.8395 15.8394 21.8584 15.8906C21.8773 15.9418 21.9068 15.9888 21.945 16.0288C21.9135 16.1179 21.8584 16.1974 21.785 16.2596C21.7053 16.2551 21.6284 16.2293 21.5631 16.1852C21.4977 16.141 21.4464 16.0802 21.415 16.0096C21.2592 16.1573 21.0533 16.246 20.835 16.2596C20.495 16.2596 20.335 16 20.335 15.6635V14.8942Z" fill="#D9D9D9"/>
<path d="M22.715 15.5096C22.715 15.7404 22.805 15.9231 23.085 15.9231C23.256 15.917 23.4234 15.8743 23.575 15.7981C23.6491 15.8758 23.6977 15.9728 23.715 16.0769C23.5075 16.2092 23.264 16.2795 23.015 16.2788C22.405 16.2788 22.225 15.8365 22.225 15.3654C22.225 14.8942 22.475 14.4038 23.015 14.4038C23.1168 14.398 23.2188 14.4132 23.3139 14.4486C23.409 14.484 23.4951 14.5387 23.5663 14.609C23.6374 14.6792 23.692 14.7634 23.7263 14.8558C23.7606 14.9481 23.7738 15.0465 23.765 15.1442C23.776 15.2529 23.776 15.3624 23.765 15.4712L22.715 15.5096ZM22.715 15.1827H23.315C23.315 14.9712 23.235 14.8077 23.015 14.8077C22.795 14.8077 22.725 14.8942 22.715 15.1827Z" fill="#D9D9D9"/>
</svg>
