<svg width="21" height="19" viewBox="0 0 21 19" fill="none" xmlns="http://www.w3.org/2000/svg">
<g clip-path="url(#clip0_275_212)">
<path fill-rule="evenodd" clip-rule="evenodd" d="M19.75 12.6954L17.2493 10.5355C17.2792 9.87434 17.2455 9.21074 17.1492 8.56122L19.1873 7.26192C18.8622 6.45196 18.5496 5.69262 18.212 4.96704L15.8488 5.22015C15.5464 4.74868 15.202 4.3293 14.8235 3.97147C15.0236 3.16151 15.2111 2.40217 15.3612 1.65971L13.5356 0.647266C13.1105 1.22099 12.6479 1.81158 12.1602 2.33468C11.6642 2.22268 11.1626 2.16063 10.6598 2.14906C10.2847 1.38973 9.93456 0.647266 9.57196 -0.0614471L7.43382 0.394154C7.43382 0.984748 7.52134 1.64284 7.54635 2.28405C7.08416 2.46739 6.63612 2.71037 6.20845 3.00964L3.49514 2.03094C3.22005 2.62154 2.95748 3.24588 2.66989 3.8871L4.80803 5.23702C4.65981 5.77913 4.57134 6.34766 4.54545 6.92444L0.731812 8.37561C0.79433 9.28681 0.844344 10.2149 0.906863 11.143L5.0331 10.0968C5.28028 10.6135 5.60378 11.0558 5.98338 11.3961C5.43322 12.611 4.80803 13.8934 4.15783 15.3109L6.65858 16.0702C7.43381 14.8046 8.17154 13.6403 8.83424 12.5773C9.31222 12.5804 9.78939 12.524 10.2597 12.4085C10.5723 13.2185 10.8848 14.0959 11.2224 14.9734C11.7976 14.484 12.3603 14.0453 12.8729 13.5897C12.7604 12.6954 12.6479 11.8179 12.5353 11.008C12.7674 10.737 12.9847 10.4437 13.1855 10.1305C12.5505 10.7998 11.805 11.2521 11.0126 11.4489C10.2201 11.6458 9.40419 11.5813 8.63418 11.2611C5.92086 10.0461 5.58326 7.27879 6.65858 5.2539C7.25024 4.28453 8.03836 3.5688 8.9266 3.19421C9.81484 2.81962 10.7647 2.80239 11.6601 3.14463C12.6998 3.39129 13.6351 4.14821 14.2861 5.2697C14.9371 6.39119 15.2576 7.79798 15.1861 9.21931C14.711 20.0862 -1.58138 18.247 -1.18126 8.1225C-2.51916 19.0232 16.0739 23.7142 19.75 12.7629V12.6954Z" fill="#D9D9D9"/>
<path fill-rule="evenodd" clip-rule="evenodd" d="M7.85276 5.82536H7.9195C7.90799 5.80755 7.89303 5.7928 7.87572 5.78217C7.8584 5.77154 7.83916 5.7653 7.8194 5.76391L7.85276 5.82536Z" fill="#D9D9D9"/>
<path fill-rule="evenodd" clip-rule="evenodd" d="M8.05297 5.87451H8.13083C8.13083 5.87451 8.23094 5.87451 8.26431 5.81306C8.26431 5.81306 8.18645 5.81306 8.14196 5.81306C8.09746 5.81306 8.04185 5.81306 8.03072 5.81306C8.0196 5.81306 8.03073 5.81306 7.96399 5.81306L8.05297 5.87451Z" fill="#D9D9D9"/>
<path fill-rule="evenodd" clip-rule="evenodd" d="M8.11971 5.72704H8.06409C8.06409 5.72704 8.06409 5.72704 7.97511 5.72704V5.66559H7.85276C7.7749 5.66559 7.75265 5.66559 7.73041 5.66559H7.78602C7.84302 5.69154 7.90699 5.69154 7.96399 5.66559L8.11971 5.72704Z" fill="#D9D9D9"/>
<path d="M10.9227 2.50712H10.8782H10.8671C10.9601 2.49098 11.0546 2.48799 11.1482 2.49816C11.1675 2.4984 11.1868 2.50085 11.2057 2.50552C11.226 2.49961 11.2474 2.50014 11.2675 2.50712H11.223H11.2119H11.2007H11.1674H11.1451H11.1006H11.0784H11.0673H10.9227Z" fill="#D9D9D9"/>
<path fill-rule="evenodd" clip-rule="evenodd" d="M13.9703 4.98964C13.9429 4.89698 13.9094 4.80662 13.8702 4.71927C13.9091 4.81521 13.9425 4.91371 13.9703 5.01422V4.98964Z" fill="#D9D9D9"/>
<path fill-rule="evenodd" clip-rule="evenodd" d="M9.51006 4.00648C9.53532 3.99711 9.56266 3.99711 9.58792 4.00648C9.58792 4.00648 9.58792 4.00648 9.52118 4.00648H9.5768C9.5768 4.00648 9.42108 4.19082 9.39883 4.2154H9.47669H9.54343L9.51006 4.00648Z" fill="#D9D9D9"/>
<path fill-rule="evenodd" clip-rule="evenodd" d="M7.73041 6.45214C7.73041 6.45214 7.66368 6.45214 7.63031 6.45214C7.60303 6.40886 7.58841 6.3574 7.58841 6.30466C7.58841 6.25193 7.60303 6.20046 7.63031 6.15719V6.00971C7.49683 6.00971 7.49683 6.00971 7.47458 6.00971C7.47585 5.95461 7.49568 5.90202 7.5302 5.86223C7.5302 5.86223 7.63031 5.76391 7.60806 5.67788C7.58581 5.59186 7.51907 5.67788 7.49683 5.67788L7.39672 5.84994H7.29662C7.29662 5.59186 7.29662 5.59185 7.37448 5.44438C7.37448 5.32148 7.46346 5.26003 7.48571 5.27232C7.50795 5.28461 7.55245 5.21087 7.58581 5.21087C7.61918 5.21087 7.73041 5.27232 7.73041 5.32148C7.80827 5.174 7.80827 5.174 7.88613 5.19858C7.88613 5.19858 7.88613 5.34606 7.88613 5.43209V5.50583C7.88613 5.44438 7.88613 5.35835 7.88613 5.2969C7.88613 5.23545 7.88613 5.07568 8.1642 4.95279L8.26431 4.86676C8.26431 4.86676 8.31992 4.86676 8.26431 4.80531C8.2087 4.74386 8.26431 4.74386 8.26431 4.73157H8.38666C8.44228 4.73157 8.38666 4.63325 8.48677 4.63325C8.58687 4.63325 8.57575 4.63325 8.62024 4.63325C8.66473 4.63325 8.62024 4.51036 8.62024 4.51036C8.62024 4.51036 8.83158 4.43662 8.93168 4.37517C8.83158 4.43662 8.80933 4.43662 8.80933 4.47348C8.80933 4.51035 8.80933 4.47348 8.87607 4.47348L9.232 4.15395C9.25711 4.16432 9.28475 4.16432 9.30986 4.15395V4.15395H9.232C9.232 4.15395 9.232 4.15395 9.232 4.08021C9.29874 4.08021 9.32098 4.08021 9.33211 4.01876C9.19863 4.01876 9.1319 4.11708 9.04291 4.15395V4.0925H9.09853C9.12213 4.01246 9.16907 3.94332 9.232 3.89587H9.3766V3.83442C9.3766 3.83442 9.44334 3.83442 9.45446 3.83442C9.46558 3.83442 9.5212 3.83442 9.45446 3.77297C9.38772 3.71152 9.45446 3.77297 9.45446 3.77297C9.45446 3.77297 9.3766 3.77297 9.45446 3.77297C9.53232 3.77297 9.45446 3.77297 9.45446 3.71152C9.45446 3.71152 9.45446 3.71152 9.45446 3.63778C9.45446 3.56404 9.45446 3.63778 9.45446 3.63778C9.44172 3.6601 9.42334 3.67781 9.4016 3.68873C9.37986 3.69965 9.3557 3.7033 9.33211 3.69923C9.33211 3.69923 9.33211 3.69923 9.33211 3.58862H9.232C9.232 3.65007 9.232 3.72381 9.10965 3.7361C9.10965 3.7361 9.10965 3.82213 9.10965 3.83442C9.10965 3.84671 8.9873 3.83442 8.94281 3.92045L8.78708 4.11708C8.78708 4.01876 8.78708 4.01876 8.86494 3.92045C8.86494 3.92045 8.86494 3.92045 8.80933 3.92045C8.88719 3.84671 9.00954 3.82213 9.0874 3.7361C9.18751 3.7361 9.22088 3.7361 9.24312 3.7361C9.29098 3.72716 9.33986 3.72716 9.38772 3.7361V3.7361C9.38772 3.7361 9.46558 3.7361 9.49895 3.65007C9.49895 3.65007 9.49895 3.65007 9.36547 3.7361C9.36547 3.7361 9.42109 3.7361 9.36547 3.67465C9.32901 3.69339 9.29814 3.72323 9.27649 3.76068V3.76068C9.27649 3.76068 9.27649 3.76068 9.14301 3.87129H9.05403C9.05403 3.87129 9.05404 3.87129 8.94281 3.87129H8.88719H8.78708V3.011H8.598C8.598 3.011 8.53126 3.07245 8.49789 3.07245C8.47728 3.0606 8.45439 3.05442 8.43115 3.05442C8.40792 3.05442 8.38503 3.0606 8.36442 3.07245V3.07245H8.29768C8.22729 3.1057 8.1602 3.14688 8.09747 3.19535V3.19535H8.01961H8.17533L7.97511 3.40427C7.89725 3.4903 7.89725 3.4903 7.87501 3.4903C7.87501 3.4903 7.81939 3.4903 7.81939 3.57633C7.73041 3.57633 7.73041 3.67465 7.69704 3.68694L7.57469 3.82213L7.34111 4.06792L7.241 4.20311C7.17427 4.20311 7.11865 4.38746 7.11865 4.41204C7.08909 4.55267 7.04427 4.68884 6.98518 4.8176V4.8176C6.98518 4.90363 6.98518 4.92821 6.98518 4.92821C6.98518 4.92821 6.98518 5.00195 6.98518 5.02653V5.46896C6.98518 5.46896 6.98518 5.46896 6.98518 5.40751C6.98518 5.34606 6.98518 5.40751 6.98518 5.40751L7.00742 4.84218C7.00742 4.92821 7.00742 4.98966 6.92956 5.07569V5.21087V5.27232C6.92956 5.44438 6.87395 5.57957 6.92956 5.75162C7.00742 5.92368 7.02967 5.96055 7.12978 5.92368C7.22988 5.88681 7.22988 6.20634 7.36336 6.12032C7.40327 6.20478 7.42962 6.29627 7.44122 6.39069C7.56357 6.39069 7.56357 6.55046 7.66367 6.59962V6.51359L7.73041 6.45214Z" fill="#D9D9D9"/>
</g>
<defs>
<clipPath id="clip0_275_212">
<rect width="21" height="19" fill="white"/>
</clipPath>
</defs>
</svg>
