<svg width="21" height="18" viewBox="0 0 21 18" fill="none" xmlns="http://www.w3.org/2000/svg">
<g clip-path="url(#clip0_275_232)">
<path fill-rule="evenodd" clip-rule="evenodd" d="M9.45642 0.500085C10.561 0.475222 11.6455 0.823308 12.5599 1.49623C13.4742 2.16914 14.1733 3.13365 14.5605 4.2564C14.2883 3.98891 13.9383 3.83323 13.5714 3.81637C13.2024 3.83247 12.8511 3.99253 12.5822 4.26713C12.446 4.40377 12.3378 4.5699 12.2645 4.75477C12.1913 4.93964 12.1546 5.13914 12.1568 5.34036V6.24188V6.75703H11.9986C11.9566 6.75703 11.9163 6.77512 11.8867 6.80732C11.857 6.83953 11.8403 6.8832 11.8403 6.92874V7.39023C11.8403 7.41372 11.8447 7.43696 11.8532 7.45852C11.8618 7.48009 11.8743 7.49952 11.8901 7.51562C11.9059 7.53171 11.9245 7.54412 11.9449 7.55209C11.9652 7.56006 11.9869 7.56342 12.0085 7.56195H12.1568V7.64781C12.1574 7.69837 12.148 7.74847 12.1292 7.79475C12.1105 7.84103 12.0828 7.88242 12.048 7.91612C12.0151 7.9541 11.9752 7.9842 11.9309 8.00453C11.8866 8.02485 11.8389 8.03495 11.7909 8.03417C11.7428 8.03495 11.6951 8.02485 11.6508 8.00453C11.6065 7.9842 11.5666 7.9541 11.5337 7.91612C11.4971 7.88342 11.4676 7.84248 11.4471 7.79615C11.4266 7.74982 11.4156 7.6992 11.415 7.64781V6.14529H11.5732C11.6162 6.14537 11.6575 6.12762 11.6888 6.09569C11.72 6.06377 11.7389 6.02007 11.7414 5.97357V5.50135C11.7365 5.45677 11.7167 5.4157 11.6857 5.386C11.6546 5.3563 11.6146 5.34005 11.5732 5.34036H11.415V5.26524C11.4132 5.06469 11.3746 4.86654 11.3016 4.68229C11.2286 4.49805 11.1225 4.33139 10.9896 4.192C10.7197 3.92049 10.3683 3.76418 10.0005 3.75198V3.75198C9.63257 3.76418 9.28119 3.92049 9.01129 4.192C8.87657 4.32987 8.76932 4.49623 8.69616 4.68082C8.62301 4.86541 8.5855 5.06431 8.58595 5.26524V6.17748V6.6819H8.4079C8.36504 6.68464 8.32477 6.70507 8.29534 6.73899C8.26591 6.77291 8.24956 6.81776 8.24964 6.86435V7.32584C8.24792 7.34839 8.25093 7.37108 8.25842 7.3922C8.26592 7.41332 8.27772 7.43233 8.29294 7.44781C8.30815 7.46328 8.3264 7.47483 8.3463 7.48159C8.36621 7.48835 8.38727 7.49014 8.4079 7.48683H8.58595V7.58342C8.58357 7.68489 8.54449 7.78127 8.47714 7.85173C8.44369 7.8883 8.40348 7.91678 8.35915 7.93528C8.31482 7.95377 8.26738 7.96187 8.21996 7.95905V7.95905C8.17254 7.96187 8.1251 7.95377 8.08077 7.93528C8.03645 7.91678 7.99623 7.8883 7.96278 7.85173C7.92719 7.81813 7.8983 7.77701 7.87789 7.73087C7.85748 7.68473 7.84597 7.63455 7.84408 7.58342V6.14529H7.98256C8.02393 6.1456 8.06396 6.12935 8.09498 6.09965C8.12601 6.06995 8.14585 6.02888 8.15072 5.9843V5.51208C8.14819 5.46557 8.12937 5.42188 8.0981 5.38995C8.06684 5.35802 8.0255 5.34028 7.98256 5.34036H7.63635V5.26524C7.63681 5.06431 7.5993 4.86541 7.52614 4.68082C7.45298 4.49623 7.34573 4.32987 7.21101 4.192C6.94367 3.91618 6.5907 3.75916 6.22184 3.75198V3.75198C5.94628 3.75096 5.67582 3.83268 5.4404 3.98809L5.9152 5.06132C5.9152 5.06132 5.9152 5.06132 5.9152 4.99693C5.98758 4.93118 6.07806 4.89343 6.17239 4.88961V4.88961C6.26672 4.89343 6.35719 4.93118 6.42957 4.99693C6.4641 5.03308 6.49154 5.07644 6.51024 5.12439C6.52893 5.17234 6.53851 5.2239 6.53838 5.27597V5.35109H6.37022C6.3299 5.35101 6.29108 5.36762 6.26166 5.39753C6.23225 5.42745 6.21447 5.46842 6.21195 5.51208V5.9843C6.21195 6.00685 6.21605 6.02918 6.224 6.05001C6.23195 6.07085 6.24361 6.08978 6.25831 6.10572C6.273 6.12167 6.29045 6.13432 6.30965 6.14295C6.32886 6.15158 6.34944 6.15602 6.37022 6.15602H6.54827V7.56195C6.54782 7.76288 6.58533 7.96178 6.65848 8.14637C6.73164 8.33096 6.83889 8.49732 6.97361 8.63518C7.24351 8.9067 7.59489 9.06301 7.96278 9.07521V9.07521C8.33278 9.06408 8.68558 8.90331 8.95194 8.62445C9.0881 8.48781 9.19631 8.32168 9.26958 8.13681C9.34285 7.95194 9.37954 7.75244 9.37729 7.55122V7.46536H9.61469C9.63499 7.46683 9.65535 7.46376 9.67451 7.45633C9.69367 7.4489 9.71121 7.43728 9.72606 7.42218C9.7409 7.40708 9.75272 7.38883 9.76079 7.36856C9.76886 7.3483 9.773 7.32645 9.77295 7.30438V6.89655C9.77295 6.85101 9.75628 6.80733 9.7266 6.77513C9.69692 6.74292 9.65666 6.72483 9.61469 6.72483H9.48609V5.30817C9.5 5.21469 9.54593 5.13036 9.61469 5.07205C9.68613 5.00312 9.77652 4.96163 9.87187 4.954C9.96818 4.95712 10.0599 4.99924 10.1291 5.07205C10.1633 5.10618 10.1907 5.14765 10.2094 5.19383C10.2281 5.24001 10.2378 5.28991 10.2379 5.34036V5.41549H10.0994C10.0786 5.41403 10.0577 5.41705 10.038 5.42436C10.0183 5.43167 10.0001 5.44313 9.98448 5.45809C9.96886 5.47305 9.95611 5.4912 9.94697 5.51152C9.93783 5.53183 9.93248 5.55391 9.93122 5.57647V6.05942C9.93608 6.104 9.95593 6.14507 9.98695 6.17477C10.018 6.20448 10.058 6.22072 10.0994 6.22041H10.2478V7.64781C10.2455 7.84903 10.2822 8.04853 10.3555 8.2334C10.4287 8.41827 10.5369 8.5844 10.6731 8.72104C10.9404 8.99687 11.2934 9.15388 11.6623 9.16107C12.0301 9.14887 12.3815 8.99256 12.6514 8.72104C12.7876 8.5844 12.8958 8.41827 12.9691 8.2334C13.0423 8.04853 13.079 7.84903 13.0768 7.64781V7.56195H13.2251C13.2681 7.56203 13.3094 7.54429 13.3407 7.51236C13.3719 7.48044 13.3908 7.43674 13.3933 7.39023V6.89655C13.3908 6.85004 13.3719 6.80635 13.3407 6.77442C13.3094 6.74249 13.2681 6.72475 13.2251 6.72483H13.0768V5.29743C13.0788 5.24787 13.0905 5.19933 13.1109 5.15496C13.1313 5.11059 13.1602 5.07138 13.1955 5.03986C13.2646 4.96704 13.3563 4.92493 13.4526 4.9218V4.9218C13.5007 4.92103 13.5484 4.93112 13.5927 4.95145C13.637 4.97177 13.6769 5.00188 13.7098 5.03986C13.7438 5.07192 13.7711 5.11149 13.7899 5.1559C13.8086 5.20032 13.8184 5.24857 13.8186 5.29743V5.37256H13.6802C13.6372 5.37248 13.5959 5.39022 13.5646 5.42215C13.5334 5.45408 13.5145 5.49777 13.512 5.54427V6.0165C13.5169 6.06108 13.5367 6.10214 13.5677 6.13184C13.5988 6.16155 13.6388 6.17779 13.6802 6.17748H13.8285V7.58342C13.8278 7.93084 13.9438 8.26664 14.155 8.52786C13.687 9.43354 13.005 10.1875 12.1791 10.7119C11.3532 11.2363 10.4134 11.5123 9.45642 11.5114C8.76471 11.5584 8.07148 11.4511 7.41946 11.1962C6.76744 10.9412 6.17047 10.5441 5.66534 10.0292C5.16021 9.51439 4.75765 8.89273 4.48246 8.20259C4.20728 7.51244 4.06531 6.76846 4.06531 6.0165C4.06531 5.26454 4.20728 4.52055 4.48246 3.83041C4.75765 3.14027 5.16021 2.51861 5.66534 2.00375C6.17047 1.48889 6.76744 1.09176 7.41946 0.836842C8.07148 0.581922 8.76471 0.474618 9.45642 0.521546V0.500085ZM4.66885 6.3814C4.72559 6.41252 4.78827 6.42874 4.85185 6.42874C4.91542 6.42874 4.97811 6.41252 5.03484 6.3814C5.14384 6.33859 5.23508 6.25482 5.29203 6.14529C5.52943 5.72672 5.14365 5.01839 5.29203 4.46031C5.34149 4.26713 3.64012 5.91991 4.90625 6.19895C4.85801 6.22233 4.80577 6.23442 4.75293 6.23442C4.7001 6.23442 4.64785 6.22233 4.59961 6.19895C4.53259 6.1662 4.47252 6.11879 4.42316 6.0597C4.3738 6.0006 4.33622 5.93109 4.31275 5.85551C4.28582 5.78584 4.27195 5.71105 4.27195 5.6355C4.27195 5.55995 4.28582 5.48516 4.31275 5.41549C4.30764 5.39075 4.30764 5.3651 4.31275 5.34036C4.28642 5.37353 4.26323 5.40949 4.24351 5.44768C4.20941 5.5304 4.19178 5.62001 4.19178 5.71063C4.19178 5.80125 4.20941 5.89085 4.24351 5.97357C4.27082 6.06292 4.31476 6.14524 4.37262 6.21539C4.43047 6.28555 4.501 6.34205 4.57983 6.3814H4.66885Z" fill="#D9D9D9"/>
<path d="M0.306642 17.5C0.386346 17.503 0.463981 17.4721 0.523076 17.414C0.582171 17.3559 0.618077 17.2751 0.623175 17.1888V16.1692C0.847152 16.3258 1.10848 16.4079 1.37494 16.4053C1.56063 16.4226 1.74762 16.3979 1.92404 16.3327C2.10046 16.2675 2.26246 16.1632 2.39978 16.0265C2.5371 15.8897 2.64673 15.7235 2.72173 15.5384C2.79673 15.3533 2.83546 15.1533 2.83546 14.9511C2.83546 14.7489 2.79673 14.5488 2.72173 14.3637C2.64673 14.1786 2.5371 14.0124 2.39978 13.8757C2.26246 13.739 2.10046 13.6347 1.92404 13.5695C1.74762 13.5042 1.56063 13.4795 1.37494 13.4968C1.1061 13.4997 0.842956 13.5813 0.613283 13.733C0.595168 13.6612 0.554726 13.5985 0.498828 13.5555C0.44293 13.5124 0.375023 13.4917 0.306642 13.4968C0.267666 13.4954 0.228813 13.5023 0.192303 13.5172C0.155793 13.5321 0.122343 13.5546 0.0938638 13.5835C0.065385 13.6124 0.0424367 13.6471 0.0263308 13.6857C0.010225 13.7242 0.00127754 13.7658 0 13.8081V14.9564V17.178C0.00503288 17.2625 0.0395482 17.3417 0.0965183 17.3995C0.153488 17.4574 0.228629 17.4894 0.306642 17.4893V17.5ZM0.850683 14.3662C0.918114 14.2894 0.999573 14.2287 1.08985 14.1881C1.18012 14.1474 1.27722 14.1277 1.37494 14.13C1.47415 14.1275 1.57278 14.1471 1.66469 14.1877C1.75659 14.2284 1.83979 14.2891 1.90909 14.3662C2.05307 14.5231 2.13472 14.735 2.1366 14.9564C2.13788 15.0665 2.11835 15.1756 2.07922 15.2772C2.04009 15.3787 1.98219 15.4704 1.90909 15.5467C1.84028 15.6252 1.7574 15.6876 1.66554 15.7301C1.57368 15.7725 1.47478 15.7941 1.37494 15.7936C1.27658 15.7939 1.17922 15.7722 1.08899 15.7297C0.998762 15.6872 0.917621 15.6249 0.850683 15.5467C0.77393 15.4735 0.713552 15.3823 0.674132 15.2801C0.634711 15.1778 0.617285 15.0671 0.623175 14.9564C0.619391 14.846 0.637778 14.7361 0.677062 14.6341C0.716347 14.5322 0.775589 14.4408 0.850683 14.3662V14.3662ZM3.06642 12.649V16.0833C3.06898 16.1697 3.10242 16.2516 3.15965 16.3117C3.21688 16.3718 3.29342 16.4053 3.37306 16.4053C3.45369 16.4055 3.53134 16.3723 3.59017 16.3124C3.64899 16.2526 3.68455 16.1706 3.68959 16.0833V12.649C3.68449 12.5626 3.64859 12.4818 3.58949 12.4237C3.5304 12.3656 3.45276 12.3348 3.37306 12.3378C3.33408 12.3363 3.29523 12.3432 3.25872 12.3581C3.22221 12.373 3.18876 12.3955 3.16028 12.4244C3.1318 12.4533 3.10885 12.488 3.09275 12.5266C3.07664 12.5651 3.06769 12.6067 3.06642 12.649V12.649ZM6.32077 15.2033V13.8081C6.31574 13.7236 6.28123 13.6444 6.22426 13.5866C6.16728 13.5288 6.09214 13.4967 6.01413 13.4968C5.97564 13.4954 5.93727 13.5024 5.90132 13.5174C5.86536 13.5324 5.83256 13.5551 5.80487 13.5841C5.77717 13.6132 5.75515 13.648 5.74012 13.6864C5.72509 13.7249 5.71736 13.7663 5.71738 13.8081V13.8081V15.2033C5.70725 15.3655 5.63996 15.5173 5.52947 15.6272C5.41897 15.7371 5.27375 15.7967 5.12388 15.7936C4.97601 15.7965 4.833 15.7362 4.72568 15.6258C4.61836 15.5154 4.55533 15.3636 4.55017 15.2033V13.8081C4.54889 13.7658 4.53994 13.7242 4.52383 13.6857C4.50773 13.6471 4.48478 13.6124 4.4563 13.5835C4.42782 13.5546 4.39437 13.5321 4.35786 13.5172C4.32135 13.5023 4.2825 13.4954 4.24352 13.4968C4.16744 13.4968 4.09448 13.5296 4.04068 13.588C3.98689 13.6464 3.95667 13.7255 3.95667 13.8081V15.2033C3.967 15.5297 4.09515 15.8387 4.3135 16.0635C4.53184 16.2884 4.82289 16.4111 5.12388 16.4053C5.42853 16.4141 5.72427 16.2933 5.94792 16.0687C6.17157 15.8441 6.30539 15.5335 6.32077 15.2033V15.2033ZM9.65426 14.13C9.72784 14.1286 9.80093 14.1431 9.86928 14.1727C9.93764 14.2022 9.99987 14.2463 10.0524 14.3022C10.1049 14.3582 10.1465 14.4249 10.175 14.4986C10.2035 14.5722 10.2181 14.6512 10.2181 14.7311V16.1048C10.2232 16.1911 10.2591 16.2719 10.3182 16.3301C10.3773 16.3882 10.4549 16.419 10.5346 16.416C10.6116 16.4161 10.6857 16.3836 10.741 16.3256C10.7964 16.2675 10.8288 16.1883 10.8314 16.1048V14.7311C10.8303 14.562 10.7975 14.3949 10.735 14.24C10.6724 14.0851 10.5815 13.9456 10.4676 13.8301C10.3538 13.7146 10.2194 13.6255 10.0728 13.5682C9.92613 13.5109 9.77027 13.4866 9.6147 13.4968C9.44898 13.4919 9.28414 13.5247 9.13081 13.5931C8.97748 13.6615 8.83905 13.764 8.72445 13.8939C8.61061 13.7629 8.47232 13.6597 8.31881 13.5912C8.16529 13.5227 8.00008 13.4905 7.8342 13.4968C7.62323 13.5003 7.4162 13.5593 7.23081 13.6686C7.20719 13.6143 7.16913 13.5689 7.12153 13.5383C7.07393 13.5077 7.01896 13.4932 6.96373 13.4968C6.92524 13.4954 6.88687 13.5024 6.85092 13.5174C6.81496 13.5324 6.78216 13.5551 6.75447 13.5841C6.72677 13.6132 6.70475 13.648 6.68972 13.6864C6.67469 13.7249 6.66696 13.7663 6.66698 13.8081V14.7311V16.1048C6.6696 16.1777 6.69425 16.2477 6.73716 16.304C6.78006 16.3602 6.83882 16.3996 6.90438 16.416C6.90438 16.416 6.90438 16.416 6.96373 16.416C7.02076 16.4155 7.07661 16.3983 7.12536 16.3662C7.17412 16.3341 7.21396 16.2882 7.2407 16.2336V16.2336V14.7311C7.24329 14.5707 7.30384 14.4178 7.4093 14.3054C7.51475 14.193 7.65669 14.13 7.80452 14.13C7.9528 14.1267 8.09668 14.1848 8.20692 14.2925C8.31715 14.4001 8.38549 14.5493 8.39802 14.7096V16.1048C8.40059 16.1883 8.43298 16.2675 8.48836 16.3256C8.54373 16.3836 8.61775 16.4161 8.69477 16.416V16.416C8.73375 16.4175 8.7726 16.4106 8.80911 16.3957C8.84562 16.3808 8.87907 16.3583 8.90755 16.3294C8.93603 16.3005 8.95898 16.2658 8.97508 16.2272C8.99119 16.1887 9.00014 16.1471 9.00141 16.1048V14.7311C9.01154 14.5716 9.07778 14.4226 9.18642 14.3147C9.29506 14.2068 9.43778 14.1484 9.58502 14.1515L9.65426 14.13ZM11.4842 16.1048C11.4881 16.1842 11.5181 16.2596 11.5688 16.3171C11.6194 16.3746 11.6874 16.4105 11.7604 16.4183C11.8334 16.4261 11.9065 16.4052 11.9666 16.3595C12.0266 16.3138 12.0695 16.2463 12.0876 16.1692C12.3181 16.3291 12.5856 16.4147 12.8592 16.416C13.0449 16.4334 13.2318 16.4086 13.4083 16.3434C13.5847 16.2782 13.7467 16.1739 13.884 16.0372C14.0213 15.9005 14.131 15.7343 14.206 15.5492C14.2809 15.364 14.3197 15.164 14.3197 14.9618C14.3197 14.7596 14.2809 14.5596 14.206 14.3745C14.131 14.1893 14.0213 14.0231 13.884 13.8864C13.7467 13.7497 13.5847 13.6454 13.4083 13.5802C13.2318 13.515 13.0449 13.4903 12.8592 13.5076C12.5878 13.502 12.3216 13.5882 12.0975 13.7544V12.6812C12.095 12.6389 12.0848 12.5975 12.0675 12.5595C12.0502 12.5215 12.0262 12.4875 11.9968 12.4596C11.9674 12.4317 11.9332 12.4103 11.8961 12.3968C11.8591 12.3832 11.82 12.3778 11.781 12.3807C11.7433 12.3792 11.7057 12.3859 11.6704 12.4002C11.6351 12.4145 11.6027 12.4363 11.5752 12.4642C11.5476 12.4921 11.5254 12.5256 11.5098 12.5629C11.4942 12.6001 11.4855 12.6403 11.4842 12.6812V14.9994V16.1048ZM12.325 14.3769C12.4677 14.2253 12.6595 14.1405 12.8592 14.1408C13.0559 14.141 13.2444 14.2259 13.3834 14.3769C13.4556 14.4539 13.5129 14.5458 13.552 14.6472C13.591 14.7485 13.6111 14.8573 13.6109 14.9672C13.6084 15.1826 13.5283 15.3885 13.3879 15.5409C13.2475 15.6932 13.0577 15.78 12.8592 15.7828C12.6595 15.7831 12.4677 15.6983 12.325 15.5467C12.2531 15.4717 12.1959 15.3817 12.1568 15.2821C12.1177 15.1825 12.0976 15.0754 12.0975 14.9672C12.0974 14.8573 12.1174 14.7485 12.1565 14.6472C12.1955 14.5458 12.2528 14.4539 12.325 14.3769V14.3769ZM14.9265 13.5183C14.8868 13.5151 14.8469 13.5212 14.8096 13.5363C14.7722 13.5513 14.7383 13.5749 14.7101 13.6055C14.682 13.6361 14.6602 13.6729 14.6463 13.7134C14.6325 13.7539 14.6268 13.7972 14.6298 13.8403V16.1048C14.6426 16.1815 14.6799 16.2508 14.735 16.3007C14.7901 16.3506 14.8597 16.378 14.9315 16.378C15.0033 16.378 15.0728 16.3506 15.1279 16.3007C15.1831 16.2508 15.2203 16.1815 15.2332 16.1048V13.8295C15.2346 13.7859 15.2277 13.7424 15.2126 13.7019C15.1976 13.6614 15.1749 13.6248 15.146 13.5944C15.1171 13.564 15.0826 13.5406 15.0448 13.5256C15.007 13.5107 14.9667 13.5045 14.9265 13.5076V13.5183ZM15.2332 12.649C15.2319 12.6072 15.2229 12.566 15.2067 12.5281C15.1905 12.4901 15.1674 12.4561 15.1387 12.428C15.1101 12.3999 15.0766 12.3784 15.0401 12.3648C15.0036 12.3511 14.965 12.3456 14.9265 12.3485C14.8885 12.3455 14.8504 12.3511 14.8144 12.3649C14.7785 12.3787 14.7456 12.4003 14.7178 12.4285C14.6899 12.4567 14.6677 12.4909 14.6526 12.5288C14.6374 12.5667 14.6297 12.6077 14.6298 12.649V12.7778C14.6426 12.8544 14.6799 12.9238 14.735 12.9737C14.7901 13.0236 14.8597 13.051 14.9315 13.051C15.0033 13.051 15.0728 13.0236 15.1279 12.9737C15.1831 12.9238 15.2203 12.8544 15.2332 12.7778V12.649ZM16.7862 13.5076C16.5767 13.509 16.3716 13.5721 16.1927 13.69C16.1651 13.6361 16.1251 13.5909 16.0765 13.5589C16.0279 13.5269 15.9725 13.5092 15.9157 13.5076C15.8767 13.5061 15.8379 13.5131 15.8013 13.5279C15.7648 13.5428 15.7314 13.5653 15.7029 13.5942C15.6744 13.6231 15.6515 13.6579 15.6354 13.6964C15.6193 13.7349 15.6103 13.7765 15.609 13.8188V14.7311V16.1263C15.6103 16.1685 15.6193 16.2101 15.6354 16.2487C15.6515 16.2872 15.6744 16.3219 15.7029 16.3508C15.7314 16.3797 15.7648 16.4023 15.8013 16.4171C15.8379 16.432 15.8767 16.4389 15.9157 16.4375C15.9833 16.4376 16.0491 16.4135 16.1028 16.3688C16.1564 16.3242 16.195 16.2615 16.2124 16.1907C16.2164 16.1694 16.2164 16.1475 16.2124 16.1263V16.1263V14.7311C16.2176 14.5735 16.2796 14.4245 16.3851 14.3161C16.4905 14.2077 16.631 14.1486 16.7763 14.1515C16.9235 14.1484 17.0662 14.2068 17.1749 14.3147C17.2835 14.4226 17.3497 14.5716 17.3599 14.7311V16.1263C17.3649 16.2107 17.3994 16.2899 17.4564 16.3478C17.5134 16.4056 17.5885 16.4377 17.6665 16.4375C17.7426 16.4375 17.8156 16.4047 17.8693 16.3463C17.9231 16.288 17.9534 16.2088 17.9534 16.1263V14.7311C17.943 14.4027 17.8135 14.0921 17.593 13.867C17.3725 13.6418 17.0789 13.5204 16.7763 13.529L16.7862 13.5076ZM21 14.9672V13.8081C21.0014 13.7668 20.9949 13.7257 20.981 13.6872C20.9671 13.6488 20.946 13.6139 20.9191 13.5847C20.8921 13.5555 20.86 13.5326 20.8245 13.5175C20.7891 13.5024 20.7512 13.4953 20.7131 13.4968C20.6434 13.4923 20.5745 13.5145 20.5184 13.5596C20.4623 13.6048 20.4227 13.67 20.4065 13.7437C20.1867 13.5763 19.9232 13.4898 19.6547 13.4968C19.297 13.4968 18.9538 13.6503 18.7 13.9237C18.4461 14.1971 18.3022 14.5683 18.2996 14.9564C18.291 15.1556 18.3219 15.3545 18.3902 15.5396C18.4584 15.7247 18.5624 15.8918 18.6952 16.0297C18.8233 16.173 18.9773 16.2861 19.1475 16.3618C19.3177 16.4375 19.5005 16.4742 19.6844 16.4697V16.4697C19.9432 16.472 20.1972 16.3937 20.4164 16.2443C20.3781 16.4231 20.2846 16.5822 20.1515 16.6955C20.0183 16.8087 19.8535 16.8691 19.6844 16.8668C19.5716 16.871 19.4595 16.8452 19.358 16.7917C19.323 16.7713 19.2847 16.7588 19.2452 16.7548C19.2057 16.7508 19.1659 16.7555 19.128 16.7685C19.0902 16.7815 19.0552 16.8026 19.0251 16.8305C18.9949 16.8585 18.9702 16.8927 18.9524 16.9312C18.9326 16.9686 18.9204 17.0102 18.9168 17.0532C18.9131 17.0962 18.918 17.1395 18.9311 17.1802C18.9443 17.2209 18.9653 17.2581 18.9929 17.2892C19.0205 17.3203 19.0539 17.3446 19.0909 17.3605C19.2781 17.4484 19.4804 17.4923 19.6844 17.4893C20.0326 17.4951 20.3689 17.352 20.6207 17.0909C20.8724 16.8298 21.0193 16.4717 21.0297 16.0941V15.0208L21 14.9672ZM20.1889 15.5789C20.0462 15.7305 19.8544 15.8153 19.6547 15.815C19.5571 15.8168 19.4602 15.7967 19.37 15.7561C19.2798 15.7155 19.1983 15.6552 19.1305 15.5789C18.9855 15.4184 18.9043 15.2026 18.9043 14.9779C18.9043 14.7532 18.9855 14.5374 19.1305 14.3769C19.1962 14.2971 19.2771 14.2337 19.3676 14.1911C19.4582 14.1485 19.5561 14.1276 19.6547 14.13C19.7546 14.1295 19.8535 14.1511 19.9453 14.1936C20.0372 14.236 20.1201 14.2984 20.1889 14.3769C20.3231 14.5432 20.3971 14.7568 20.3971 14.9779C20.3971 15.199 20.3231 15.4126 20.1889 15.5789V15.5789Z" fill="#D9D9D9"/>
</g>
<defs>
<clipPath id="clip0_275_232">
<rect width="21" height="17" fill="white" transform="translate(0 0.5)"/>
</clipPath>
</defs>
</svg>
