<svg width="21" height="17" viewBox="0 0 21 17" fill="none" xmlns="http://www.w3.org/2000/svg">
<g clip-path="url(#clip0_275_283)">
<path d="M16.5487 10.5392L16.1937 9.95796C15.3736 8.87267 14.6725 7.70349 14.1023 6.47029C13.9296 6.061 13.8573 5.61682 13.8913 5.17433C13.8913 4.69787 14.534 3.8593 14.9945 4.16424C15.0136 4.17706 15.0296 4.194 15.0412 4.2138C15.0529 4.23359 15.0599 4.25574 15.0617 4.27859C15.0603 4.34369 15.0776 4.40782 15.1116 4.46351C15.1456 4.51919 15.1948 4.56412 15.2535 4.59305C15.2885 4.60746 15.326 4.61489 15.3639 4.61489C15.4017 4.61489 15.4392 4.60746 15.4742 4.59305C15.5074 4.57542 15.5366 4.55104 15.5597 4.52148C15.5829 4.49193 15.5995 4.45787 15.6085 4.42152C15.6226 4.36273 15.6182 4.30106 15.5959 4.24483C15.5736 4.18859 15.5345 4.14051 15.4838 4.10706C14.8602 3.7259 14.3805 4.1833 13.7474 4.49776C13.1142 4.81222 13.143 4.81222 11.8863 2.78251C13.0758 3.61155 16.4048 2.93498 16.3664 1.15302C16.3653 0.951256 16.2941 0.756049 16.1649 0.600336C16.1345 0.548284 16.0888 0.506701 16.0339 0.481157C15.9791 0.455612 15.9177 0.447323 15.8579 0.457398C15.8208 0.465139 15.786 0.481177 15.7561 0.504294C15.7262 0.52741 15.7019 0.556996 15.6852 0.590805C15.669 0.625084 15.6606 0.662505 15.6606 0.700392C15.6606 0.738279 15.669 0.7757 15.6852 0.809979C15.7148 0.868709 15.7599 0.918352 15.8156 0.953601C15.8714 0.98885 15.9358 1.00838 16.0018 1.01009C16.0242 1.01364 16.0455 1.02239 16.0638 1.03564C16.0821 1.04889 16.0971 1.06625 16.1074 1.08632C16.1288 1.15459 16.1288 1.2277 16.1074 1.29596C16.0837 1.40695 16.0415 1.51323 15.9826 1.61043C14.5532 4.12612 11.6752 2.63958 10.4376 0.657513L10.0539 0.0381165L9.99635 0.133406L9.67017 0.657513C8.96985 1.88677 6.79214 7.64238 4.56647 7.70908C3.92371 7.70908 3.3577 6.88005 3.32892 6.20348C3.31194 6.09294 3.31194 5.98049 3.32892 5.86996C3.3527 5.79925 3.3959 5.73654 3.45363 5.6889C3.47474 5.67943 3.49763 5.67453 3.52079 5.67453C3.54394 5.67453 3.56684 5.67943 3.58794 5.6889C3.66756 5.73676 3.76258 5.75256 3.85355 5.73307C3.94451 5.71359 4.02453 5.66028 4.07721 5.58408C4.09587 5.5219 4.09587 5.45568 4.07721 5.3935C4.06934 5.32058 4.03528 5.25291 3.98127 5.20291C3.93182 5.16932 3.8733 5.15135 3.81339 5.15135C3.75347 5.15135 3.69496 5.16932 3.6455 5.20291C3.45558 5.2806 3.29933 5.42232 3.2042 5.60314V5.60314C3.13187 5.77966 3.08659 5.96596 3.0699 6.15583V6.15583C2.96437 8.20459 4.98858 8.24271 3.91412 9.96749C3.79631 10.1008 3.6469 10.2029 3.4794 10.2645C3.31189 10.326 3.13159 10.3451 2.95478 10.3201C2.85099 10.3055 2.75226 10.2662 2.66697 10.2057C2.60366 10.1656 2.55622 10.105 2.53266 10.0342C2.5229 10.0116 2.51787 9.9873 2.51787 9.96272C2.51787 9.93815 2.5229 9.91383 2.53266 9.89125C2.56391 9.82235 2.58007 9.74765 2.58007 9.67209C2.58007 9.59652 2.56391 9.52181 2.53266 9.45291C2.51491 9.41989 2.49037 9.39094 2.46062 9.36796C2.43087 9.34498 2.39658 9.32846 2.35998 9.3195C2.3226 9.31305 2.28417 9.31673 2.24871 9.33015C2.21326 9.34356 2.1821 9.36622 2.15852 9.39574C2.11965 9.4504 2.09419 9.51335 2.0842 9.57954C2.0742 9.64572 2.07994 9.71332 2.10096 9.77691C3.0603 13.8649 8.50937 8.99552 9.14253 9.40527C9.16887 9.42349 9.19046 9.44769 9.20548 9.47587C9.2205 9.50405 9.22852 9.53538 9.22888 9.56726C9.22725 9.66297 9.25356 9.7571 9.30463 9.83827C9.3557 9.91944 9.42935 9.98418 9.51667 10.0247C9.56438 10.0482 9.61692 10.0604 9.67017 10.0604C9.72343 10.0604 9.77596 10.0482 9.82366 10.0247C9.87222 10.0013 9.91526 9.96795 9.94998 9.9269C9.98469 9.88585 10.0103 9.83799 10.0251 9.78644C10.045 9.70223 10.0381 9.61399 10.0055 9.53381C9.97282 9.45363 9.91603 9.38543 9.84285 9.33857C9.69806 9.24924 9.53914 9.1848 9.37277 9.14798C10.3321 8.88116 11.5121 8.55717 11.5505 8.50953L12.6249 10.4154L12.7401 10.5964H16.5774L16.5487 10.5392ZM9.94838 1.77242L10.3417 1.52466C10.3681 1.50532 10.4 1.49488 10.4328 1.49488C10.4657 1.49488 10.4976 1.50532 10.524 1.52466L10.7638 1.91536C10.7867 1.94001 10.7995 1.97233 10.7995 2.00588C10.7995 2.03944 10.7867 2.07176 10.7638 2.09641L10.3609 2.33464C10.3377 2.35677 10.3067 2.36913 10.2746 2.36913C10.2424 2.36913 10.2114 2.35677 10.1882 2.33464L9.93879 1.93441C9.92223 1.91012 9.9142 1.88109 9.91594 1.8518C9.91767 1.82252 9.92908 1.79462 9.94838 1.77242V1.77242ZM9.35359 4.36435L9.57424 3.96412C9.58137 3.94873 9.5916 3.93495 9.60431 3.92364C9.61701 3.91233 9.63192 3.90372 9.64811 3.89837C9.66429 3.89301 9.68141 3.891 9.69841 3.89248C9.71541 3.89396 9.73192 3.89888 9.74692 3.90695L10.1594 4.12612C10.1817 4.14919 10.1942 4.17992 10.1942 4.21188C10.1942 4.24385 10.1817 4.27458 10.1594 4.29765L9.93879 4.7074C9.91556 4.72953 9.88462 4.74188 9.85244 4.74188C9.82026 4.74188 9.78933 4.72953 9.76611 4.7074L9.35359 4.48823C9.33647 4.46645 9.32718 4.43962 9.32718 4.412C9.32718 4.38437 9.33647 4.35754 9.35359 4.33576V4.36435ZM8.63408 5.70796L8.84514 5.2982C8.86995 5.27543 8.90249 5.26279 8.93628 5.26279C8.97006 5.26279 9.0026 5.27543 9.02742 5.2982L9.43034 5.50785C9.46058 5.52579 9.48314 5.55414 9.49375 5.58751C9.50436 5.62088 9.50228 5.65696 9.4879 5.6889L9.26725 6.08912C9.25095 6.11845 9.22413 6.14061 9.19214 6.1512C9.16015 6.1618 9.12532 6.16004 9.09457 6.1463L8.68205 5.92713C8.64897 5.93345 8.61472 5.92645 8.58684 5.90769C8.55895 5.88893 8.53971 5.85993 8.53335 5.82707C8.52699 5.79422 8.53403 5.7602 8.55292 5.7325C8.57181 5.7048 8.601 5.68569 8.63408 5.67937V5.70796ZM7.91457 7.01345L8.13523 6.61323C8.14806 6.5827 8.17185 6.55799 8.20198 6.5439C8.23212 6.52981 8.26645 6.52735 8.29831 6.53699L8.71083 6.75617C8.74035 6.77236 8.76266 6.79899 8.77332 6.83077C8.78399 6.86255 8.78223 6.89715 8.76839 6.92769L8.54774 7.33744C8.52293 7.36021 8.49039 7.37286 8.45661 7.37286C8.42282 7.37286 8.39028 7.36021 8.36547 7.33744L7.96254 7.1278C7.94643 7.11354 7.93374 7.09585 7.92544 7.07606C7.91713 7.05626 7.91342 7.03487 7.91457 7.01345V7.01345ZM7.32938 9.62444L7.10873 10.0342C7.1016 10.0496 7.09136 10.0634 7.07866 10.0747C7.06595 10.086 7.05104 10.0946 7.03486 10.0999C7.01867 10.1053 7.00156 10.1073 6.98456 10.1058C6.96756 10.1044 6.95105 10.0994 6.93605 10.0914L6.52353 9.8722C6.50884 9.86426 6.49591 9.85348 6.4855 9.84048C6.47509 9.82748 6.46743 9.81253 6.46296 9.79653C6.45848 9.78053 6.45729 9.7638 6.45946 9.74733C6.46162 9.73086 6.4671 9.71499 6.47556 9.70067L6.68662 9.29092C6.70469 9.26088 6.73322 9.23847 6.76681 9.22793C6.80041 9.21739 6.83673 9.21946 6.8689 9.23375L7.27182 9.45291C7.29967 9.47062 7.31996 9.49792 7.32881 9.52957C7.33766 9.56122 7.33445 9.595 7.31978 9.62444H7.32938ZM8.04888 8.29035L7.82824 8.70011C7.80501 8.72224 7.77407 8.7346 7.74189 8.7346C7.70971 8.7346 7.67878 8.72224 7.65556 8.70011L7.24304 8.48094C7.22835 8.47301 7.21541 8.46222 7.20501 8.44922C7.1946 8.43622 7.18694 8.42128 7.18246 8.40527C7.17799 8.38927 7.1768 8.37254 7.17897 8.35608C7.18113 8.33961 7.18661 8.32374 7.19507 8.30942L7.41572 7.89966C7.43894 7.87753 7.46988 7.86517 7.50206 7.86517C7.53424 7.86517 7.56518 7.87753 7.5884 7.89966L8.00091 8.11884C8.01481 8.12756 8.02683 8.13893 8.03629 8.15229C8.04574 8.16564 8.05245 8.18073 8.05602 8.19667C8.05958 8.21261 8.05994 8.22909 8.05707 8.24517C8.0542 8.26125 8.04815 8.2766 8.03929 8.29035H8.04888ZM10.7159 7.69002C10.0277 8.33198 9.19579 8.8023 8.28872 9.06222L10.0923 5.83184L10.9845 7.42321L10.7159 7.69002ZM10.9557 3.61155L10.7159 3.21132C10.6936 3.18825 10.6811 3.15752 10.6811 3.12556C10.6811 3.09359 10.6936 3.06287 10.7159 3.0398L11.1188 2.80157C11.142 2.77944 11.1729 2.76708 11.2051 2.76708C11.2373 2.76708 11.2682 2.77944 11.2915 2.80157L11.5313 3.19227C11.5542 3.21691 11.567 3.24923 11.567 3.28279C11.567 3.31635 11.5542 3.34867 11.5313 3.37332L11.138 3.61155C11.1255 3.62422 11.1105 3.6343 11.0941 3.64117C11.0776 3.64805 11.0599 3.65159 11.042 3.65159C11.0242 3.65159 11.0065 3.64805 10.99 3.64117C10.9735 3.6343 10.9586 3.62422 10.9461 3.61155H10.9557ZM11.7519 4.90751L11.5025 4.50729C11.494 4.49296 11.4886 4.4771 11.4864 4.46063C11.4842 4.44416 11.4854 4.42743 11.4899 4.41143C11.4944 4.39543 11.5021 4.38048 11.5125 4.36748C11.5229 4.35449 11.5358 4.3437 11.5505 4.33576L11.9438 4.088C11.9546 4.07584 11.9679 4.06609 11.9828 4.05942C11.9977 4.05274 12.0138 4.04929 12.0302 4.04929C12.0465 4.04929 12.0626 4.05274 12.0775 4.05942C12.0924 4.06609 12.1057 4.07584 12.1165 4.088L12.3659 4.4787C12.3784 4.49029 12.3884 4.5043 12.3952 4.51988C12.402 4.53545 12.4055 4.55225 12.4055 4.56923C12.4055 4.58621 12.402 4.603 12.3952 4.61857C12.3884 4.63415 12.3784 4.64816 12.3659 4.65975L11.9726 4.89798C11.9629 4.91842 11.9478 4.93585 11.9288 4.94836C11.9099 4.96088 11.8879 4.96801 11.8652 4.969C11.8424 4.96998 11.8199 4.96476 11.7999 4.95392C11.78 4.94309 11.7634 4.92704 11.7519 4.90751ZM12.7113 6.24159C12.6881 6.26372 12.6571 6.27608 12.6249 6.27608C12.5928 6.27608 12.5618 6.26372 12.5386 6.24159L12.2988 5.8509C12.2765 5.82783 12.264 5.7971 12.264 5.76514C12.264 5.73317 12.2765 5.70244 12.2988 5.67937L12.6921 5.43161C12.7038 5.4192 12.7179 5.40931 12.7336 5.40255C12.7492 5.39579 12.7661 5.3923 12.7832 5.3923C12.8003 5.3923 12.8172 5.39579 12.8329 5.40255C12.8486 5.40931 12.8627 5.4192 12.8744 5.43161L13.1142 5.82231C13.1371 5.84696 13.1499 5.87928 13.1499 5.91284C13.1499 5.94639 13.1371 5.97872 13.1142 6.00336L12.7113 6.24159ZM13.3445 7.48991L13.1046 7.09921C13.0823 7.07614 13.0699 7.04542 13.0699 7.01345C13.0699 6.98149 13.0823 6.95076 13.1046 6.92769L13.5075 6.67993C13.5308 6.6578 13.5617 6.64544 13.5939 6.64544C13.6261 6.64544 13.657 6.6578 13.6802 6.67993L13.9201 7.07062C13.943 7.09527 13.9557 7.1276 13.9557 7.16115C13.9557 7.19471 13.943 7.22703 13.9201 7.25168L13.5267 7.48991C13.5151 7.50232 13.5009 7.51221 13.4853 7.51898C13.4696 7.52574 13.4527 7.52923 13.4356 7.52923C13.4185 7.52923 13.4016 7.52574 13.3859 7.51898C13.3702 7.51221 13.3561 7.50232 13.3445 7.48991V7.48991ZM14.1503 8.78587L13.9009 8.44282C13.8909 8.42894 13.8841 8.41301 13.8811 8.39619C13.8781 8.37938 13.879 8.36212 13.8836 8.34567C13.8882 8.32922 13.8964 8.31401 13.9077 8.30114C13.919 8.28827 13.9331 8.27807 13.9488 8.2713L14.3422 8.02354C14.353 8.01137 14.3663 8.00163 14.3811 7.99495C14.396 7.98828 14.4122 7.98483 14.4285 7.98483C14.4448 7.98483 14.461 7.98828 14.4759 7.99495C14.4908 8.00163 14.504 8.01137 14.5148 8.02354L14.7643 8.41424C14.7765 8.42497 14.7863 8.43817 14.7931 8.45295C14.7998 8.46774 14.8033 8.48377 14.8033 8.5C14.8033 8.51622 14.7998 8.53226 14.7931 8.54705C14.7863 8.56184 14.7765 8.57503 14.7643 8.58576L14.371 8.83352C14.3566 8.85221 14.3371 8.86644 14.3149 8.87456C14.2926 8.88267 14.2685 8.88432 14.2454 8.87933C14.2222 8.87433 14.201 8.86288 14.1842 8.84633C14.1673 8.82978 14.1556 8.80881 14.1503 8.78587V8.78587ZM15.5222 9.88173L15.1192 10.1295C15.096 10.1516 15.0651 10.164 15.0329 10.164C15.0007 10.164 14.9698 10.1516 14.9466 10.1295L14.7067 9.73879C14.6838 9.71414 14.6711 9.68182 14.6711 9.64826C14.6711 9.61471 14.6838 9.58238 14.7067 9.55773L15.1 9.3195C15.1117 9.3071 15.1258 9.29721 15.1415 9.29045C15.1572 9.28368 15.1741 9.28019 15.1912 9.28019C15.2083 9.28019 15.2252 9.28368 15.2409 9.29045C15.2565 9.29721 15.2707 9.3071 15.2823 9.3195L15.5222 9.7102C15.5444 9.73327 15.5569 9.764 15.5569 9.79596C15.5569 9.82793 15.5444 9.85866 15.5222 9.88173V9.88173Z" fill="#D9D9D9"/>
<path d="M1.85153 15.8565C1.84106 15.8616 1.82958 15.8642 1.81795 15.8642C1.80631 15.8642 1.79483 15.8616 1.78437 15.8565C1.78437 15.8565 1.78437 15.8565 1.78437 15.7993C1.78008 15.7741 1.78008 15.7483 1.78437 15.7231V15.6373C1.78437 15.6373 1.78437 15.5706 1.78437 15.5039C1.78437 15.4372 1.78437 15.3515 1.78437 15.2562L1.72681 14.9512C1.69744 14.8477 1.6622 14.7459 1.62128 14.6463C1.62128 14.6463 1.57331 14.6463 1.48697 14.6463H1.17998H0.959337H0.892183C0.886537 14.6842 0.886537 14.7227 0.892183 14.7606C0.892183 14.7606 0.892183 14.8559 0.892183 14.9131C0.896545 14.9638 0.896545 15.0148 0.892183 15.0656C0.88325 15.1167 0.863642 15.1654 0.834621 15.2085C0.810198 15.247 0.777421 15.2795 0.738688 15.3038C0.717585 15.3133 0.694693 15.3182 0.671535 15.3182C0.648377 15.3182 0.625485 15.3133 0.604381 15.3038C0.604381 15.3038 0.546819 15.3038 0.527632 15.2085C0.508445 15.1132 0.527632 15.0656 0.527632 14.9798V14.5891C0.438152 14.5814 0.350604 14.5588 0.268609 14.5224C0.268609 14.5224 0.211049 14.4652 0.268609 14.4367C0.297762 14.3996 0.338123 14.3729 0.383733 14.3604L0.613973 14.2937C0.613973 14.2175 0.613973 14.1127 0.613973 13.9888C0.624505 13.8606 0.643737 13.7332 0.671535 13.6076C0.693323 13.4845 0.725411 13.3634 0.767468 13.2455C0.804261 13.1477 0.863365 13.0596 0.940149 12.9882C0.990302 12.9739 1.04349 12.9739 1.09364 12.9882C1.16503 13.0008 1.23338 13.0267 1.29511 13.0645C1.3675 13.1038 1.43243 13.1554 1.48697 13.2169C1.55446 13.2745 1.6127 13.342 1.65966 13.417C1.69191 13.4822 1.72073 13.549 1.746 13.6172C1.746 13.7029 1.80356 13.7887 1.84193 13.8744L1.91868 14.1127L1.97624 14.2747C1.98791 14.2814 2.00114 14.2849 2.01461 14.2849C2.02808 14.2849 2.04132 14.2814 2.05299 14.2747H2.18729C2.23155 14.2651 2.27735 14.2651 2.3216 14.2747C2.3216 14.2747 2.37916 14.2747 2.3216 14.2747C2.26404 14.2747 2.3216 14.2747 2.26404 14.3318L2.13933 14.3985L2.02421 14.4462H1.96665L2.05299 14.8845C2.05299 15.037 2.05299 15.1704 2.11055 15.2943C2.1202 15.3957 2.1202 15.4978 2.11055 15.5992C2.1449 15.6333 2.16419 15.6796 2.16419 15.7279C2.16419 15.7761 2.1449 15.8224 2.11055 15.8565C2.0762 15.8906 2.02961 15.9098 1.98103 15.9098C1.93246 15.9098 1.88587 15.8906 1.85153 15.8565ZM0.892183 13.3217C0.866698 13.3493 0.847114 13.3817 0.834621 13.417C0.834621 13.417 0.834621 13.5123 0.834621 13.5695C0.829851 13.6361 0.829851 13.703 0.834621 13.7696C0.829838 13.8426 0.829838 13.9158 0.834621 13.9888V14.3318H1.42942H1.47738V14.1889C1.47738 14.1222 1.42941 14.0555 1.40063 13.9697C1.37185 13.884 1.33348 13.8173 1.29511 13.7315C1.26081 13.6595 1.22237 13.5895 1.17998 13.5219C1.14873 13.4661 1.11001 13.4148 1.06486 13.3694C1.07123 13.3466 1.06823 13.3223 1.05654 13.3018C1.04484 13.2812 1.0254 13.2661 1.00251 13.2598C0.979606 13.2535 0.955119 13.2565 0.934429 13.2681C0.91374 13.2797 0.898544 13.299 0.892183 13.3217V13.3217Z" fill="#D9D9D9"/>
<path d="M2.15852 14.1603C2.17191 14.1337 2.19168 14.1108 2.21609 14.0936L2.30243 14.046H2.38877H2.45592C2.45592 14.046 2.45592 14.046 2.45592 14.1127C2.45592 14.1794 2.45592 14.1794 2.45592 14.2175V14.3318C2.45592 14.4271 2.45592 14.532 2.45592 14.6463C2.48412 14.584 2.51615 14.5236 2.55185 14.4652L2.65738 14.3223C2.69089 14.2739 2.72948 14.2292 2.7725 14.1889C2.81144 14.1545 2.85718 14.1285 2.90681 14.1127C2.95435 14.1036 3.00317 14.1036 3.05071 14.1127C3.09862 14.1234 3.14413 14.1428 3.18502 14.1698C3.23831 14.206 3.28127 14.2552 3.30973 14.3128C3.33267 14.3645 3.34879 14.419 3.3577 14.4748V14.6844C3.35347 14.7574 3.35347 14.8306 3.3577 14.9036C3.34838 14.97 3.34838 15.0373 3.3577 15.1037C3.36934 15.157 3.38873 15.2084 3.41526 15.2562C3.42711 15.2778 3.44353 15.2967 3.4634 15.3115C3.48327 15.3263 3.50611 15.3367 3.53038 15.3419C3.57138 15.3516 3.6141 15.3516 3.6551 15.3419H3.77022L3.86615 15.2943H4.07721C4.07721 15.2943 4.07721 15.2943 4.07721 15.3705C4.05509 15.4212 4.02239 15.4667 3.98128 15.5039C3.92876 15.5465 3.87067 15.5817 3.80859 15.6087C3.73457 15.6374 3.65238 15.6374 3.57835 15.6087C3.4973 15.6028 3.41947 15.5747 3.35346 15.5277C3.28744 15.4806 3.23579 15.4163 3.20421 15.3419C3.1211 15.1526 3.07862 14.9481 3.07949 14.7416C3.08962 14.6753 3.08962 14.6078 3.07949 14.5415C3.07949 14.5415 3.07949 14.4748 3.01234 14.4748C2.98145 14.463 2.94729 14.463 2.9164 14.4748C2.86891 14.5144 2.82978 14.563 2.80128 14.6177C2.75299 14.6803 2.71718 14.7514 2.69576 14.8273C2.67074 14.8916 2.6546 14.9589 2.64779 15.0275C2.64779 15.0846 2.64779 15.1418 2.64779 15.1895C2.65408 15.2241 2.65408 15.2596 2.64779 15.2943C2.63989 15.3087 2.62894 15.3213 2.6157 15.3312C2.60245 15.3411 2.58722 15.348 2.57104 15.3515H2.33121C2.30284 15.3583 2.27323 15.3583 2.24486 15.3515C2.23783 15.3201 2.23783 15.2875 2.24486 15.2562C2.24486 15.199 2.24486 15.1323 2.24486 15.0465V14.7988C2.2397 14.7131 2.2397 14.6272 2.24486 14.5415C2.24486 14.4557 2.24486 14.389 2.24486 14.3318C2.20468 14.2811 2.1753 14.2227 2.15852 14.1603Z" fill="#D9D9D9"/>
<path d="M3.85655 14.7416L3.91412 14.6749C3.91585 14.6495 3.91585 14.624 3.91412 14.5987C3.93191 14.5646 3.94792 14.5296 3.96208 14.4938V14.3509C4.00781 14.292 4.04644 14.2281 4.0772 14.1603C4.0772 14.1031 4.0772 14.065 4.0772 14.0269C4.07064 13.9987 4.07064 13.9694 4.0772 13.9411C4.09937 13.9368 4.12219 13.9368 4.14436 13.9411H4.25948H4.40338C4.43793 13.9318 4.47436 13.9318 4.50891 13.9411C4.52007 13.965 4.52585 13.991 4.52585 14.0174C4.52585 14.0437 4.52007 14.0697 4.50891 14.0936C4.50285 14.1379 4.50285 14.1827 4.50891 14.227C4.50891 14.2842 4.50891 14.3509 4.50891 14.4176C4.50412 14.4906 4.50412 14.5638 4.50891 14.6368C4.50391 14.7066 4.50391 14.7766 4.50891 14.8464C4.50339 14.9003 4.50339 14.9545 4.50891 15.0084C4.50891 15.0084 4.50891 15.0846 4.58565 15.0942C4.61219 15.1084 4.64186 15.1158 4.67199 15.1158C4.70213 15.1158 4.73179 15.1084 4.75833 15.0942C4.81311 15.0614 4.86179 15.0195 4.90224 14.9703L4.9598 14.9036C4.9598 14.9036 5.00776 14.9036 5.01736 14.9036C5.02695 14.9036 5.01736 14.9036 5.01736 14.9512C5.02459 14.9986 5.02459 15.0468 5.01736 15.0942C4.96877 15.2121 4.88066 15.3097 4.76793 15.3705C4.65211 15.4047 4.52879 15.4047 4.41297 15.3705C4.33792 15.3611 4.26931 15.3236 4.2211 15.2657C4.18034 15.2087 4.14501 15.1481 4.11558 15.0846C4.09929 15.0265 4.08008 14.9693 4.05801 14.9131C4.05801 14.8559 4.05801 14.8273 4.05801 14.8273H4.01005C4.01005 14.8273 3.9333 14.8273 3.92371 14.8273C3.91411 14.8273 3.82777 14.7892 3.85655 14.7416ZM4.19232 13.0454C4.20507 13.0234 4.22316 13.0049 4.24494 12.9916C4.26672 12.9782 4.2915 12.9705 4.31704 12.9692C4.37041 12.9546 4.42676 12.9546 4.48012 12.9692C4.53135 12.9863 4.57751 13.0157 4.61444 13.0549C4.61444 13.0549 4.61444 13.1216 4.61444 13.1502C4.60394 13.1811 4.58377 13.2078 4.55687 13.2265H4.47053H4.3746H4.27866C4.25372 13.2345 4.22686 13.2345 4.20192 13.2265C4.18074 13.2084 4.16428 13.1855 4.15395 13.1597C4.14445 13.1319 4.14445 13.1018 4.15395 13.074C4.16561 13.063 4.17848 13.0535 4.19232 13.0454V13.0454Z" fill="#D9D9D9"/>
<path d="M5.03655 13.6457C5.07683 13.6312 5.12099 13.6312 5.16127 13.6457C5.19778 13.6689 5.23019 13.6979 5.2572 13.7315C5.28705 13.7648 5.30989 13.8037 5.32435 13.8458C5.32828 13.887 5.32828 13.9285 5.32435 13.9697C5.36103 14.0878 5.38673 14.2091 5.4011 14.3318C5.41208 14.3036 5.42835 14.2778 5.44907 14.2556C5.49234 14.1803 5.54381 14.11 5.60256 14.046L5.71768 13.9221C5.76016 13.8828 5.80875 13.8506 5.86159 13.8268C5.9155 13.8169 5.97076 13.8169 6.02467 13.8268C6.09772 13.8147 6.17228 13.8147 6.24532 13.8268C6.31375 13.8513 6.37595 13.8903 6.42759 13.9411C6.47147 13.989 6.50712 14.0438 6.53312 14.1031C6.53747 14.1634 6.53747 14.2239 6.53312 14.2842C6.53674 14.3477 6.53674 14.4113 6.53312 14.4748C6.53312 14.5987 6.53312 14.6654 6.53312 14.6844C6.53312 14.7035 6.53312 14.6844 6.60987 14.551C6.6342 14.4856 6.66305 14.4219 6.69622 14.3604C6.76428 14.2732 6.85335 14.2044 6.95524 14.1603C7.00372 14.1078 7.06248 14.0656 7.12792 14.0364C7.15616 14.0222 7.18739 14.0148 7.21906 14.0148C7.25073 14.0148 7.28195 14.0222 7.3102 14.0364C7.35841 14.0667 7.40067 14.1055 7.43491 14.1508C7.47551 14.2011 7.51087 14.2554 7.54044 14.3128C7.5759 14.382 7.60172 14.4558 7.61718 14.5319C7.62714 14.6142 7.62714 14.6974 7.61718 14.7797C7.61718 14.875 7.61718 14.9417 7.61718 15.0084C7.60887 15.0525 7.60887 15.0977 7.61718 15.1418C7.63793 15.1728 7.66823 15.1962 7.70352 15.2085C7.74778 15.2181 7.79358 15.2181 7.83783 15.2085C7.83783 15.2085 7.91458 15.2085 7.92417 15.2085C7.93091 15.2201 7.93446 15.2333 7.93446 15.2466C7.93446 15.26 7.93091 15.2732 7.92417 15.2848L7.83783 15.3705C7.77817 15.3867 7.71522 15.3867 7.65556 15.3705C7.58555 15.3707 7.51649 15.3544 7.45409 15.3229C7.39317 15.2832 7.33826 15.235 7.291 15.1799C7.24092 15.1237 7.19598 15.0631 7.1567 14.9989C7.12084 14.9341 7.08881 14.8673 7.06076 14.7988C7.06076 14.7321 7.06076 14.6749 6.99361 14.6177C6.99639 14.5796 6.99639 14.5414 6.99361 14.5034C6.96518 14.5411 6.94255 14.5829 6.92646 14.6272L6.84011 14.8178C6.82211 14.8811 6.79634 14.9419 6.76337 14.9989L6.66743 15.1418C6.63991 15.1836 6.60398 15.2193 6.5619 15.2466C6.5408 15.2561 6.51791 15.261 6.49475 15.261C6.47159 15.261 6.4487 15.2561 6.42759 15.2466C6.35842 15.2296 6.29736 15.1892 6.25491 15.1323C6.20684 15.084 6.17072 15.0253 6.14939 14.9608C6.12132 14.8928 6.09885 14.8227 6.08223 14.7511C6.08223 14.6749 6.08223 14.5987 6.08223 14.5129C6.0775 14.4399 6.0775 14.3667 6.08223 14.2937C6.07855 14.2366 6.07855 14.1793 6.08223 14.1222C6.08481 14.0873 6.08481 14.0523 6.08223 14.0174C6.07867 14.0039 6.07186 13.9914 6.06236 13.9811C6.05286 13.9709 6.04098 13.963 6.02775 13.9583C6.01451 13.9536 6.00033 13.9522 5.98642 13.9542C5.97251 13.9562 5.95929 13.9615 5.94793 13.9697C5.85806 14.0158 5.77946 14.0808 5.71768 14.1603C5.66365 14.2228 5.62725 14.2985 5.61216 14.3795C5.60217 14.4713 5.60217 14.564 5.61216 14.6558C5.6077 14.7415 5.6077 14.8274 5.61216 14.9131V15.0846C5.62177 15.1157 5.62177 15.1489 5.61216 15.1799C5.58625 15.2076 5.55299 15.2274 5.51622 15.2371C5.47527 15.2472 5.43246 15.2472 5.39151 15.2371C5.33874 15.227 5.28931 15.2041 5.24761 15.1704C5.17288 15.1746 5.09881 15.1545 5.03655 15.1132C5.00204 15.0108 4.97636 14.9056 4.9598 14.7988C4.9598 14.6844 4.9598 14.551 4.9598 14.4176C4.95072 14.2939 4.95072 14.1697 4.9598 14.046C4.95403 13.9539 4.95403 13.8616 4.9598 13.7696C4.9694 13.6838 5.03655 13.6457 5.03655 13.6457Z" fill="#D9D9D9"/>
<path d="M8.96985 13.9316C8.96892 13.9486 8.96295 13.9648 8.9527 13.9784C8.94246 13.992 8.9284 14.0022 8.91229 14.0078L8.80676 14.065L8.67245 14.1317C8.63038 14.1591 8.59445 14.1948 8.56692 14.2365C8.51804 14.3082 8.48531 14.3894 8.47099 14.4748C8.46156 14.5603 8.46156 14.6466 8.47099 14.7321C8.46036 14.8047 8.46036 14.8786 8.47099 14.9512C8.47099 15.0084 8.47099 15.037 8.54774 15.037C8.58466 15.0518 8.62594 15.0518 8.66286 15.037L8.76838 14.9226C8.81551 14.8664 8.85134 14.8017 8.87391 14.7321C8.87932 14.6973 8.87932 14.662 8.87391 14.6272C8.87823 14.5924 8.87823 14.5572 8.87391 14.5224C8.86876 14.4781 8.86876 14.4333 8.87391 14.389C8.86765 14.3511 8.86765 14.3125 8.87391 14.2747V14.227H8.96985H9.07537C9.09218 14.2321 9.1077 14.2407 9.12093 14.2522C9.13415 14.2637 9.14478 14.2779 9.15212 14.2937C9.16961 14.3593 9.16961 14.4283 9.15212 14.4938C9.14696 14.5795 9.14696 14.6654 9.15212 14.7511C9.15212 14.8274 9.17131 14.8941 9.20968 14.9512C9.22688 15.0049 9.25645 15.0538 9.29603 15.0942C9.32022 15.1258 9.35376 15.1491 9.39196 15.1609C9.43614 15.171 9.48208 15.171 9.52627 15.1609L9.60302 15.1132C9.60302 15.1132 9.60301 15.1132 9.66057 15.1132C9.71813 15.1132 9.66057 15.1132 9.66057 15.1132C9.66057 15.1132 9.66057 15.1132 9.66057 15.1704C9.64691 15.2081 9.6275 15.2434 9.60302 15.2752C9.56922 15.3148 9.53054 15.35 9.48789 15.38C9.41926 15.4137 9.34377 15.4312 9.26725 15.4312C9.19072 15.4312 9.11522 15.4137 9.04659 15.38C8.97995 15.3521 8.91838 15.3135 8.86432 15.2657C8.81404 15.2082 8.77206 15.1441 8.73961 15.0751L8.64367 15.218L8.50937 15.3133C8.44466 15.349 8.37226 15.3686 8.29831 15.3705C8.21857 15.3685 8.14144 15.3419 8.07766 15.2943C8.0026 15.2406 7.94305 15.1683 7.90498 15.0846C7.85784 14.9866 7.83482 14.8788 7.83782 14.7702C7.83267 14.6419 7.85901 14.5144 7.91457 14.3985C7.9475 14.3168 7.99641 14.2423 8.05847 14.1794C8.16918 14.0729 8.3041 13.9944 8.4518 13.9507H8.63408H8.76838C8.76838 13.9507 8.97944 13.9126 8.96985 13.9316Z" fill="#D9D9D9"/>
<path d="M10.0443 12.912C10.0467 12.8935 10.0558 12.8764 10.0699 12.8641C10.0841 12.8519 10.1023 12.8451 10.1211 12.8453C10.1407 12.8366 10.1619 12.8321 10.1834 12.8321C10.2049 12.8321 10.2261 12.8366 10.2458 12.8453C10.2963 12.8682 10.3419 12.9005 10.3801 12.9406C10.3992 12.9591 10.4141 12.9814 10.424 13.006C10.4339 13.0306 10.4386 13.057 10.4376 13.0835C10.4376 13.0835 10.4376 13.1883 10.4376 13.236C10.4326 13.2867 10.4326 13.3378 10.4376 13.3885V13.5314C10.5079 13.5266 10.5784 13.5266 10.6487 13.5314H10.7926C10.7926 13.5314 10.8502 13.5314 10.8502 13.5886C10.8498 13.6068 10.8443 13.6246 10.8341 13.6398C10.8239 13.655 10.8095 13.667 10.7926 13.6743L10.6583 13.7315L10.4568 13.7791C10.4568 13.9316 10.4568 14.0841 10.4568 14.227C10.4664 14.3571 10.4664 14.4877 10.4568 14.6177C10.4568 14.7606 10.4568 14.875 10.4568 14.9798C10.4541 15.0592 10.4345 15.1372 10.3993 15.2085C10.3843 15.2474 10.3575 15.2808 10.3225 15.3038H10.2266H10.1402C10.1402 15.3038 10.1402 15.3038 10.1402 15.2276V15.0561C10.1347 14.9799 10.1347 14.9035 10.1402 14.8273C10.1402 14.7416 10.1402 14.6558 10.1402 14.5605C10.1402 14.4652 10.1402 14.1222 10.1402 13.8554C10.083 13.8637 10.0248 13.8637 9.96756 13.8554C9.92661 13.8655 9.8838 13.8655 9.84285 13.8554C9.82241 13.8513 9.80386 13.8407 9.79002 13.8253C9.77617 13.8098 9.76777 13.7902 9.7661 13.7696C9.7661 13.7696 9.7661 13.7124 9.7661 13.6839L9.88122 13.6171H10.0731V13.2074C10.0731 13.1502 10.0731 13.1026 10.0731 13.0645C10.0731 13.0263 10.0731 12.9978 10.0731 12.9692C10.061 12.9515 10.0513 12.9322 10.0443 12.912Z" fill="#D9D9D9"/>
<path d="M11.0037 14.0555C11.0376 13.9935 11.0832 13.9385 11.138 13.8935C11.191 13.8517 11.249 13.8165 11.3106 13.7887C11.375 13.7609 11.4427 13.7417 11.5121 13.7315H11.7232C11.7877 13.7369 11.8486 13.7637 11.8958 13.8077C11.9468 13.8498 11.9836 13.9063 12.0014 13.9697C12.0206 14.0383 12.0206 14.1108 12.0014 14.1794C11.9851 14.2658 11.949 14.3473 11.8958 14.4176C11.8411 14.4929 11.7728 14.5576 11.6944 14.6082L11.5121 14.6939C11.4457 14.7081 11.377 14.7081 11.3106 14.6939C11.2956 14.7695 11.2956 14.8471 11.3106 14.9226V14.9989V15.0656C11.336 15.0707 11.3621 15.0707 11.3874 15.0656H11.4929C11.5651 15.056 11.6341 15.0299 11.6944 14.9894L11.8287 14.8559C11.8617 14.8177 11.8906 14.7762 11.915 14.7321C11.9205 14.7186 11.9297 14.707 11.9416 14.6985C11.9535 14.6901 11.9676 14.6852 11.9822 14.6844C11.9822 14.6844 11.9822 14.6844 11.9822 14.7416C11.9913 14.792 11.9913 14.8436 11.9822 14.8941C11.9715 14.9641 11.9488 15.0318 11.915 15.0942C11.8845 15.161 11.8384 15.2198 11.7807 15.2657C11.7149 15.317 11.6401 15.3557 11.5601 15.38C11.4558 15.4028 11.3478 15.4028 11.2435 15.38C11.1411 15.357 11.0497 15.2998 10.9845 15.2181C10.918 15.1494 10.8659 15.0685 10.831 14.9798C10.781 14.8853 10.7516 14.7814 10.7446 14.6749C10.735 14.6053 10.735 14.5348 10.7446 14.4652C10.7446 14.4081 10.7446 14.3414 10.7446 14.2651C10.8166 14.1793 10.9045 14.1082 11.0037 14.0555V14.0555ZM11.3202 14.4367H11.4258H11.5409C11.583 14.4093 11.6189 14.3736 11.6464 14.3318C11.6995 14.2877 11.7366 14.2274 11.7519 14.1603C11.7593 14.129 11.7593 14.0964 11.7519 14.065C11.7566 14.0398 11.7566 14.014 11.7519 13.9888H11.6176C11.5758 14.0001 11.5367 14.0195 11.5025 14.046C11.4666 14.0706 11.437 14.1032 11.4162 14.1413C11.3924 14.1836 11.3731 14.2283 11.3586 14.2747C11.3503 14.3027 11.3503 14.3324 11.3586 14.3604C11.3383 14.3814 11.3249 14.408 11.3202 14.4367V14.4367Z" fill="#D9D9D9"/>
<path d="M13.2101 14.1603V13.722C13.2101 13.6076 13.2101 13.4933 13.2101 13.3789C13.22 13.2934 13.22 13.2071 13.2101 13.1216C13.2065 13.0637 13.2235 13.0064 13.2581 12.9596C13.285 12.9121 13.3208 12.87 13.3636 12.8358C13.4016 12.8049 13.4435 12.7793 13.4884 12.7595H13.5747C13.5747 12.7595 13.5747 12.7595 13.5747 12.8929V13.2074C13.5747 13.3503 13.5747 13.5123 13.5747 13.6934C13.5651 13.8775 13.5651 14.062 13.5747 14.2461C13.5627 14.3856 13.5627 14.5259 13.5747 14.6654C13.5865 14.7535 13.609 14.8399 13.6418 14.9226C13.6607 14.9725 13.6941 15.0157 13.7378 15.0465C13.7594 15.0727 13.7903 15.0898 13.8241 15.0942H13.9009C13.9009 15.0942 13.9009 15.0942 13.9009 15.1704C13.872 15.2059 13.8361 15.2351 13.7953 15.2562C13.7414 15.266 13.6862 15.266 13.6323 15.2562C13.5577 15.2584 13.4842 15.2385 13.4212 15.199C13.3657 15.1709 13.3192 15.128 13.2869 15.0751C13.2593 15.0244 13.2399 14.9698 13.2293 14.9131C13.22 14.8531 13.22 14.7921 13.2293 14.7321C13.1828 14.8213 13.1211 14.9018 13.0471 14.9703L12.9511 15.0561L12.8264 15.1228C12.7821 15.132 12.7364 15.132 12.6921 15.1228C12.6381 15.132 12.583 15.132 12.529 15.1228C12.4645 15.1174 12.4036 15.0905 12.3563 15.0465C12.3072 14.9952 12.2653 14.9375 12.2316 14.875C12.1979 14.8025 12.1752 14.7254 12.1645 14.6463C12.1546 14.564 12.1546 14.4808 12.1645 14.3985C12.1544 14.3194 12.1544 14.2394 12.1645 14.1603C12.1908 14.0854 12.2334 14.0171 12.2892 13.9602C12.3242 13.9232 12.3667 13.894 12.4139 13.8744C12.4581 13.8649 12.5039 13.8649 12.5482 13.8744C12.5925 13.8649 12.6383 13.8649 12.6825 13.8744H12.8072C12.9616 13.9382 13.0994 14.0359 13.2101 14.1603V14.1603ZM12.6729 14.4652C12.6686 14.5223 12.6686 14.5797 12.6729 14.6368V14.8083C12.6619 14.8489 12.6619 14.8916 12.6729 14.9322V14.9894C12.688 14.9962 12.7043 14.9997 12.7209 14.9997C12.7374 14.9997 12.7538 14.9962 12.7688 14.9894C12.8239 14.9494 12.8725 14.9011 12.9127 14.8464C12.9459 14.8049 12.9748 14.7602 12.9991 14.713L13.0758 14.5605V14.4271V14.3604H12.9895C12.9449 14.3557 12.8998 14.3557 12.8552 14.3604C12.814 14.3522 12.7716 14.3522 12.7305 14.3604C12.7109 14.3952 12.7041 14.4356 12.7113 14.4748L12.6729 14.4652Z" fill="#D9D9D9"/>
<path d="M7.10873 17.0191V16.3901H7.57881V16.495H7.24304V16.6284H7.55962V16.7332H7.24304V16.9047H7.59799V17.0191H7.10873Z" fill="#D9D9D9"/>
<path d="M7.7131 17.0191V16.3901H7.83782L8.09684 16.8094V16.3901H8.22155V17.0191H8.08725L7.83782 16.5998V17.0191H7.7131Z" fill="#D9D9D9"/>
<path d="M8.50936 17.0191V16.495H8.32709V16.3901H8.87391V16.495H8.68205V17.0191H8.50936Z" fill="#D9D9D9"/>
<path d="M8.92189 17.0191V16.3901H9.39197V16.495H9.0466V16.6284H9.36319V16.7332H9.0466V16.9047H9.40156V17.0191H8.92189Z" fill="#D9D9D9"/>
<path d="M9.52628 17.0191V16.3901H9.93879C9.96857 16.4071 9.99466 16.4298 10.0155 16.4568C10.0252 16.4879 10.0252 16.5211 10.0155 16.5521C10.0295 16.589 10.0295 16.6296 10.0155 16.6665C9.9998 16.684 9.98061 16.6981 9.95916 16.7079C9.9377 16.7177 9.91444 16.7231 9.89082 16.7237L9.96757 16.7808L10.0347 16.8856L10.1115 17.0095H9.95798L9.83326 16.8666V16.7808H9.73733V17.0191H9.52628ZM9.65099 16.6474H9.83326H9.6414H9.65099Z" fill="#D9D9D9"/>
<path d="M10.3225 17.0191V16.495H10.1306V16.3901H10.6295V16.495H10.4472V17.0191H10.3225Z" fill="#D9D9D9"/>
<path d="M11.2339 17.0191H11.0996L11.042 16.8761H10.7926V17.0191H10.6007L10.8502 16.3901H10.9845L11.2339 17.0191ZM10.9941 16.7618L10.9077 16.5331L10.831 16.7618H10.9941Z" fill="#D9D9D9"/>
<path d="M11.3106 17.0191V16.3901H11.4354V17.0191H11.3106Z" fill="#D9D9D9"/>
<path d="M11.5793 17.0191V16.3901H11.7519L12.011 16.8094V16.3901H12.1261V17.0191H12.0014L11.7423 16.5998V17.0191H11.5793Z" fill="#D9D9D9"/>
<path d="M12.222 17.0191V16.3901H12.4139L12.529 16.8189L12.6441 16.3901H12.836V17.0191H12.7113V16.5235L12.577 17.0191H12.4619L12.3371 16.5235V17.0191H12.222Z" fill="#D9D9D9"/>
<path d="M12.9799 17.0191V16.3901H13.4404V16.495H13.1046V16.6284H13.4212V16.7332H13.1046V16.9047H13.4596V17.0191H12.9799Z" fill="#D9D9D9"/>
<path d="M13.5843 17.0191V16.3901H13.6706L13.9296 16.8094V16.3901H14.0448V17.0191H13.9584L13.6706 16.5902V17.0191H13.5843Z" fill="#D9D9D9"/>
<path d="M14.371 17.0191V16.495H14.1887V16.3901H14.6875V16.495H14.5053V17.0191H14.371Z" fill="#D9D9D9"/>
<path d="M14.8122 15.1132C14.814 15.1224 14.8134 15.1318 14.8106 15.1406C14.8079 15.1495 14.803 15.1576 14.7964 15.1642C14.7897 15.1707 14.7816 15.1756 14.7727 15.1783C14.7638 15.1811 14.7543 15.1816 14.7451 15.1799C14.7046 15.193 14.6609 15.193 14.6204 15.1799C14.5703 15.1605 14.5246 15.1314 14.4861 15.0942C14.4433 15.0599 14.4075 15.0179 14.3805 14.9703C14.3446 14.8904 14.3157 14.8075 14.2942 14.7225C14.2942 14.6272 14.2942 14.5415 14.2942 14.4557C14.2942 14.37 14.2942 14.3509 14.2942 14.2937V14.1603C14.2942 14.1603 14.2942 14.0936 14.2942 14.065C14.2942 14.0364 14.2942 14.065 14.2942 14.065H14.1791H14.064C14.0419 14.0707 14.0188 14.0707 13.9968 14.065C13.9968 14.065 13.9968 14.065 14.064 14.065H14.1791H14.3038C14.3428 13.8651 14.3428 13.8651 14.3812 13.6648C14.4011 13.5663 14.4401 13.4726 14.4957 13.3885C14.547 13.3136 14.6121 13.2489 14.6875 13.1979C14.7597 13.1512 14.8418 13.1219 14.9274 13.1121C15.0163 13.0977 15.107 13.0977 15.196 13.1121H15.3399L15.5126 13.1597L15.6852 13.236C15.7242 13.26 15.757 13.2926 15.7812 13.3313C15.7812 13.3313 15.7812 13.3884 15.7812 13.398C15.7557 13.4233 15.7212 13.4375 15.6852 13.4375C15.6493 13.4375 15.6148 13.4233 15.5893 13.398C15.5639 13.3727 15.5496 13.3384 15.5496 13.3027C15.5496 13.2669 15.5639 13.2327 15.5893 13.2074H15.455H15.3111H15.196H15.1288C15.0505 13.1849 14.9673 13.1849 14.889 13.2074C14.8342 13.2174 14.7839 13.244 14.7451 13.2836C14.7055 13.324 14.6759 13.3729 14.6587 13.4266C14.6542 13.4837 14.6542 13.541 14.6587 13.5981C14.6541 13.652 14.6541 13.7062 14.6587 13.7601V13.8744H14.9178H15.1096H15.2919C15.3363 13.8664 15.3818 13.8664 15.4262 13.8744C15.4262 13.8744 15.4262 13.8744 15.4262 13.9316C15.4262 13.9888 15.4262 13.9316 15.4262 13.9316H14.63V14.1127C14.63 14.208 14.63 14.3032 14.63 14.4176C14.63 14.5319 14.63 14.6368 14.6971 14.7511C14.7276 14.8742 14.7661 14.9951 14.8122 15.1132V15.1132Z" fill="#D9D9D9"/>
<path d="M15.4742 14.5987L15.5318 14.5319V14.4557V14.3604V14.208C15.5359 14.1572 15.5359 14.1062 15.5318 14.0555C15.5318 13.9983 15.5318 13.9602 15.5318 13.9221C15.5222 13.8943 15.5222 13.8641 15.5318 13.8363C15.5505 13.8305 15.5706 13.8305 15.5893 13.8363H15.7044H15.8483C15.865 13.8292 15.883 13.8256 15.9011 13.8256C15.9192 13.8256 15.9372 13.8292 15.9539 13.8363C15.9539 13.8363 15.9539 13.9126 15.9539 13.9888C15.9469 14.0298 15.9469 14.0717 15.9539 14.1127C15.9539 14.1698 15.9539 14.2365 15.9539 14.3033C15.9491 14.3762 15.9491 14.4494 15.9539 14.5224C15.9489 14.5922 15.9489 14.6623 15.9539 14.7321C15.9483 14.7859 15.9483 14.8402 15.9539 14.8941C15.96 14.9128 15.97 14.9302 15.9832 14.9449C15.9964 14.9597 16.0125 14.9716 16.0306 14.9798C16.0571 14.994 16.0868 15.0014 16.1169 15.0014C16.1471 15.0014 16.1767 14.994 16.2033 14.9798C16.2562 14.9445 16.3045 14.9029 16.3472 14.8559L16.4047 14.7892C16.4047 14.7892 16.4048 14.7892 16.4623 14.7892C16.5199 14.7892 16.4623 14.7892 16.4623 14.7892C16.4695 14.8366 16.4695 14.8848 16.4623 14.9322C16.4167 15.0519 16.3277 15.1504 16.2129 15.2085C16.0965 15.2384 15.9743 15.2384 15.8579 15.2085C15.7832 15.1919 15.7159 15.1518 15.6661 15.0942C15.6253 15.0372 15.59 14.9766 15.5605 14.9131C15.5574 14.856 15.5574 14.7987 15.5605 14.7416C15.5605 14.6844 15.5605 14.6558 15.5605 14.6558C15.503 14.6558 15.4838 14.6558 15.4742 14.6558C15.4646 14.6558 15.4454 14.6463 15.4742 14.5987ZM15.81 12.9025C15.8227 12.8804 15.8408 12.8619 15.8626 12.8486C15.8844 12.8353 15.9091 12.8276 15.9347 12.8262C15.988 12.8116 16.0444 12.8116 16.0978 12.8262C16.149 12.8433 16.1951 12.8728 16.2321 12.912C16.2321 12.912 16.2321 12.9787 16.2321 13.0073C16.2216 13.0382 16.2014 13.0649 16.1745 13.0835C16.1461 13.0904 16.1165 13.0904 16.0882 13.0835H15.9922C15.9604 13.0884 15.9281 13.0884 15.8963 13.0835C15.8714 13.0915 15.8445 13.0915 15.8195 13.0835C15.8152 13.0615 15.8152 13.0388 15.8195 13.0168C15.8195 13.0168 15.8195 12.9692 15.8195 12.9311C15.8157 12.9218 15.8125 12.9122 15.81 12.9025V12.9025Z" fill="#D9D9D9"/>
<path d="M17.9205 13.5028C17.9582 13.4927 17.9979 13.4927 18.0356 13.5028C18.0719 13.5262 18.1043 13.5552 18.1316 13.5886C18.1647 13.6211 18.1908 13.66 18.2083 13.7029C18.2083 13.7029 18.2083 13.7887 18.2083 13.8363C18.2426 13.9513 18.2651 14.0694 18.2755 14.1889L18.3714 14.1603C18.4181 14.0873 18.4693 14.0173 18.5249 13.9507C18.564 13.907 18.6057 13.8657 18.6496 13.8268C18.6903 13.7897 18.7354 13.7577 18.7839 13.7315C18.8411 13.7226 18.8994 13.7226 18.9566 13.7315C19.0264 13.7194 19.0978 13.7194 19.1677 13.7315C19.239 13.7558 19.3044 13.7948 19.3595 13.8458C19.4004 13.8941 19.4329 13.9489 19.4555 14.0078C19.4832 14.0652 19.5026 14.1261 19.513 14.1889C19.513 14.2556 19.513 14.3223 19.513 14.3795C19.521 14.4509 19.5371 14.5213 19.561 14.5891C19.561 14.5891 19.561 14.5891 19.6281 14.4557C19.6525 14.3903 19.6813 14.3266 19.7145 14.2651C19.7513 14.1964 19.7964 14.1324 19.8488 14.0746C19.8939 14.0225 19.9495 13.9803 20.0119 13.9507C20.0413 13.9348 20.0743 13.9265 20.1078 13.9265C20.1413 13.9265 20.1743 13.9348 20.2037 13.9507C20.2521 13.9768 20.2945 14.0125 20.3285 14.0555C20.3691 14.1058 20.4044 14.1601 20.434 14.2175C20.4653 14.2884 20.491 14.3617 20.5107 14.4367C20.52 14.519 20.52 14.6021 20.5107 14.6844C20.5107 14.7797 20.5107 14.8559 20.5107 14.9131C20.5223 14.9634 20.5417 15.0117 20.5683 15.0561C20.5889 15.0851 20.6197 15.1055 20.6546 15.1132C20.6989 15.1228 20.7447 15.1228 20.7889 15.1132C20.8021 15.1057 20.817 15.1017 20.8321 15.1017C20.8473 15.1017 20.8622 15.1057 20.8753 15.1132C20.8847 15.1237 20.8899 15.1373 20.8899 15.1513C20.8899 15.1654 20.8847 15.179 20.8753 15.1895C20.8753 15.1895 20.8753 15.2466 20.7889 15.2752C20.7294 15.2924 20.6662 15.2924 20.6067 15.2752C20.5407 15.2926 20.4712 15.2926 20.4052 15.2752C20.3947 15.2218 20.3883 15.1676 20.386 15.1132C20.339 15.0567 20.2973 14.9961 20.2613 14.9322C20.2255 14.8674 20.1934 14.8006 20.1654 14.7321L20.0982 14.5605V14.4367C20.0982 14.4367 20.0982 14.4367 20.0407 14.4367L19.9735 14.5605C19.9735 14.6177 19.9735 14.6844 19.8968 14.7511C19.8717 14.8132 19.8429 14.8736 19.8104 14.9322L19.7241 15.0751C19.6958 15.1196 19.656 15.1558 19.609 15.1799C19.5879 15.1894 19.565 15.1943 19.5418 15.1943C19.5186 15.1943 19.4958 15.1894 19.4746 15.1799C19.4076 15.1583 19.3479 15.1187 19.302 15.0656C19.2604 15.0178 19.2279 14.9629 19.206 14.9036C19.178 14.8324 19.1555 14.7591 19.1389 14.6844C19.1343 14.6083 19.1343 14.5319 19.1389 14.4557C19.1389 14.37 19.1389 14.3033 19.1389 14.2365C19.1452 14.1764 19.1452 14.1157 19.1389 14.0555C19.1461 14.0209 19.1461 13.9852 19.1389 13.9507C19.1389 13.8935 19.0717 13.884 19.0142 13.9507C18.9174 13.9945 18.8345 14.0637 18.7743 14.1508C18.7221 14.2108 18.6859 14.2829 18.6688 14.3604C18.6635 14.4525 18.6635 14.5447 18.6688 14.6368C18.6643 14.7225 18.6643 14.8083 18.6688 14.8941C18.6722 14.9512 18.6722 15.0085 18.6688 15.0656C18.6779 15.0967 18.6779 15.1297 18.6688 15.1609C18.6444 15.1882 18.6151 15.2108 18.5825 15.2276H18.4482C18.3972 15.2169 18.3485 15.1976 18.3043 15.1704C18.2638 15.1198 18.2344 15.0614 18.2179 14.9989C18.187 14.896 18.1646 14.7909 18.1508 14.6844C18.1508 14.5701 18.1508 14.4367 18.1028 14.3032C18.0548 14.1698 18.1028 14.046 18.1028 13.9411C18.0967 13.8459 18.0967 13.7505 18.1028 13.6553C17.863 13.5409 17.8917 13.5028 17.9205 13.5028Z" fill="#D9D9D9"/>
</g>
<defs>
<clipPath id="clip0_275_283">
<rect width="21" height="17" fill="white"/>
</clipPath>
</defs>
</svg>
