<svg width="26" height="15" viewBox="0 0 26 15" fill="none" xmlns="http://www.w3.org/2000/svg">
<g clip-path="url(#clip0_275_235)">
<path fill-rule="evenodd" clip-rule="evenodd" d="M9.49151 10.6437C9.20599 10.8472 8.89419 11.0097 8.56496 11.1264C8.23665 11.2416 7.89459 11.3112 7.54801 11.3333C7.18152 11.3325 6.81677 11.2823 6.46326 11.1839C6.11113 11.0931 5.7728 10.9539 5.45761 10.7701C5.02148 10.5183 4.6377 10.1826 4.32767 9.78161C4.05554 9.39297 3.85634 8.95653 3.7401 8.49426C3.61985 8.02954 3.58915 7.54555 3.6497 7.06897C3.74419 6.5876 3.93245 6.13035 4.20338 5.72414C4.44644 5.30016 4.77351 4.93222 5.16383 4.64368C5.91086 4.06334 6.85325 3.80715 7.78529 3.93104C8.26318 3.98946 8.72446 4.14587 9.14123 4.39081L8.96044 4.72414L8.77965 5.05747L8.58756 5.40231V5.48276C8.21526 5.25653 7.78958 5.13736 7.35592 5.13794C6.96851 5.12787 6.58431 5.21179 6.23512 5.38275C5.88592 5.55372 5.58176 5.80681 5.34782 6.12109C5.11387 6.43537 4.95685 6.8018 4.88976 7.19007C4.82267 7.57833 4.84744 7.97727 4.96201 8.35386C5.07657 8.73046 5.27765 9.07389 5.5486 9.35574C5.81955 9.63759 6.15259 9.84976 6.52015 9.97468C6.88771 10.0996 7.27923 10.1337 7.66232 10.0741C8.04541 10.0146 8.40905 9.86309 8.72315 9.63219L8.79094 9.72414L9.00564 10.0345L9.23162 10.3448L9.49151 10.6437Z" fill="#D9D9D9"/>
<path fill-rule="evenodd" clip-rule="evenodd" d="M9.85312 13.1149C9.42226 13.3083 8.97114 13.4509 8.50849 13.5402C8.04727 13.6321 7.57679 13.6669 7.10736 13.6437C6.13236 13.6022 5.1837 13.3095 4.3503 12.7931C3.64846 12.3889 3.0367 11.8409 2.55369 11.1839C1.61877 9.91778 1.21272 8.32754 1.42374 6.75863C1.52971 5.94697 1.79484 5.16523 2.2034 4.45978C2.61503 3.76578 3.15629 3.16052 3.79662 2.67816C4.41934 2.21082 5.12549 1.87118 5.87572 1.67816C6.6133 1.48387 7.38153 1.44089 8.13561 1.55173C8.9343 1.65609 9.70345 1.92602 10.3955 2.34483L10.6441 2.50575L10.8814 2.66667L11.0961 2.83909L11.3107 3.02299L11.1413 3.22989C11.1413 3.29886 11.017 3.36782 10.9605 3.44828C10.8905 3.51953 10.8262 3.59641 10.7684 3.67817L10.5537 3.91954C10.5026 3.86373 10.4458 3.81363 10.3842 3.77012L10.2034 3.62069L10.0113 3.49426L9.85312 3.36782C9.29399 3.03199 8.67621 2.8095 8.03391 2.71265C7.41468 2.62973 6.78555 2.66875 6.1808 2.82759C5.57331 2.98132 5.00133 3.25467 4.49719 3.63219C3.97508 4.02039 3.53669 4.51328 3.20905 5.08046C2.87744 5.64752 2.66219 6.27704 2.57629 6.93104C2.48516 7.55995 2.51975 8.2011 2.67798 8.81609C2.83184 9.42954 3.10038 10.0071 3.46894 10.5172C4.08999 11.3877 4.97551 12.0259 5.98872 12.3333C6.35533 12.4485 6.73523 12.5142 7.11866 12.5287C7.49715 12.5535 7.87719 12.5264 8.2486 12.4483C8.63813 12.3827 9.01784 12.2668 9.37855 12.1035C9.42461 12.1932 9.4661 12.2852 9.50284 12.3793C9.50284 12.4713 9.58194 12.5632 9.62714 12.6437C9.67233 12.7241 9.70623 12.8161 9.74013 12.8966L9.85312 13.1149Z" fill="#D9D9D9"/>
<path fill-rule="evenodd" clip-rule="evenodd" d="M13.2429 12.1034C12.1238 13.5602 10.5134 14.5431 8.72315 14.8621C7.35569 15.1267 5.94262 14.9943 4.6457 14.48C3.34878 13.9657 2.22043 13.0903 1.38982 11.954C0.830357 11.1728 0.420225 10.2916 0.180778 9.35632C-0.0583218 8.41855 -0.11209 7.44183 0.0225865 6.48276C0.152323 5.48767 0.479059 4.52967 0.983041 3.66667C1.39127 2.97102 1.90625 2.34627 2.50846 1.81609C3.09235 1.304 3.75208 0.888925 4.46326 0.586205C5.16554 0.288351 5.90871 0.102263 6.66666 0.0344815C7.42297 -0.0379112 8.1858 0.0125285 8.92654 0.183908V0.310345C8.92028 0.35995 8.92028 0.410163 8.92654 0.459768C8.92004 0.513204 8.92004 0.567255 8.92654 0.620691V0.804599C7.54351 0.493463 6.09992 0.621855 4.79095 1.17241C4.13984 1.46374 3.53448 1.85104 2.99434 2.32184C2.44008 2.80823 1.96691 3.38271 1.59321 4.02299C0.663341 5.58846 0.38289 7.46557 0.813548 9.24138C1.03455 10.1052 1.4183 10.9171 1.94349 11.6322C2.4655 12.377 3.13048 13.0066 3.89829 13.4828C4.62265 13.9176 5.41925 14.2137 6.24858 14.3563C7.4575 14.5638 8.69911 14.434 9.84123 13.9806C10.9834 13.5272 11.9832 12.7672 12.7345 11.7816L12.87 11.8851L12.9943 11.977L13.1073 12.046L13.2429 12.1034Z" fill="#D9D9D9"/>
<path d="M16.1469 11.0115V10.0345H16.2147L16.6328 10.5287L17.0621 10.0345H17.1299V11.0345H16.9265V10.4598L16.6328 10.7931L16.339 10.4598V11.0345L16.1469 11.0115Z" fill="#D9D9D9"/>
<path d="M17.2203 11.0115L17.6158 10.0115H17.7627L18.1582 11.0115H17.9887V10.8621H17.548L17.4915 11.0115H17.2203ZM17.7175 10.2759L17.5706 10.6552H17.8644L17.7175 10.2759Z" fill="#D9D9D9"/>
<path d="M18.3051 11.0115V10.0345H18.3729L18.983 10.6667V10.0345H19.1751V11.0345H19.1073L18.4972 10.4138V11.0345L18.3051 11.0115Z" fill="#D9D9D9"/>
<path d="M19.2768 11.0115L19.6723 10.0115H19.8757L20.2599 11.0115H20.0226V10.8621H19.5819V11.0115H19.2768ZM19.774 10.2759L19.6271 10.6552H19.9209L19.774 10.2759Z" fill="#D9D9D9"/>
<path d="M20.452 10.8736C20.4033 10.8263 20.365 10.7691 20.3396 10.7057C20.3143 10.6423 20.3025 10.5741 20.3051 10.5057C20.3028 10.4408 20.3148 10.3761 20.3402 10.3164C20.3656 10.2568 20.4038 10.2037 20.452 10.1609C20.4971 10.1128 20.5515 10.0747 20.6118 10.049C20.6721 10.0233 20.7369 10.0105 20.8023 10.0115C20.9321 10.0103 21.0574 10.0597 21.1525 10.1494L21.0283 10.2988C20.9646 10.2459 20.8845 10.2174 20.8023 10.2184C20.7629 10.2151 20.7233 10.2206 20.6862 10.2345C20.6491 10.2484 20.6154 10.2703 20.5876 10.2988C20.561 10.3259 20.5403 10.3582 20.5267 10.3938C20.5131 10.4295 20.5069 10.4676 20.5085 10.5057C20.5057 10.5475 20.5113 10.5894 20.5249 10.6289C20.5385 10.6684 20.5598 10.7047 20.5876 10.7356C20.6473 10.7878 20.7235 10.8164 20.8023 10.8161C20.8533 10.8355 20.9094 10.8355 20.9605 10.8161V10.6437H20.8249V10.4598H21.1525V10.9195C21.0574 11.0093 20.9321 11.0587 20.8023 11.0575C20.7342 11.0549 20.6675 11.0371 20.6069 11.0053C20.5464 10.9735 20.4935 10.9285 20.452 10.8736V10.8736Z" fill="#D9D9D9"/>
<path d="M21.2994 11.0115V10.0345H22.0226V10.2299H21.5028V10.4368H21.887V10.6207H21.5028V10.8506H22.0226V11.0345L21.2994 11.0115Z" fill="#D9D9D9"/>
<path d="M22.1808 11.0115V10.0345L22.6102 10.5287L23.0282 10.0345H23.096V11.0345H22.9604V10.4598L22.6667 10.7931L22.3729 10.4598V11.0345L22.1808 11.0115Z" fill="#D9D9D9"/>
<path d="M23.2994 11.0115V10.0345H24.0226V10.2299H23.4915V10.4368H23.887V10.6207H23.4915V10.8506H24.0226V11.0345L23.2994 11.0115Z" fill="#D9D9D9"/>
<path d="M24.1695 11.0115V10.0345H24.2373L24.8475 10.6667V10.0345H25.0508V11.0345H24.9718L24.3729 10.4138V11.0345L24.1695 11.0115Z" fill="#D9D9D9"/>
<path d="M26 10.0345V10.2299H25.6723V11.0345H25.4802V10.2299H25.1525V10.0345H26Z" fill="#D9D9D9"/>
<path d="M6.19208 9.05747C6.03246 8.89976 5.90685 8.71 5.8232 8.50025C5.73956 8.2905 5.69971 8.06534 5.70621 7.83908C5.69563 7.60719 5.73345 7.37564 5.8172 7.1597C5.90094 6.94375 6.02871 6.7483 6.19208 6.58621C6.34929 6.42758 6.53648 6.30302 6.74235 6.22005C6.94821 6.13707 7.16847 6.09741 7.38982 6.10345C7.84063 6.09346 8.2792 6.25309 8.62146 6.55173L8.16948 7.05747C7.94945 6.87532 7.67347 6.77767 7.38982 6.78161C7.25439 6.77404 7.11892 6.79573 6.99233 6.84526C6.86573 6.89479 6.75089 6.97103 6.65535 7.06896C6.56355 7.16468 6.49131 7.27796 6.44283 7.40226C6.39434 7.52656 6.37056 7.6594 6.37287 7.7931C6.36659 8.0737 6.4679 8.34577 6.65535 8.55172C6.85303 8.74279 7.11723 8.84615 7.38982 8.83908C7.67461 8.85044 7.95309 8.75191 8.16948 8.56322L8.62146 9.05747C8.28315 9.36419 7.84285 9.52855 7.38982 9.51724C7.16984 9.52833 6.94998 9.49323 6.74392 9.41413C6.53786 9.33503 6.35001 9.21363 6.19208 9.05747V9.05747Z" fill="#D9D9D9"/>
<path d="M9.01694 9.55172L10.3503 6.10345H10.983L12.3277 9.55172H11.6045L11.4124 9.02298H9.93219L9.7288 9.55172H9.01694ZM10.7119 7.04598L10.2034 8.34482H11.209L10.7119 7.04598Z" fill="#D9D9D9"/>
<path d="M12.7119 9.55172V6.10345H14.1808C14.9717 6.10345 15.3107 6.42528 15.3107 7.08046C15.3107 7.73563 14.9265 8.10344 14.1808 8.10344H13.3898V9.51724L12.7119 9.55172ZM13.3898 7.50574H14.3729C14.6441 7.50574 14.7797 7.36781 14.791 7.12643C14.8023 6.88506 14.6441 6.78161 14.3842 6.77011H13.435L13.3898 7.50574Z" fill="#D9D9D9"/>
<path d="M15.6949 6.12643H16.3616V9.57471H15.6949V6.12643Z" fill="#D9D9D9"/>
<path d="M19.6271 6.13793V6.77011H18.4972V9.55173H17.8192V6.77011H16.6893V6.13793H19.6271Z" fill="#D9D9D9"/>
<path d="M19.7966 9.55172L21.1412 6.10345H21.8192L23.1525 9.55172H22.4407L22.2825 9.02298H20.7119L20.5198 9.55172H19.7966ZM21.4915 7.04598L20.983 8.34482H21.9887L21.4915 7.04598Z" fill="#D9D9D9"/>
<path d="M24.1808 6.13793V8.88505H25.9774V9.51724H23.5141V6.06896L24.1808 6.13793Z" fill="#D9D9D9"/>
</g>
<defs>
<clipPath id="clip0_275_235">
<rect width="26" height="15" fill="white"/>
</clipPath>
</defs>
</svg>
