<svg width="21" height="15" viewBox="0 0 21 15" fill="none" xmlns="http://www.w3.org/2000/svg">
<g clip-path="url(#clip0_275_164)">
<path d="M1.22746 0.837449C4.18363 -1.4417 11.661 0.954056 7.12956 7.82331C5.58499 10.2403 5.40087 10.7067 2.94592 12.0954C3.87676 12.2862 5.63613 12.6572 4.64393 13.7385C4.23477 14.1837 3.11982 14.1201 2.38333 14.576C2.78226 14.7032 4.16317 14.8728 4.16317 14.8728C3.88699 14.8728 2.51631 15.1272 2.06624 14.8728C1.11495 14.2155 4.40866 13.6113 4.32683 13.1555C3.47783 12.8268 2.67997 12.8799 2.14807 12.636C1.26838 12.2332 2.00486 11.7032 2.84364 11.3109C4.48026 8.96819 -2.80274 3.89045 1.22746 0.805647V0.837449ZM2.25036 14.5548H2.28104H2.25036ZM3.27325 11.1413C4.68484 10.5901 6.19873 7.5265 6.91475 6.0636C8.89916 2.10953 4.71553 0.434622 2.43448 1.6749C-1.22748 3.74204 4.69507 8.73498 3.31417 11.1413H3.27325Z" fill="#D9D9D9"/>
<path d="M3.22209 5.73499C3.61079 6.59365 4.19384 8.42757 3.64148 9.01061C3.56231 7.91618 3.22892 6.85783 2.66973 5.9258C2.39355 5.27916 3.03797 5.33216 3.22209 5.73499Z" fill="#D9D9D9"/>
<path d="M5.34972 5.65018C4.95079 6.50884 4.37797 8.33216 4.92011 8.9152C5.01636 7.81986 5.36734 6.76501 5.943 5.84099C6.17826 5.19435 5.58499 5.24735 5.34972 5.65018Z" fill="#D9D9D9"/>
<path d="M3.87677 4.67492C3.87677 5.61839 4.17341 8.27916 4.26547 9.09542C4.42393 7.62795 4.48885 6.15125 4.45982 4.67492C4.45982 4.12369 3.887 4.24029 3.87677 4.67492Z" fill="#D9D9D9"/>
<path d="M2.64928 5.18375C4.42911 3.68905 4.51094 3.79506 6.5465 5.51237C4.13247 2.69259 4.19384 2.66078 2.21966 5.08835C1.84119 5.55478 2.39355 5.39577 2.64928 5.18375V5.18375Z" fill="#D9D9D9"/>
<path d="M8.86848 7.85513C8.86693 7.91601 8.85008 7.97542 8.81958 8.02748C8.78908 8.07954 8.74599 8.12245 8.69458 8.15195C8.5915 8.23304 8.46598 8.27764 8.33657 8.27916C8.24121 8.27841 8.14708 8.25674 8.06039 8.21556C8.01621 8.19562 7.97837 8.16314 7.95122 8.12188C7.92407 8.08062 7.90873 8.03225 7.90696 7.98234C7.90962 7.9203 7.92685 7.85988 7.95715 7.80631C7.98746 7.75273 8.02992 7.70763 8.08085 7.67492C8.1795 7.5915 8.30144 7.54318 8.42863 7.53711C8.52889 7.53391 8.62804 7.5596 8.71504 7.61132C8.76003 7.63307 8.79823 7.66743 8.82535 7.71052C8.85247 7.75361 8.86741 7.8037 8.86848 7.85513V7.85513ZM9.68679 11.9682C9.49272 12.1447 9.26154 12.2718 9.01168 12.3392C8.76175 12.4325 8.49966 12.4861 8.23428 12.4982C8.02834 12.5264 7.81925 12.4816 7.641 12.371C7.53872 12.2544 7.4262 12.1484 7.32391 12.053C7.22162 11.9576 7.01704 11.7774 6.9659 11.7774C6.88311 11.7943 6.80982 11.8437 6.76132 11.9152C6.67407 12.0191 6.57824 12.1148 6.47491 12.2014C6.29542 12.2991 6.09446 12.3466 5.89186 12.3392C5.77934 12.3392 5.72819 12.3392 5.71797 12.3392C5.70774 12.3392 5.78957 12.265 5.90209 12.2014L6.12712 12.0742C6.31722 11.8964 6.47942 11.689 6.60788 11.4594L6.99658 10.8551L7.36482 10.1767C7.54894 9.86927 7.72284 9.71026 7.8865 9.71026C8.05016 9.71026 8.03993 9.78446 8.03993 9.94347V9.97527C8.03993 10.0495 8.03993 10.2509 7.97856 10.5795V10.7809C7.97856 10.7809 7.97856 10.8445 7.97856 10.8763C7.97856 10.9081 7.97856 10.8763 7.97856 10.9505C7.98476 11.0799 8.01603 11.2066 8.07051 11.3232C8.12499 11.4398 8.20156 11.5437 8.29566 11.629C8.37629 11.7285 8.47629 11.8091 8.5891 11.8658C8.70192 11.9224 8.82501 11.9537 8.95031 11.9576C9.06502 11.9517 9.17849 11.9303 9.28786 11.894C9.39075 11.8598 9.4972 11.8385 9.60496 11.8304C9.65172 11.8163 9.7014 11.8163 9.74816 11.8304V11.9152L9.68679 11.9682ZM13.6761 12.106C13.6754 12.1793 13.6549 12.2509 13.6169 12.3128C13.579 12.3746 13.525 12.4242 13.4613 12.4558C13.332 12.5129 13.1927 12.5418 13.0521 12.5406C12.8554 12.5342 12.6599 12.5058 12.4691 12.4558C12.2836 12.4081 12.1096 12.3215 11.9576 12.2014C11.9576 12.2014 11.8656 12.053 11.7326 11.8198C11.5996 11.5866 11.5382 11.5548 11.4564 11.5548C11.3746 11.5548 11.2723 11.6502 11.1086 11.841C10.9404 12.0309 10.7592 12.208 10.5665 12.371C10.3552 12.5498 10.0924 12.6505 9.81977 12.6573C9.74202 12.6586 9.66546 12.6374 9.59862 12.5963C9.53179 12.5551 9.47732 12.4954 9.4413 12.424C9.37385 12.2747 9.33892 12.1119 9.33901 11.947C9.34114 11.5531 9.42866 11.1648 9.59509 10.8106C9.76152 10.4565 10.0026 10.1457 10.3005 9.90107C10.5477 9.71105 10.853 9.62063 11.1598 9.64665C11.2408 9.66379 11.3243 9.66379 11.4053 9.64665C11.4458 9.6317 11.4821 9.60637 11.5107 9.57302C11.5393 9.53966 11.5593 9.49935 11.5689 9.45584L11.6201 8.45937C11.6376 8.11617 11.7634 7.78843 11.9781 7.52651C12.0307 7.45956 12.1022 7.41137 12.1827 7.3887C12.2543 7.3887 12.2849 7.47351 12.2849 7.57951C12.2849 7.68552 12.2849 8.05655 12.2849 8.43817C12.2778 8.57234 12.2778 8.70683 12.2849 8.841C12.2849 9.01061 12.2849 9.14842 12.2849 9.25443C12.296 9.43092 12.296 9.60797 12.2849 9.78446C12.2849 10.0177 12.2849 10.1979 12.2849 10.3145C12.3015 10.5249 12.3462 10.7318 12.4179 10.9293C12.4793 11.0883 12.5304 11.2474 12.5816 11.4064C12.6079 11.486 12.651 11.5587 12.7075 11.6192C12.7641 11.6796 12.8329 11.7264 12.9089 11.7562L13.359 11.8728C13.5636 11.8516 13.6761 11.947 13.6761 12.0954V12.106ZM11.4053 10.8233C11.4061 10.7259 11.3842 10.6298 11.3415 10.543C11.2987 10.4562 11.2364 10.3815 11.1598 10.3251C11.0077 10.2126 10.8249 10.1532 10.6381 10.1555C10.4993 10.164 10.366 10.2149 10.255 10.3016C10.144 10.3884 10.0602 10.5072 10.0141 10.6431C9.88869 10.9104 9.82563 11.2046 9.83 11.5018C9.83 11.9046 9.96297 12.106 10.2289 12.106C10.5304 12.059 10.8021 11.8916 10.9859 11.6396C11.2197 11.4363 11.3697 11.1481 11.4053 10.8339V10.8233ZM16.7652 11.947C16.7652 12.0212 16.6834 12.106 16.5299 12.1802C16.4247 12.2411 16.3108 12.284 16.1924 12.3074C15.6145 12.4754 15.0215 12.5819 14.4228 12.6255C13.5329 12.6255 13.093 12.3604 13.093 11.8198C13.0841 11.3618 13.1787 10.908 13.3692 10.4947C13.5899 10.0954 13.8734 9.73716 14.208 9.43464C14.4382 9.20048 14.7448 9.0643 15.0672 9.05301C15.262 9.05241 15.4506 9.12382 15.5991 9.25443C15.675 9.30915 15.7369 9.38209 15.7796 9.467C15.8224 9.55191 15.8447 9.64628 15.8446 9.74206C15.8446 9.94347 15.6809 10.1661 15.3638 10.4205C15.1981 10.5658 15.0239 10.7003 14.8422 10.8233L14.075 11.1095C13.8909 11.1732 13.8091 11.2792 13.8091 11.4064C13.8116 11.5302 13.8529 11.6499 13.9267 11.7474C14.0004 11.8449 14.1027 11.9149 14.2182 11.947C14.4435 12.0356 14.6831 12.0788 14.924 12.0742C15.2665 12.0713 15.6083 12.043 15.9469 11.9894L16.2845 11.9152C16.3975 11.8812 16.5145 11.8633 16.6322 11.8622C16.755 11.8622 16.8061 11.8622 16.8061 11.9364L16.7652 11.947ZM15.2002 10.0389C15.1992 9.97246 15.1806 9.90761 15.1463 9.85148C15.112 9.79536 15.0634 9.75016 15.0058 9.72086C14.8987 9.65091 14.7745 9.61413 14.6478 9.61485C14.5042 9.61633 14.3647 9.66454 14.2489 9.75266C14.1838 9.78655 14.1287 9.83782 14.0891 9.90118C14.0496 9.96454 14.027 10.0377 14.0239 10.1131C14.0239 10.1784 14.041 10.2425 14.0734 10.2985C14.1059 10.3545 14.1524 10.4004 14.208 10.4311C14.3138 10.504 14.4389 10.5411 14.566 10.5371C14.7165 10.5297 14.8619 10.4782 14.9854 10.3887C15.0477 10.3552 15.1004 10.3051 15.1382 10.2437C15.1759 10.1823 15.1973 10.1116 15.2002 10.0389V10.0389ZM21 11.735C20.997 11.7918 20.9793 11.8467 20.9488 11.894C20.8294 12.0686 20.6618 12.2016 20.4681 12.2756C20.2732 12.3398 20.069 12.3685 19.8646 12.3604H19.0156C18.9195 12.3667 18.8234 12.3499 18.7347 12.3113C18.6459 12.2726 18.567 12.2133 18.5041 12.1378C18.4356 11.9927 18.3741 11.8441 18.32 11.6926C18.2382 11.4806 18.1461 11.3746 18.0643 11.3746C17.9825 11.3746 17.7983 11.5124 17.5938 11.7774L17.246 12.2862C17.159 12.3762 17.0589 12.4513 16.9493 12.5088C16.8389 12.5725 16.7171 12.6122 16.5913 12.6255C16.2845 12.6255 16.131 12.424 16.131 12.0106C16.1338 11.7642 16.1897 11.5215 16.2947 11.3004L16.5913 10.5795C16.7542 10.2664 16.9572 9.97756 17.1948 9.72086C17.288 9.58617 17.4088 9.4745 17.5485 9.39386C17.6882 9.31322 17.8434 9.26561 18.0029 9.25443C18.2082 9.25013 18.4067 9.33016 18.5553 9.47704C18.7402 9.69262 18.839 9.97313 18.8315 10.2615C18.8389 10.5551 18.905 10.8439 19.0258 11.1095C19.1106 11.2453 19.2221 11.3609 19.3531 11.4488C19.481 11.5372 19.6293 11.5884 19.7827 11.5972H20.7238C20.9079 11.5972 21 11.5972 21 11.7456V11.735ZM18.0029 10.6007C18.0025 10.4531 17.9518 10.3104 17.8597 10.1979C17.818 10.1374 17.7626 10.0883 17.6985 10.0551C17.6343 10.0218 17.5632 10.0053 17.4915 10.0071C17.3621 10.0173 17.2387 10.067 17.1367 10.1501C17.0347 10.2331 16.9588 10.3457 16.9186 10.4735C16.7901 10.7172 16.7232 10.9908 16.7243 11.2686C16.7243 11.629 16.8266 11.8092 17.0312 11.8092C17.1067 11.8066 17.1805 11.7848 17.246 11.7456C17.4687 11.6559 17.6601 11.4987 17.7952 11.2944C17.9302 11.0901 18.0026 10.8483 18.0029 10.6007V10.6007Z" fill="#D9D9D9"/>
</g>
<defs>
<clipPath id="clip0_275_164">
<rect width="21" height="15" fill="white"/>
</clipPath>
</defs>
</svg>
