<svg width="27" height="15" viewBox="0 0 27 15" fill="none" xmlns="http://www.w3.org/2000/svg">
<g clip-path="url(#clip0_275_311)">
<path d="M0 8.28694C0.219463 8.21139 0.450811 8.16803 0.685339 8.15846C1.15799 8.15846 1.32341 8.30835 1.41794 8.81156L1.76061 10.7173C1.84333 11.1991 1.94967 11.788 1.98512 12.1842C1.98512 12.2805 1.98512 12.2805 2.05602 12.2805L2.72954 8.31906C3.00871 8.29815 3.28931 8.29815 3.56849 8.31906C3.84761 8.29702 4.12832 8.29702 4.40744 8.31906L5.02188 12.1842C5.02188 12.2805 5.02188 12.2805 5.11641 12.2805C5.11641 11.8844 5.2582 11.2099 5.36455 10.7066L5.81357 8.17987C6.01016 8.16498 6.20778 8.16498 6.40438 8.17987C6.61276 8.18053 6.81986 8.2094 7.01882 8.26553V8.32976L5.97899 13.2655C5.68359 13.2655 5.21094 13.2655 4.86827 13.2655C4.5256 13.2655 4.1593 13.212 4.07659 12.7409L3.793 11.1349C3.69847 10.5567 3.60394 9.88223 3.55667 9.42185C3.55667 9.88223 3.40306 10.5567 3.29672 11.1349L2.93041 13.2762C2.61138 13.2762 2.18599 13.2762 1.83151 13.2762C1.47702 13.2762 1.11072 13.2227 1.00438 12.7516L0 8.28694Z" fill="#D9D9D9"/>
<path d="M8.46039 11.7987C8.46039 12.1949 8.64945 12.5053 9.193 12.5053C9.55593 12.4904 9.91259 12.4141 10.2446 12.2805C10.4308 12.4692 10.5502 12.7042 10.5873 12.955C10.1099 13.2382 9.55084 13.3871 8.9803 13.3833C7.55055 13.3833 7.17242 12.4304 7.17242 11.4561C7.17242 10.4818 7.69234 9.47537 8.99212 9.47537C9.22224 9.46093 9.4531 9.49156 9.669 9.56517C9.88489 9.63877 10.0808 9.75362 10.2433 9.90192C10.4059 10.0502 10.5313 10.2285 10.611 10.4246C10.6908 10.6207 10.723 10.8301 10.7055 11.0385C10.7104 11.2952 10.6746 11.5513 10.5991 11.7987H8.46039ZM8.46039 10.9957H9.52385V10.9208C9.52385 10.5782 9.37024 10.2891 8.9803 10.2891C8.59037 10.2891 8.48402 10.5246 8.44858 10.9957H8.46039Z" fill="#D9D9D9"/>
<path d="M13.2696 12.4625C13.3382 12.6377 13.3702 12.8228 13.3641 13.0086C13.3763 13.0939 13.3763 13.1802 13.3641 13.2655C13.075 13.3095 12.7828 13.3345 12.4897 13.3405C11.7571 13.3405 11.4735 13.0086 11.4735 12.2698V7.88009H11.9698C12.4661 7.88009 12.6551 8.0514 12.6551 8.57602V12.1199C12.6551 12.3448 12.7497 12.4732 13.0214 12.4732L13.2696 12.4625Z" fill="#D9D9D9"/>
<path d="M15.7392 12.4625C15.8078 12.6377 15.8398 12.8228 15.8337 13.0086C15.846 13.0939 15.846 13.1802 15.8337 13.2655C15.5446 13.3095 15.2524 13.3345 14.9593 13.3405C14.2267 13.3405 13.9431 13.0086 13.9431 12.2698V7.88009H14.4512C14.9475 7.88009 15.1365 8.0514 15.1365 8.57602V12.1199C15.1365 12.3448 15.2311 12.4732 15.5029 12.4732L15.7392 12.4625Z" fill="#D9D9D9"/>
<path d="M17.9488 13.2655C17.5258 13.3227 17.0957 13.3227 16.6727 13.2655V10.8244C16.6727 10.5782 16.5663 10.3961 16.2827 10.3961H16.1646C16.1465 10.2646 16.1465 10.1315 16.1646 9.99999C16.1477 9.86481 16.1477 9.72833 16.1646 9.59314C16.4127 9.59314 16.6963 9.59314 16.8854 9.59314H17.0626C17.1868 9.59096 17.3101 9.61279 17.4243 9.65718C17.5385 9.70156 17.6409 9.76748 17.7248 9.85056C17.8086 9.93363 17.872 10.0319 17.9106 10.1389C17.9492 10.2459 17.9623 10.3592 17.9488 10.4711V13.2655ZM16.519 8.09421C16.7089 8.01788 16.914 7.97779 17.1217 7.97644C17.3298 7.9741 17.5358 8.01436 17.7243 8.09421C17.7936 8.23207 17.8299 8.38169 17.8306 8.53319C17.8294 8.67776 17.7931 8.82032 17.7243 8.95075C17.5358 9.0306 17.3298 9.07086 17.1217 9.06852C16.9133 9.07362 16.7066 9.03322 16.519 8.95075C16.4595 8.818 16.4275 8.67645 16.4245 8.53319C16.4262 8.38286 16.4582 8.23408 16.519 8.09421V8.09421Z" fill="#D9D9D9"/>
<path d="M22.4153 12.3448C22.3958 12.5992 22.4617 12.853 22.6044 13.0728C22.3873 13.2411 22.1102 13.3324 21.8245 13.3298C21.3046 13.3298 21.1392 13.0728 21.1392 12.6124V11.0385C21.1392 10.7066 21.0565 10.546 20.7847 10.546C20.5555 10.5606 20.3406 10.6523 20.1821 10.803V13.2655C19.9698 13.2829 19.7562 13.2829 19.544 13.2655C19.3317 13.2822 19.1182 13.2822 18.9059 13.2655V9.58244H18.965H19.4495C19.6002 9.57611 19.7487 9.61753 19.8695 9.69958C19.9902 9.78164 20.0757 9.89921 20.1112 10.0321C20.4241 9.74544 20.8479 9.58033 21.2928 9.57174C22.0372 9.57174 22.4744 10.1178 22.4744 10.8887L22.4153 12.3448Z" fill="#D9D9D9"/>
<path d="M24.7667 9.47537C25.1595 9.46569 25.5424 9.58769 25.842 9.81799C25.9408 9.72398 26.0601 9.64971 26.1923 9.59993C26.3246 9.55015 26.4669 9.52596 26.6101 9.52891C26.8079 9.68108 26.9449 9.88801 27 10.1178C26.9204 10.1835 26.8587 10.2652 26.8197 10.3562C26.7808 10.4472 26.7656 10.5452 26.7755 10.6424V12.591C26.8618 13.2053 26.7161 13.828 26.3619 14.3576C26.1676 14.5473 25.9285 14.6948 25.6626 14.7894C25.3967 14.8839 25.1107 14.923 24.8258 14.9036C24.3021 14.9012 23.7826 14.818 23.2897 14.6574C23.294 14.3551 23.4059 14.0622 23.6088 13.8223C23.954 13.965 24.3282 14.0416 24.7077 14.0471C24.82 14.0614 24.9344 14.0518 25.0419 14.0192C25.1494 13.9865 25.2471 13.9317 25.3273 13.8591C25.4075 13.7864 25.468 13.6979 25.504 13.6005C25.54 13.5031 25.5505 13.3994 25.5348 13.2976V13.0514C25.2663 13.2367 24.9388 13.3382 24.6013 13.3405C23.6088 13.3405 23.1361 12.5482 23.1361 11.4347C23.1361 10.3212 23.8805 9.47537 24.7667 9.47537ZM25.5348 10.546C25.3932 10.4061 25.1997 10.3184 24.9913 10.2998C24.6013 10.2998 24.4477 10.7173 24.4477 11.3705C24.4477 12.0236 24.6486 12.3448 24.9204 12.3448C25.0359 12.3437 25.1499 12.3213 25.2555 12.2789C25.3612 12.2366 25.4562 12.1752 25.5348 12.0985V10.5782V10.546Z" fill="#D9D9D9"/>
<path fill-rule="evenodd" clip-rule="evenodd" d="M17.2044 9.91435C17.4943 9.87344 17.7653 9.75813 17.9852 9.58208C18.2051 9.40602 18.3647 9.17658 18.4452 8.92089C18.5257 8.66521 18.5237 8.39398 18.4394 8.1393C18.3551 7.88461 18.1921 7.65713 17.9696 7.48377C17.7472 7.3104 17.4745 7.1984 17.184 7.16102C16.8935 7.12364 16.5972 7.16244 16.3303 7.27283C16.0633 7.38322 15.8368 7.56059 15.6776 7.78395C15.5184 8.00731 15.4332 8.26731 15.4319 8.53319C15.4682 8.92813 15.6743 9.29431 16.006 9.55271C16.3376 9.81111 16.768 9.94101 17.2044 9.91435V9.91435Z" fill="#B1B1B1" fill-opacity="0.28"/>
<path fill-rule="evenodd" clip-rule="evenodd" d="M12.7851 7.1092C13.0052 6.52997 13.0813 5.91379 13.0077 5.3048C12.9342 4.69582 12.7129 4.10912 12.3597 3.58672L13.9904 4.5182L16.6136 2.95503C15.0974 4.14263 13.8044 5.54565 12.7851 7.1092V7.1092Z" fill="#D9D9D9"/>
<path fill-rule="evenodd" clip-rule="evenodd" d="M14.8884 3.19057C14.9203 3.36218 14.8823 3.53846 14.7815 3.68656C14.6806 3.83466 14.5238 3.94449 14.3401 3.99558C14.1565 4.04667 13.9587 4.03553 13.7835 3.96425C13.6083 3.89297 13.4676 3.76641 13.3878 3.60814C13.3541 3.43573 13.3923 3.25814 13.4949 3.10978C13.5975 2.96142 13.7572 2.85286 13.9431 2.80513C14.1251 2.74546 14.3255 2.75232 14.502 2.82427C14.6784 2.89622 14.817 3.0276 14.8884 3.19057V3.19057Z" fill="#D9D9D9"/>
<path fill-rule="evenodd" clip-rule="evenodd" d="M21.47 7.74089C21.3346 6.67829 20.8794 5.66987 20.1542 4.82583C19.429 3.98179 18.4617 3.33462 17.358 2.95503L21.7418 3.36188L25.2867 0C24.384 1.14533 23.5933 2.35978 22.9234 3.62955C22.2592 4.94238 21.7712 6.3227 21.47 7.74089Z" fill="#D9D9D9"/>
<path fill-rule="evenodd" clip-rule="evenodd" d="M22.4389 1.64883C22.4819 1.93963 22.4024 2.23442 22.2163 2.4745C22.0301 2.71458 21.7511 2.88233 21.4346 2.94433C21.2886 2.98607 21.1344 2.99907 20.9824 2.98248C20.8304 2.96589 20.6841 2.92007 20.5532 2.84811C20.4223 2.77614 20.3099 2.67968 20.2235 2.56518C20.1371 2.45068 20.0786 2.32078 20.0521 2.18416C20.0221 1.8959 20.1103 1.60772 20.2999 1.37468C20.4896 1.14163 20.7673 0.980041 21.0801 0.920779C21.2221 0.880632 21.3719 0.867936 21.5197 0.883514C21.6674 0.899092 21.81 0.942595 21.938 1.01121C22.0661 1.07983 22.1769 1.17204 22.2632 1.28187C22.3494 1.3917 22.4093 1.51672 22.4389 1.64883Z" fill="#D9D9D9"/>
<path fill-rule="evenodd" clip-rule="evenodd" d="M19.6503 6.74518C19.6209 7.00656 19.5304 7.25927 19.3849 7.48654C19.2394 7.7138 19.0422 7.91041 18.8064 8.06332C18.5706 8.21622 18.3016 8.32193 18.0172 8.3734C17.7329 8.42488 17.4397 8.42095 17.1571 8.36188C16.5294 8.262 15.9669 7.95007 15.5831 7.48905C15.1993 7.02803 15.0228 6.45226 15.0893 5.87794C15.1261 5.61406 15.2251 5.36046 15.3797 5.13437C15.5343 4.90829 15.7409 4.71502 15.9853 4.56772C16.2297 4.42042 16.5062 4.32254 16.7961 4.28074C17.086 4.23894 17.3824 4.2542 17.6652 4.32548C18.2608 4.44702 18.7886 4.75796 19.1528 5.20191C19.517 5.64586 19.6935 6.1934 19.6503 6.74518V6.74518Z" fill="#D9D9D9"/>
<path d="M12.1116 13.8116C12.1982 13.8075 12.283 13.8344 12.3479 13.8865C12.3686 13.8655 12.3942 13.8489 12.4228 13.8378C12.4513 13.8267 12.4823 13.8214 12.5133 13.8223C12.5581 13.8558 12.591 13.9004 12.6079 13.9508C12.5984 13.9692 12.5935 13.9893 12.5935 14.0096C12.5935 14.03 12.5984 14.0501 12.6079 14.0685V14.4968C12.6238 14.6299 12.595 14.7643 12.5252 14.8822C12.4819 14.9244 12.4284 14.957 12.369 14.9774C12.3096 14.9978 12.2458 15.0056 12.1825 15C12.0697 14.9987 11.9579 14.9806 11.8516 14.9465C11.8346 14.8868 11.8346 14.8242 11.8516 14.7645C11.9336 14.7792 12.0179 14.7792 12.0998 14.7645C12.2298 14.7645 12.277 14.7002 12.277 14.5931C12.2111 14.6086 12.142 14.6086 12.0761 14.5931C11.8635 14.5931 11.7571 14.4218 11.7571 14.1756C11.7571 13.9293 11.8871 13.8116 12.1116 13.8116ZM12.277 14.0578C12.2585 14.0501 12.2383 14.0461 12.2179 14.0461C12.1975 14.0461 12.1774 14.0501 12.1589 14.0578C12.0761 14.0578 12.0407 14.1435 12.0407 14.2934C12.0407 14.4433 12.0407 14.5075 12.147 14.5075C12.1674 14.5161 12.1896 14.5206 12.212 14.5206C12.2345 14.5206 12.2567 14.5161 12.277 14.5075V14.0685V14.0578Z" fill="#D9D9D9"/>
<path d="M12.9978 14.3255C12.9978 14.4111 12.9978 14.4754 13.1514 14.4754C13.2297 14.4864 13.3095 14.4864 13.3878 14.4754C13.4109 14.4941 13.4293 14.5173 13.4416 14.5432C13.4538 14.5691 13.4596 14.5971 13.4587 14.6253C13.3554 14.6821 13.2368 14.7118 13.116 14.7109C12.7969 14.7109 12.7142 14.5075 12.7142 14.2934C12.7142 14.0792 12.8324 13.8544 13.116 13.8544C13.1656 13.8528 13.215 13.8606 13.261 13.8774C13.3071 13.8942 13.3487 13.9196 13.3832 13.9519C13.4177 13.9842 13.4444 14.0227 13.4615 14.0649C13.4785 14.1071 13.4856 14.1521 13.4823 14.197C13.4953 14.2535 13.4953 14.3118 13.4823 14.3683L12.9978 14.3255ZM12.9978 14.1435H13.2341C13.2341 14.0685 13.2341 14.0043 13.116 14.0043C12.9978 14.0043 12.9978 14.0364 12.9978 14.1435Z" fill="#D9D9D9"/>
<path d="M14.2503 13.9186C14.2503 13.9186 14.2503 13.9829 14.2503 14.015H14.0376V14.379C14.0376 14.379 14.0376 14.4647 14.1203 14.4647H14.2149C14.2215 14.5037 14.2215 14.5434 14.2149 14.5824H13.9904C13.8249 14.5824 13.754 14.5075 13.754 14.3576V13.94H13.6122C13.6065 13.9081 13.6065 13.8756 13.6122 13.8437C13.6072 13.8153 13.6072 13.7864 13.6122 13.758H13.754V13.7473C13.754 13.6296 13.754 13.5867 13.9076 13.5867H14.0258V13.8223H14.2385C14.2385 13.8223 14.2503 13.8972 14.2503 13.9186Z" fill="#D9D9D9"/>
<path d="M15.2783 14.6039C15.2075 14.8287 15.1129 14.9786 14.8293 14.9786C14.7586 14.9855 14.6873 14.9855 14.6166 14.9786C14.5941 14.9196 14.5941 14.8555 14.6166 14.7966H14.7703C14.8123 14.7997 14.8541 14.7881 14.887 14.7642C14.92 14.7403 14.9416 14.706 14.9475 14.6681C14.853 14.6681 14.7821 14.6681 14.7584 14.561L14.5457 13.8651H14.723C14.7939 13.8651 14.8412 13.8651 14.8648 13.9722L14.9357 14.2827C14.9412 14.3539 14.9412 14.4255 14.9357 14.4968L15.0893 13.8651H15.2075H15.3492L15.2783 14.6039Z" fill="#D9D9D9"/>
<path d="M16.2354 14.6038C16.1584 14.6683 16.0566 14.7028 15.9518 14.7002C15.8998 14.7027 15.8477 14.6955 15.7989 14.6789C15.7501 14.6623 15.7056 14.6368 15.6683 14.6038C15.5838 14.5102 15.5377 14.3929 15.5377 14.2719C15.5377 14.151 15.5838 14.0337 15.6683 13.94C15.7056 13.9071 15.7501 13.8816 15.7989 13.865C15.8477 13.8484 15.8998 13.8412 15.9518 13.8437C16.0566 13.841 16.1584 13.8756 16.2354 13.94C16.3199 14.0337 16.366 14.151 16.366 14.2719C16.366 14.3929 16.3199 14.5102 16.2354 14.6038V14.6038ZM15.9518 14.5075C16.0582 14.5075 16.07 14.4111 16.07 14.2719C16.07 14.1328 16.07 14.0364 15.9518 14.0364C15.8337 14.0364 15.8219 14.1435 15.8219 14.2719C15.8219 14.4004 15.8337 14.4754 15.9518 14.4754V14.5075Z" fill="#D9D9D9"/>
<path d="M16.519 14.0364C16.538 13.9843 16.538 13.928 16.519 13.8758C16.5767 13.8594 16.6386 13.8594 16.6963 13.8758C16.8026 13.8758 16.8499 13.8758 16.8499 14.0364V14.379C16.8499 14.454 16.8499 14.4861 16.9208 14.4861C16.9626 14.501 17.009 14.501 17.0508 14.4861V13.94H17.3344V14.5182C17.319 14.5562 17.319 14.598 17.3344 14.636C17.3257 14.6867 17.2961 14.7326 17.2517 14.7645C17.2073 14.7661 17.1635 14.7557 17.1256 14.7348C17.0878 14.7138 17.0576 14.6832 17.039 14.6467C16.9687 14.7164 16.8712 14.7586 16.7672 14.7645C16.6018 14.7645 16.519 14.6467 16.519 14.4754V14.0364Z" fill="#D9D9D9"/>
<path d="M17.5352 13.8223C17.5862 13.8246 17.6354 13.8399 17.6772 13.8665C17.7189 13.893 17.7517 13.9296 17.7716 13.9722C17.7866 13.9288 17.8164 13.891 17.8568 13.864C17.8972 13.8371 17.9459 13.8224 17.9961 13.8223H18.1142C18.1128 13.9049 18.0884 13.9859 18.0433 14.0578H17.9488C17.8779 14.0578 17.8425 14.0578 17.7952 14.1435V14.6039H17.5234V14.0792C17.5248 14.0478 17.5192 14.0165 17.5071 13.9871C17.4949 13.9577 17.4763 13.9307 17.4525 13.9079C17.4727 13.8741 17.5009 13.8449 17.5352 13.8223V13.8223Z" fill="#D9D9D9"/>
<path d="M18.6223 14.4218C18.6996 14.4578 18.7839 14.4796 18.8705 14.4861C18.9295 14.4861 18.965 14.4861 18.965 14.4861C18.965 14.4861 18.965 14.4861 18.8823 14.4111H18.7878C18.7252 14.3991 18.6689 14.3682 18.6281 14.3235C18.5874 14.2787 18.5645 14.2229 18.5632 14.1649C18.5632 14.0043 18.705 13.8972 18.9177 13.8972C19.0277 13.8997 19.136 13.9216 19.2368 13.9615C19.2415 13.9947 19.2375 14.0285 19.2252 14.0601C19.2129 14.0917 19.1926 14.1203 19.1659 14.1435C19.0892 14.1061 19.0046 14.0842 18.9177 14.0792C18.9177 14.0792 18.835 14.0792 18.835 14.0792C18.835 14.0792 18.835 14.0792 18.9059 14.1435H19.0241C19.088 14.1588 19.1451 14.1918 19.1874 14.2378C19.2298 14.2839 19.2553 14.3407 19.2604 14.4004C19.2604 14.5717 19.1186 14.6681 18.8941 14.6681C18.7709 14.6701 18.6491 14.6443 18.5396 14.5931C18.5425 14.5287 18.572 14.4675 18.6223 14.4218Z" fill="#D9D9D9"/>
<path d="M20.1584 14.4433C20.1395 14.4954 20.1395 14.5517 20.1584 14.6039C20.1007 14.6203 20.0389 14.6203 19.9812 14.6039C19.863 14.6039 19.8276 14.6039 19.8276 14.4433V14.1006C19.8276 14.0257 19.8276 13.9936 19.7567 13.9936C19.7104 13.9811 19.6611 13.9811 19.6149 13.9936V14.6039H19.3431V13.4582H19.4613C19.5794 13.4582 19.6149 13.4582 19.6149 13.6188V13.9186C19.6834 13.8638 19.7716 13.8334 19.863 13.833C20.0166 13.833 20.1112 13.9508 20.1112 14.1221L20.1584 14.4433Z" fill="#D9D9D9"/>
<path d="M21.0446 14.6574C21.0081 14.6566 20.9722 14.6485 20.9396 14.6337C20.9069 14.6189 20.8782 14.5978 20.8556 14.5717C20.8218 14.603 20.7813 14.6277 20.7366 14.6442C20.6919 14.6608 20.6439 14.6689 20.5956 14.6681C20.5595 14.6696 20.5234 14.6643 20.4897 14.6525C20.4559 14.6406 20.4253 14.6225 20.3997 14.5994C20.3741 14.5762 20.3542 14.5484 20.3411 14.5179C20.3281 14.4873 20.3222 14.4546 20.3239 14.4218C20.3239 14.2291 20.4893 14.1435 20.6783 14.1435H20.8083C20.8083 14.0792 20.8083 14.0471 20.6902 14.0471C20.6043 14.0324 20.5161 14.0324 20.4302 14.0471C20.3824 13.9965 20.3571 13.9316 20.3593 13.8651C20.4917 13.8197 20.6314 13.7944 20.7729 13.7902C20.8146 13.7871 20.8566 13.7921 20.8961 13.8048C20.9355 13.8176 20.9715 13.8378 21.0017 13.8641C21.0319 13.8905 21.0555 13.9223 21.0711 13.9575C21.0866 13.9928 21.0937 14.0306 21.0919 14.0685V14.4004C21.0834 14.4172 21.079 14.4355 21.079 14.454C21.079 14.4724 21.0834 14.4907 21.0919 14.5075C21.0975 14.5611 21.0806 14.6146 21.0446 14.6574V14.6574ZM20.8083 14.4326V14.3041H20.7138C20.6978 14.3024 20.6816 14.3039 20.6664 14.3087C20.6512 14.3135 20.6374 14.3213 20.626 14.3316C20.6147 14.3419 20.606 14.3544 20.6007 14.3682C20.5955 14.382 20.5937 14.3967 20.5956 14.4111C20.5956 14.431 20.6043 14.4501 20.6199 14.4641C20.6354 14.4782 20.6564 14.4861 20.6783 14.4861C20.7265 14.4802 20.7717 14.4615 20.8083 14.4326Z" fill="#D9D9D9"/>
<path d="M21.73 14.6574C21.6754 14.6675 21.6191 14.6675 21.5645 14.6574V14.8715C21.5645 14.9893 21.5645 15.0321 21.4109 15.0321H21.34V13.833C21.3704 13.833 21.4 13.8411 21.4252 13.8564C21.4505 13.8716 21.4702 13.8933 21.4818 13.9186C21.5129 13.8871 21.5512 13.8621 21.5941 13.8455C21.637 13.8289 21.6833 13.8209 21.73 13.8223C21.9427 13.8223 22.049 13.9936 22.049 14.2398C22.049 14.4861 21.9308 14.6574 21.73 14.6574ZM21.5645 14.0792V14.4325C21.6035 14.4395 21.6437 14.4395 21.6827 14.4325C21.7772 14.4325 21.8127 14.3362 21.8127 14.1863C21.8127 14.0364 21.8127 13.9722 21.6945 13.9722C21.6644 13.9782 21.6366 13.9913 21.6139 14.0101C21.5911 14.0289 21.5741 14.0527 21.5645 14.0792V14.0792Z" fill="#D9D9D9"/>
<path d="M22.5217 14.3255C22.5217 14.4111 22.5217 14.4754 22.6871 14.4754C22.7614 14.4866 22.8373 14.4866 22.9116 14.4754C22.9577 14.515 22.9869 14.5681 22.9943 14.6253C22.8869 14.6825 22.7644 14.7121 22.6398 14.7109C22.3208 14.7109 22.2381 14.5075 22.2381 14.2934C22.2381 14.0792 22.3562 13.8544 22.6398 13.8544C22.6904 13.8512 22.7411 13.8579 22.7886 13.874C22.836 13.8901 22.8791 13.9152 22.915 13.9477C22.9508 13.9802 22.9785 14.0192 22.9963 14.0622C23.0141 14.1052 23.0214 14.1512 23.0179 14.197C23.0252 14.2539 23.0252 14.3114 23.0179 14.3683L22.5217 14.3255ZM22.5217 14.1435H22.758C22.758 14.0685 22.758 14.0043 22.6398 14.0043C22.5217 14.0043 22.5217 14.0364 22.5217 14.1435Z" fill="#D9D9D9"/>
<path d="M9.97288 13.6188H1.0162V13.8009H9.97288V13.6188Z" fill="#D9D9D9"/>
<path fill-rule="evenodd" clip-rule="evenodd" d="M11.2845 13.8009C11.2776 13.8619 11.2567 13.9209 11.2231 13.9742C11.1894 14.0274 11.1439 14.0737 11.0893 14.11C11.0348 14.1463 10.9724 14.1718 10.9063 14.185C10.8402 14.1981 10.7718 14.1986 10.7055 14.1863C10.5571 14.1626 10.4243 14.0885 10.3342 13.979C10.2441 13.8696 10.2037 13.7331 10.221 13.5974C10.2305 13.536 10.2541 13.4771 10.2905 13.4246C10.3269 13.3721 10.3752 13.3272 10.4321 13.2928C10.489 13.2584 10.5534 13.2353 10.6208 13.2251C10.6883 13.2149 10.7574 13.2177 10.8236 13.2334C10.962 13.2635 11.0842 13.3369 11.1686 13.4408C11.2529 13.5446 11.294 13.6722 11.2845 13.8009V13.8009Z" fill="#D9D9D9"/>
</g>
<defs>
<clipPath id="clip0_275_311">
<rect width="27" height="15" fill="white"/>
</clipPath>
</defs>
</svg>
