<svg width="56" height="67" viewBox="0 0 56 67" fill="none" xmlns="http://www.w3.org/2000/svg">
<g clip-path="url(#clip0_503_397)">
<path d="M-8.91199 0.555664H65.0603V66.5309H-8.91199V0.555664Z" fill="black"/>
<path d="M32.0413 11.1969L32.0219 21.0868L32.0022 30.9768L31.09 28.681L31.0882 28.6766L29.9094 50.6943C31.0686 53.6137 31.6895 55.1722 31.6964 55.1784C31.7054 55.1867 32.3662 55.2222 33.1643 55.2576C35.5826 55.3645 38.5796 55.5937 40.853 55.8459C41.3794 55.9041 41.8324 55.9341 41.8598 55.9121C41.887 55.8905 41.9018 45.8206 41.8928 33.5348L41.876 11.1969H32.0413V11.1969ZM14.2529 11.1672V33.5278C14.2529 45.8263 14.2665 55.9005 14.283 55.9152C14.2995 55.9299 15.1534 55.858 16.1807 55.7554C17.2077 55.6528 18.6276 55.5252 19.3355 55.4718C20.4212 55.3901 23.6628 55.2042 24.038 55.2021C24.1472 55.2016 24.1542 54.6994 24.1701 45.7314L24.1869 36.2609L24.9711 38.2401L25.2486 38.9396L26.4271 16.9273L26.0221 15.9063C25.4172 14.3805 24.8118 12.8547 24.2059 11.3291L24.1409 11.1672H14.2529V11.1672Z" fill="#B1060F" stroke="black" stroke-width="2.956"/>
<path d="M14.2529 11.1672V23.7188L24.1666 47.1736C24.1678 46.636 24.1689 46.3458 24.1701 45.7314L24.1869 36.2609L24.9711 38.2401C29.3371 49.2585 31.6825 55.166 31.6964 55.1784C31.7054 55.1867 32.3662 55.2222 33.1643 55.2576C35.5826 55.3645 38.5796 55.5937 40.853 55.8459C41.3794 55.9041 41.8324 55.9341 41.8598 55.9121C41.8783 55.8972 41.8908 50.9596 41.894 43.9942L32.0265 18.6925L32.0219 21.0868L32.0022 30.9768L31.09 28.681C30.1985 26.4377 29.6033 24.9375 26.0221 15.9063C25.4172 14.3805 24.8118 12.8547 24.2059 11.3291L24.1409 11.1672H14.2529V11.1672Z" fill="url(#paint0_radial_503_397)"/>
<path d="M14.2532 11.1672L24.1868 36.2722V36.2609L24.971 38.2401C29.337 49.2585 31.6825 55.166 31.6964 55.1784C31.7053 55.1867 32.3661 55.2222 33.1642 55.2576C35.5825 55.3645 38.5795 55.5937 40.853 55.8459C41.3768 55.9039 41.8271 55.9335 41.8589 55.9124L32.0019 30.9724V30.9768L31.0896 28.681C30.1982 26.4377 29.603 24.9375 26.0218 15.9063C25.0586 13.4778 24.2414 11.4183 24.2056 11.3291L24.1406 11.1672H14.2532V11.1672Z" fill="#E50914"/>
<path d="M32.0413 11.1969L32.0219 21.0868L32.0022 30.9768L31.09 28.681L31.0882 28.6766L29.9094 50.6943C31.0686 53.6137 31.6895 55.1722 31.6964 55.1784C31.7054 55.1867 32.3662 55.2222 33.1643 55.2576C35.5826 55.3645 38.5796 55.5937 40.853 55.8459C41.3794 55.9041 41.8324 55.9341 41.8598 55.9121C41.887 55.8905 41.9018 45.8206 41.8928 33.5348L41.876 11.1969H32.0413V11.1969ZM14.2529 11.1672V33.5278C14.2529 45.8263 14.2665 55.9005 14.283 55.9152C14.2995 55.9299 15.1534 55.858 16.1807 55.7554C17.2077 55.6528 18.6276 55.5252 19.3355 55.4718C20.4212 55.3901 23.6628 55.2042 24.038 55.2021C24.1472 55.2016 24.1542 54.6994 24.1701 45.7314L24.1869 36.2609L24.9711 38.2401L25.2486 38.9396L26.4271 16.9273L26.0221 15.9063C25.4172 14.3805 24.8118 12.8547 24.2059 11.3291L24.1409 11.1672H14.2529V11.1672Z" fill="#B1060F" stroke="black" stroke-width="2.956"/>
<path d="M14.2529 11.1672V23.7188L24.1666 47.1736C24.1678 46.636 24.1689 46.3458 24.1701 45.7314L24.1869 36.2609L24.9711 38.2401C29.3371 49.2585 31.6825 55.166 31.6964 55.1784C31.7054 55.1867 32.3662 55.2222 33.1643 55.2576C35.5826 55.3645 38.5796 55.5937 40.853 55.8459C41.3794 55.9041 41.8324 55.9341 41.8598 55.9121C41.8783 55.8972 41.8908 50.9596 41.894 43.9942L32.0265 18.6925L32.0219 21.0868L32.0022 30.9768L31.09 28.681C30.1985 26.4377 29.6033 24.9375 26.0221 15.9063C25.4172 14.3805 24.8118 12.8547 24.2059 11.3291L24.1409 11.1672H14.2529V11.1672Z" fill="url(#paint1_radial_503_397)"/>
<path d="M14.2532 11.1672L24.1868 36.2722V36.2609L24.971 38.2401C29.337 49.2585 31.6825 55.166 31.6964 55.1784C31.7053 55.1867 32.3661 55.2222 33.1642 55.2576C35.5825 55.3645 38.5795 55.5937 40.853 55.8459C41.3768 55.9039 41.8271 55.9335 41.8589 55.9124L32.0019 30.9724V30.9768L31.0896 28.681C30.1982 26.4377 29.603 24.9375 26.0218 15.9063C25.0586 13.4778 24.2414 11.4183 24.2056 11.3291L24.1406 11.1672H14.2532V11.1672Z" fill="#E50914"/>
</g>
<defs>
<radialGradient id="paint0_radial_503_397" cx="0" cy="0" r="1" gradientUnits="userSpaceOnUse" gradientTransform="translate(27.6146 18.6419) scale(19.4698 17.3651)">
<stop/>
<stop offset="1" stop-opacity="0"/>
</radialGradient>
<radialGradient id="paint1_radial_503_397" cx="0" cy="0" r="1" gradientUnits="userSpaceOnUse" gradientTransform="translate(27.6146 18.6419) scale(19.4698 17.3651)">
<stop/>
<stop offset="1" stop-opacity="0"/>
</radialGradient>
<clipPath id="clip0_503_397">
<rect x="0.0880127" y="0.555664" width="55" height="66" rx="2" fill="white"/>
</clipPath>
</defs>
</svg>
