<svg width="33" height="19" viewBox="0 0 33 19" fill="none" xmlns="http://www.w3.org/2000/svg">
<path fill-rule="evenodd" clip-rule="evenodd" d="M22.5917 18.6076C27.8679 18.6076 32.145 14.6156 32.145 9.69126C32.145 4.76689 27.8679 0.774902 22.5917 0.774902C20.2271 0.774902 18.0632 1.57671 16.395 2.9049C14.7268 1.57671 12.5629 0.774914 10.1983 0.774914C4.92217 0.774914 0.64502 4.7669 0.64502 9.69127C0.64502 14.6156 4.92217 18.6076 10.1983 18.6076C12.5629 18.6076 14.7268 17.8058 16.395 16.4776C18.0632 17.8058 20.2272 18.6076 22.5917 18.6076Z" fill="#ED0006"/>
<path fill-rule="evenodd" clip-rule="evenodd" d="M16.395 16.4776C18.4491 14.8422 19.7516 12.4087 19.7516 9.69126C19.7516 6.97383 18.4491 4.54032 16.395 2.9049C18.0632 1.5767 20.2272 0.774902 22.5917 0.774902C27.8679 0.774902 32.145 4.76689 32.145 9.69126C32.145 14.6156 27.8679 18.6076 22.5917 18.6076C20.2272 18.6076 18.0632 17.8058 16.395 16.4776Z" fill="#F9A000"/>
<path fill-rule="evenodd" clip-rule="evenodd" d="M16.3951 16.4774C18.4492 14.842 19.7516 12.4085 19.7516 9.69112C19.7516 6.9737 18.4492 4.54021 16.3951 2.90479C14.341 4.54021 13.0386 6.9737 13.0386 9.69112C13.0386 12.4085 14.341 14.842 16.3951 16.4774Z" fill="#FF5E00"/>
</svg>
