<svg width="36" height="36" viewBox="0 0 36 36" fill="none" xmlns="http://www.w3.org/2000/svg">
<path d="M18.1119 3.72296C20.027 3.72296 21.9234 4.10017 23.6927 4.83305C25.462 5.56593 27.0697 6.64013 28.4239 7.99432C29.7781 9.34851 30.8523 10.9562 31.5851 12.7255C32.318 14.4948 32.6952 16.3912 32.6952 18.3063C32.6952 22.174 31.1588 25.8834 28.4239 28.6183C25.689 31.3532 21.9796 32.8896 18.1119 32.8896C16.1968 32.8896 14.3004 32.5124 12.5311 31.7795C10.7618 31.0467 9.15411 29.9725 7.79992 28.6183C5.06502 25.8834 3.52856 22.174 3.52856 18.3063C3.52856 14.4386 5.06502 10.7292 7.79992 7.99432C10.5348 5.25942 14.2442 3.72296 18.1119 3.72296V3.72296ZM18.1119 6.63963C17.145 6.63963 16.2176 7.02374 15.5339 7.70747C14.8502 8.39119 14.4661 9.31853 14.4661 10.2855C14.4661 11.2524 14.8502 12.1797 15.5339 12.8635C16.2176 13.5472 17.145 13.9313 18.1119 13.9313C19.0788 13.9313 20.0062 13.5472 20.6899 12.8635C21.3736 12.1797 21.7577 11.2524 21.7577 10.2855C21.7577 9.31853 21.3736 8.39119 20.6899 7.70747C20.0062 7.02374 19.0788 6.63963 18.1119 6.63963V6.63963ZM7.02856 14.7042C6.72952 15.6228 6.80728 16.6225 7.24478 17.4839C7.68227 18.3452 8.44372 18.9976 9.3619 19.298C11.2869 19.9105 13.3431 18.875 13.9556 16.95C14.2547 16.0314 14.1769 15.0317 13.7394 14.1704C13.3019 13.3091 12.5405 12.6566 11.6223 12.3563C9.7119 11.7438 7.64106 12.7792 7.02856 14.7042ZM29.2098 14.6605C28.5827 12.7792 26.5265 11.7438 24.6161 12.3563C24.1589 12.5017 23.7351 12.7362 23.3691 13.0464C23.0031 13.3566 22.7023 13.7363 22.4839 14.1634C22.2656 14.5906 22.1341 15.0568 22.0971 15.5351C22.06 16.0134 22.1182 16.4943 22.2681 16.95C22.5685 17.8682 23.2209 18.6297 24.0823 19.0672C24.9436 19.5047 25.9433 19.5824 26.8619 19.2834C28.7723 18.6709 29.8223 16.6 29.2098 14.6605ZM11.2723 27.7271C12.8911 28.923 15.1952 28.5584 16.3619 26.925C17.5431 25.2917 17.1786 23.0167 15.5452 21.8355C14.7629 21.2698 13.7886 21.0367 12.835 21.187C11.8815 21.3373 11.0261 21.8588 10.4556 22.6375C9.2744 24.2709 9.63898 26.5459 11.2723 27.7271ZM24.9661 27.7271C26.5994 26.5459 26.964 24.2709 25.7827 22.6375C25.5025 22.2491 25.1481 21.9199 24.74 21.6691C24.3319 21.4183 23.8782 21.2508 23.405 21.1762C22.9319 21.1017 22.4486 21.1215 21.9832 21.2347C21.5177 21.3478 21.0793 21.552 20.6931 21.8355C20.305 22.1157 19.9759 22.4698 19.7247 22.8774C19.4735 23.285 19.3052 23.7381 19.2293 24.2109C19.1535 24.6836 19.1716 25.1667 19.2826 25.6324C19.3937 26.0981 19.5955 26.5374 19.8765 26.925C21.0286 28.5584 23.3473 28.9084 24.9661 27.7271V27.7271ZM18.1119 16.1188C17.5317 16.1188 16.9753 16.3493 16.5651 16.7595C16.1549 17.1697 15.9244 17.7261 15.9244 18.3063C15.9244 18.8865 16.1549 19.4429 16.5651 19.8531C16.9753 20.2633 17.5317 20.4938 18.1119 20.4938C18.6921 20.4938 19.2485 20.2633 19.6587 19.8531C20.0689 19.4429 20.2994 18.8865 20.2994 18.3063C20.2994 17.7261 20.0689 17.1697 19.6587 16.7595C19.2485 16.3493 18.6921 16.1188 18.1119 16.1188Z" fill="#654EA4"/>
<path d="M18.1119 3.72296C20.027 3.72296 21.9234 4.10017 23.6927 4.83305C25.462 5.56593 27.0697 6.64013 28.4239 7.99432C29.7781 9.34851 30.8523 10.9562 31.5851 12.7255C32.318 14.4948 32.6952 16.3912 32.6952 18.3063C32.6952 22.174 31.1588 25.8834 28.4239 28.6183C25.689 31.3532 21.9796 32.8896 18.1119 32.8896C16.1968 32.8896 14.3004 32.5124 12.5311 31.7795C10.7618 31.0467 9.15411 29.9725 7.79992 28.6183C5.06502 25.8834 3.52856 22.174 3.52856 18.3063C3.52856 14.4386 5.06502 10.7292 7.79992 7.99432C10.5348 5.25942 14.2442 3.72296 18.1119 3.72296V3.72296ZM18.1119 6.63963C17.145 6.63963 16.2176 7.02374 15.5339 7.70747C14.8502 8.39119 14.4661 9.31853 14.4661 10.2855C14.4661 11.2524 14.8502 12.1797 15.5339 12.8635C16.2176 13.5472 17.145 13.9313 18.1119 13.9313C19.0788 13.9313 20.0062 13.5472 20.6899 12.8635C21.3736 12.1797 21.7577 11.2524 21.7577 10.2855C21.7577 9.31853 21.3736 8.39119 20.6899 7.70747C20.0062 7.02374 19.0788 6.63963 18.1119 6.63963V6.63963ZM7.02856 14.7042C6.72952 15.6228 6.80728 16.6225 7.24478 17.4839C7.68227 18.3452 8.44372 18.9976 9.3619 19.298C11.2869 19.9105 13.3431 18.875 13.9556 16.95C14.2547 16.0314 14.1769 15.0317 13.7394 14.1704C13.3019 13.3091 12.5405 12.6566 11.6223 12.3563C9.7119 11.7438 7.64106 12.7792 7.02856 14.7042ZM29.2098 14.6605C28.5827 12.7792 26.5265 11.7438 24.6161 12.3563C24.1589 12.5017 23.7351 12.7362 23.3691 13.0464C23.0031 13.3566 22.7023 13.7363 22.4839 14.1634C22.2656 14.5906 22.1341 15.0568 22.0971 15.5351C22.06 16.0134 22.1182 16.4943 22.2681 16.95C22.5685 17.8682 23.2209 18.6297 24.0823 19.0672C24.9436 19.5047 25.9433 19.5824 26.8619 19.2834C28.7723 18.6709 29.8223 16.6 29.2098 14.6605ZM11.2723 27.7271C12.8911 28.923 15.1952 28.5584 16.3619 26.925C17.5431 25.2917 17.1786 23.0167 15.5452 21.8355C14.7629 21.2698 13.7886 21.0367 12.835 21.187C11.8815 21.3373 11.0261 21.8588 10.4556 22.6375C9.2744 24.2709 9.63898 26.5459 11.2723 27.7271ZM24.9661 27.7271C26.5994 26.5459 26.964 24.2709 25.7827 22.6375C25.5025 22.2491 25.1481 21.9199 24.74 21.6691C24.3319 21.4183 23.8782 21.2508 23.405 21.1762C22.9319 21.1017 22.4486 21.1215 21.9832 21.2347C21.5177 21.3478 21.0793 21.552 20.6931 21.8355C20.305 22.1157 19.9759 22.4698 19.7247 22.8774C19.4735 23.285 19.3052 23.7381 19.2293 24.2109C19.1535 24.6836 19.1716 25.1667 19.2826 25.6324C19.3937 26.0981 19.5955 26.5374 19.8765 26.925C21.0286 28.5584 23.3473 28.9084 24.9661 27.7271V27.7271ZM18.1119 16.1188C17.5317 16.1188 16.9753 16.3493 16.5651 16.7595C16.1549 17.1697 15.9244 17.7261 15.9244 18.3063C15.9244 18.8865 16.1549 19.4429 16.5651 19.8531C16.9753 20.2633 17.5317 20.4938 18.1119 20.4938C18.6921 20.4938 19.2485 20.2633 19.6587 19.8531C20.0689 19.4429 20.2994 18.8865 20.2994 18.3063C20.2994 17.7261 20.0689 17.1697 19.6587 16.7595C19.2485 16.3493 18.6921 16.1188 18.1119 16.1188Z" fill="url(#paint0_linear_365_342)" fill-opacity="0.2"/>
<path d="M18.1119 3.72296C20.027 3.72296 21.9234 4.10017 23.6927 4.83305C25.462 5.56593 27.0697 6.64013 28.4239 7.99432C29.7781 9.34851 30.8523 10.9562 31.5851 12.7255C32.318 14.4948 32.6952 16.3912 32.6952 18.3063C32.6952 22.174 31.1588 25.8834 28.4239 28.6183C25.689 31.3532 21.9796 32.8896 18.1119 32.8896C16.1968 32.8896 14.3004 32.5124 12.5311 31.7795C10.7618 31.0467 9.15411 29.9725 7.79992 28.6183C5.06502 25.8834 3.52856 22.174 3.52856 18.3063C3.52856 14.4386 5.06502 10.7292 7.79992 7.99432C10.5348 5.25942 14.2442 3.72296 18.1119 3.72296V3.72296ZM18.1119 6.63963C17.145 6.63963 16.2176 7.02374 15.5339 7.70747C14.8502 8.39119 14.4661 9.31853 14.4661 10.2855C14.4661 11.2524 14.8502 12.1797 15.5339 12.8635C16.2176 13.5472 17.145 13.9313 18.1119 13.9313C19.0788 13.9313 20.0062 13.5472 20.6899 12.8635C21.3736 12.1797 21.7577 11.2524 21.7577 10.2855C21.7577 9.31853 21.3736 8.39119 20.6899 7.70747C20.0062 7.02374 19.0788 6.63963 18.1119 6.63963V6.63963ZM7.02856 14.7042C6.72952 15.6228 6.80728 16.6225 7.24478 17.4839C7.68227 18.3452 8.44372 18.9976 9.3619 19.298C11.2869 19.9105 13.3431 18.875 13.9556 16.95C14.2547 16.0314 14.1769 15.0317 13.7394 14.1704C13.3019 13.3091 12.5405 12.6566 11.6223 12.3563C9.7119 11.7438 7.64106 12.7792 7.02856 14.7042ZM29.2098 14.6605C28.5827 12.7792 26.5265 11.7438 24.6161 12.3563C24.1589 12.5017 23.7351 12.7362 23.3691 13.0464C23.0031 13.3566 22.7023 13.7363 22.4839 14.1634C22.2656 14.5906 22.1341 15.0568 22.0971 15.5351C22.06 16.0134 22.1182 16.4943 22.2681 16.95C22.5685 17.8682 23.2209 18.6297 24.0823 19.0672C24.9436 19.5047 25.9433 19.5824 26.8619 19.2834C28.7723 18.6709 29.8223 16.6 29.2098 14.6605ZM11.2723 27.7271C12.8911 28.923 15.1952 28.5584 16.3619 26.925C17.5431 25.2917 17.1786 23.0167 15.5452 21.8355C14.7629 21.2698 13.7886 21.0367 12.835 21.187C11.8815 21.3373 11.0261 21.8588 10.4556 22.6375C9.2744 24.2709 9.63898 26.5459 11.2723 27.7271ZM24.9661 27.7271C26.5994 26.5459 26.964 24.2709 25.7827 22.6375C25.5025 22.2491 25.1481 21.9199 24.74 21.6691C24.3319 21.4183 23.8782 21.2508 23.405 21.1762C22.9319 21.1017 22.4486 21.1215 21.9832 21.2347C21.5177 21.3478 21.0793 21.552 20.6931 21.8355C20.305 22.1157 19.9759 22.4698 19.7247 22.8774C19.4735 23.285 19.3052 23.7381 19.2293 24.2109C19.1535 24.6836 19.1716 25.1667 19.2826 25.6324C19.3937 26.0981 19.5955 26.5374 19.8765 26.925C21.0286 28.5584 23.3473 28.9084 24.9661 27.7271V27.7271ZM18.1119 16.1188C17.5317 16.1188 16.9753 16.3493 16.5651 16.7595C16.1549 17.1697 15.9244 17.7261 15.9244 18.3063C15.9244 18.8865 16.1549 19.4429 16.5651 19.8531C16.9753 20.2633 17.5317 20.4938 18.1119 20.4938C18.6921 20.4938 19.2485 20.2633 19.6587 19.8531C20.0689 19.4429 20.2994 18.8865 20.2994 18.3063C20.2994 17.7261 20.0689 17.1697 19.6587 16.7595C19.2485 16.3493 18.6921 16.1188 18.1119 16.1188Z" fill="url(#paint1_linear_365_342)"/>
<path d="M18.1119 3.72296C20.027 3.72296 21.9234 4.10017 23.6927 4.83305C25.462 5.56593 27.0697 6.64013 28.4239 7.99432C29.7781 9.34851 30.8523 10.9562 31.5851 12.7255C32.318 14.4948 32.6952 16.3912 32.6952 18.3063C32.6952 22.174 31.1588 25.8834 28.4239 28.6183C25.689 31.3532 21.9796 32.8896 18.1119 32.8896C16.1968 32.8896 14.3004 32.5124 12.5311 31.7795C10.7618 31.0467 9.15411 29.9725 7.79992 28.6183C5.06502 25.8834 3.52856 22.174 3.52856 18.3063C3.52856 14.4386 5.06502 10.7292 7.79992 7.99432C10.5348 5.25942 14.2442 3.72296 18.1119 3.72296V3.72296ZM18.1119 6.63963C17.145 6.63963 16.2176 7.02374 15.5339 7.70747C14.8502 8.39119 14.4661 9.31853 14.4661 10.2855C14.4661 11.2524 14.8502 12.1797 15.5339 12.8635C16.2176 13.5472 17.145 13.9313 18.1119 13.9313C19.0788 13.9313 20.0062 13.5472 20.6899 12.8635C21.3736 12.1797 21.7577 11.2524 21.7577 10.2855C21.7577 9.31853 21.3736 8.39119 20.6899 7.70747C20.0062 7.02374 19.0788 6.63963 18.1119 6.63963V6.63963ZM7.02856 14.7042C6.72952 15.6228 6.80728 16.6225 7.24478 17.4839C7.68227 18.3452 8.44372 18.9976 9.3619 19.298C11.2869 19.9105 13.3431 18.875 13.9556 16.95C14.2547 16.0314 14.1769 15.0317 13.7394 14.1704C13.3019 13.3091 12.5405 12.6566 11.6223 12.3563C9.7119 11.7438 7.64106 12.7792 7.02856 14.7042ZM29.2098 14.6605C28.5827 12.7792 26.5265 11.7438 24.6161 12.3563C24.1589 12.5017 23.7351 12.7362 23.3691 13.0464C23.0031 13.3566 22.7023 13.7363 22.4839 14.1634C22.2656 14.5906 22.1341 15.0568 22.0971 15.5351C22.06 16.0134 22.1182 16.4943 22.2681 16.95C22.5685 17.8682 23.2209 18.6297 24.0823 19.0672C24.9436 19.5047 25.9433 19.5824 26.8619 19.2834C28.7723 18.6709 29.8223 16.6 29.2098 14.6605ZM11.2723 27.7271C12.8911 28.923 15.1952 28.5584 16.3619 26.925C17.5431 25.2917 17.1786 23.0167 15.5452 21.8355C14.7629 21.2698 13.7886 21.0367 12.835 21.187C11.8815 21.3373 11.0261 21.8588 10.4556 22.6375C9.2744 24.2709 9.63898 26.5459 11.2723 27.7271ZM24.9661 27.7271C26.5994 26.5459 26.964 24.2709 25.7827 22.6375C25.5025 22.2491 25.1481 21.9199 24.74 21.6691C24.3319 21.4183 23.8782 21.2508 23.405 21.1762C22.9319 21.1017 22.4486 21.1215 21.9832 21.2347C21.5177 21.3478 21.0793 21.552 20.6931 21.8355C20.305 22.1157 19.9759 22.4698 19.7247 22.8774C19.4735 23.285 19.3052 23.7381 19.2293 24.2109C19.1535 24.6836 19.1716 25.1667 19.2826 25.6324C19.3937 26.0981 19.5955 26.5374 19.8765 26.925C21.0286 28.5584 23.3473 28.9084 24.9661 27.7271V27.7271ZM18.1119 16.1188C17.5317 16.1188 16.9753 16.3493 16.5651 16.7595C16.1549 17.1697 15.9244 17.7261 15.9244 18.3063C15.9244 18.8865 16.1549 19.4429 16.5651 19.8531C16.9753 20.2633 17.5317 20.4938 18.1119 20.4938C18.6921 20.4938 19.2485 20.2633 19.6587 19.8531C20.0689 19.4429 20.2994 18.8865 20.2994 18.3063C20.2994 17.7261 20.0689 17.1697 19.6587 16.7595C19.2485 16.3493 18.6921 16.1188 18.1119 16.1188Z" fill="url(#paint2_linear_365_342)" fill-opacity="0.2"/>
<path d="M18.1119 3.72296C20.027 3.72296 21.9234 4.10017 23.6927 4.83305C25.462 5.56593 27.0697 6.64013 28.4239 7.99432C29.7781 9.34851 30.8523 10.9562 31.5851 12.7255C32.318 14.4948 32.6952 16.3912 32.6952 18.3063C32.6952 22.174 31.1588 25.8834 28.4239 28.6183C25.689 31.3532 21.9796 32.8896 18.1119 32.8896C16.1968 32.8896 14.3004 32.5124 12.5311 31.7795C10.7618 31.0467 9.15411 29.9725 7.79992 28.6183C5.06502 25.8834 3.52856 22.174 3.52856 18.3063C3.52856 14.4386 5.06502 10.7292 7.79992 7.99432C10.5348 5.25942 14.2442 3.72296 18.1119 3.72296V3.72296ZM18.1119 6.63963C17.145 6.63963 16.2176 7.02374 15.5339 7.70747C14.8502 8.39119 14.4661 9.31853 14.4661 10.2855C14.4661 11.2524 14.8502 12.1797 15.5339 12.8635C16.2176 13.5472 17.145 13.9313 18.1119 13.9313C19.0788 13.9313 20.0062 13.5472 20.6899 12.8635C21.3736 12.1797 21.7577 11.2524 21.7577 10.2855C21.7577 9.31853 21.3736 8.39119 20.6899 7.70747C20.0062 7.02374 19.0788 6.63963 18.1119 6.63963V6.63963ZM7.02856 14.7042C6.72952 15.6228 6.80728 16.6225 7.24478 17.4839C7.68227 18.3452 8.44372 18.9976 9.3619 19.298C11.2869 19.9105 13.3431 18.875 13.9556 16.95C14.2547 16.0314 14.1769 15.0317 13.7394 14.1704C13.3019 13.3091 12.5405 12.6566 11.6223 12.3563C9.7119 11.7438 7.64106 12.7792 7.02856 14.7042ZM29.2098 14.6605C28.5827 12.7792 26.5265 11.7438 24.6161 12.3563C24.1589 12.5017 23.7351 12.7362 23.3691 13.0464C23.0031 13.3566 22.7023 13.7363 22.4839 14.1634C22.2656 14.5906 22.1341 15.0568 22.0971 15.5351C22.06 16.0134 22.1182 16.4943 22.2681 16.95C22.5685 17.8682 23.2209 18.6297 24.0823 19.0672C24.9436 19.5047 25.9433 19.5824 26.8619 19.2834C28.7723 18.6709 29.8223 16.6 29.2098 14.6605ZM11.2723 27.7271C12.8911 28.923 15.1952 28.5584 16.3619 26.925C17.5431 25.2917 17.1786 23.0167 15.5452 21.8355C14.7629 21.2698 13.7886 21.0367 12.835 21.187C11.8815 21.3373 11.0261 21.8588 10.4556 22.6375C9.2744 24.2709 9.63898 26.5459 11.2723 27.7271ZM24.9661 27.7271C26.5994 26.5459 26.964 24.2709 25.7827 22.6375C25.5025 22.2491 25.1481 21.9199 24.74 21.6691C24.3319 21.4183 23.8782 21.2508 23.405 21.1762C22.9319 21.1017 22.4486 21.1215 21.9832 21.2347C21.5177 21.3478 21.0793 21.552 20.6931 21.8355C20.305 22.1157 19.9759 22.4698 19.7247 22.8774C19.4735 23.285 19.3052 23.7381 19.2293 24.2109C19.1535 24.6836 19.1716 25.1667 19.2826 25.6324C19.3937 26.0981 19.5955 26.5374 19.8765 26.925C21.0286 28.5584 23.3473 28.9084 24.9661 27.7271V27.7271ZM18.1119 16.1188C17.5317 16.1188 16.9753 16.3493 16.5651 16.7595C16.1549 17.1697 15.9244 17.7261 15.9244 18.3063C15.9244 18.8865 16.1549 19.4429 16.5651 19.8531C16.9753 20.2633 17.5317 20.4938 18.1119 20.4938C18.6921 20.4938 19.2485 20.2633 19.6587 19.8531C20.0689 19.4429 20.2994 18.8865 20.2994 18.3063C20.2994 17.7261 20.0689 17.1697 19.6587 16.7595C19.2485 16.3493 18.6921 16.1188 18.1119 16.1188Z" fill="url(#paint3_linear_365_342)" fill-opacity="0.22"/>
<path d="M18.1119 3.72296C20.027 3.72296 21.9234 4.10017 23.6927 4.83305C25.462 5.56593 27.0697 6.64013 28.4239 7.99432C29.7781 9.34851 30.8523 10.9562 31.5851 12.7255C32.318 14.4948 32.6952 16.3912 32.6952 18.3063C32.6952 22.174 31.1588 25.8834 28.4239 28.6183C25.689 31.3532 21.9796 32.8896 18.1119 32.8896C16.1968 32.8896 14.3004 32.5124 12.5311 31.7795C10.7618 31.0467 9.15411 29.9725 7.79992 28.6183C5.06502 25.8834 3.52856 22.174 3.52856 18.3063C3.52856 14.4386 5.06502 10.7292 7.79992 7.99432C10.5348 5.25942 14.2442 3.72296 18.1119 3.72296V3.72296ZM18.1119 6.63963C17.145 6.63963 16.2176 7.02374 15.5339 7.70747C14.8502 8.39119 14.4661 9.31853 14.4661 10.2855C14.4661 11.2524 14.8502 12.1797 15.5339 12.8635C16.2176 13.5472 17.145 13.9313 18.1119 13.9313C19.0788 13.9313 20.0062 13.5472 20.6899 12.8635C21.3736 12.1797 21.7577 11.2524 21.7577 10.2855C21.7577 9.31853 21.3736 8.39119 20.6899 7.70747C20.0062 7.02374 19.0788 6.63963 18.1119 6.63963V6.63963ZM7.02856 14.7042C6.72952 15.6228 6.80728 16.6225 7.24478 17.4839C7.68227 18.3452 8.44372 18.9976 9.3619 19.298C11.2869 19.9105 13.3431 18.875 13.9556 16.95C14.2547 16.0314 14.1769 15.0317 13.7394 14.1704C13.3019 13.3091 12.5405 12.6566 11.6223 12.3563C9.7119 11.7438 7.64106 12.7792 7.02856 14.7042ZM29.2098 14.6605C28.5827 12.7792 26.5265 11.7438 24.6161 12.3563C24.1589 12.5017 23.7351 12.7362 23.3691 13.0464C23.0031 13.3566 22.7023 13.7363 22.4839 14.1634C22.2656 14.5906 22.1341 15.0568 22.0971 15.5351C22.06 16.0134 22.1182 16.4943 22.2681 16.95C22.5685 17.8682 23.2209 18.6297 24.0823 19.0672C24.9436 19.5047 25.9433 19.5824 26.8619 19.2834C28.7723 18.6709 29.8223 16.6 29.2098 14.6605ZM11.2723 27.7271C12.8911 28.923 15.1952 28.5584 16.3619 26.925C17.5431 25.2917 17.1786 23.0167 15.5452 21.8355C14.7629 21.2698 13.7886 21.0367 12.835 21.187C11.8815 21.3373 11.0261 21.8588 10.4556 22.6375C9.2744 24.2709 9.63898 26.5459 11.2723 27.7271ZM24.9661 27.7271C26.5994 26.5459 26.964 24.2709 25.7827 22.6375C25.5025 22.2491 25.1481 21.9199 24.74 21.6691C24.3319 21.4183 23.8782 21.2508 23.405 21.1762C22.9319 21.1017 22.4486 21.1215 21.9832 21.2347C21.5177 21.3478 21.0793 21.552 20.6931 21.8355C20.305 22.1157 19.9759 22.4698 19.7247 22.8774C19.4735 23.285 19.3052 23.7381 19.2293 24.2109C19.1535 24.6836 19.1716 25.1667 19.2826 25.6324C19.3937 26.0981 19.5955 26.5374 19.8765 26.925C21.0286 28.5584 23.3473 28.9084 24.9661 27.7271V27.7271ZM18.1119 16.1188C17.5317 16.1188 16.9753 16.3493 16.5651 16.7595C16.1549 17.1697 15.9244 17.7261 15.9244 18.3063C15.9244 18.8865 16.1549 19.4429 16.5651 19.8531C16.9753 20.2633 17.5317 20.4938 18.1119 20.4938C18.6921 20.4938 19.2485 20.2633 19.6587 19.8531C20.0689 19.4429 20.2994 18.8865 20.2994 18.3063C20.2994 17.7261 20.0689 17.1697 19.6587 16.7595C19.2485 16.3493 18.6921 16.1188 18.1119 16.1188Z" fill="url(#paint4_linear_365_342)" fill-opacity="0.61"/>
<path d="M18.1119 3.72296C20.027 3.72296 21.9234 4.10017 23.6927 4.83305C25.462 5.56593 27.0697 6.64013 28.4239 7.99432C29.7781 9.34851 30.8523 10.9562 31.5851 12.7255C32.318 14.4948 32.6952 16.3912 32.6952 18.3063C32.6952 22.174 31.1588 25.8834 28.4239 28.6183C25.689 31.3532 21.9796 32.8896 18.1119 32.8896C16.1968 32.8896 14.3004 32.5124 12.5311 31.7795C10.7618 31.0467 9.15411 29.9725 7.79992 28.6183C5.06502 25.8834 3.52856 22.174 3.52856 18.3063C3.52856 14.4386 5.06502 10.7292 7.79992 7.99432C10.5348 5.25942 14.2442 3.72296 18.1119 3.72296V3.72296ZM18.1119 6.63963C17.145 6.63963 16.2176 7.02374 15.5339 7.70747C14.8502 8.39119 14.4661 9.31853 14.4661 10.2855C14.4661 11.2524 14.8502 12.1797 15.5339 12.8635C16.2176 13.5472 17.145 13.9313 18.1119 13.9313C19.0788 13.9313 20.0062 13.5472 20.6899 12.8635C21.3736 12.1797 21.7577 11.2524 21.7577 10.2855C21.7577 9.31853 21.3736 8.39119 20.6899 7.70747C20.0062 7.02374 19.0788 6.63963 18.1119 6.63963V6.63963ZM7.02856 14.7042C6.72952 15.6228 6.80728 16.6225 7.24478 17.4839C7.68227 18.3452 8.44372 18.9976 9.3619 19.298C11.2869 19.9105 13.3431 18.875 13.9556 16.95C14.2547 16.0314 14.1769 15.0317 13.7394 14.1704C13.3019 13.3091 12.5405 12.6566 11.6223 12.3563C9.7119 11.7438 7.64106 12.7792 7.02856 14.7042ZM29.2098 14.6605C28.5827 12.7792 26.5265 11.7438 24.6161 12.3563C24.1589 12.5017 23.7351 12.7362 23.3691 13.0464C23.0031 13.3566 22.7023 13.7363 22.4839 14.1634C22.2656 14.5906 22.1341 15.0568 22.0971 15.5351C22.06 16.0134 22.1182 16.4943 22.2681 16.95C22.5685 17.8682 23.2209 18.6297 24.0823 19.0672C24.9436 19.5047 25.9433 19.5824 26.8619 19.2834C28.7723 18.6709 29.8223 16.6 29.2098 14.6605ZM11.2723 27.7271C12.8911 28.923 15.1952 28.5584 16.3619 26.925C17.5431 25.2917 17.1786 23.0167 15.5452 21.8355C14.7629 21.2698 13.7886 21.0367 12.835 21.187C11.8815 21.3373 11.0261 21.8588 10.4556 22.6375C9.2744 24.2709 9.63898 26.5459 11.2723 27.7271ZM24.9661 27.7271C26.5994 26.5459 26.964 24.2709 25.7827 22.6375C25.5025 22.2491 25.1481 21.9199 24.74 21.6691C24.3319 21.4183 23.8782 21.2508 23.405 21.1762C22.9319 21.1017 22.4486 21.1215 21.9832 21.2347C21.5177 21.3478 21.0793 21.552 20.6931 21.8355C20.305 22.1157 19.9759 22.4698 19.7247 22.8774C19.4735 23.285 19.3052 23.7381 19.2293 24.2109C19.1535 24.6836 19.1716 25.1667 19.2826 25.6324C19.3937 26.0981 19.5955 26.5374 19.8765 26.925C21.0286 28.5584 23.3473 28.9084 24.9661 27.7271V27.7271ZM18.1119 16.1188C17.5317 16.1188 16.9753 16.3493 16.5651 16.7595C16.1549 17.1697 15.9244 17.7261 15.9244 18.3063C15.9244 18.8865 16.1549 19.4429 16.5651 19.8531C16.9753 20.2633 17.5317 20.4938 18.1119 20.4938C18.6921 20.4938 19.2485 20.2633 19.6587 19.8531C20.0689 19.4429 20.2994 18.8865 20.2994 18.3063C20.2994 17.7261 20.0689 17.1697 19.6587 16.7595C19.2485 16.3493 18.6921 16.1188 18.1119 16.1188Z" fill="url(#paint5_linear_365_342)" fill-opacity="0.2"/>
<defs>
<linearGradient id="paint0_linear_365_342" x1="18.1119" y1="3.72296" x2="18.1119" y2="32.8896" gradientUnits="userSpaceOnUse">
<stop/>
<stop offset="1" stop-opacity="0"/>
</linearGradient>
<linearGradient id="paint1_linear_365_342" x1="18.1119" y1="3.72296" x2="23.3381" y2="40.0816" gradientUnits="userSpaceOnUse">
<stop stop-color="#201933"/>
<stop offset="1" stop-color="#201933" stop-opacity="0"/>
</linearGradient>
<linearGradient id="paint2_linear_365_342" x1="18.1119" y1="36.5868" x2="18.1119" y2="-0.795818" gradientUnits="userSpaceOnUse">
<stop stop-color="#242424"/>
<stop offset="1" stop-color="#242424" stop-opacity="0"/>
</linearGradient>
<linearGradient id="paint3_linear_365_342" x1="18.1119" y1="3.72296" x2="18.1119" y2="32.8896" gradientUnits="userSpaceOnUse">
<stop stop-color="#034D64"/>
<stop offset="1" stop-color="#0085AF" stop-opacity="0"/>
</linearGradient>
<linearGradient id="paint4_linear_365_342" x1="18.1119" y1="3.72296" x2="18.1119" y2="32.8896" gradientUnits="userSpaceOnUse">
<stop stop-color="white"/>
<stop offset="1" stop-color="white" stop-opacity="0"/>
</linearGradient>
<linearGradient id="paint5_linear_365_342" x1="3.52856" y1="44.8028" x2="41.6146" y2="37.229" gradientUnits="userSpaceOnUse">
<stop stop-color="#D8D8D8"/>
<stop offset="1" stop-color="#D8D8D8" stop-opacity="0"/>
</linearGradient>
</defs>
</svg>
