<svg width="29" height="23" viewBox="0 0 29 23" fill="none" xmlns="http://www.w3.org/2000/svg">
<path fill-rule="evenodd" clip-rule="evenodd" d="M4.122 16.0024H1.98859C1.8426 16.0024 1.71843 16.1024 1.69567 16.2381L0.832804 21.3906C0.815654 21.4923 0.899255 21.584 1.00875 21.584H2.02727C2.17326 21.584 2.29742 21.484 2.32019 21.3481L2.55291 19.9584C2.57536 19.8222 2.69983 19.7225 2.84552 19.7225H3.52088C4.92624 19.7225 5.73726 19.0819 5.94919 17.8127C6.04461 17.2574 5.95323 16.8211 5.67706 16.5154C5.37391 16.18 4.83602 16.0024 4.122 16.0024ZM4.36814 17.8843C4.2515 18.6054 3.66657 18.6054 3.10101 18.6054H2.77907L3.00492 17.2588C3.01833 17.1775 3.0932 17.1175 3.18055 17.1175H3.3281C3.71336 17.1175 4.07682 17.1175 4.26463 17.3243C4.37651 17.4478 4.41087 17.631 4.36814 17.8843ZM10.4993 17.8612H9.47766C9.39061 17.8612 9.3154 17.9212 9.30198 18.0026L9.25679 18.2717L9.18533 18.1742C8.96417 17.8718 8.47103 17.7708 7.97876 17.7708C6.84971 17.7708 5.88552 18.5761 5.69771 19.7059C5.60012 20.2693 5.73885 20.8081 6.07825 21.1839C6.38963 21.5294 6.83513 21.6734 7.36508 21.6734C8.2747 21.6734 8.77924 21.1225 8.77924 21.1225L8.73363 21.3899C8.71645 21.4922 8.80003 21.5838 8.90888 21.5838H9.82918C9.97557 21.5838 10.099 21.4839 10.1221 21.3479L10.6743 18.0546C10.6917 17.9533 10.6084 17.8612 10.4993 17.8612ZM9.07518 19.734C8.97659 20.2837 8.51333 20.6527 7.9226 20.6527C7.62594 20.6527 7.38876 20.5631 7.2366 20.3933C7.0856 20.2247 7.02814 19.9846 7.07621 19.7173C7.16832 19.1722 7.63937 18.7912 8.22114 18.7912C8.51117 18.7912 8.74705 18.8819 8.90238 19.0532C9.05801 19.2263 9.11979 19.4678 9.07518 19.734ZM14.9137 17.8611H15.9404C16.0842 17.8611 16.1681 18.013 16.0864 18.124L12.6718 22.7662C12.6165 22.8414 12.5254 22.8861 12.4281 22.8861H11.4027C11.2584 22.8861 11.1741 22.733 11.2576 22.6216L12.3209 21.2081L11.1901 18.0826C11.151 17.9739 11.2361 17.8611 11.3588 17.8611H12.3676C12.4987 17.8611 12.6143 17.9421 12.6522 18.0603L13.2523 19.948L14.6683 17.9836C14.7238 17.9069 14.8159 17.8611 14.9137 17.8611Z" fill="#253B80"/>
<path fill-rule="evenodd" clip-rule="evenodd" d="M26.0448 21.3909L26.9204 16.1441C26.9338 16.0627 27.0087 16.0027 27.0958 16.0024H28.0815C28.1903 16.0024 28.2739 16.0944 28.2567 16.1961L27.3933 21.3483C27.3708 21.4843 27.2466 21.5842 27.1004 21.5842H26.2201C26.1112 21.5842 26.0276 21.4926 26.0448 21.3909ZM19.3394 16.0027H17.2056C17.0599 16.0027 16.9358 16.1026 16.9129 16.2383L16.0501 21.3909C16.0329 21.4926 16.1165 21.5842 16.2255 21.5842H17.3203C17.4221 21.5842 17.5092 21.5143 17.525 21.4192L17.7699 19.9586C17.7924 19.8225 17.9168 19.7227 18.0625 19.7227H18.7375C20.1432 19.7227 20.9541 19.0822 21.1661 17.813C21.2618 17.2577 21.1699 16.8214 20.8939 16.5157C20.5908 16.1803 20.0534 16.0027 19.3394 16.0027ZM19.5855 17.8846C19.4692 18.6056 18.8842 18.6056 18.3183 18.6056H17.9967L18.2229 17.259C18.2363 17.1777 18.3105 17.1178 18.3981 17.1178H18.5457C18.9307 17.1178 19.2945 17.1178 19.4821 17.3246C19.5942 17.448 19.6282 17.6313 19.5855 17.8846ZM25.7161 17.8615H24.6952C24.6074 17.8615 24.5329 17.9215 24.5198 18.0029L24.4746 18.272L24.4028 18.1745C24.1817 17.8721 23.6888 17.7711 23.1966 17.7711C22.0675 17.7711 21.1036 18.5764 20.9158 19.7061C20.8185 20.2696 20.9566 20.8084 21.296 21.1842C21.608 21.5297 22.0529 21.6737 22.5829 21.6737C23.4925 21.6737 23.9969 21.1228 23.9969 21.1228L23.9514 21.3902C23.9342 21.4924 24.0178 21.5841 24.1274 21.5841H25.0473C25.1929 21.5841 25.3171 21.4841 25.3399 21.3482L25.8924 18.0548C25.9093 17.9535 25.8257 17.8615 25.7161 17.8615ZM24.2921 19.7343C24.1941 20.284 23.7303 20.653 23.1394 20.653C22.8433 20.653 22.6057 20.5634 22.4534 20.3936C22.3024 20.225 22.2456 19.9849 22.2931 19.7176C22.3857 19.1725 22.8562 18.7915 23.4379 18.7915C23.7281 18.7915 23.9638 18.8822 24.1193 19.0535C24.2755 19.2266 24.3373 19.4681 24.2921 19.7343Z" fill="#179BD7"/>
<path d="M12.0172 14.1592L12.2795 12.5902L11.6953 12.5774H8.90552L10.8443 0.999142C10.8502 0.964186 10.8698 0.931595 10.8984 0.908454C10.927 0.885312 10.9637 0.872559 11.0018 0.872559H15.7058C17.2675 0.872559 18.3452 1.17863 18.9079 1.78274C19.1716 2.06614 19.3397 2.36229 19.4209 2.6882C19.5061 3.03018 19.5077 3.43874 19.4244 3.93705L19.4183 3.97342V4.29271L19.6822 4.43347C19.9044 4.54446 20.0808 4.67152 20.2162 4.817C20.442 5.05931 20.588 5.36727 20.6496 5.73238C20.7133 6.10789 20.6922 6.55471 20.588 7.06058C20.4676 7.6425 20.273 8.14931 20.0102 8.56402C19.7684 8.94613 19.4605 9.263 19.095 9.50869C18.7459 9.742 18.3312 9.91917 17.8623 10.0326C17.4078 10.1439 16.8899 10.2002 16.3216 10.2002H15.9555C15.6938 10.2002 15.4395 10.289 15.2399 10.4482C15.0399 10.6107 14.9073 10.8326 14.8668 11.0754L14.8392 11.2167L14.3758 13.9821L14.3547 14.0836C14.3492 14.1159 14.3397 14.1319 14.3257 14.1428C14.3131 14.1526 14.2951 14.1592 14.2775 14.1592H12.0172Z" fill="#253B80"/>
<path d="M19.9322 4.01025C19.9182 4.0948 19.9021 4.18123 19.8841 4.27003C19.2636 7.26982 17.1414 8.30612 14.4307 8.30612H13.0506C12.7192 8.30612 12.4398 8.53282 12.3881 8.84078L11.6815 13.0616L11.4814 14.258C11.4478 14.4601 11.6134 14.6425 11.8299 14.6425H14.2778C14.5677 14.6425 14.8138 14.4441 14.8595 14.1749L14.8836 14.0577L15.3445 11.303L15.3741 11.152C15.4191 10.8818 15.6659 10.6834 15.9557 10.6834H16.3218C18.6934 10.6834 20.55 9.77654 21.0927 7.1522C21.3193 6.05592 21.202 5.14055 20.6021 4.49675C20.4207 4.30262 20.1955 4.14156 19.9322 4.01025Z" fill="#179BD7"/>
<path d="M19.2828 3.76684C19.1881 3.74086 19.0902 3.71724 18.9899 3.69599C18.8891 3.67521 18.7858 3.65679 18.6795 3.64073C18.3074 3.58405 17.8997 3.55713 17.4629 3.55713H13.7759C13.6851 3.55713 13.5989 3.57649 13.5217 3.61145C13.3516 3.68843 13.2253 3.84006 13.1947 4.02568L12.4102 8.70461L12.3877 8.8411C12.4394 8.53314 12.7187 8.30642 13.0502 8.30642H14.4303C17.1409 8.30642 19.2633 7.26966 19.8837 4.27035C19.9021 4.18155 19.9177 4.09512 19.9317 4.01057C19.7748 3.93216 19.6047 3.86509 19.4217 3.80793C19.3767 3.79376 19.33 3.78007 19.2828 3.76684Z" fill="#222D65"/>
<path d="M13.1949 4.02565C13.2255 3.84001 13.352 3.6884 13.5219 3.61188C13.5997 3.57692 13.6854 3.55756 13.7761 3.55756H17.4632C17.9001 3.55756 18.3077 3.58448 18.6797 3.64116C18.7861 3.65722 18.8895 3.67564 18.9903 3.69642C19.0906 3.71768 19.1883 3.7413 19.2832 3.76727C19.3302 3.7805 19.3769 3.79419 19.4225 3.8079C19.6055 3.86504 19.7756 3.93259 19.9325 4.01053C20.1172 2.90196 19.9311 2.14718 19.2947 1.46371C18.5931 0.711289 17.3268 0.38916 15.7065 0.38916H11.0023C10.6713 0.38916 10.3891 0.615869 10.3378 0.924306L8.37856 12.6216C8.33987 12.853 8.52942 13.0619 8.77714 13.0619H11.6814L12.4106 8.70456L13.1949 4.02565Z" fill="#253B80"/>
</svg>
