<svg width="34" height="12" viewBox="0 0 34 12" fill="none" xmlns="http://www.w3.org/2000/svg">
<path fill-rule="evenodd" clip-rule="evenodd" d="M24.3737 0.430176C23.6138 0.430176 22.9966 1.02073 22.9966 1.74875C22.9966 2.4772 23.6138 3.06647 24.3737 3.06647C25.135 3.06647 25.7517 2.4772 25.7517 1.74875C25.7517 1.02073 25.135 0.430176 24.3737 0.430176ZM4.50825 4.84811C4.15514 4.82627 3.33703 4.77531 3.33703 4.07084C3.33703 3.22077 4.51407 3.22077 4.95579 3.22077C5.73273 3.22077 6.73791 3.44003 7.45667 3.64602C7.45667 3.64602 7.85677 3.78134 8.19735 3.91924L8.22913 3.92781V1.59942L8.18661 1.58701C7.33807 1.30308 6.35302 1.03028 4.52571 1.03028C1.37545 1.03028 0.259277 2.78567 0.259277 4.29096C0.259277 5.15773 0.647745 7.19962 4.25449 7.43472L4.25784 7.43492C4.56692 7.45304 5.37291 7.50031 5.37291 8.2257C5.37291 8.82696 4.7083 9.18069 3.59079 9.18069C2.36631 9.18069 1.17764 8.88263 0.456196 8.5987V10.996C1.53657 11.268 2.75478 11.4024 4.18244 11.4024C7.26154 11.4024 8.64176 9.74126 8.64176 8.09422C8.64176 6.22749 7.09818 5.01427 4.50825 4.84811ZM13.8055 3.81327L13.8197 3.77792H17.1181C17.0241 4.06527 16.4356 5.79925 15.0939 7.42744C15.0939 7.42744 16.5882 9.93312 16.9297 11.2924H13.476C13.476 11.2924 13.0634 9.48774 12.2283 8.28865V11.2924H9.3443V1.5763L12.2283 1.03028V6.39109C13.2502 5.2084 13.7055 4.0646 13.8055 3.81327ZM31.0358 11.2924V1.50864L33.8307 1.03028V11.2924H31.0358ZM21.4011 3.67631C18.8192 3.75597 17.5075 4.86513 17.5075 7.06974V11.2923H20.3252V7.8483C20.3252 6.52887 20.506 5.96315 22.1426 5.90919V3.71528C21.8674 3.65918 21.4011 3.67631 21.4011 3.67631ZM22.9774 11.292V3.78614H25.7719V11.292H22.9774ZM26.9561 1.50864L29.7492 1.03028V11.2924H26.9561V1.50864Z" fill="#862165"/>
</svg>
