<svg width="373" height="124" viewBox="0 0 373 124" fill="none" xmlns="http://www.w3.org/2000/svg">
<path d="M345.148 123.793H341.898C341.28 123.69 340.652 123.615 340.018 123.57H301.297H296.098C296.098 121.89 296.098 120.478 296.098 119.11C296.098 117.743 295.076 116.836 292.894 116.91C290.712 116.984 289.946 117.936 290.016 119.259C290.085 120.582 290.016 122.069 290.016 123.451H26.6353C26.7875 118.633 24.5706 113.905 20.298 109.938C15.516 105.746 8.69123 104.14 0.914704 103.769C0.814197 103.435 0.744444 103.097 0.705791 102.758C0.705791 101.093 0.705791 99.4278 0.705791 97.7629C0.643895 97.3886 0.805912 97.0133 1.15918 96.7126C1.51245 96.4119 2.03066 96.2081 2.60928 96.1425C7.25198 95.1168 9.34121 93.422 9.29478 90.5975C9.24835 87.773 6.97343 86.2121 2.51644 85.2607C1.86646 85.1269 0.868267 84.6809 0.868267 84.3538C0.705773 82.005 0.868267 79.6414 0.868267 77.3223C6.02166 76.698 8.99299 74.9735 9.38762 72.5207C9.92153 69.1164 7.92517 67.5109 0.868267 65.7418C0.868267 63.5863 0.868267 61.401 0.868267 59.2158C0.973801 58.9376 1.18313 58.6801 1.47829 58.4652C1.77344 58.2502 2.14563 58.0844 2.56288 57.9819C4.53288 57.7458 6.30174 57.0592 7.54016 56.0501C8.77859 55.041 9.40217 53.778 9.29478 52.4964C9.33048 51.2494 8.69797 50.0323 7.50262 49.0477C6.30727 48.0631 4.62123 47.3705 2.72535 47.0852C1.98252 46.9514 0.961118 46.3419 0.937905 45.9257C0.752197 43.6809 0.937905 41.4659 0.937905 39.2212C7.53054 37.9576 9.61978 36.3818 9.41085 32.9627C9.24836 30.2422 6.36986 28.3988 1.07718 27.6556V20.2226C4.79942 20.2859 8.49151 19.7793 11.8466 18.7451C15.2017 17.7109 18.123 16.1789 20.3676 14.2763C24.7469 10.3503 27.0047 5.61594 26.7977 0.792969H290.062V5.13381C290.062 6.42714 290.944 7.45287 293.033 7.4826C295.123 7.51233 296.214 6.48659 296.237 5.11893C296.26 3.75128 296.237 2.30928 296.237 0.88216H346.216C346.099 5.65368 348.306 10.33 352.53 14.2614C357.312 18.4685 364.136 20.0889 372.215 20.4754C372.215 22.4674 372.215 24.3702 372.215 26.2433C372.271 26.4573 372.26 26.6763 372.183 26.8875C372.105 27.0988 371.963 27.2981 371.764 27.4738C371.566 27.6495 371.314 27.7981 371.025 27.911C370.736 28.0239 370.414 28.0988 370.079 28.1313C368.092 28.3737 366.319 29.0831 365.108 30.1201C363.897 31.1572 363.335 32.4468 363.533 33.7357C363.565 34.9602 364.24 36.1422 365.448 37.0913C366.657 38.0405 368.329 38.7017 370.195 38.9684C370.915 39.1171 371.959 39.6077 371.982 39.9793C372.145 42.2687 371.982 44.5877 371.982 46.8325C366.434 47.6798 363.695 49.3746 363.463 52.0058C363.138 55.4398 365.018 56.8818 371.959 58.4427C371.959 60.628 371.959 62.9025 371.959 65.1323C371.849 65.3861 371.646 65.6194 371.368 65.8132C371.089 66.0071 370.743 66.1558 370.358 66.2473C365.715 67.1541 363.533 68.8339 363.533 71.6733C363.461 72.9542 364.104 74.2096 365.346 75.2147C366.588 76.2198 368.348 76.9089 370.311 77.1588C370.688 77.2512 371.028 77.3968 371.305 77.5846C371.582 77.7724 371.79 77.9978 371.913 78.244C372.052 80.5036 371.913 82.7037 371.913 84.9634C365.436 86.331 363.254 87.7879 363.486 90.9097C363.448 92.0873 364.01 93.2408 365.088 94.1951C367.129 95.3065 369.347 96.2781 371.704 97.0939V103.501C367.49 104.135 363.379 105.021 359.424 106.147C350.139 109.477 347.051 115.215 346.146 121.637C345.927 122.376 345.593 123.098 345.148 123.793ZM296.121 102.981C296.121 101.494 296.121 100.008 296.121 98.521C296.121 97.0345 295.169 96.2763 293.01 96.2614C290.851 96.2465 289.923 97.1533 289.923 98.4764C289.923 101.45 289.923 104.289 289.923 107.203C289.923 108.541 290.828 109.433 292.941 109.447C295.053 109.462 296.074 108.526 296.121 107.232C296.167 105.939 296.121 104.438 296.121 103.011V102.981ZM296.121 82.4808C296.121 81.1131 296.121 79.7603 296.121 78.3927C296.121 77.025 295.332 75.9695 293.033 75.9547C290.735 75.9398 289.923 76.9656 289.946 78.3481C289.946 81.128 289.946 83.9079 289.946 86.6878C289.946 88.0257 290.782 88.992 292.824 89.0515C294.867 89.1109 296.098 88.1298 296.121 86.7324C296.144 85.335 296.074 83.9228 296.074 82.5105L296.121 82.4808ZM289.969 62.2186C289.969 63.5863 289.969 64.9539 289.969 66.3067C289.969 67.6595 290.782 68.5961 292.848 68.6258C293.317 68.6485 293.788 68.6037 294.227 68.4947C294.666 68.3857 295.061 68.2152 295.384 67.9958C295.707 67.7763 295.949 67.5134 296.092 67.2263C296.236 66.9392 296.277 66.6351 296.214 66.3365C296.214 63.4822 296.214 60.6428 296.214 57.7886C296.214 56.5845 295.471 55.5736 293.405 55.6182C291.339 55.6628 289.83 56.1385 289.969 57.7589C290.109 59.3793 289.923 60.7618 289.923 62.2483L289.969 62.2186ZM296.167 41.7484C296.167 40.2618 296.167 38.7752 296.167 37.2886C296.167 35.8021 295.053 35.1033 292.964 35.1331C292.542 35.1266 292.124 35.1785 291.737 35.2852C291.35 35.392 291.003 35.551 290.721 35.7515C290.439 35.952 290.228 36.1892 290.102 36.4468C289.976 36.7044 289.939 36.9763 289.992 37.244C289.992 40.1478 289.992 43.0466 289.992 45.9405C289.992 47.2487 290.898 48.1407 293.033 48.1556C295.169 48.1704 296.121 47.2784 296.167 45.9851C296.214 44.6918 296.144 43.1904 296.121 41.8227L296.167 41.7484ZM289.969 21.1592C289.969 22.5268 289.969 23.8796 289.969 25.2473C289.969 26.615 290.573 27.8042 293.103 27.8042C295.633 27.8042 296.028 26.496 296.074 25.2919C296.074 22.5714 296.074 19.851 296.074 17.1306C296.074 15.9413 295.471 14.8561 293.08 14.8858C290.689 14.9155 290.016 15.9413 289.969 17.2495C289.923 18.5577 289.923 19.8807 289.923 21.1889L289.969 21.1592Z" fill="#220E4D"/>
<path d="M345.148 123.793H341.898C341.28 123.69 340.652 123.615 340.018 123.57H301.297H296.098C296.098 121.89 296.098 120.478 296.098 119.11C296.098 117.743 295.076 116.836 292.894 116.91C290.712 116.984 289.946 117.936 290.016 119.259C290.085 120.582 290.016 122.069 290.016 123.451H26.6353C26.7875 118.633 24.5706 113.905 20.298 109.938C15.516 105.746 8.69123 104.14 0.914704 103.769C0.814197 103.435 0.744444 103.097 0.705791 102.758C0.705791 101.093 0.705791 99.4278 0.705791 97.7629C0.643895 97.3886 0.805912 97.0133 1.15918 96.7126C1.51245 96.4119 2.03066 96.2081 2.60928 96.1425C7.25198 95.1168 9.34121 93.422 9.29478 90.5975C9.24835 87.773 6.97343 86.2121 2.51644 85.2607C1.86646 85.1269 0.868267 84.6809 0.868267 84.3538C0.705773 82.005 0.868267 79.6414 0.868267 77.3223C6.02166 76.698 8.99299 74.9735 9.38762 72.5207C9.92153 69.1164 7.92517 67.5109 0.868267 65.7418C0.868267 63.5863 0.868267 61.401 0.868267 59.2158C0.973801 58.9376 1.18313 58.6801 1.47829 58.4652C1.77344 58.2502 2.14563 58.0844 2.56288 57.9819C4.53288 57.7458 6.30174 57.0592 7.54016 56.0501C8.77859 55.041 9.40217 53.778 9.29478 52.4964C9.33048 51.2494 8.69797 50.0323 7.50262 49.0477C6.30727 48.0631 4.62123 47.3705 2.72535 47.0852C1.98252 46.9514 0.961118 46.3419 0.937905 45.9257C0.752197 43.6809 0.937905 41.4659 0.937905 39.2212C7.53054 37.9576 9.61978 36.3818 9.41085 32.9627C9.24836 30.2422 6.36986 28.3988 1.07718 27.6556V20.2226C4.79942 20.2859 8.49151 19.7793 11.8466 18.7451C15.2017 17.7109 18.123 16.1789 20.3676 14.2763C24.7469 10.3503 27.0047 5.61594 26.7977 0.792969H290.062V5.13381C290.062 6.42714 290.944 7.45287 293.033 7.4826C295.123 7.51233 296.214 6.48659 296.237 5.11893C296.26 3.75128 296.237 2.30928 296.237 0.88216H346.216C346.099 5.65368 348.306 10.33 352.53 14.2614C357.312 18.4685 364.136 20.0889 372.215 20.4754C372.215 22.4674 372.215 24.3702 372.215 26.2433C372.271 26.4573 372.26 26.6763 372.183 26.8875C372.105 27.0988 371.963 27.2981 371.764 27.4738C371.566 27.6495 371.314 27.7981 371.025 27.911C370.736 28.0239 370.414 28.0988 370.079 28.1313C368.092 28.3737 366.319 29.0831 365.108 30.1201C363.897 31.1572 363.335 32.4468 363.533 33.7357C363.565 34.9602 364.24 36.1422 365.448 37.0913C366.657 38.0405 368.329 38.7017 370.195 38.9684C370.915 39.1171 371.959 39.6077 371.982 39.9793C372.145 42.2687 371.982 44.5877 371.982 46.8325C366.434 47.6798 363.695 49.3746 363.463 52.0058C363.138 55.4398 365.018 56.8818 371.959 58.4427C371.959 60.628 371.959 62.9025 371.959 65.1323C371.849 65.3861 371.646 65.6194 371.368 65.8132C371.089 66.0071 370.743 66.1558 370.358 66.2473C365.715 67.1541 363.533 68.8339 363.533 71.6733C363.461 72.9542 364.104 74.2096 365.346 75.2147C366.588 76.2198 368.348 76.9089 370.311 77.1588C370.688 77.2512 371.028 77.3968 371.305 77.5846C371.582 77.7724 371.79 77.9978 371.913 78.244C372.052 80.5036 371.913 82.7037 371.913 84.9634C365.436 86.331 363.254 87.7879 363.486 90.9097C363.448 92.0873 364.01 93.2408 365.088 94.1951C367.129 95.3065 369.347 96.2781 371.704 97.0939V103.501C367.49 104.135 363.379 105.021 359.424 106.147C350.139 109.477 347.051 115.215 346.146 121.637C345.927 122.376 345.593 123.098 345.148 123.793ZM296.121 102.981C296.121 101.494 296.121 100.008 296.121 98.521C296.121 97.0345 295.169 96.2763 293.01 96.2614C290.851 96.2465 289.923 97.1533 289.923 98.4764C289.923 101.45 289.923 104.289 289.923 107.203C289.923 108.541 290.828 109.433 292.941 109.447C295.053 109.462 296.074 108.526 296.121 107.232C296.167 105.939 296.121 104.438 296.121 103.011V102.981ZM296.121 82.4808C296.121 81.1131 296.121 79.7603 296.121 78.3927C296.121 77.025 295.332 75.9695 293.033 75.9547C290.735 75.9398 289.923 76.9656 289.946 78.3481C289.946 81.128 289.946 83.9079 289.946 86.6878C289.946 88.0257 290.782 88.992 292.824 89.0515C294.867 89.1109 296.098 88.1298 296.121 86.7324C296.144 85.335 296.074 83.9228 296.074 82.5105L296.121 82.4808ZM289.969 62.2186C289.969 63.5863 289.969 64.9539 289.969 66.3067C289.969 67.6595 290.782 68.5961 292.848 68.6258C293.317 68.6485 293.788 68.6037 294.227 68.4947C294.666 68.3857 295.061 68.2152 295.384 67.9958C295.707 67.7763 295.949 67.5134 296.092 67.2263C296.236 66.9392 296.277 66.6351 296.214 66.3365C296.214 63.4822 296.214 60.6428 296.214 57.7886C296.214 56.5845 295.471 55.5736 293.405 55.6182C291.339 55.6628 289.83 56.1385 289.969 57.7589C290.109 59.3793 289.923 60.7618 289.923 62.2483L289.969 62.2186ZM296.167 41.7484C296.167 40.2618 296.167 38.7752 296.167 37.2886C296.167 35.8021 295.053 35.1033 292.964 35.1331C292.542 35.1266 292.124 35.1785 291.737 35.2852C291.35 35.392 291.003 35.551 290.721 35.7515C290.439 35.952 290.228 36.1892 290.102 36.4468C289.976 36.7044 289.939 36.9763 289.992 37.244C289.992 40.1478 289.992 43.0466 289.992 45.9405C289.992 47.2487 290.898 48.1407 293.033 48.1556C295.169 48.1704 296.121 47.2784 296.167 45.9851C296.214 44.6918 296.144 43.1904 296.121 41.8227L296.167 41.7484ZM289.969 21.1592C289.969 22.5268 289.969 23.8796 289.969 25.2473C289.969 26.615 290.573 27.8042 293.103 27.8042C295.633 27.8042 296.028 26.496 296.074 25.2919C296.074 22.5714 296.074 19.851 296.074 17.1306C296.074 15.9413 295.471 14.8561 293.08 14.8858C290.689 14.9155 290.016 15.9413 289.969 17.2495C289.923 18.5577 289.923 19.8807 289.923 21.1889L289.969 21.1592Z" fill="url(#paint0_linear_48_34)" fill-opacity="0.2"/>
<path d="M345.148 123.793H341.898C341.28 123.69 340.652 123.615 340.018 123.57H301.297H296.098C296.098 121.89 296.098 120.478 296.098 119.11C296.098 117.743 295.076 116.836 292.894 116.91C290.712 116.984 289.946 117.936 290.016 119.259C290.085 120.582 290.016 122.069 290.016 123.451H26.6353C26.7875 118.633 24.5706 113.905 20.298 109.938C15.516 105.746 8.69123 104.14 0.914704 103.769C0.814197 103.435 0.744444 103.097 0.705791 102.758C0.705791 101.093 0.705791 99.4278 0.705791 97.7629C0.643895 97.3886 0.805912 97.0133 1.15918 96.7126C1.51245 96.4119 2.03066 96.2081 2.60928 96.1425C7.25198 95.1168 9.34121 93.422 9.29478 90.5975C9.24835 87.773 6.97343 86.2121 2.51644 85.2607C1.86646 85.1269 0.868267 84.6809 0.868267 84.3538C0.705773 82.005 0.868267 79.6414 0.868267 77.3223C6.02166 76.698 8.99299 74.9735 9.38762 72.5207C9.92153 69.1164 7.92517 67.5109 0.868267 65.7418C0.868267 63.5863 0.868267 61.401 0.868267 59.2158C0.973801 58.9376 1.18313 58.6801 1.47829 58.4652C1.77344 58.2502 2.14563 58.0844 2.56288 57.9819C4.53288 57.7458 6.30174 57.0592 7.54016 56.0501C8.77859 55.041 9.40217 53.778 9.29478 52.4964C9.33048 51.2494 8.69797 50.0323 7.50262 49.0477C6.30727 48.0631 4.62123 47.3705 2.72535 47.0852C1.98252 46.9514 0.961118 46.3419 0.937905 45.9257C0.752197 43.6809 0.937905 41.4659 0.937905 39.2212C7.53054 37.9576 9.61978 36.3818 9.41085 32.9627C9.24836 30.2422 6.36986 28.3988 1.07718 27.6556V20.2226C4.79942 20.2859 8.49151 19.7793 11.8466 18.7451C15.2017 17.7109 18.123 16.1789 20.3676 14.2763C24.7469 10.3503 27.0047 5.61594 26.7977 0.792969H290.062V5.13381C290.062 6.42714 290.944 7.45287 293.033 7.4826C295.123 7.51233 296.214 6.48659 296.237 5.11893C296.26 3.75128 296.237 2.30928 296.237 0.88216H346.216C346.099 5.65368 348.306 10.33 352.53 14.2614C357.312 18.4685 364.136 20.0889 372.215 20.4754C372.215 22.4674 372.215 24.3702 372.215 26.2433C372.271 26.4573 372.26 26.6763 372.183 26.8875C372.105 27.0988 371.963 27.2981 371.764 27.4738C371.566 27.6495 371.314 27.7981 371.025 27.911C370.736 28.0239 370.414 28.0988 370.079 28.1313C368.092 28.3737 366.319 29.0831 365.108 30.1201C363.897 31.1572 363.335 32.4468 363.533 33.7357C363.565 34.9602 364.24 36.1422 365.448 37.0913C366.657 38.0405 368.329 38.7017 370.195 38.9684C370.915 39.1171 371.959 39.6077 371.982 39.9793C372.145 42.2687 371.982 44.5877 371.982 46.8325C366.434 47.6798 363.695 49.3746 363.463 52.0058C363.138 55.4398 365.018 56.8818 371.959 58.4427C371.959 60.628 371.959 62.9025 371.959 65.1323C371.849 65.3861 371.646 65.6194 371.368 65.8132C371.089 66.0071 370.743 66.1558 370.358 66.2473C365.715 67.1541 363.533 68.8339 363.533 71.6733C363.461 72.9542 364.104 74.2096 365.346 75.2147C366.588 76.2198 368.348 76.9089 370.311 77.1588C370.688 77.2512 371.028 77.3968 371.305 77.5846C371.582 77.7724 371.79 77.9978 371.913 78.244C372.052 80.5036 371.913 82.7037 371.913 84.9634C365.436 86.331 363.254 87.7879 363.486 90.9097C363.448 92.0873 364.01 93.2408 365.088 94.1951C367.129 95.3065 369.347 96.2781 371.704 97.0939V103.501C367.49 104.135 363.379 105.021 359.424 106.147C350.139 109.477 347.051 115.215 346.146 121.637C345.927 122.376 345.593 123.098 345.148 123.793ZM296.121 102.981C296.121 101.494 296.121 100.008 296.121 98.521C296.121 97.0345 295.169 96.2763 293.01 96.2614C290.851 96.2465 289.923 97.1533 289.923 98.4764C289.923 101.45 289.923 104.289 289.923 107.203C289.923 108.541 290.828 109.433 292.941 109.447C295.053 109.462 296.074 108.526 296.121 107.232C296.167 105.939 296.121 104.438 296.121 103.011V102.981ZM296.121 82.4808C296.121 81.1131 296.121 79.7603 296.121 78.3927C296.121 77.025 295.332 75.9695 293.033 75.9547C290.735 75.9398 289.923 76.9656 289.946 78.3481C289.946 81.128 289.946 83.9079 289.946 86.6878C289.946 88.0257 290.782 88.992 292.824 89.0515C294.867 89.1109 296.098 88.1298 296.121 86.7324C296.144 85.335 296.074 83.9228 296.074 82.5105L296.121 82.4808ZM289.969 62.2186C289.969 63.5863 289.969 64.9539 289.969 66.3067C289.969 67.6595 290.782 68.5961 292.848 68.6258C293.317 68.6485 293.788 68.6037 294.227 68.4947C294.666 68.3857 295.061 68.2152 295.384 67.9958C295.707 67.7763 295.949 67.5134 296.092 67.2263C296.236 66.9392 296.277 66.6351 296.214 66.3365C296.214 63.4822 296.214 60.6428 296.214 57.7886C296.214 56.5845 295.471 55.5736 293.405 55.6182C291.339 55.6628 289.83 56.1385 289.969 57.7589C290.109 59.3793 289.923 60.7618 289.923 62.2483L289.969 62.2186ZM296.167 41.7484C296.167 40.2618 296.167 38.7752 296.167 37.2886C296.167 35.8021 295.053 35.1033 292.964 35.1331C292.542 35.1266 292.124 35.1785 291.737 35.2852C291.35 35.392 291.003 35.551 290.721 35.7515C290.439 35.952 290.228 36.1892 290.102 36.4468C289.976 36.7044 289.939 36.9763 289.992 37.244C289.992 40.1478 289.992 43.0466 289.992 45.9405C289.992 47.2487 290.898 48.1407 293.033 48.1556C295.169 48.1704 296.121 47.2784 296.167 45.9851C296.214 44.6918 296.144 43.1904 296.121 41.8227L296.167 41.7484ZM289.969 21.1592C289.969 22.5268 289.969 23.8796 289.969 25.2473C289.969 26.615 290.573 27.8042 293.103 27.8042C295.633 27.8042 296.028 26.496 296.074 25.2919C296.074 22.5714 296.074 19.851 296.074 17.1306C296.074 15.9413 295.471 14.8561 293.08 14.8858C290.689 14.9155 290.016 15.9413 289.969 17.2495C289.923 18.5577 289.923 19.8807 289.923 21.1889L289.969 21.1592Z" fill="#9C9C9C" fill-opacity="0.2"/>
<path d="M72.6455 63.3621V53.9075H76.3756C77.0927 53.9075 77.7036 54.0445 78.2083 54.3184C78.7131 54.5892 79.0978 54.9662 79.3624 55.4494C79.6302 55.9295 79.7641 56.4835 79.7641 57.1114C79.7641 57.7392 79.6287 58.2932 79.3578 58.7733C79.087 59.2534 78.6946 59.6273 78.1806 59.8951C77.6697 60.1628 77.0511 60.2967 76.3248 60.2967H73.9473V58.6948H76.0016C76.3863 58.6948 76.7033 58.6286 76.9526 58.4963C77.205 58.3609 77.3927 58.1747 77.5158 57.9377C77.642 57.6976 77.7051 57.4222 77.7051 57.1114C77.7051 56.7974 77.642 56.5235 77.5158 56.2896C77.3927 56.0526 77.205 55.8695 76.9526 55.7403C76.7003 55.6079 76.3802 55.5417 75.9924 55.5417H74.6444V63.3621H72.6455ZM81.0625 63.3621V53.9075H84.7926C85.5066 53.9075 86.116 54.0352 86.6207 54.2907C87.1285 54.543 87.5148 54.9016 87.7794 55.3663C88.0472 55.828 88.1811 56.3712 88.1811 56.9959C88.1811 57.6238 88.0456 58.1639 87.7748 58.6163C87.504 59.0657 87.1116 59.4104 86.5976 59.6504C86.0867 59.8905 85.4681 60.0105 84.7418 60.0105H82.2443V58.404H84.4186C84.8003 58.404 85.1173 58.3516 85.3696 58.247C85.622 58.1424 85.8097 57.9854 85.9328 57.7761C86.059 57.5668 86.1221 57.3068 86.1221 56.9959C86.1221 56.682 86.059 56.4173 85.9328 56.2019C85.8097 55.9865 85.6205 55.8234 85.365 55.7126C85.1126 55.5987 84.7941 55.5417 84.4094 55.5417H83.0614V63.3621H81.0625ZM86.1683 59.0595L88.5181 63.3621H86.3114L84.0124 59.0595H86.1683ZM98.2819 58.6348C98.2819 59.6658 98.0865 60.5429 97.6956 61.2662C97.3078 61.9894 96.7785 62.5419 96.1076 62.9235C95.4397 63.302 94.6888 63.4913 93.8547 63.4913C93.0145 63.4913 92.2605 63.3005 91.5926 62.9189C90.9248 62.5372 90.397 61.9848 90.0092 61.2616C89.6214 60.5383 89.4275 59.6627 89.4275 58.6348C89.4275 57.6038 89.6214 56.7266 90.0092 56.0034C90.397 55.2801 90.9248 54.7292 91.5926 54.3507C92.2605 53.9691 93.0145 53.7783 93.8547 53.7783C94.6888 53.7783 95.4397 53.9691 96.1076 54.3507C96.7785 54.7292 97.3078 55.2801 97.6956 56.0034C98.0865 56.7266 98.2819 57.6038 98.2819 58.6348ZM96.2553 58.6348C96.2553 57.9669 96.1553 57.4037 95.9552 56.9452C95.7582 56.4866 95.4797 56.1388 95.1196 55.9018C94.7595 55.6649 94.3379 55.5464 93.8547 55.5464C93.3715 55.5464 92.9499 55.6649 92.5898 55.9018C92.2297 56.1388 91.9496 56.4866 91.7496 56.9452C91.5526 57.4037 91.4541 57.9669 91.4541 58.6348C91.4541 59.3026 91.5526 59.8658 91.7496 60.3244C91.9496 60.783 92.2297 61.1308 92.5898 61.3677C92.9499 61.6047 93.3715 61.7232 93.8547 61.7232C94.3379 61.7232 94.7595 61.6047 95.1196 61.3677C95.4797 61.1308 95.7582 60.783 95.9552 60.3244C96.1553 59.8658 96.2553 59.3026 96.2553 58.6348ZM99.7627 53.9075H102.228L104.832 60.2598H104.942L107.546 53.9075H110.011V63.3621H108.072V57.2083H107.994L105.547 63.3159H104.227L101.78 57.1852H101.702V63.3621H99.7627V53.9075ZM120.346 58.6348C120.346 59.6658 120.151 60.5429 119.76 61.2662C119.372 61.9894 118.843 62.5419 118.172 62.9235C117.504 63.302 116.753 63.4913 115.919 63.4913C115.079 63.4913 114.325 63.3005 113.657 62.9189C112.989 62.5372 112.461 61.9848 112.074 61.2616C111.686 60.5383 111.492 59.6627 111.492 58.6348C111.492 57.6038 111.686 56.7266 112.074 56.0034C112.461 55.2801 112.989 54.7292 113.657 54.3507C114.325 53.9691 115.079 53.7783 115.919 53.7783C116.753 53.7783 117.504 53.9691 118.172 54.3507C118.843 54.7292 119.372 55.2801 119.76 56.0034C120.151 56.7266 120.346 57.6038 120.346 58.6348ZM118.32 58.6348C118.32 57.9669 118.22 57.4037 118.02 56.9452C117.823 56.4866 117.544 56.1388 117.184 55.9018C116.824 55.6649 116.402 55.5464 115.919 55.5464C115.436 55.5464 115.014 55.6649 114.654 55.9018C114.294 56.1388 114.014 56.4866 113.814 56.9452C113.617 57.4037 113.519 57.9669 113.519 58.6348C113.519 59.3026 113.617 59.8658 113.814 60.3244C114.014 60.783 114.294 61.1308 114.654 61.3677C115.014 61.6047 115.436 61.7232 115.919 61.7232C116.402 61.7232 116.824 61.6047 117.184 61.3677C117.544 61.1308 117.823 60.783 118.02 60.3244C118.22 59.8658 118.32 59.3026 118.32 58.6348ZM133.178 57.2175H131.156C131.119 56.9559 131.044 56.7236 130.93 56.5204C130.816 56.3142 130.67 56.1388 130.491 55.9942C130.313 55.8495 130.106 55.7387 129.872 55.6618C129.642 55.5848 129.391 55.5464 129.12 55.5464C128.631 55.5464 128.204 55.6679 127.841 55.9111C127.478 56.1511 127.196 56.502 126.996 56.9636C126.796 57.4222 126.696 57.9792 126.696 58.6348C126.696 59.3088 126.796 59.8751 126.996 60.3337C127.2 60.7922 127.483 61.1385 127.846 61.3724C128.209 61.6063 128.629 61.7232 129.106 61.7232C129.374 61.7232 129.622 61.6878 129.849 61.617C130.08 61.5462 130.285 61.4431 130.463 61.3077C130.642 61.1692 130.79 61.0015 130.907 60.8045C131.027 60.6076 131.11 60.3829 131.156 60.1305L133.178 60.1398C133.126 60.5737 132.995 60.9923 132.785 61.3954C132.579 61.7955 132.301 62.1541 131.95 62.4711C131.602 62.785 131.187 63.0343 130.703 63.2189C130.223 63.4005 129.68 63.4913 129.074 63.4913C128.231 63.4913 127.477 63.3005 126.812 62.9189C126.15 62.5372 125.627 61.9848 125.242 61.2616C124.861 60.5383 124.67 59.6627 124.67 58.6348C124.67 57.6038 124.864 56.7266 125.251 56.0034C125.639 55.2801 126.165 54.7292 126.83 54.3507C127.495 53.9691 128.243 53.7783 129.074 53.7783C129.622 53.7783 130.129 53.8552 130.597 54.0091C131.068 54.163 131.485 54.3876 131.848 54.6831C132.211 54.9755 132.507 55.334 132.735 55.7587C132.966 56.1834 133.113 56.6697 133.178 57.2175ZM143.299 58.6348C143.299 59.6658 143.104 60.5429 142.713 61.2662C142.325 61.9894 141.796 62.5419 141.125 62.9235C140.457 63.302 139.706 63.4913 138.872 63.4913C138.032 63.4913 137.278 63.3005 136.61 62.9189C135.942 62.5372 135.415 61.9848 135.027 61.2616C134.639 60.5383 134.445 59.6627 134.445 58.6348C134.445 57.6038 134.639 56.7266 135.027 56.0034C135.415 55.2801 135.942 54.7292 136.61 54.3507C137.278 53.9691 138.032 53.7783 138.872 53.7783C139.706 53.7783 140.457 53.9691 141.125 54.3507C141.796 54.7292 142.325 55.2801 142.713 56.0034C143.104 56.7266 143.299 57.6038 143.299 58.6348ZM141.273 58.6348C141.273 57.9669 141.173 57.4037 140.973 56.9452C140.776 56.4866 140.497 56.1388 140.137 55.9018C139.777 55.6649 139.355 55.5464 138.872 55.5464C138.389 55.5464 137.967 55.6649 137.607 55.9018C137.247 56.1388 136.967 56.4866 136.767 56.9452C136.57 57.4037 136.472 57.9669 136.472 58.6348C136.472 59.3026 136.57 59.8658 136.767 60.3244C136.967 60.783 137.247 61.1308 137.607 61.3677C137.967 61.6047 138.389 61.7232 138.872 61.7232C139.355 61.7232 139.777 61.6047 140.137 61.3677C140.497 61.1308 140.776 60.783 140.973 60.3244C141.173 59.8658 141.273 59.3026 141.273 58.6348ZM148.132 63.3621H144.78V53.9075H148.159C149.11 53.9075 149.929 54.0968 150.615 54.4753C151.302 54.8508 151.83 55.3909 152.199 56.0957C152.571 56.8005 152.758 57.6438 152.758 58.6256C152.758 59.6104 152.571 60.4568 152.199 61.1646C151.83 61.8725 151.299 62.4157 150.606 62.7942C149.917 63.1728 149.092 63.3621 148.132 63.3621ZM146.779 61.6493H148.049C148.64 61.6493 149.137 61.5447 149.54 61.3354C149.946 61.1231 150.251 60.7953 150.454 60.3521C150.66 59.9059 150.763 59.3303 150.763 58.6256C150.763 57.9269 150.66 57.356 150.454 56.9128C150.251 56.4697 149.948 56.1434 149.544 55.9341C149.141 55.7249 148.644 55.6202 148.053 55.6202H146.779V61.6493ZM154.238 63.3621V53.9075H160.609V55.5556H156.237V57.8084H160.281V59.4565H156.237V61.714H160.627V63.3621H154.238ZM169.845 63.3621H167.703L170.967 53.9075H173.543L176.802 63.3621H174.66L172.292 56.068H172.218L169.845 63.3621ZM169.712 59.6458H174.771V61.2062H169.712V59.6458ZM178.468 53.9075L180.753 61.0908H180.841L183.13 53.9075H185.346L182.087 63.3621H179.511L176.247 53.9075H178.468ZM186.857 63.3621H184.715L187.979 53.9075H190.555L193.814 63.3621H191.672L189.304 56.068H189.23L186.857 63.3621ZM186.723 59.6458H191.783V61.2062H186.723V59.6458ZM196.951 53.9075V63.3621H194.952V53.9075H196.951ZM198.596 63.3621V53.9075H200.595V61.714H204.648V63.3621H198.596ZM207.842 63.3621H205.7L208.964 53.9075H211.54L214.799 63.3621H212.657L210.289 56.068H210.215L207.842 63.3621ZM207.709 59.6458H212.768V61.2062H207.709V59.6458ZM215.937 63.3621V53.9075H219.723C220.419 53.9075 220.999 54.0106 221.463 54.2168C221.928 54.423 222.277 54.7092 222.511 55.0755C222.745 55.4386 222.862 55.8572 222.862 56.3312C222.862 56.7005 222.788 57.0252 222.641 57.3052C222.493 57.5822 222.29 57.81 222.031 57.9885C221.776 58.1639 221.483 58.2886 221.154 58.3624V58.4547C221.514 58.4701 221.851 58.5717 222.165 58.7594C222.482 58.9472 222.739 59.2103 222.936 59.5489C223.133 59.8843 223.231 60.2844 223.231 60.7491C223.231 61.2508 223.107 61.6986 222.858 62.0925C222.611 62.4834 222.247 62.7927 221.763 63.0204C221.28 63.2482 220.685 63.3621 219.977 63.3621H215.937ZM217.936 61.7278H219.566C220.123 61.7278 220.529 61.6216 220.785 61.4093C221.04 61.1939 221.168 60.9076 221.168 60.5506C221.168 60.289 221.105 60.0582 220.979 59.8582C220.852 59.6581 220.672 59.5011 220.439 59.3873C220.208 59.2734 219.932 59.2165 219.612 59.2165H217.936V61.7278ZM217.936 57.8638H219.418C219.692 57.8638 219.935 57.8161 220.148 57.7207C220.363 57.6222 220.532 57.4837 220.655 57.3052C220.782 57.1267 220.845 56.9128 220.845 56.6636C220.845 56.3219 220.723 56.0465 220.48 55.8372C220.24 55.6279 219.898 55.5233 219.455 55.5233H217.936V57.8638ZM224.532 63.3621V53.9075H226.531V61.714H230.584V63.3621H224.532ZM231.908 63.3621V53.9075H238.279V55.5556H233.907V57.8084H237.951V59.4565H233.907V61.714H238.297V63.3621H231.908Z" fill="#BFBBBB"/>
<path d="M97.3717 76.3725C96.9474 76.3725 96.5696 76.2996 96.2381 76.1538C95.9086 76.006 95.6482 75.8034 95.4569 75.5458C95.2675 75.2863 95.17 74.9871 95.1643 74.6481H96.4029C96.4105 74.7901 96.4569 74.9151 96.5421 75.0231C96.6292 75.1291 96.7448 75.2115 96.8887 75.2702C97.0327 75.329 97.1946 75.3583 97.3745 75.3583C97.562 75.3583 97.7277 75.3252 97.8717 75.2589C98.0156 75.1926 98.1283 75.1007 98.2097 74.9833C98.2912 74.8659 98.3319 74.7305 98.3319 74.5771C98.3319 74.4218 98.2883 74.2844 98.2012 74.1651C98.116 74.0439 97.9929 73.9492 97.8319 73.881C97.6728 73.8129 97.4834 73.7788 97.2637 73.7788H96.7211V72.8754H97.2637C97.4493 72.8754 97.6131 72.8432 97.7552 72.7788C97.8991 72.7144 98.0109 72.6254 98.0904 72.5117C98.17 72.3962 98.2097 72.2617 98.2097 72.1083C98.2097 71.9625 98.1747 71.8346 98.1046 71.7248C98.0364 71.613 97.9399 71.5259 97.8149 71.4634C97.6917 71.4009 97.5478 71.3697 97.383 71.3697C97.2164 71.3697 97.0639 71.4 96.9256 71.4606C96.7874 71.5193 96.6766 71.6036 96.5933 71.7134C96.5099 71.8233 96.4654 71.9521 96.4597 72.0998H95.2808C95.2864 71.7646 95.3821 71.4691 95.5677 71.2134C95.7533 70.9577 96.0033 70.7579 96.3177 70.614C96.634 70.4682 96.991 70.3952 97.3887 70.3952C97.7902 70.3952 98.1416 70.4682 98.4427 70.614C98.7438 70.7598 98.9777 70.9568 99.1444 71.2049C99.313 71.4511 99.3963 71.7276 99.3944 72.0344C99.3963 72.3602 99.295 72.632 99.0904 72.8498C98.8878 73.0676 98.6236 73.2058 98.2978 73.2646V73.31C98.7258 73.3649 99.0516 73.5136 99.2751 73.756C99.5005 73.9966 99.6122 74.2977 99.6103 74.6594C99.6122 74.9909 99.5166 75.2854 99.3234 75.543C99.1321 75.8005 98.8679 76.0032 98.5308 76.1509C98.1936 76.2987 97.8073 76.3725 97.3717 76.3725ZM102.776 76.4208C102.287 76.4189 101.867 76.2987 101.514 76.06C101.164 75.8214 100.894 75.4757 100.705 75.0231C100.517 74.5704 100.424 74.0259 100.426 73.3896C100.426 72.7551 100.52 72.2144 100.708 71.7674C100.897 71.3204 101.167 70.9805 101.517 70.7475C101.87 70.5127 102.289 70.3952 102.776 70.3952C103.263 70.3952 103.681 70.5127 104.031 70.7475C104.384 70.9824 104.655 71.3233 104.844 71.7702C105.033 72.2153 105.127 72.7551 105.125 73.3896C105.125 74.0278 105.031 74.5733 104.841 75.0259C104.654 75.4786 104.385 75.8242 104.034 76.0629C103.684 76.3015 103.264 76.4208 102.776 76.4208ZM102.776 75.4009C103.109 75.4009 103.375 75.2333 103.574 74.8981C103.773 74.5629 103.871 74.06 103.87 73.3896C103.87 72.9483 103.824 72.5808 103.733 72.2873C103.644 71.9937 103.517 71.7731 103.352 71.6254C103.19 71.4776 102.997 71.4038 102.776 71.4038C102.444 71.4038 102.179 71.5695 101.98 71.9009C101.781 72.2324 101.681 72.7286 101.679 73.3896C101.679 73.8365 101.724 74.2096 101.813 74.5089C101.904 74.8062 102.031 75.0297 102.196 75.1793C102.361 75.3271 102.554 75.4009 102.776 75.4009ZM109.187 75.2021V74.8952C109.187 74.6623 109.236 74.4483 109.335 74.2532C109.435 74.0562 109.58 73.899 109.769 73.7816C109.961 73.6623 110.194 73.6026 110.468 73.6026C110.747 73.6026 110.981 73.6613 111.17 73.7788C111.361 73.8962 111.505 74.0534 111.602 74.2504C111.7 74.4454 111.75 74.6604 111.75 74.8952V75.2021C111.75 75.435 111.7 75.65 111.602 75.8469C111.503 76.042 111.358 76.1983 111.167 76.3157C110.976 76.435 110.743 76.4947 110.468 76.4947C110.19 76.4947 109.956 76.435 109.767 76.3157C109.577 76.1983 109.433 76.042 109.335 75.8469C109.236 75.65 109.187 75.435 109.187 75.2021ZM110.014 74.8952V75.2021C110.014 75.3365 110.046 75.4634 110.11 75.5827C110.177 75.7021 110.296 75.7617 110.468 75.7617C110.641 75.7617 110.758 75.703 110.821 75.5856C110.885 75.4682 110.917 75.3403 110.917 75.2021V74.8952C110.917 74.757 110.887 74.6282 110.826 74.5089C110.766 74.3896 110.646 74.3299 110.468 74.3299C110.298 74.3299 110.179 74.3896 110.113 74.5089C110.047 74.6282 110.014 74.757 110.014 74.8952ZM106.201 71.8725V71.5657C106.201 71.3308 106.251 71.1159 106.352 70.9208C106.452 70.7238 106.597 70.5666 106.786 70.4492C106.978 70.3318 107.209 70.2731 107.48 70.2731C107.76 70.2731 107.995 70.3318 108.184 70.4492C108.374 70.5666 108.518 70.7238 108.616 70.9208C108.714 71.1159 108.764 71.3308 108.764 71.5657V71.8725C108.764 72.1074 108.714 72.3223 108.613 72.5174C108.515 72.7125 108.37 72.8687 108.178 72.9862C107.989 73.1017 107.756 73.1594 107.48 73.1594C107.203 73.1594 106.969 73.1007 106.778 72.9833C106.589 72.864 106.445 72.7077 106.346 72.5146C106.25 72.3195 106.201 72.1055 106.201 71.8725ZM107.034 71.5657V71.8725C107.034 72.0108 107.066 72.1386 107.13 72.256C107.196 72.3735 107.313 72.4322 107.48 72.4322C107.654 72.4322 107.772 72.3735 107.835 72.256C107.899 72.1386 107.931 72.0108 107.931 71.8725V71.5657C107.931 71.4274 107.901 71.2987 107.84 71.1793C107.78 71.06 107.66 71.0004 107.48 71.0004C107.311 71.0004 107.195 71.061 107.13 71.1822C107.066 71.3034 107.034 71.4312 107.034 71.5657ZM106.576 76.293L110.576 70.4748H111.321L107.321 76.293H106.576ZM120.11 73.3839C120.11 74.0183 119.989 74.5581 119.749 75.0032C119.51 75.4483 119.184 75.7882 118.772 76.0231C118.361 76.256 117.898 76.3725 117.385 76.3725C116.868 76.3725 116.404 76.2551 115.993 76.0202C115.582 75.7854 115.257 75.4454 115.019 75.0004C114.78 74.5553 114.661 74.0165 114.661 73.3839C114.661 72.7494 114.78 72.2096 115.019 71.7646C115.257 71.3195 115.582 70.9805 115.993 70.7475C116.404 70.5127 116.868 70.3952 117.385 70.3952C117.898 70.3952 118.361 70.5127 118.772 70.7475C119.184 70.9805 119.51 71.3195 119.749 71.7646C119.989 72.2096 120.11 72.7494 120.11 73.3839ZM118.862 73.3839C118.862 72.9729 118.801 72.6263 118.678 72.3441C118.557 72.0619 118.385 71.8479 118.164 71.7021C117.942 71.5562 117.683 71.4833 117.385 71.4833C117.088 71.4833 116.828 71.5562 116.607 71.7021C116.385 71.8479 116.213 72.0619 116.09 72.3441C115.968 72.6263 115.908 72.9729 115.908 73.3839C115.908 73.7949 115.968 74.1415 116.09 74.4237C116.213 74.7058 116.385 74.9199 116.607 75.0657C116.828 75.2115 117.088 75.2844 117.385 75.2844C117.683 75.2844 117.942 75.2115 118.164 75.0657C118.385 74.9199 118.557 74.7058 118.678 74.4237C118.801 74.1415 118.862 73.7949 118.862 73.3839ZM121.021 76.293V70.4748H124.873V71.489H122.251V72.8754H124.617V73.8896H122.251V76.293H121.021ZM125.701 76.293V70.4748H129.553V71.489H126.931V72.8754H129.297V73.8896H126.931V76.293H125.701ZM132.232 76.293V70.4748H136.152V71.489H133.462V72.8754H135.951V73.8896H133.462V75.2788H136.164V76.293H132.232ZM138.181 70.4748L139.588 74.8952H139.642L141.051 70.4748H142.414L140.409 76.293H138.823L136.815 70.4748H138.181ZM143.115 76.293V70.4748H147.035V71.489H144.345V72.8754H146.833V73.8896H144.345V75.2788H147.046V76.293H143.115ZM148.013 76.293V70.4748H150.308C150.748 70.4748 151.123 70.5534 151.433 70.7106C151.746 70.8659 151.984 71.0865 152.147 71.3725C152.311 71.6566 152.394 71.9909 152.394 72.3754C152.394 72.7617 152.31 73.0941 152.144 73.3725C151.977 73.649 151.736 73.8612 151.419 74.0089C151.105 74.1566 150.724 74.2305 150.277 74.2305H148.74V73.2418H150.078C150.313 73.2418 150.508 73.2096 150.664 73.1452C150.819 73.0808 150.934 72.9843 151.01 72.8555C151.088 72.7267 151.127 72.5666 151.127 72.3754C151.127 72.1822 151.088 72.0193 151.01 71.8867C150.934 71.7541 150.818 71.6538 150.661 71.5856C150.505 71.5155 150.309 71.4805 150.073 71.4805H149.243V76.293H148.013ZM151.155 73.6452L152.601 76.293H151.243L149.828 73.6452H151.155ZM152.68 70.4748H154.058L155.384 72.9805H155.441L156.768 70.4748H158.146L156.024 74.2362V76.293H154.802V74.2362L152.68 70.4748ZM165.536 70.4748V76.293H164.473L161.942 72.631H161.899V76.293H160.669V70.4748H161.749L164.26 74.1339H164.311V70.4748H165.536ZM171.899 73.3839C171.899 74.0183 171.778 74.5581 171.538 75.0032C171.299 75.4483 170.973 75.7882 170.561 76.0231C170.15 76.256 169.687 76.3725 169.174 76.3725C168.657 76.3725 168.193 76.2551 167.782 76.0202C167.371 75.7854 167.046 75.4454 166.808 75.0004C166.569 74.5553 166.45 74.0165 166.45 73.3839C166.45 72.7494 166.569 72.2096 166.808 71.7646C167.046 71.3195 167.371 70.9805 167.782 70.7475C168.193 70.5127 168.657 70.3952 169.174 70.3952C169.687 70.3952 170.15 70.5127 170.561 70.7475C170.973 70.9805 171.299 71.3195 171.538 71.7646C171.778 72.2096 171.899 72.7494 171.899 73.3839ZM170.652 73.3839C170.652 72.9729 170.59 72.6263 170.467 72.3441C170.346 72.0619 170.174 71.8479 169.953 71.7021C169.731 71.5562 169.472 71.4833 169.174 71.4833C168.877 71.4833 168.617 71.5562 168.396 71.7021C168.174 71.8479 168.002 72.0619 167.879 72.3441C167.758 72.6263 167.697 72.9729 167.697 73.3839C167.697 73.7949 167.758 74.1415 167.879 74.4237C168.002 74.7058 168.174 74.9199 168.396 75.0657C168.617 75.2115 168.877 75.2844 169.174 75.2844C169.472 75.2844 169.731 75.2115 169.953 75.0657C170.174 74.9199 170.346 74.7058 170.467 74.4237C170.59 74.1415 170.652 73.7949 170.652 73.3839ZM173.533 70.4748L174.939 74.8952H174.993L176.402 70.4748H177.766L175.76 76.293H174.175L172.166 70.4748H173.533ZM178.466 76.293V70.4748H182.387V71.489H179.696V72.8754H182.185V73.8896H179.696V75.2788H182.398V76.293H178.466ZM183.365 70.4748H184.882L186.484 74.3839H186.552L188.154 70.4748H189.671V76.293H188.478V72.506H188.43L186.924 76.2646H186.112L184.606 72.4918H184.558V76.293H183.365V70.4748ZM190.685 76.293V70.4748H193.014C193.442 70.4748 193.799 70.5382 194.085 70.6651C194.371 70.792 194.586 70.9682 194.73 71.1935C194.874 71.417 194.946 71.6746 194.946 71.9663C194.946 72.1935 194.901 72.3933 194.81 72.5657C194.719 72.7362 194.594 72.8763 194.435 72.9862C194.278 73.0941 194.098 73.1708 193.895 73.2163V73.2731C194.117 73.2826 194.324 73.3451 194.517 73.4606C194.712 73.5761 194.87 73.738 194.992 73.9464C195.113 74.1528 195.174 74.399 195.174 74.685C195.174 74.9937 195.097 75.2693 194.943 75.5117C194.792 75.7522 194.567 75.9426 194.27 76.0827C193.973 76.2229 193.606 76.293 193.171 76.293H190.685ZM191.915 75.2873H192.918C193.261 75.2873 193.511 75.2219 193.668 75.0913C193.825 74.9587 193.904 74.7826 193.904 74.5629C193.904 74.4019 193.865 74.2598 193.787 74.1367C193.71 74.0136 193.599 73.917 193.455 73.8469C193.313 73.7769 193.143 73.7418 192.946 73.7418H191.915V75.2873ZM191.915 72.9094H192.827C192.995 72.9094 193.145 72.8801 193.276 72.8214C193.408 72.7608 193.513 72.6755 193.588 72.5657C193.666 72.4558 193.705 72.3242 193.705 72.1708C193.705 71.9606 193.63 71.7911 193.48 71.6623C193.333 71.5335 193.122 71.4691 192.85 71.4691H191.915V72.9094ZM195.974 76.293V70.4748H199.894V71.489H197.204V72.8754H199.693V73.8896H197.204V75.2788H199.906V76.293H195.974ZM200.872 76.293V70.4748H203.168C203.607 70.4748 203.982 70.5534 204.293 70.7106C204.605 70.8659 204.843 71.0865 205.006 71.3725C205.171 71.6566 205.253 71.9909 205.253 72.3754C205.253 72.7617 205.17 73.0941 205.003 73.3725C204.836 73.649 204.595 73.8612 204.279 74.0089C203.964 74.1566 203.584 74.2305 203.137 74.2305H201.6V73.2418H202.938C203.173 73.2418 203.368 73.2096 203.523 73.1452C203.678 73.0808 203.794 72.9843 203.87 72.8555C203.947 72.7267 203.986 72.5666 203.986 72.3754C203.986 72.1822 203.947 72.0193 203.87 71.8867C203.794 71.7541 203.677 71.6538 203.52 71.5856C203.365 71.5155 203.169 71.4805 202.932 71.4805H202.102V76.293H200.872ZM204.014 73.6452L205.46 76.293H204.102L202.688 73.6452H204.014ZM210.471 70.4748V76.293H209.241V71.6424H209.207L207.875 72.4776V71.3867L209.315 70.4748H210.471ZM211.766 75.2702V74.3015L214.195 70.4748H215.03V71.8157H214.536L213.004 74.239V74.2844H216.456V75.2702H211.766ZM214.558 76.293V74.9748L214.581 74.5458V70.4748H215.735V76.293H214.558Z" fill="#FF912B"/>
<path d="M62.431 115.02L63.2762 109.929H63.5869L63.1892 112.328H66.2567L66.6544 109.929H66.9651L66.12 115.02H65.8092L66.207 112.616H63.1395L62.7418 115.02H62.431ZM68.9121 115.099C68.5939 115.099 68.3247 115.014 68.1042 114.843C67.8855 114.671 67.7297 114.434 67.6369 114.132C67.5441 113.831 67.53 113.486 67.5947 113.098C67.6576 112.72 67.7819 112.385 67.9675 112.091C68.1548 111.796 68.3835 111.565 68.6536 111.398C68.9237 111.229 69.2137 111.144 69.5236 111.144C69.8435 111.144 70.1128 111.231 70.3315 111.405C70.5519 111.578 70.7085 111.815 70.8013 112.119C70.8941 112.42 70.9099 112.764 70.8486 113.15C70.7856 113.527 70.6596 113.862 70.4707 114.157C70.2835 114.45 70.0548 114.681 69.7846 114.848C69.5145 115.016 69.2237 115.099 68.9121 115.099ZM68.9171 114.818C69.1889 114.818 69.4391 114.742 69.6678 114.59C69.8965 114.437 70.0879 114.231 70.242 113.971C70.3978 113.71 70.5014 113.42 70.5528 113.098C70.6041 112.787 70.5967 112.505 70.5304 112.253C70.4641 111.999 70.3456 111.799 70.1749 111.651C70.0042 111.502 69.788 111.428 69.5261 111.428C69.256 111.428 69.0058 111.505 68.7754 111.659C68.5467 111.813 68.3545 112.02 68.1987 112.28C68.0429 112.54 67.9394 112.83 67.888 113.15C67.835 113.46 67.8416 113.742 67.9079 113.996C67.9758 114.247 68.0951 114.448 68.2658 114.597C68.4382 114.745 68.6553 114.818 68.9171 114.818ZM74.2522 113.665L74.6624 111.201H74.9657L74.3293 115.02H74.026L74.1304 114.401H74.1031C73.9838 114.598 73.8131 114.759 73.591 114.883C73.369 115.007 73.122 115.069 72.8503 115.069C72.6 115.069 72.3879 115.015 72.2139 114.905C72.0399 114.796 71.9148 114.641 71.8385 114.44C71.764 114.238 71.7499 113.998 71.7963 113.72L72.2164 111.201H72.5196L72.102 113.707C72.0507 114.025 72.1053 114.283 72.2661 114.48C72.4268 114.676 72.6605 114.774 72.9671 114.774C73.1659 114.774 73.3557 114.729 73.5363 114.639C73.7186 114.55 73.8736 114.422 74.0012 114.257C74.1304 114.089 74.2141 113.892 74.2522 113.665ZM78.5092 112.024L78.2183 112.094C78.1935 111.953 78.1487 111.833 78.0841 111.733C78.0195 111.632 77.93 111.555 77.8156 111.502C77.7029 111.448 77.5612 111.42 77.3906 111.42C77.1039 111.42 76.8594 111.491 76.6572 111.634C76.4551 111.777 76.3358 111.96 76.2993 112.186C76.2695 112.365 76.3043 112.512 76.4037 112.628C76.5031 112.744 76.6713 112.833 76.9083 112.894L77.4751 113.041C77.7634 113.116 77.9697 113.238 78.094 113.409C78.22 113.58 78.2622 113.788 78.2208 114.035C78.1877 114.246 78.1007 114.431 77.9598 114.592C77.8206 114.751 77.6433 114.875 77.4278 114.965C77.2124 115.054 76.9721 115.099 76.707 115.099C76.349 115.099 76.0689 115.016 75.8668 114.848C75.6646 114.679 75.556 114.438 75.5411 114.125L75.8419 114.065C75.8535 114.312 75.9347 114.5 76.0855 114.629C76.2363 114.757 76.4509 114.821 76.7293 114.821C77.0459 114.821 77.3135 114.745 77.5322 114.595C77.751 114.444 77.8794 114.252 77.9175 114.018C77.9457 113.844 77.9134 113.698 77.8206 113.58C77.7278 113.463 77.572 113.377 77.3533 113.322L76.7741 113.173C76.4725 113.095 76.2562 112.971 76.1253 112.8C75.996 112.627 75.9521 112.417 75.9935 112.168C76.0283 111.966 76.1112 111.788 76.2421 111.634C76.3747 111.48 76.5421 111.36 76.7443 111.274C76.9464 111.187 77.1693 111.144 77.4129 111.144C77.7394 111.144 77.9921 111.221 78.1711 111.375C78.3501 111.528 78.4628 111.744 78.5092 112.024ZM81.0925 111.201L81.0453 111.472H79.3798L79.4246 111.201H81.0925ZM80.138 110.287H80.4388L79.8074 114.117C79.7809 114.273 79.7891 114.401 79.8322 114.5C79.877 114.598 79.9441 114.671 80.0336 114.719C80.1247 114.765 80.2283 114.788 80.3443 114.788C80.3957 114.788 80.4421 114.784 80.4835 114.776C80.5249 114.766 80.5664 114.755 80.6078 114.744L80.6351 115.02C80.5838 115.038 80.5291 115.053 80.4711 115.064C80.4131 115.076 80.346 115.082 80.2697 115.082C80.1106 115.082 79.9665 115.046 79.8372 114.975C79.7096 114.904 79.6127 114.8 79.5464 114.664C79.4817 114.528 79.466 114.364 79.4991 114.172L80.138 110.287ZM82.9668 115.099C82.6486 115.099 82.3793 115.014 82.1589 114.843C81.9402 114.671 81.7844 114.434 81.6916 114.132C81.5988 113.831 81.5847 113.486 81.6493 113.098C81.7123 112.72 81.8366 112.385 82.0222 112.091C82.2095 111.796 82.4382 111.565 82.7083 111.398C82.9784 111.229 83.2684 111.144 83.5783 111.144C83.8982 111.144 84.1675 111.231 84.3862 111.405C84.6066 111.578 84.7632 111.815 84.856 112.119C84.9488 112.42 84.9646 112.764 84.9033 113.15C84.8403 113.527 84.7143 113.862 84.5254 114.157C84.3381 114.45 84.1095 114.681 83.8393 114.848C83.5692 115.016 83.2784 115.099 82.9668 115.099ZM82.9718 114.818C83.2436 114.818 83.4938 114.742 83.7225 114.59C83.9512 114.437 84.1426 114.231 84.2967 113.971C84.4525 113.71 84.5561 113.42 84.6074 113.098C84.6588 112.787 84.6514 112.505 84.5851 112.253C84.5188 111.999 84.4003 111.799 84.2296 111.651C84.0589 111.502 83.8426 111.428 83.5808 111.428C83.3107 111.428 83.0605 111.505 82.8301 111.659C82.6014 111.813 82.4092 112.02 82.2534 112.28C82.0976 112.54 81.994 112.83 81.9427 113.15C81.8896 113.46 81.8963 113.742 81.9626 113.996C82.0305 114.247 82.1498 114.448 82.3205 114.597C82.4929 114.745 82.71 114.818 82.9718 114.818ZM86.3481 112.544L85.938 115.02H85.6347L86.2711 111.201H86.5669L86.4674 111.806H86.4973C86.6166 111.608 86.7856 111.45 87.0044 111.331C87.2231 111.211 87.4684 111.152 87.7402 111.152C87.9954 111.152 88.2116 111.206 88.389 111.316C88.5663 111.425 88.6931 111.581 88.7693 111.783C88.8455 111.984 88.8604 112.223 88.814 112.502L88.3939 115.02H88.0907L88.5083 112.514C88.5613 112.189 88.5099 111.928 88.3542 111.731C88.2 111.532 87.9647 111.433 87.6482 111.433C87.4344 111.433 87.2356 111.479 87.0516 111.572C86.8693 111.665 86.716 111.795 86.5917 111.962C86.4674 112.128 86.3862 112.322 86.3481 112.544ZM90.748 109.929L90.4745 111.572H90.1862L90.4596 109.929H90.748ZM94.0473 112.024L93.7564 112.094C93.7316 111.953 93.6868 111.833 93.6222 111.733C93.5576 111.632 93.4681 111.555 93.3537 111.502C93.241 111.448 93.0993 111.42 92.9286 111.42C92.6419 111.42 92.3975 111.491 92.1953 111.634C91.9932 111.777 91.8738 111.96 91.8374 112.186C91.8076 112.365 91.8424 112.512 91.9418 112.628C92.0412 112.744 92.2094 112.833 92.4464 112.894L93.0132 113.041C93.3015 113.116 93.5078 113.238 93.6321 113.409C93.7581 113.58 93.8003 113.788 93.7589 114.035C93.7258 114.246 93.6388 114.431 93.4979 114.592C93.3587 114.751 93.1814 114.875 92.9659 114.965C92.7505 115.054 92.5102 115.099 92.2451 115.099C91.8871 115.099 91.607 115.016 91.4049 114.848C91.2027 114.679 91.0941 114.438 91.0792 114.125L91.38 114.065C91.3916 114.312 91.4728 114.5 91.6236 114.629C91.7744 114.757 91.989 114.821 92.2674 114.821C92.5839 114.821 92.8516 114.745 93.0703 114.595C93.2891 114.444 93.4175 114.252 93.4556 114.018C93.4838 113.844 93.4515 113.698 93.3587 113.58C93.2659 113.463 93.1101 113.377 92.8914 113.322L92.3122 113.173C92.0106 113.095 91.7943 112.971 91.6634 112.8C91.5341 112.627 91.4902 112.417 91.5316 112.168C91.5664 111.966 91.6493 111.788 91.7802 111.634C91.9128 111.48 92.0802 111.36 92.2823 111.274C92.4845 111.187 92.7074 111.144 92.951 111.144C93.2775 111.144 93.5302 111.221 93.7092 111.375C93.8882 111.528 94.0009 111.744 94.0473 112.024ZM98.6913 111.201L98.6466 111.472H96.9513L96.9985 111.201H98.6913ZM96.919 115.02L97.6523 110.607C97.6821 110.415 97.7517 110.251 97.8611 110.115C97.9721 109.979 98.1055 109.876 98.2613 109.804C98.4171 109.733 98.5787 109.698 98.746 109.698C98.8339 109.698 98.9068 109.704 98.9648 109.717C99.0228 109.731 99.0733 109.746 99.1164 109.762L98.9871 110.031C98.9507 110.021 98.9117 110.011 98.8703 110.001C98.8289 109.991 98.7775 109.986 98.7162 109.986C98.5256 109.986 98.3574 110.045 98.2116 110.162C98.0674 110.278 97.9779 110.442 97.9431 110.655L97.2173 115.02H96.919ZM99.9119 115.102C99.6915 115.102 99.4967 115.058 99.3277 114.97C99.1603 114.882 99.0352 114.754 98.9523 114.585C98.8695 114.416 98.8471 114.21 98.8852 113.968C98.9134 113.809 98.9656 113.669 99.0418 113.548C99.1181 113.427 99.2225 113.323 99.355 113.235C99.4876 113.147 99.65 113.075 99.8423 113.019C100.036 112.961 100.262 112.916 100.521 112.884C100.72 112.861 100.897 112.838 101.053 112.815C101.209 112.792 101.335 112.756 101.431 112.708C101.527 112.66 101.583 112.588 101.6 112.492L101.625 112.333C101.671 112.056 101.624 111.835 101.483 111.671C101.342 111.506 101.117 111.423 100.809 111.423C100.537 111.423 100.294 111.484 100.078 111.607C99.863 111.728 99.7022 111.881 99.5962 112.067L99.3327 111.96C99.4354 111.777 99.5655 111.626 99.7229 111.505C99.882 111.384 100.056 111.293 100.245 111.234C100.436 111.174 100.629 111.144 100.827 111.144C100.997 111.144 101.156 111.168 101.304 111.216C101.451 111.264 101.577 111.337 101.682 111.435C101.788 111.533 101.863 111.658 101.908 111.81C101.954 111.961 101.959 112.142 101.923 112.352L101.48 115.02H101.177L101.294 114.331H101.272C101.182 114.474 101.069 114.604 100.934 114.721C100.799 114.837 100.646 114.93 100.474 115C100.301 115.068 100.114 115.102 99.9119 115.102ZM99.969 114.821C100.208 114.821 100.43 114.763 100.635 114.647C100.842 114.529 101.016 114.368 101.157 114.165C101.3 113.961 101.392 113.73 101.433 113.471L101.53 112.909C101.485 112.942 101.425 112.972 101.349 112.999C101.272 113.024 101.187 113.046 101.093 113.066C101 113.084 100.903 113.101 100.802 113.116C100.702 113.129 100.605 113.141 100.511 113.153C100.228 113.186 99.9931 113.237 99.8075 113.307C99.6219 113.375 99.4785 113.464 99.3774 113.575C99.278 113.686 99.2142 113.821 99.186 113.978C99.1446 114.238 99.1976 114.444 99.3451 114.595C99.4943 114.745 99.7022 114.821 99.969 114.821ZM106.043 111.201L104.027 115.02H103.684L102.941 111.201H103.252L103.893 114.629H103.92L105.703 111.201H106.043ZM107.645 115.099C107.326 115.099 107.057 115.014 106.837 114.843C106.618 114.671 106.462 114.434 106.369 114.132C106.277 113.831 106.262 113.486 106.327 113.098C106.39 112.72 106.514 112.385 106.7 112.091C106.887 111.796 107.116 111.565 107.386 111.398C107.656 111.229 107.946 111.144 108.256 111.144C108.576 111.144 108.845 111.231 109.064 111.405C109.284 111.578 109.441 111.815 109.534 112.119C109.627 112.42 109.642 112.764 109.581 113.15C109.518 113.527 109.392 113.862 109.203 114.157C109.016 114.45 108.787 114.681 108.517 114.848C108.247 115.016 107.956 115.099 107.645 115.099ZM107.65 114.818C107.921 114.818 108.172 114.742 108.4 114.59C108.629 114.437 108.82 114.231 108.974 113.971C109.13 113.71 109.234 113.42 109.285 113.098C109.337 112.787 109.329 112.505 109.263 112.253C109.197 111.999 109.078 111.799 108.907 111.651C108.737 111.502 108.52 111.428 108.259 111.428C107.988 111.428 107.738 111.505 107.508 111.659C107.279 111.813 107.087 112.02 106.931 112.28C106.775 112.54 106.672 112.83 106.62 113.15C106.567 113.46 106.574 113.742 106.64 113.996C106.708 114.247 106.828 114.448 106.998 114.597C107.171 114.745 107.388 114.818 107.65 114.818ZM110.312 115.02L110.949 111.201H111.245L111.145 111.798H111.173C111.285 111.603 111.451 111.446 111.67 111.328C111.888 111.209 112.124 111.149 112.376 111.149C112.404 111.149 112.43 111.149 112.455 111.149C112.48 111.149 112.505 111.15 112.53 111.152L112.478 111.458C112.458 111.456 112.434 111.453 112.405 111.45C112.379 111.445 112.346 111.443 112.306 111.443C112.094 111.443 111.898 111.488 111.717 111.579C111.536 111.67 111.385 111.796 111.264 111.957C111.144 112.116 111.066 112.299 111.033 112.504L110.616 115.02H110.312ZM112.713 115.02L113.349 111.201H113.65L113.014 115.02H112.713ZM113.643 110.523C113.572 110.523 113.512 110.499 113.464 110.451C113.417 110.401 113.398 110.341 113.404 110.269C113.407 110.21 113.434 110.157 113.484 110.113C113.533 110.068 113.591 110.046 113.655 110.046C113.726 110.046 113.785 110.07 113.832 110.12C113.878 110.168 113.899 110.227 113.894 110.297C113.889 110.358 113.862 110.411 113.812 110.456C113.764 110.5 113.707 110.523 113.643 110.523ZM116.27 111.201L116.223 111.472H114.558L114.602 111.201H116.27ZM115.316 110.287H115.616L114.985 114.117C114.959 114.273 114.967 114.401 115.01 114.5C115.055 114.598 115.122 114.671 115.211 114.719C115.302 114.765 115.406 114.788 115.522 114.788C115.573 114.788 115.62 114.784 115.661 114.776C115.703 114.766 115.744 114.755 115.786 114.744L115.813 115.02C115.762 115.038 115.707 115.053 115.649 115.064C115.591 115.076 115.524 115.082 115.447 115.082C115.288 115.082 115.144 115.046 115.015 114.975C114.887 114.904 114.79 114.8 114.724 114.664C114.659 114.528 114.644 114.364 114.677 114.172L115.316 110.287ZM118.197 115.099C117.852 115.099 117.566 115.014 117.339 114.843C117.112 114.672 116.954 114.439 116.864 114.142C116.775 113.846 116.762 113.507 116.825 113.128C116.888 112.747 117.014 112.407 117.202 112.109C117.391 111.81 117.623 111.575 117.896 111.403C118.169 111.23 118.464 111.144 118.781 111.144C118.995 111.144 119.189 111.187 119.365 111.274C119.542 111.36 119.692 111.483 119.813 111.644C119.933 111.803 120.017 111.996 120.064 112.223C120.11 112.45 120.11 112.705 120.064 112.989L120.029 113.178H117.006L117.053 112.902H119.77C119.817 112.627 119.803 112.378 119.73 112.156C119.658 111.932 119.537 111.755 119.368 111.624C119.2 111.493 118.995 111.428 118.751 111.428C118.503 111.428 118.266 111.5 118.04 111.644C117.816 111.786 117.624 111.977 117.463 112.216C117.304 112.454 117.198 112.717 117.145 113.004L117.115 113.158C117.062 113.486 117.069 113.775 117.135 114.025C117.203 114.274 117.329 114.469 117.513 114.609C117.697 114.749 117.937 114.818 118.234 114.818C118.441 114.818 118.625 114.784 118.786 114.714C118.948 114.643 119.086 114.556 119.199 114.455C119.313 114.354 119.402 114.257 119.467 114.162L119.718 114.274C119.642 114.402 119.532 114.529 119.39 114.657C119.247 114.783 119.076 114.888 118.875 114.972C118.675 115.057 118.449 115.099 118.197 115.099ZM122.507 116.451L123.382 111.201H123.677L123.538 112.054H123.575C123.662 111.89 123.769 111.739 123.899 111.602C124.029 111.464 124.183 111.354 124.358 111.271C124.536 111.187 124.734 111.144 124.953 111.144C125.261 111.144 125.515 111.229 125.716 111.398C125.916 111.567 126.055 111.8 126.131 112.096C126.207 112.393 126.214 112.734 126.151 113.121C126.086 113.505 125.965 113.846 125.788 114.145C125.612 114.441 125.397 114.675 125.141 114.846C124.886 115.015 124.606 115.099 124.301 115.099C124.084 115.099 123.9 115.058 123.749 114.975C123.6 114.892 123.483 114.782 123.396 114.644C123.31 114.505 123.251 114.353 123.217 114.187H123.188L122.81 116.451H122.507ZM123.362 113.118C123.309 113.443 123.309 113.734 123.362 113.991C123.416 114.246 123.522 114.448 123.68 114.597C123.839 114.745 124.047 114.818 124.304 114.818C124.564 114.818 124.8 114.744 125.012 114.595C125.226 114.444 125.405 114.24 125.549 113.983C125.695 113.726 125.794 113.438 125.847 113.118C125.9 112.798 125.9 112.511 125.847 112.255C125.794 112 125.689 111.799 125.532 111.651C125.374 111.502 125.164 111.428 124.9 111.428C124.642 111.428 124.406 111.501 124.192 111.649C123.978 111.795 123.799 111.995 123.655 112.25C123.512 112.504 123.415 112.793 123.362 113.118ZM128.303 115.099C127.985 115.099 127.715 115.014 127.495 114.843C127.276 114.671 127.12 114.434 127.028 114.132C126.935 113.831 126.921 113.486 126.985 113.098C127.048 112.72 127.173 112.385 127.358 112.091C127.545 111.796 127.774 111.565 128.044 111.398C128.314 111.229 128.604 111.144 128.914 111.144C129.234 111.144 129.503 111.231 129.722 111.405C129.943 111.578 130.099 111.815 130.192 112.119C130.285 112.42 130.301 112.764 130.239 113.15C130.176 113.527 130.05 113.862 129.861 114.157C129.674 114.45 129.445 114.681 129.175 114.848C128.905 115.016 128.614 115.099 128.303 115.099ZM128.308 114.818C128.58 114.818 128.83 114.742 129.058 114.59C129.287 114.437 129.479 114.231 129.633 113.971C129.788 113.71 129.892 113.42 129.943 113.098C129.995 112.787 129.987 112.505 129.921 112.253C129.855 111.999 129.736 111.799 129.566 111.651C129.395 111.502 129.179 111.428 128.917 111.428C128.647 111.428 128.396 111.505 128.166 111.659C127.937 111.813 127.745 112.02 127.589 112.28C127.434 112.54 127.33 112.83 127.279 113.15C127.226 113.46 127.232 113.742 127.298 113.996C127.366 114.247 127.486 114.448 127.656 114.597C127.829 114.745 128.046 114.818 128.308 114.818ZM130.737 116.451L131.612 111.201H131.908L131.769 112.054H131.806C131.892 111.89 132 111.739 132.129 111.602C132.26 111.464 132.413 111.354 132.589 111.271C132.766 111.187 132.964 111.144 133.183 111.144C133.491 111.144 133.746 111.229 133.946 111.398C134.147 111.567 134.285 111.8 134.361 112.096C134.437 112.393 134.444 112.734 134.381 113.121C134.317 113.505 134.196 113.846 134.018 114.145C133.843 114.441 133.627 114.675 133.372 114.846C133.117 115.015 132.837 115.099 132.532 115.099C132.315 115.099 132.131 115.058 131.98 114.975C131.831 114.892 131.713 114.782 131.627 114.644C131.541 114.505 131.481 114.353 131.448 114.187H131.418L131.04 116.451H130.737ZM131.592 113.118C131.539 113.443 131.539 113.734 131.592 113.991C131.647 114.246 131.753 114.448 131.91 114.597C132.069 114.745 132.277 114.818 132.534 114.818C132.794 114.818 133.031 114.744 133.243 114.595C133.456 114.444 133.635 114.24 133.78 113.983C133.925 113.726 134.025 113.438 134.078 113.118C134.131 112.798 134.131 112.511 134.078 112.255C134.025 112 133.92 111.799 133.762 111.651C133.605 111.502 133.394 111.428 133.131 111.428C132.872 111.428 132.636 111.501 132.422 111.649C132.209 111.795 132.03 111.995 131.885 112.25C131.743 112.504 131.645 112.793 131.592 113.118ZM139.747 113.665L140.158 111.201H140.461L139.824 115.02H139.521L139.626 114.401H139.598C139.479 114.598 139.308 114.759 139.086 114.883C138.864 115.007 138.617 115.069 138.345 115.069C138.095 115.069 137.883 115.015 137.709 114.905C137.535 114.796 137.41 114.641 137.334 114.44C137.259 114.238 137.245 113.998 137.291 113.72L137.711 111.201H138.015L137.597 113.707C137.546 114.025 137.6 114.283 137.761 114.48C137.922 114.676 138.156 114.774 138.462 114.774C138.661 114.774 138.851 114.729 139.031 114.639C139.214 114.55 139.369 114.422 139.496 114.257C139.626 114.089 139.709 113.892 139.747 113.665ZM140.847 116.451L141.722 111.201H142.018L141.879 112.054H141.916C142.002 111.89 142.11 111.739 142.239 111.602C142.37 111.464 142.524 111.354 142.699 111.271C142.877 111.187 143.075 111.144 143.293 111.144C143.602 111.144 143.856 111.229 144.056 111.398C144.257 111.567 144.395 111.8 144.472 112.096C144.548 112.393 144.554 112.734 144.491 113.121C144.427 113.505 144.306 113.846 144.129 114.145C143.953 114.441 143.737 114.675 143.482 114.846C143.227 115.015 142.947 115.099 142.642 115.099C142.425 115.099 142.241 115.058 142.09 114.975C141.941 114.892 141.823 114.782 141.737 114.644C141.651 114.505 141.591 114.353 141.558 114.187H141.528L141.151 116.451H140.847ZM141.702 113.118C141.649 113.443 141.649 113.734 141.702 113.991C141.757 114.246 141.863 114.448 142.021 114.597C142.18 114.745 142.388 114.818 142.645 114.818C142.905 114.818 143.141 114.744 143.353 114.595C143.567 114.444 143.746 114.24 143.89 113.983C144.036 113.726 144.135 113.438 144.188 113.118C144.241 112.798 144.241 112.511 144.188 112.255C144.135 112 144.03 111.799 143.873 111.651C143.715 111.502 143.505 111.428 143.241 111.428C142.983 111.428 142.746 111.501 142.533 111.649C142.319 111.795 142.14 111.995 141.996 112.25C141.853 112.504 141.755 112.793 141.702 113.118ZM147.292 115.02L148.138 109.929H148.438L148.09 112.054H148.12C148.205 111.89 148.312 111.739 148.443 111.602C148.576 111.464 148.731 111.354 148.908 111.271C149.085 111.187 149.283 111.144 149.5 111.144C149.806 111.144 150.06 111.23 150.26 111.4C150.461 111.569 150.599 111.803 150.676 112.101C150.753 112.398 150.76 112.738 150.695 113.121C150.632 113.505 150.513 113.846 150.337 114.145C150.163 114.441 149.948 114.675 149.691 114.846C149.436 115.015 149.154 115.099 148.846 115.099C148.627 115.099 148.443 115.058 148.294 114.975C148.147 114.892 148.029 114.782 147.941 114.644C147.855 114.505 147.795 114.353 147.762 114.187H147.727L147.588 115.02H147.292ZM147.909 113.118C147.856 113.443 147.856 113.734 147.909 113.991C147.962 114.246 148.067 114.448 148.225 114.597C148.382 114.745 148.591 114.818 148.851 114.818C149.111 114.818 149.348 114.744 149.562 114.595C149.776 114.444 149.955 114.24 150.099 113.983C150.243 113.726 150.342 113.438 150.395 113.118C150.446 112.798 150.445 112.511 150.392 112.255C150.339 112 150.234 111.799 150.076 111.651C149.919 111.502 149.709 111.428 149.448 111.428C149.189 111.428 148.953 111.501 148.739 111.649C148.527 111.795 148.349 111.995 148.205 112.25C148.06 112.504 147.962 112.793 147.909 113.118ZM152.426 115.102C152.205 115.102 152.01 115.058 151.841 114.97C151.674 114.882 151.549 114.754 151.466 114.585C151.383 114.416 151.361 114.21 151.399 113.968C151.427 113.809 151.479 113.669 151.556 113.548C151.632 113.427 151.736 113.323 151.869 113.235C152.001 113.147 152.164 113.075 152.356 113.019C152.55 112.961 152.776 112.916 153.035 112.884C153.233 112.861 153.411 112.838 153.567 112.815C153.722 112.792 153.848 112.756 153.944 112.708C154.04 112.66 154.097 112.588 154.113 112.492L154.138 112.333C154.185 112.056 154.137 111.835 153.997 111.671C153.856 111.506 153.631 111.423 153.323 111.423C153.051 111.423 152.808 111.484 152.592 111.607C152.377 111.728 152.216 111.881 152.11 112.067L151.846 111.96C151.949 111.777 152.079 111.626 152.237 111.505C152.396 111.384 152.57 111.293 152.759 111.234C152.949 111.174 153.143 111.144 153.34 111.144C153.511 111.144 153.67 111.168 153.818 111.216C153.965 111.264 154.091 111.337 154.195 111.435C154.301 111.533 154.377 111.658 154.422 111.81C154.468 111.961 154.473 112.142 154.437 112.352L153.994 115.02H153.691L153.808 114.331H153.785C153.696 114.474 153.583 114.604 153.447 114.721C153.313 114.837 153.16 114.93 152.987 115C152.815 115.068 152.628 115.102 152.426 115.102ZM152.483 114.821C152.721 114.821 152.943 114.763 153.149 114.647C153.356 114.529 153.53 114.368 153.671 114.165C153.813 113.961 153.905 113.73 153.947 113.471L154.044 112.909C153.999 112.942 153.939 112.972 153.862 112.999C153.786 113.024 153.701 113.046 153.606 113.066C153.513 113.084 153.417 113.101 153.315 113.116C153.216 113.129 153.119 113.141 153.025 113.153C152.741 113.186 152.507 113.237 152.321 113.307C152.136 113.375 151.992 113.464 151.891 113.575C151.792 113.686 151.728 113.821 151.7 113.978C151.658 114.238 151.711 114.444 151.859 114.595C152.008 114.745 152.216 114.821 152.483 114.821ZM158.189 112.024L157.898 112.094C157.873 111.953 157.828 111.833 157.764 111.733C157.699 111.632 157.61 111.555 157.495 111.502C157.383 111.448 157.241 111.42 157.07 111.42C156.784 111.42 156.539 111.491 156.337 111.634C156.135 111.777 156.015 111.96 155.979 112.186C155.949 112.365 155.984 112.512 156.083 112.628C156.183 112.744 156.351 112.833 156.588 112.894L157.155 113.041C157.443 113.116 157.649 113.238 157.774 113.409C157.9 113.58 157.942 113.788 157.901 114.035C157.867 114.246 157.78 114.431 157.639 114.592C157.5 114.751 157.323 114.875 157.108 114.965C156.892 115.054 156.652 115.099 156.387 115.099C156.029 115.099 155.749 115.016 155.546 114.848C155.344 114.679 155.236 114.438 155.221 114.125L155.522 114.065C155.533 114.312 155.614 114.5 155.765 114.629C155.916 114.757 156.131 114.821 156.409 114.821C156.726 114.821 156.993 114.745 157.212 114.595C157.431 114.444 157.559 114.252 157.597 114.018C157.625 113.844 157.593 113.698 157.5 113.58C157.407 113.463 157.252 113.377 157.033 113.322L156.454 113.173C156.152 113.095 155.936 112.971 155.805 112.8C155.676 112.627 155.632 112.417 155.673 112.168C155.708 111.966 155.791 111.788 155.922 111.634C156.054 111.48 156.222 111.36 156.424 111.274C156.626 111.187 156.849 111.144 157.093 111.144C157.419 111.144 157.672 111.221 157.851 111.375C158.03 111.528 158.142 111.744 158.189 112.024ZM160.265 115.099C159.92 115.099 159.635 115.014 159.408 114.843C159.18 114.672 159.022 114.439 158.933 114.142C158.843 113.846 158.83 113.507 158.893 113.128C158.956 112.747 159.082 112.407 159.271 112.109C159.46 111.81 159.691 111.575 159.964 111.403C160.238 111.23 160.533 111.144 160.849 111.144C161.063 111.144 161.258 111.187 161.433 111.274C161.611 111.36 161.76 111.483 161.881 111.644C162.002 111.803 162.086 111.996 162.132 112.223C162.178 112.45 162.178 112.705 162.132 112.989L162.097 113.178H159.074L159.122 112.902H161.839C161.885 112.627 161.872 112.378 161.799 112.156C161.726 111.932 161.605 111.755 161.436 111.624C161.269 111.493 161.063 111.428 160.819 111.428C160.571 111.428 160.334 111.5 160.109 111.644C159.885 111.786 159.693 111.977 159.532 112.216C159.373 112.454 159.267 112.717 159.214 113.004L159.184 113.158C159.131 113.486 159.137 113.775 159.204 114.025C159.272 114.274 159.398 114.469 159.582 114.609C159.765 114.749 160.006 114.818 160.302 114.818C160.51 114.818 160.694 114.784 160.854 114.714C161.017 114.643 161.154 114.556 161.267 114.455C161.381 114.354 161.471 114.257 161.535 114.162L161.786 114.274C161.71 114.402 161.601 114.529 161.458 114.657C161.316 114.783 161.144 114.888 160.944 114.972C160.743 115.057 160.517 115.099 160.265 115.099ZM164.142 115.099C163.834 115.099 163.58 115.015 163.379 114.846C163.179 114.677 163.04 114.444 162.964 114.147C162.888 113.849 162.881 113.507 162.944 113.121C163.009 112.738 163.129 112.398 163.305 112.101C163.48 111.803 163.697 111.569 163.953 111.4C164.21 111.23 164.491 111.144 164.796 111.144C165.015 111.144 165.198 111.187 165.345 111.271C165.495 111.354 165.612 111.464 165.698 111.602C165.786 111.739 165.846 111.89 165.877 112.054H165.907L166.26 109.929H166.561L165.716 115.02H165.42L165.559 114.187H165.524C165.437 114.351 165.326 114.503 165.194 114.642C165.061 114.779 164.907 114.89 164.731 114.975C164.556 115.058 164.359 115.099 164.142 115.099ZM164.19 114.818C164.448 114.818 164.684 114.745 164.898 114.597C165.112 114.448 165.291 114.246 165.435 113.991C165.579 113.734 165.679 113.443 165.733 113.118C165.788 112.793 165.787 112.504 165.731 112.25C165.676 111.995 165.569 111.795 165.41 111.649C165.251 111.501 165.042 111.428 164.784 111.428C164.522 111.428 164.285 111.502 164.073 111.651C163.861 111.799 163.683 112 163.541 112.255C163.398 112.511 163.3 112.798 163.247 113.118C163.194 113.438 163.194 113.726 163.245 113.983C163.298 114.24 163.403 114.444 163.561 114.595C163.718 114.744 163.928 114.818 164.19 114.818ZM170.474 115.099C170.155 115.099 169.886 115.014 169.666 114.843C169.447 114.671 169.291 114.434 169.198 114.132C169.106 113.831 169.092 113.486 169.156 113.098C169.219 112.72 169.343 112.385 169.529 112.091C169.716 111.796 169.945 111.565 170.215 111.398C170.485 111.229 170.775 111.144 171.085 111.144C171.405 111.144 171.674 111.231 171.893 111.405C172.113 111.578 172.27 111.815 172.363 112.119C172.456 112.42 172.471 112.764 172.41 113.15C172.347 113.527 172.221 113.862 172.032 114.157C171.845 114.45 171.616 114.681 171.346 114.848C171.076 115.016 170.785 115.099 170.474 115.099ZM170.479 114.818C170.75 114.818 171.001 114.742 171.229 114.59C171.458 114.437 171.649 114.231 171.804 113.971C171.959 113.71 172.063 113.42 172.114 113.098C172.166 112.787 172.158 112.505 172.092 112.253C172.026 111.999 171.907 111.799 171.736 111.651C171.566 111.502 171.349 111.428 171.088 111.428C170.818 111.428 170.567 111.505 170.337 111.659C170.108 111.813 169.916 112.02 169.76 112.28C169.604 112.54 169.501 112.83 169.45 113.15C169.396 113.46 169.403 113.742 169.469 113.996C169.537 114.247 169.657 114.448 169.827 114.597C170 114.745 170.217 114.818 170.479 114.818ZM173.855 112.544L173.445 115.02H173.142L173.778 111.201H174.074L173.974 111.806H174.004C174.123 111.608 174.292 111.45 174.511 111.331C174.73 111.211 174.975 111.152 175.247 111.152C175.502 111.152 175.718 111.206 175.896 111.316C176.073 111.425 176.2 111.581 176.276 111.783C176.352 111.984 176.367 112.223 176.321 112.502L175.901 115.02H175.598L176.015 112.514C176.068 112.189 176.017 111.928 175.861 111.731C175.707 111.532 175.472 111.433 175.155 111.433C174.941 111.433 174.742 111.479 174.558 111.572C174.376 111.665 174.223 111.795 174.099 111.962C173.974 112.128 173.893 112.322 173.855 112.544ZM179.135 116.451C179.059 116.451 178.985 116.443 178.914 116.427C178.844 116.41 178.781 116.388 178.725 116.362L178.856 116.096C178.999 116.156 179.134 116.176 179.262 116.156C179.391 116.137 179.512 116.077 179.624 115.974C179.739 115.871 179.847 115.726 179.948 115.537L180.201 115.059L179.455 111.201H179.766L180.408 114.632H180.435L182.217 111.201H182.558L180.204 115.668C180.111 115.842 180.008 115.987 179.895 116.103C179.783 116.219 179.662 116.306 179.533 116.364C179.405 116.422 179.272 116.451 179.135 116.451ZM184.159 115.099C183.841 115.099 183.572 115.014 183.351 114.843C183.133 114.671 182.977 114.434 182.884 114.132C182.791 113.831 182.777 113.486 182.842 113.098C182.905 112.72 183.029 112.385 183.215 112.091C183.402 111.796 183.631 111.565 183.901 111.398C184.171 111.229 184.461 111.144 184.771 111.144C185.091 111.144 185.36 111.231 185.579 111.405C185.799 111.578 185.956 111.815 186.048 112.119C186.141 112.42 186.157 112.764 186.096 113.15C186.033 113.527 185.907 113.862 185.718 114.157C185.531 114.45 185.302 114.681 185.032 114.848C184.762 115.016 184.471 115.099 184.159 115.099ZM184.164 114.818C184.436 114.818 184.686 114.742 184.915 114.59C185.144 114.437 185.335 114.231 185.489 113.971C185.645 113.71 185.748 113.42 185.8 113.098C185.851 112.787 185.844 112.505 185.777 112.253C185.711 111.999 185.593 111.799 185.422 111.651C185.251 111.502 185.035 111.428 184.773 111.428C184.503 111.428 184.253 111.505 184.022 111.659C183.794 111.813 183.602 112.02 183.446 112.28C183.29 112.54 183.186 112.83 183.135 113.15C183.082 113.46 183.089 113.742 183.155 113.996C183.223 114.247 183.342 114.448 183.513 114.597C183.685 114.745 183.902 114.818 184.164 114.818ZM189.499 113.665L189.909 111.201H190.213L189.576 115.02H189.273L189.378 114.401H189.35C189.231 114.598 189.06 114.759 188.838 114.883C188.616 115.007 188.369 115.069 188.097 115.069C187.847 115.069 187.635 115.015 187.461 114.905C187.287 114.796 187.162 114.641 187.086 114.44C187.011 114.238 186.997 113.998 187.043 113.72L187.463 111.201H187.767L187.349 113.707C187.298 114.025 187.352 114.283 187.513 114.48C187.674 114.676 187.908 114.774 188.214 114.774C188.413 114.774 188.603 114.729 188.783 114.639C188.966 114.55 189.121 114.422 189.248 114.257C189.378 114.089 189.461 113.892 189.499 113.665ZM190.833 115.02L191.469 111.201H191.765L191.666 111.798H191.693C191.806 111.603 191.971 111.446 192.19 111.328C192.409 111.209 192.644 111.149 192.896 111.149C192.924 111.149 192.951 111.149 192.976 111.149C193.001 111.149 193.025 111.15 193.05 111.152L192.998 111.458C192.978 111.456 192.954 111.453 192.926 111.45C192.899 111.445 192.866 111.443 192.827 111.443C192.614 111.443 192.418 111.488 192.237 111.579C192.057 111.67 191.906 111.796 191.785 111.957C191.664 112.116 191.587 112.299 191.554 112.504L191.136 115.02H190.833ZM197.266 111.201L197.221 111.472H195.526L195.573 111.201H197.266ZM195.493 115.02L196.226 110.607C196.256 110.415 196.326 110.251 196.435 110.115C196.546 109.979 196.68 109.876 196.836 109.804C196.991 109.733 197.153 109.698 197.32 109.698C197.408 109.698 197.481 109.704 197.539 109.717C197.597 109.731 197.648 109.746 197.691 109.762L197.561 110.031C197.525 110.021 197.486 110.011 197.445 110.001C197.403 109.991 197.352 109.986 197.29 109.986C197.1 109.986 196.932 110.045 196.786 110.162C196.642 110.278 196.552 110.442 196.517 110.655L195.791 115.02H195.493ZM198.486 115.102C198.266 115.102 198.071 115.058 197.902 114.97C197.735 114.882 197.609 114.754 197.527 114.585C197.444 114.416 197.421 114.21 197.459 113.968C197.488 113.809 197.54 113.669 197.616 113.548C197.692 113.427 197.797 113.323 197.929 113.235C198.062 113.147 198.224 113.075 198.416 113.019C198.61 112.961 198.837 112.916 199.095 112.884C199.294 112.861 199.471 112.838 199.627 112.815C199.783 112.792 199.909 112.756 200.005 112.708C200.101 112.66 200.157 112.588 200.174 112.492L200.199 112.333C200.245 112.056 200.198 111.835 200.057 111.671C199.916 111.506 199.692 111.423 199.383 111.423C199.112 111.423 198.868 111.484 198.653 111.607C198.437 111.728 198.276 111.881 198.17 112.067L197.907 111.96C198.01 111.777 198.14 111.626 198.297 111.505C198.456 111.384 198.63 111.293 198.819 111.234C199.01 111.174 199.204 111.144 199.401 111.144C199.572 111.144 199.731 111.168 199.878 111.216C200.026 111.264 200.152 111.337 200.256 111.435C200.362 111.533 200.437 111.658 200.482 111.81C200.529 111.961 200.534 112.142 200.497 112.352L200.055 115.02H199.751L199.868 114.331H199.846C199.756 114.474 199.644 114.604 199.508 114.721C199.374 114.837 199.22 114.93 199.048 115C198.876 115.068 198.688 115.102 198.486 115.102ZM198.543 114.821C198.782 114.821 199.004 114.763 199.209 114.647C199.417 114.529 199.591 114.368 199.731 114.165C199.874 113.961 199.966 113.73 200.007 113.471L200.104 112.909C200.06 112.942 199.999 112.972 199.923 112.999C199.847 113.024 199.761 113.046 199.667 113.066C199.574 113.084 199.477 113.101 199.376 113.116C199.277 113.129 199.18 113.141 199.085 113.153C198.802 113.186 198.567 113.237 198.382 113.307C198.196 113.375 198.053 113.464 197.952 113.575C197.852 113.686 197.788 113.821 197.76 113.978C197.719 114.238 197.772 114.444 197.919 114.595C198.068 114.745 198.276 114.821 198.543 114.821ZM204.617 111.201L202.601 115.02H202.258L201.515 111.201H201.826L202.467 114.629H202.494L204.277 111.201H204.617ZM206.219 115.099C205.901 115.099 205.631 115.014 205.411 114.843C205.192 114.671 205.036 114.434 204.944 114.132C204.851 113.831 204.837 113.486 204.901 113.098C204.964 112.72 205.089 112.385 205.274 112.091C205.461 111.796 205.69 111.565 205.96 111.398C206.23 111.229 206.52 111.144 206.83 111.144C207.15 111.144 207.419 111.231 207.638 111.405C207.859 111.578 208.015 111.815 208.108 112.119C208.201 112.42 208.217 112.764 208.155 113.15C208.092 113.527 207.966 113.862 207.777 114.157C207.59 114.45 207.361 114.681 207.091 114.848C206.821 115.016 206.53 115.099 206.219 115.099ZM206.224 114.818C206.496 114.818 206.746 114.742 206.974 114.59C207.203 114.437 207.395 114.231 207.549 113.971C207.704 113.71 207.808 113.42 207.859 113.098C207.911 112.787 207.903 112.505 207.837 112.253C207.771 111.999 207.652 111.799 207.482 111.651C207.311 111.502 207.095 111.428 206.833 111.428C206.563 111.428 206.312 111.505 206.082 111.659C205.853 111.813 205.661 112.02 205.505 112.28C205.35 112.54 205.246 112.83 205.195 113.15C205.142 113.46 205.148 113.742 205.215 113.996C205.282 114.247 205.402 114.448 205.572 114.597C205.745 114.745 205.962 114.818 206.224 114.818ZM208.887 115.02L209.523 111.201H209.819L209.719 111.798H209.747C209.859 111.603 210.025 111.446 210.244 111.328C210.463 111.209 210.698 111.149 210.95 111.149C210.978 111.149 211.005 111.149 211.029 111.149C211.054 111.149 211.079 111.15 211.104 111.152L211.052 111.458C211.032 111.456 211.008 111.453 210.98 111.45C210.953 111.445 210.92 111.443 210.88 111.443C210.668 111.443 210.472 111.488 210.291 111.579C210.11 111.67 209.96 111.796 209.839 111.957C209.718 112.116 209.641 112.299 209.608 112.504L209.19 115.02H208.887ZM211.287 115.02L211.924 111.201H212.224L211.588 115.02H211.287ZM212.217 110.523C212.146 110.523 212.086 110.499 212.038 110.451C211.992 110.401 211.972 110.341 211.978 110.269C211.982 110.21 212.008 110.157 212.058 110.113C212.108 110.068 212.165 110.046 212.229 110.046C212.301 110.046 212.36 110.07 212.406 110.12C212.452 110.168 212.473 110.227 212.468 110.297C212.463 110.358 212.436 110.411 212.386 110.456C212.338 110.5 212.282 110.523 212.217 110.523ZM214.844 111.201L214.797 111.472H213.132L213.177 111.201H214.844ZM213.89 110.287H214.191L213.559 114.117C213.533 114.273 213.541 114.401 213.584 114.5C213.629 114.598 213.696 114.671 213.786 114.719C213.877 114.765 213.98 114.788 214.096 114.788C214.148 114.788 214.194 114.784 214.235 114.776C214.277 114.766 214.318 114.755 214.36 114.744L214.387 115.02C214.336 115.038 214.281 115.053 214.223 115.064C214.165 115.076 214.098 115.082 214.022 115.082C213.863 115.082 213.718 115.046 213.589 114.975C213.462 114.904 213.365 114.8 213.298 114.664C213.234 114.528 213.218 114.364 213.251 114.172L213.89 110.287ZM216.771 115.099C216.426 115.099 216.14 115.014 215.913 114.843C215.686 114.672 215.528 114.439 215.439 114.142C215.349 113.846 215.336 113.507 215.399 113.128C215.462 112.747 215.588 112.407 215.777 112.109C215.966 111.81 216.197 111.575 216.47 111.403C216.744 111.23 217.039 111.144 217.355 111.144C217.569 111.144 217.764 111.187 217.939 111.274C218.117 111.36 218.266 111.483 218.387 111.644C218.508 111.803 218.591 111.996 218.638 112.223C218.684 112.45 218.684 112.705 218.638 112.989L218.603 113.178H215.58L215.628 112.902H218.344C218.391 112.627 218.378 112.378 218.305 112.156C218.232 111.932 218.111 111.755 217.942 111.624C217.774 111.493 217.569 111.428 217.325 111.428C217.077 111.428 216.84 111.5 216.614 111.644C216.391 111.786 216.198 111.977 216.038 112.216C215.879 112.454 215.773 112.717 215.719 113.004L215.69 113.158C215.637 113.486 215.643 113.775 215.71 114.025C215.777 114.274 215.903 114.469 216.087 114.609C216.271 114.749 216.512 114.818 216.808 114.818C217.015 114.818 217.199 114.784 217.36 114.714C217.523 114.643 217.66 114.556 217.773 114.455C217.887 114.354 217.977 114.257 218.041 114.162L218.292 114.274C218.216 114.402 218.107 114.529 217.964 114.657C217.822 114.783 217.65 114.888 217.45 114.972C217.249 115.057 217.023 115.099 216.771 115.099ZM221.314 115.02L221.951 111.201H222.247L222.147 111.778H222.177C222.285 111.588 222.437 111.436 222.634 111.323C222.833 111.209 223.059 111.152 223.31 111.152C223.586 111.152 223.797 111.218 223.944 111.351C224.092 111.483 224.185 111.663 224.225 111.89H224.253C224.362 111.665 224.524 111.486 224.74 111.353C224.957 111.219 225.207 111.152 225.491 111.152C225.858 111.152 226.12 111.269 226.276 111.502C226.433 111.734 226.478 112.052 226.41 112.457L225.983 115.02H225.679L226.107 112.457C226.158 112.137 226.125 111.887 226.008 111.706C225.89 111.524 225.684 111.433 225.389 111.433C225.074 111.433 224.814 111.531 224.608 111.728C224.403 111.926 224.275 112.177 224.225 112.482L223.8 115.02H223.497L223.927 112.437C223.975 112.139 223.943 111.897 223.83 111.711C223.717 111.525 223.511 111.433 223.211 111.433C223.011 111.433 222.827 111.479 222.662 111.572C222.496 111.665 222.358 111.792 222.249 111.955C222.14 112.117 222.068 112.304 222.035 112.514L221.618 115.02H221.314ZM228.668 115.099C228.35 115.099 228.081 115.014 227.86 114.843C227.641 114.671 227.486 114.434 227.393 114.132C227.3 113.831 227.286 113.486 227.351 113.098C227.413 112.72 227.538 112.385 227.723 112.091C227.911 111.796 228.139 111.565 228.409 111.398C228.68 111.229 228.97 111.144 229.279 111.144C229.599 111.144 229.869 111.231 230.087 111.405C230.308 111.578 230.464 111.815 230.557 112.119C230.65 112.42 230.666 112.764 230.604 113.15C230.541 113.527 230.416 113.862 230.227 114.157C230.039 114.45 229.811 114.681 229.541 114.848C229.27 115.016 228.98 115.099 228.668 115.099ZM228.673 114.818C228.945 114.818 229.195 114.742 229.424 114.59C229.652 114.437 229.844 114.231 229.998 113.971C230.154 113.71 230.257 113.42 230.309 113.098C230.36 112.787 230.353 112.505 230.286 112.253C230.22 111.999 230.101 111.799 229.931 111.651C229.76 111.502 229.544 111.428 229.282 111.428C229.012 111.428 228.762 111.505 228.531 111.659C228.303 111.813 228.11 112.02 227.955 112.28C227.799 112.54 227.695 112.83 227.644 113.15C227.591 113.46 227.597 113.742 227.664 113.996C227.732 114.247 227.851 114.448 228.022 114.597C228.194 114.745 228.411 114.818 228.673 114.818ZM234.627 111.201L232.611 115.02H232.268L231.525 111.201H231.836L232.477 114.629H232.504L234.287 111.201H234.627ZM234.953 115.02L235.59 111.201H235.89L235.254 115.02H234.953ZM235.883 110.523C235.812 110.523 235.752 110.499 235.704 110.451C235.658 110.401 235.638 110.341 235.644 110.269C235.648 110.21 235.674 110.157 235.724 110.113C235.774 110.068 235.831 110.046 235.895 110.046C235.967 110.046 236.026 110.07 236.072 110.12C236.118 110.168 236.139 110.227 236.134 110.297C236.129 110.358 236.102 110.411 236.052 110.456C236.004 110.5 235.948 110.523 235.883 110.523ZM238.003 115.099C237.659 115.099 237.373 115.014 237.146 114.843C236.919 114.672 236.76 114.439 236.671 114.142C236.582 113.846 236.568 113.507 236.631 113.128C236.694 112.747 236.82 112.407 237.009 112.109C237.198 111.81 237.429 111.575 237.703 111.403C237.976 111.23 238.271 111.144 238.588 111.144C238.801 111.144 238.996 111.187 239.172 111.274C239.349 111.36 239.498 111.483 239.619 111.644C239.74 111.803 239.824 111.996 239.87 112.223C239.917 112.45 239.917 112.705 239.87 112.989L239.835 113.178H236.813L236.86 112.902H239.577C239.623 112.627 239.61 112.378 239.537 112.156C239.464 111.932 239.343 111.755 239.174 111.624C239.007 111.493 238.801 111.428 238.558 111.428C238.309 111.428 238.072 111.5 237.847 111.644C237.623 111.786 237.431 111.977 237.27 112.216C237.111 112.454 237.005 112.717 236.952 113.004L236.922 113.158C236.869 113.486 236.876 113.775 236.942 114.025C237.01 114.274 237.136 114.469 237.32 114.609C237.504 114.749 237.744 114.818 238.041 114.818C238.248 114.818 238.432 114.784 238.593 114.714C238.755 114.643 238.892 114.556 239.005 114.455C239.12 114.354 239.209 114.257 239.274 114.162L239.525 114.274C239.448 114.402 239.339 114.529 239.197 114.657C239.054 114.783 238.883 114.888 238.682 114.972C238.481 115.057 238.255 115.099 238.003 115.099ZM243.501 112.024L243.211 112.094C243.186 111.953 243.141 111.833 243.076 111.733C243.012 111.632 242.922 111.555 242.808 111.502C242.695 111.448 242.553 111.42 242.383 111.42C242.096 111.42 241.852 111.491 241.649 111.634C241.447 111.777 241.328 111.96 241.291 112.186C241.262 112.365 241.296 112.512 241.396 112.628C241.495 112.744 241.664 112.833 241.901 112.894L242.467 113.041C242.756 113.116 242.962 113.238 243.086 113.409C243.212 113.58 243.254 113.788 243.213 114.035C243.18 114.246 243.093 114.431 242.952 114.592C242.813 114.751 242.635 114.875 242.42 114.965C242.205 115.054 241.964 115.099 241.699 115.099C241.341 115.099 241.061 115.016 240.859 114.848C240.657 114.679 240.548 114.438 240.533 114.125L240.834 114.065C240.846 114.312 240.927 114.5 241.078 114.629C241.229 114.757 241.443 114.821 241.722 114.821C242.038 114.821 242.306 114.745 242.524 114.595C242.743 114.444 242.872 114.252 242.91 114.018C242.938 113.844 242.906 113.698 242.813 113.58C242.72 113.463 242.564 113.377 242.345 113.322L241.766 113.173C241.465 113.095 241.248 112.971 241.117 112.8C240.988 112.627 240.944 112.417 240.986 112.168C241.021 111.966 241.103 111.788 241.234 111.634C241.367 111.48 241.534 111.36 241.736 111.274C241.939 111.187 242.162 111.144 242.405 111.144C242.732 111.144 242.984 111.221 243.163 111.375C243.342 111.528 243.455 111.744 243.501 112.024Z" fill="white"/>
<path d="M355.069 25.1642V26.4959L349.415 28.8113V28.8965L355.069 31.2118V32.5435H347.796V31.4995H353.059V31.432L347.807 29.2871V28.4206L353.062 26.2757V26.2083H347.796V25.1642H355.069ZM351.432 40.6563C350.656 40.6563 349.988 40.5143 349.429 40.2302C348.873 39.9461 348.445 39.5567 348.144 39.0619C347.846 38.5694 347.696 38.0095 347.696 37.3822C347.696 36.7524 347.846 36.1902 348.144 35.6954C348.445 35.203 348.874 34.8147 349.433 34.5306C349.992 34.2465 350.658 34.1045 351.432 34.1045C352.209 34.1045 352.875 34.2465 353.432 34.5306C353.99 34.8147 354.419 35.203 354.717 35.6954C355.018 36.1902 355.168 36.7524 355.168 37.3822C355.168 38.0095 355.018 38.5694 354.717 39.0619C354.419 39.5567 353.99 39.9461 353.432 40.2302C352.875 40.5143 352.209 40.6563 351.432 40.6563ZM351.432 39.5697C352.024 39.5697 352.522 39.4738 352.927 39.282C353.334 39.0926 353.642 38.8322 353.851 38.5008C354.061 38.1717 354.167 37.7988 354.167 37.3822C354.167 36.9631 354.061 36.5891 353.851 36.26C353.642 35.9309 353.334 35.6705 352.927 35.4788C352.522 35.2894 352.024 35.1947 351.432 35.1947C350.84 35.1947 350.341 35.2894 349.934 35.4788C349.529 35.6705 349.221 35.9309 349.01 36.26C348.802 36.5891 348.698 36.9631 348.698 37.3822C348.698 37.7988 348.802 38.1717 349.01 38.5008C349.221 38.8322 349.529 39.0926 349.934 39.282C350.341 39.4738 350.84 39.5697 351.432 39.5697ZM355.069 42.4987L349.145 44.5229V44.6045L355.069 46.6287V47.8148L347.796 45.1976V43.9298L355.069 41.3126V42.4987ZM355.069 50.1623H347.796V49.065H355.069V50.1623ZM347.796 51.9603H355.069V56.52H354.124V53.0576H351.908V56.2821H350.967V53.0576H348.741V56.5626H347.796V51.9603ZM347.796 61.0322H355.069V63.6245C355.069 64.1904 354.966 64.6591 354.76 65.0308C354.554 65.4025 354.272 65.6806 353.915 65.8653C353.559 66.05 353.159 66.1423 352.714 66.1423C352.267 66.1423 351.864 66.0488 351.507 65.8618C351.152 65.6771 350.87 65.3977 350.662 65.0237C350.456 64.652 350.353 64.1844 350.353 63.621V61.8383H351.283V63.5216C351.283 63.879 351.345 64.169 351.468 64.3916C351.593 64.6141 351.764 64.7775 351.979 64.8816C352.195 64.9858 352.44 65.0379 352.714 65.0379C352.989 65.0379 353.233 64.9858 353.446 64.8816C353.659 64.7775 353.826 64.6129 353.946 64.388C354.067 64.1655 354.128 63.8719 354.128 63.5074V62.1295H347.796V61.0322ZM347.796 67.6287H355.069V70.221C355.069 70.7845 354.972 71.252 354.777 71.6237C354.583 71.9978 354.315 72.2771 353.971 72.4618C353.63 72.6465 353.236 72.7388 352.789 72.7388C352.344 72.7388 351.952 72.6453 351.613 72.4582C351.277 72.2736 351.016 71.9942 350.829 71.6202C350.642 71.2485 350.548 70.7809 350.548 70.2175V68.2537H351.493V70.118C351.493 70.4732 351.544 70.762 351.645 70.9845C351.747 71.2094 351.895 71.374 352.089 71.4781C352.283 71.5823 352.517 71.6344 352.789 71.6344C353.063 71.6344 353.301 71.5811 353.503 71.4746C353.704 71.3704 353.858 71.2059 353.964 70.981C354.073 70.7584 354.128 70.4661 354.128 70.1038V68.726H347.796V67.6287ZM351.077 71.2189L347.796 73.0158V71.7658L351.077 70.0044V71.2189ZM351.432 80.5915C350.656 80.5915 349.988 80.4494 349.429 80.1653C348.873 79.8812 348.445 79.4918 348.144 78.997C347.846 78.5046 347.696 77.9447 347.696 77.3173C347.696 76.6876 347.846 76.1253 348.144 75.6305C348.445 75.1381 348.874 74.7499 349.433 74.4658C349.992 74.1817 350.658 74.0396 351.432 74.0396C352.209 74.0396 352.875 74.1817 353.432 74.4658C353.99 74.7499 354.419 75.1381 354.717 75.6305C355.018 76.1253 355.168 76.6876 355.168 77.3173C355.168 77.9447 355.018 78.5046 354.717 78.997C354.419 79.4918 353.99 79.8812 353.432 80.1653C352.875 80.4494 352.209 80.5915 351.432 80.5915ZM351.432 79.5048C352.024 79.5048 352.522 79.4089 352.927 79.2172C353.334 79.0278 353.642 78.7674 353.851 78.4359C354.061 78.1069 354.167 77.734 354.167 77.3173C354.167 76.8983 354.061 76.5242 353.851 76.1952C353.642 75.8661 353.334 75.6057 352.927 75.4139C352.522 75.2245 352.024 75.1298 351.432 75.1298C350.84 75.1298 350.341 75.2245 349.934 75.4139C349.529 75.6057 349.221 75.8661 349.01 76.1952C348.802 76.5242 348.698 76.8983 348.698 77.3173C348.698 77.734 348.802 78.1069 349.01 78.4359C349.221 78.7674 349.529 79.0278 349.934 79.2172C350.341 79.4089 350.84 79.5048 351.432 79.5048ZM355.069 82.1596V83.4912L349.415 85.8066V85.8918L355.069 88.2071V89.5388H347.796V88.4948H353.059V88.4273L347.807 86.2824V85.4159L353.062 83.2711V83.2036H347.796V82.1596H355.069ZM351.432 97.6516C350.656 97.6516 349.988 97.5096 349.429 97.2255C348.873 96.9414 348.445 96.552 348.144 96.0572C347.846 95.5647 347.696 95.0049 347.696 94.3775C347.696 93.7478 347.846 93.1855 348.144 92.6907C348.445 92.1983 348.874 91.81 349.433 91.5259C349.992 91.2418 350.658 91.0998 351.432 91.0998C352.209 91.0998 352.875 91.2418 353.432 91.5259C353.99 91.81 354.419 92.1983 354.717 92.6907C355.018 93.1855 355.168 93.7478 355.168 94.3775C355.168 95.0049 355.018 95.5647 354.717 96.0572C354.419 96.552 353.99 96.9414 353.432 97.2255C352.875 97.5096 352.209 97.6516 351.432 97.6516ZM351.432 96.565C352.024 96.565 352.522 96.4691 352.927 96.2773C353.334 96.0879 353.642 95.8275 353.851 95.4961C354.061 95.167 354.167 94.7942 354.167 94.3775C354.167 93.9585 354.061 93.5844 353.851 93.2553C353.642 92.9263 353.334 92.6658 352.927 92.4741C352.522 92.2847 352.024 92.19 351.432 92.19C350.84 92.19 350.341 92.2847 349.934 92.4741C349.529 92.6658 349.221 92.9263 349.01 93.2553C348.802 93.5844 348.698 93.9585 348.698 94.3775C348.698 94.7942 348.802 95.167 349.01 95.4961C349.221 95.8275 349.529 96.0879 349.934 96.2773C350.341 96.4691 350.84 96.565 351.432 96.565Z" fill="#EFD5D5" fill-opacity="0.87"/>
<path d="M306.351 26.7706L342.351 26.7706V29.4089L306.351 29.4089V26.7706ZM306.377 30.707L342.351 30.707V32.0472H306.377V30.707ZM306.377 34.6855H342.351V35.9836H306.377V34.6855ZM306.377 41.2602H342.351V42.5584H306.377V41.2602ZM306.377 46.5368H342.351V49.1332H306.377V46.5368ZM306.377 53.1116H342.351V54.4098H306.377V53.1116ZM306.377 55.7499H342.351V57.0481H306.377V55.7499ZM306.377 58.3882H342.351V59.6864H306.377V58.3882ZM306.377 63.623H342.351V66.2613H306.377V63.623V63.623ZM306.377 70.1978H342.351V72.8361H306.377V70.1978ZM306.377 75.4742H342.351V78.1126H306.377V75.4742ZM306.377 80.7509H342.351V83.3894H306.377V80.7509ZM306.377 84.6874H342.351V87.3257H306.377V84.6874ZM306.377 91.3041H342.351V95.2406H306.377V91.3041ZM306.377 96.5388H342.351V97.8789H306.377V96.5388V96.5388ZM306.351 99.1771H342.351V101.815H306.351V99.1771V99.1771Z" fill="#AFAFAF"/>
<path d="M135.089 32.232L134.759 36.672V36.732C134.759 36.922 134.829 37.047 134.969 37.107L135.899 37.497L135.749 38.862H132.014L131.864 37.527L132.554 37.107L133.409 31.317C133.419 31.247 133.424 31.162 133.424 31.062C133.424 30.942 133.394 30.852 133.334 30.792C133.284 30.732 133.184 30.657 133.034 30.567L132.344 30.177L132.434 28.752H136.739L138.884 35.742L141.014 28.752H145.034L145.094 30.327L144.134 30.567L144.944 36.447C144.974 36.647 145.014 36.802 145.064 36.912C145.124 37.022 145.254 37.202 145.454 37.452L145.769 37.857L145.679 38.862H141.209L141.074 37.482L142.304 37.167L141.794 32.142L139.874 38.922L137.309 39.147L135.089 32.232ZM150.176 39.057C148.906 39.057 147.956 38.732 147.326 38.082C146.706 37.432 146.396 36.437 146.396 35.097C146.396 34.237 146.551 33.487 146.861 32.847C147.181 32.207 147.636 31.717 148.226 31.377C148.816 31.037 149.511 30.867 150.311 30.867C152.901 30.867 154.196 32.207 154.196 34.887C154.196 36.197 153.841 37.222 153.131 37.962C152.431 38.692 151.446 39.057 150.176 39.057ZM150.416 37.302C150.616 37.302 150.791 37.287 150.941 37.257C151.091 37.217 151.251 37.157 151.421 37.077C151.481 36.847 151.531 36.552 151.571 36.192C151.611 35.832 151.631 35.487 151.631 35.157C151.631 34.347 151.501 33.732 151.241 33.312C150.991 32.892 150.616 32.682 150.116 32.682C149.786 32.682 149.451 32.727 149.111 32.817C149.041 32.967 148.986 33.212 148.946 33.552C148.906 33.882 148.886 34.262 148.886 34.692C148.886 35.532 149.016 36.177 149.276 36.627C149.546 37.077 149.926 37.302 150.416 37.302ZM155.199 33.072C155.089 32.802 155.014 32.627 154.974 32.547C154.934 32.467 154.859 32.357 154.749 32.217L154.494 31.887L154.569 31.017H158.349L158.499 32.292L157.629 32.502L158.994 36.372L160.314 32.817C160.334 32.757 160.344 32.712 160.344 32.682C160.344 32.592 160.299 32.532 160.209 32.502L159.504 32.202L159.639 31.017H162.489L162.639 32.232L159.669 38.892L157.509 39.057L155.199 33.072ZM163.992 27.762L166.542 27.087L167.157 29.367L164.622 30.057L163.992 27.762ZM163.362 37.482L164.412 37.167V33.522C164.412 33.302 164.392 33.162 164.352 33.102C164.322 33.032 164.237 32.957 164.097 32.877L163.437 32.517L163.512 31.392C164.342 31.232 164.982 31.117 165.432 31.047C165.892 30.967 166.312 30.922 166.692 30.912C166.822 31.342 166.902 31.662 166.932 31.872V36.672C166.932 36.882 166.947 37.022 166.977 37.092C167.007 37.162 167.092 37.237 167.232 37.317L167.967 37.737L167.907 38.862H163.407L163.362 37.482ZM172.073 39.042C170.903 39.042 169.998 38.687 169.358 37.977C168.728 37.267 168.413 36.287 168.413 35.037C168.413 34.167 168.568 33.422 168.878 32.802C169.188 32.172 169.628 31.692 170.198 31.362C170.768 31.032 171.433 30.867 172.193 30.867C173.323 30.867 174.188 31.227 174.788 31.947C175.398 32.667 175.688 33.692 175.658 35.022L171.098 35.862C171.238 36.282 171.433 36.592 171.683 36.792C171.943 36.982 172.283 37.077 172.703 37.077C172.993 37.077 173.338 37.037 173.738 36.957C174.138 36.867 174.543 36.747 174.953 36.597L175.298 38.082C174.928 38.362 174.448 38.592 173.858 38.772C173.268 38.952 172.673 39.042 172.073 39.042ZM173.198 33.762C173.178 33.382 173.068 33.107 172.868 32.937C172.678 32.757 172.408 32.667 172.058 32.667C171.768 32.667 171.493 32.707 171.233 32.787C171.023 33.277 170.928 33.807 170.948 34.377L173.198 33.762ZM178.813 37.527L179.278 37.242L182.788 28.737L185.338 28.512L188.338 36.612C188.438 36.872 188.508 37.042 188.548 37.122C188.588 37.202 188.663 37.312 188.773 37.452L189.043 37.797L188.953 38.862H184.738L184.588 37.437L185.653 37.167L185.173 35.652L182.128 35.697L181.798 36.642C181.768 36.732 181.753 36.807 181.753 36.867C181.753 36.937 181.763 36.992 181.783 37.032C181.813 37.062 181.858 37.087 181.918 37.107L182.953 37.542L182.803 38.862H178.873L178.813 37.527ZM183.718 31.077L182.728 33.957L184.663 34.047L183.718 31.077ZM189.222 40.662L190.152 40.407V33.522C190.152 33.302 190.137 33.162 190.107 33.102C190.077 33.032 189.992 32.957 189.852 32.877L189.177 32.517L189.252 31.392C189.302 31.382 189.352 31.372 189.402 31.362C189.452 31.352 189.507 31.342 189.567 31.332C190.037 31.242 190.532 31.157 191.052 31.077C191.582 30.987 192.017 30.932 192.357 30.912C192.447 31.122 192.507 31.362 192.537 31.632C192.847 31.382 193.177 31.192 193.527 31.062C193.887 30.932 194.242 30.867 194.592 30.867C195.592 30.867 196.357 31.222 196.887 31.932C197.427 32.632 197.697 33.632 197.697 34.932C197.697 36.282 197.327 37.317 196.587 38.037C195.847 38.747 194.777 39.102 193.377 39.102C193.227 39.102 192.992 39.092 192.672 39.072V39.897C192.672 40.117 192.687 40.262 192.717 40.332C192.747 40.402 192.832 40.472 192.972 40.542L193.857 41.037L193.797 42.087H189.297L189.222 40.662ZM193.767 37.242C194.237 37.242 194.617 37.177 194.907 37.047C194.987 36.797 195.052 36.497 195.102 36.147C195.162 35.787 195.192 35.452 195.192 35.142C195.192 34.372 195.057 33.777 194.787 33.357C194.527 32.937 194.162 32.727 193.692 32.727C193.402 32.727 193.062 32.812 192.672 32.982V37.062C192.962 37.182 193.327 37.242 193.767 37.242ZM198.304 40.662L199.234 40.407V33.522C199.234 33.302 199.219 33.162 199.189 33.102C199.159 33.032 199.074 32.957 198.934 32.877L198.259 32.517L198.334 31.392C198.384 31.382 198.434 31.372 198.484 31.362C198.534 31.352 198.589 31.342 198.649 31.332C199.119 31.242 199.614 31.157 200.134 31.077C200.664 30.987 201.099 30.932 201.439 30.912C201.529 31.122 201.589 31.362 201.619 31.632C201.929 31.382 202.259 31.192 202.609 31.062C202.969 30.932 203.324 30.867 203.674 30.867C204.674 30.867 205.439 31.222 205.969 31.932C206.509 32.632 206.779 33.632 206.779 34.932C206.779 36.282 206.409 37.317 205.669 38.037C204.929 38.747 203.859 39.102 202.459 39.102C202.309 39.102 202.074 39.092 201.754 39.072V39.897C201.754 40.117 201.769 40.262 201.799 40.332C201.829 40.402 201.914 40.472 202.054 40.542L202.939 41.037L202.879 42.087H198.379L198.304 40.662ZM202.849 37.242C203.319 37.242 203.699 37.177 203.989 37.047C204.069 36.797 204.134 36.497 204.184 36.147C204.244 35.787 204.274 35.452 204.274 35.142C204.274 34.372 204.139 33.777 203.869 33.357C203.609 32.937 203.244 32.727 202.774 32.727C202.484 32.727 202.144 32.812 201.754 32.982V37.062C202.044 37.182 202.409 37.242 202.849 37.242Z" fill="#D9D9D9"/>
<path d="M115.238 42.793C121.607 42.793 126.77 37.8837 126.77 31.8275C126.77 25.7712 121.607 20.862 115.238 20.862C108.869 20.862 103.707 25.7712 103.707 31.8275C103.707 37.8837 108.869 42.793 115.238 42.793Z" stroke="white" stroke-width="2" stroke-linejoin="round"/>
<path d="M115.238 42.793C121.607 42.793 126.77 37.8837 126.77 31.8275C126.77 25.7712 121.607 20.862 115.238 20.862C108.869 20.862 103.707 25.7712 103.707 31.8275C103.707 37.8837 108.869 42.793 115.238 42.793Z" stroke="url(#paint1_linear_48_34)" stroke-opacity="0.22" stroke-width="2" stroke-linejoin="round"/>
<path d="M115.238 28.5378C115.697 28.5378 116.137 28.3645 116.462 28.0561C116.786 27.7476 116.968 27.3292 116.968 26.893C116.968 26.4568 116.786 26.0384 116.462 25.7299C116.137 25.4215 115.697 25.2482 115.238 25.2482C114.78 25.2482 114.34 25.4215 114.015 25.7299C113.691 26.0384 113.509 26.4568 113.509 26.893C113.509 27.3292 113.691 27.7476 114.015 28.0561C114.34 28.3645 114.78 28.5378 115.238 28.5378ZM115.238 38.4068C115.697 38.4068 116.137 38.2335 116.462 37.925C116.786 37.6165 116.968 37.1982 116.968 36.7619C116.968 36.3257 116.786 35.9073 116.462 35.5989C116.137 35.2904 115.697 35.1171 115.238 35.1171C114.78 35.1171 114.34 35.2904 114.015 35.5989C113.691 35.9073 113.509 36.3257 113.509 36.7619C113.509 37.1982 113.691 37.6165 114.015 37.925C114.34 38.2335 114.78 38.4068 115.238 38.4068ZM110.049 33.4723C110.508 33.4723 110.948 33.299 111.272 32.9905C111.597 32.6821 111.779 32.2637 111.779 31.8275C111.779 31.3912 111.597 30.9729 111.272 30.6644C110.948 30.3559 110.508 30.1826 110.049 30.1826C109.59 30.1826 109.15 30.3559 108.826 30.6644C108.502 30.9729 108.319 31.3912 108.319 31.8275C108.319 32.2637 108.502 32.6821 108.826 32.9905C109.15 33.299 109.59 33.4723 110.049 33.4723V33.4723ZM120.428 33.4723C120.886 33.4723 121.326 33.299 121.651 32.9905C121.975 32.6821 122.157 32.2637 122.157 31.8275C122.157 31.3912 121.975 30.9729 121.651 30.6644C121.326 30.3559 120.886 30.1826 120.428 30.1826C119.969 30.1826 119.529 30.3559 119.205 30.6644C118.88 30.9729 118.698 31.3912 118.698 31.8275C118.698 32.2637 118.88 32.6821 119.205 32.9905C119.529 33.299 119.969 33.4723 120.428 33.4723Z" stroke="white" stroke-width="2" stroke-linejoin="round"/>
<path d="M115.238 28.5378C115.697 28.5378 116.137 28.3645 116.462 28.0561C116.786 27.7476 116.968 27.3292 116.968 26.893C116.968 26.4568 116.786 26.0384 116.462 25.7299C116.137 25.4215 115.697 25.2482 115.238 25.2482C114.78 25.2482 114.34 25.4215 114.015 25.7299C113.691 26.0384 113.509 26.4568 113.509 26.893C113.509 27.3292 113.691 27.7476 114.015 28.0561C114.34 28.3645 114.78 28.5378 115.238 28.5378ZM115.238 38.4068C115.697 38.4068 116.137 38.2335 116.462 37.925C116.786 37.6165 116.968 37.1982 116.968 36.7619C116.968 36.3257 116.786 35.9073 116.462 35.5989C116.137 35.2904 115.697 35.1171 115.238 35.1171C114.78 35.1171 114.34 35.2904 114.015 35.5989C113.691 35.9073 113.509 36.3257 113.509 36.7619C113.509 37.1982 113.691 37.6165 114.015 37.925C114.34 38.2335 114.78 38.4068 115.238 38.4068ZM110.049 33.4723C110.508 33.4723 110.948 33.299 111.272 32.9905C111.597 32.6821 111.779 32.2637 111.779 31.8275C111.779 31.3912 111.597 30.9729 111.272 30.6644C110.948 30.3559 110.508 30.1826 110.049 30.1826C109.59 30.1826 109.15 30.3559 108.826 30.6644C108.502 30.9729 108.319 31.3912 108.319 31.8275C108.319 32.2637 108.502 32.6821 108.826 32.9905C109.15 33.299 109.59 33.4723 110.049 33.4723V33.4723ZM120.428 33.4723C120.886 33.4723 121.326 33.299 121.651 32.9905C121.975 32.6821 122.157 32.2637 122.157 31.8275C122.157 31.3912 121.975 30.9729 121.651 30.6644C121.326 30.3559 120.886 30.1826 120.428 30.1826C119.969 30.1826 119.529 30.3559 119.205 30.6644C118.88 30.9729 118.698 31.3912 118.698 31.8275C118.698 32.2637 118.88 32.6821 119.205 32.9905C119.529 33.299 119.969 33.4723 120.428 33.4723Z" stroke="url(#paint2_linear_48_34)" stroke-opacity="0.22" stroke-width="2" stroke-linejoin="round"/>
<path d="M115.238 42.793H126.77" stroke="white" stroke-width="2" stroke-linecap="round"/>
<path d="M115.238 42.793H126.77" stroke="url(#paint3_linear_48_34)" stroke-opacity="0.22" stroke-width="2" stroke-linecap="round"/>
<g filter="url(#filter0_i_48_34)">
<rect x="33.0493" y="12.043" width="242.802" height="94.25" rx="11" stroke="white" stroke-width="2" stroke-dasharray="4 4"/>
</g>
<defs>
<filter id="filter0_i_48_34" x="32.0493" y="11.043" width="244.802" height="100.25" filterUnits="userSpaceOnUse" color-interpolation-filters="sRGB">
<feFlood flood-opacity="0" result="BackgroundImageFix"/>
<feBlend mode="normal" in="SourceGraphic" in2="BackgroundImageFix" result="shape"/>
<feColorMatrix in="SourceAlpha" type="matrix" values="0 0 0 0 0 0 0 0 0 0 0 0 0 0 0 0 0 0 127 0" result="hardAlpha"/>
<feOffset dy="4"/>
<feGaussianBlur stdDeviation="2"/>
<feComposite in2="hardAlpha" operator="arithmetic" k2="-1" k3="1"/>
<feColorMatrix type="matrix" values="0 0 0 0 0 0 0 0 0 0 0 0 0 0 0 0 0 0 0.25 0"/>
<feBlend mode="normal" in2="shape" result="effect1_innerShadow_48_34"/>
</filter>
<linearGradient id="paint0_linear_48_34" x1="186.471" y1="0.792969" x2="186.471" y2="123.793" gradientUnits="userSpaceOnUse">
<stop/>
<stop offset="1" stop-opacity="0"/>
</linearGradient>
<linearGradient id="paint1_linear_48_34" x1="115.238" y1="20.862" x2="115.238" y2="42.793" gradientUnits="userSpaceOnUse">
<stop stop-color="#034D64"/>
<stop offset="1" stop-color="#0085AF" stop-opacity="0"/>
</linearGradient>
<linearGradient id="paint2_linear_48_34" x1="115.238" y1="25.2482" x2="115.238" y2="38.4068" gradientUnits="userSpaceOnUse">
<stop stop-color="#034D64"/>
<stop offset="1" stop-color="#0085AF" stop-opacity="0"/>
</linearGradient>
<linearGradient id="paint3_linear_48_34" x1="121.004" y1="42.793" x2="121.004" y2="43.793" gradientUnits="userSpaceOnUse">
<stop stop-color="#034D64"/>
<stop offset="1" stop-color="#0085AF" stop-opacity="0"/>
</linearGradient>
</defs>
</svg>
