<svg width="36" height="11" viewBox="0 0 36 11" fill="none" xmlns="http://www.w3.org/2000/svg">
<path fill-rule="evenodd" clip-rule="evenodd" d="M9.42033 10.3166H6.45188L4.22591 2.48155C4.12025 2.12114 3.89592 1.80251 3.56593 1.65234C2.74241 1.27495 1.83494 0.974603 0.844971 0.823125V0.521474H5.62691C6.28689 0.521474 6.78187 0.974603 6.86437 1.50086L8.01933 7.15257L10.9863 0.521474H13.8723L9.42033 10.3166ZM15.5222 10.3166H12.7188L15.0273 0.521474H17.8307L15.5222 10.3166ZM21.4577 3.23487C21.5402 2.70731 22.0352 2.40566 22.6126 2.40566C23.5201 2.32992 24.5086 2.4814 25.3336 2.85748L25.8286 0.748539C25.0036 0.446888 24.0961 0.29541 23.2726 0.29541C20.5517 0.29541 18.5717 1.65219 18.5717 3.53522C18.5717 4.96773 19.9742 5.7199 20.9641 6.17303C22.0352 6.62485 22.4477 6.9265 22.3652 7.37833C22.3652 8.05606 21.5402 8.35771 20.7167 8.35771C19.7267 8.35771 18.7367 8.1318 17.8307 7.75441L17.3357 9.86466C18.3257 10.2407 19.3967 10.3922 20.3867 10.3922C23.4376 10.4667 25.3336 9.11119 25.3336 7.07667C25.3336 4.5146 21.4577 4.36443 21.4577 3.23487ZM35.145 10.3166L32.919 0.521474H30.528C30.033 0.521474 29.5381 0.823125 29.3731 1.27495L25.2511 10.3166H28.1371L28.7131 8.88543H32.259L32.589 10.3166H35.145ZM30.9405 3.15917L31.764 6.85079H29.4556L30.9405 3.15917Z" fill="#172B85"/>
</svg>
